<svg width="256" height="309" viewBox="0 0 256 309" fill="none" xmlns="http://www.w3.org/2000/svg">
<path d="M250.1 297.5C250.1 303.4 222.7 308.2 188.8 308.2C155 308.2 127.5 303.4 127.5 297.5C127.5 291.6 155 286.8 188.8 286.8C222.7 286.8 250.1 291.6 250.1 297.5Z" fill="black"/>
<path d="M242.3 26.5H127.2C120 26.5 114.2 20.6 114.2 13.4C114.2 6.19999 120 0.399994 127.2 0.399994H242.3C249.5 0.399994 255.3 6.19999 255.3 13.4C255.3 20.6 249.5 26.5 242.3 26.5Z" fill="#5DB3C1"/>
<path d="M137.4 13.4C137.4 19 132.9 23.5 127.4 23.5C121.8 23.5 117.3 19 117.3 13.4C117.3 7.79999 121.8 3.3 127.4 3.3C132.9 3.3 137.4 7.79999 137.4 13.4Z" fill="#FFBD5C"/>
<path fill-rule="evenodd" clip-rule="evenodd" d="M129.1 14.2C129.4 14.1 129.6 14 129.8 14C130.2 13.8667 130.567 13.9 130.9 14.1C132.233 14.9667 133.6 15.8 135 16.6C135.1 16.7 135.1 16.8 135.2 17C134.8 17.9 134.3 18.8 133.6 19.5C132.6 19.1 129.6 17.2 128.6 16.3C128.6 16.1 128.5 15.8 128.5 15.4C128.1 15.8 127.8 16.1 127.4 16.4C126 17.7 124.4 18.2 122.6 17.5C121.1 17 120.2 15.9 119.8 14.5C119.3 12.6 119.6 10.9 120.7 9.3C121.9 7.7 123.9 7 125.7 7.5C127.5 8 128.9 9.70001 129.1 11.6C129.1 12.4 129.1 13.2 129.1 14.2ZM120.7 12.8C120.7 13.8 121.1 14.8 121.7 15.5C122.6 16.6 124.1 16.9 125.4 16.4C128.1 15.3 128.9 11.4 126.8 9.39999C125.9 8.59999 124.8 8.3 123.6 8.7C121.8 9.2 120.7 11.2 120.7 12.8ZM133.2 18C133.4 17.7 133.5 17.5 133.6 17.3C132 16.1 130.5 15.2 130.2 15.3C130.133 15.4333 130.033 15.6333 129.9 15.9C131 16.6 132 17.3 133.2 18Z" fill="#3C3372"/>
<path d="M120.7 12.8C120.7 11.2 121.8 9.2 123.6 8.7C124.8 8.3 125.9 8.59999 126.8 9.39999C128.9 11.4 128.1 15.3 125.4 16.4C124.1 16.9 122.6 16.6 121.7 15.5C121.1 14.8 120.7 13.8 120.7 12.8Z" fill="white"/>
<path d="M133.2 18C132 17.3 131 16.6 129.9 15.9C130.033 15.6333 130.133 15.4333 130.2 15.3C130.5 15.2 132 16.1 133.6 17.3C133.5 17.5 133.4 17.7 133.2 18Z" fill="white"/>
<path d="M162.5 99.5H131C121.7 99.5 114.2 92 114.2 82.7V51.2C114.2 41.9 121.7 34.4 131 34.4H162.5C171.8 34.4 179.3 41.9 179.3 51.2V82.7C179.3 92 171.8 99.5 162.5 99.5Z" fill="#FFBD5C"/>
<path d="M238.5 99.5H207C197.7 99.5 190.2 92 190.2 82.7V51.2C190.2 41.9 197.7 34.4 207 34.4H238.5C247.8 34.4 255.3 41.9 255.3 51.2V82.7C255.3 92 247.8 99.5 238.5 99.5Z" fill="#5DB3C1"/>
<path d="M162.5 172.4H131C121.7 172.4 114.2 164.9 114.2 155.6V124.1C114.2 114.8 121.7 107.3 131 107.3H162.5C171.8 107.3 179.3 114.8 179.3 124.1V155.6C179.3 164.9 171.8 172.4 162.5 172.4Z" fill="#5DB3C1"/>
<path d="M238.5 172.4H207C197.7 172.4 190.2 164.9 190.2 155.6V124.1C190.2 114.8 197.7 107.3 207 107.3H238.5C247.8 107.3 255.3 114.8 255.3 124.1V155.6C255.3 164.9 247.8 172.4 238.5 172.4Z" fill="#5DB3C1"/>
<path d="M129.5 73.5C128.9 73.5 128.333 73.4667 127.8 73.4C124.4 72.8 122.1 70.8 120.9 67.5C119.7 64.3 120.4 61.1 122.7 58.3C124.5 56.1 127 54.9 129.9 54.9H130.1C133.3 54.9 136.2 56.5 137.8 59.2C139.5 62 139.7 65.3 138.2 68.3C136.6 71.5 133.3 73.5 129.5 73.5Z" fill="white"/>
<path d="M128 76.7C128 76.7 129.5 80.1 132.3 81.8C132.3 81.8 132.3 81.8333 132.3 81.9C132.367 81.9 132.433 81.9333 132.5 82C134.5 83.1 137.2 83.4 140.4 81C148.4 75.2 141.8 66.5 141.8 66.5L128 76.7Z" fill="white"/>
<path d="M162.2 50.5C157.1 52.7 148.4 60.7 148.4 60.7C149.8 63.6 154.9 69.4 161.5 64.3C168 59.2 162.2 50.5 162.2 50.5Z" fill="white"/>
<path fill-rule="evenodd" clip-rule="evenodd" d="M143.9 66.1C145.6 64.1 145.6 64.1 147.7 63.2C147.8 62.3 146.8 61.6 147.2 60.6C148.7 58.7 160.4 50 163.3 48.5C164.4 48.9 164.4 48.9 165.4 49.8C165.9 49.7 166.5 49.6 166.9 49.5C167.8 50.4 166.7 50.9 166.5 51.6C166.6 51.9 166.7 52.2 166.8 52.5C167.6 54.9 167.5 57.2 166.5 59.5C164.8 63.6 161.8 66.2 157.4 67.1C154.9 67.6 152.4 67.2 150.2 65.7C149.9 65.4 149.5 65.1 149.1 64.8C148.7 64.8 148.4 64.8 148.1 64.8C146.1 65.1 144.9 66.8 145.3 68.7C145.4 69.2 145.6 69.6 145.6 70.1C146.2 72.9 145.6 75.5 144 77.9C142.3 80.8 139.7 82.6 136.5 83.4C133.4 84.1 130.6 83.6 128.1 81.5C127.9 81.3667 127.667 81.2 127.4 81C127.4 81 127.333 80.9667 127.2 80.9C126.867 81.1 126.5 81.3 126.1 81.5C125.833 81.3667 125.533 81.2333 125.2 81.1C125.2 80.8 125.2 80.6 125.2 80.5C125.5 80 125.9 79.7 126.2 79.3C125.933 78.5667 125.733 77.9 125.6 77.3C126.1 76 127.5 75.5 128.3 74.5C128.3 74.2 128 74.2 127.8 74.2C127.6 74.1 127.3 74 127.1 74C123.8 73.8 120 69.4 119.8 66.3C118.7 61.7 121.9 54.9 129 54.2C134.6 53.6 138.8 57.4 139.7 62C139.9 63 140.1 64 139.9 65.1C139.9 65.3 139.9 65.5 139.9 65.9C140.6 65.6 141.2 65.3 141.7 65C142.7 64.8 143.1 65.6 143.9 66.1ZM129.9 55.6C127.2 55.7 125 56.7 123.2 58.8C121.1 61.3 120.5 64.2 121.6 67.3C122.6 70.2 124.7 72.1 127.9 72.6C131.8 73.3 135.8 71.6 137.5 68C140.5 61.9 136.1 55.6 129.9 55.6ZM158.6 53.7C157.6 54 157.2 54.5 156.6 54.9C156 55.3 155.4 55.8 154.9 56.2C154.8 57.4 154.7 63.7 154.8 65C154.9 65.2 154.9 65.4 155 65.7C156.3 65.9 157.5 65.7 158.7 65.1C158.7 61.3 158.6 57.6 158.6 53.7ZM135.9 72.4C134.8 72.9 133.7 73.5 132.6 74C132.3 75.2 132.1 80.3 132.3 81.9C133.4 82.4 134.6 82.4 135.8 81.9C135.8 81.7 135.9 81.5 135.9 81.4C135.967 78.5333 136.033 75.6667 136.1 72.8C136.1 72.7 136 72.6 135.9 72.4ZM162.1 63.2C162.1 62.6 162.1 62.1 162.1 61.7C161.967 59.4333 161.833 57.1667 161.7 54.9C161.633 53.9 161.533 52.9333 161.4 52C161.4 51.9 161.2 51.8 161.1 51.7C160.767 51.9667 160.433 52.2333 160.1 52.5C160 56.4 160.1 60.3 160.3 64.2C161.1 64.1 161.6 63.7 162.1 63.2ZM139.3 80.5C139.4 78.9 139.2 71.3 139 69.4C139 69.3 138.9 69.2 138.8 69.1C138.2 69.6 137.9 70.2 137.6 70.7C137.6 74.1 137.5 77.4 137.4 80.7C137.4 80.9 137.5 81.1 137.6 81.4C138.3 81.3 138.8 80.9 139.3 80.5Z" fill="#3C3372"/>
<path d="M125.5 63.3C126.8 63.6 127.4 64.7 128.6 65.2C128.8 65 129.1 64.8 129.3 64.6C130.567 63.2 131.833 61.7666 133.1 60.3C133.4 60 133.7 59.6 134 59.4C134.5 59.2 134.9 59.3 135 59.8C135 59.9 135.1 60 135 60.1C134.9 60.3 134.8 60.6 134.7 60.7C133.033 62.6333 131.333 64.5333 129.6 66.4C129.4 66.7 129.1 66.8 128.8 67C128.6 67 128.4 67 128.3 66.9C127.233 66.1666 126.2 65.4 125.2 64.6C124.9 64.3 125 64 125.5 63.3Z" fill="#4F9BA3"/>
<path d="M229.8 85.7C227.6 85.5 225.5 85.2 223.5 84.8C223.2 83.7 223.1 82.3 223.3 81.2C224 77.4 224.9 73.7 225.4 69.9C225.8 66.6 226.7 63.5 227 60.3C227.1 59.5 227.4 58.7 227.6 57.9C227.8 57.2 227.9 56.5 227.7 55.9C227.1 55.5 226.7 55.6 226.3 56.1C225.367 57.3 224.433 58.4667 223.5 59.6C221.7 61.9333 219.9 64.2333 218.1 66.5C215.8 69.5 213.4 72.5 211 75.5C210.3 76.3 209.8 77.4 208.9 78C207.5 77.5 205.5 76.3 203.8 74.9C203.9 74.6 203.9 74.3 204.1 74C205.9 71 207.7 68 209.5 65C211.3 62 213.1 58.9 214.9 55.9C216.2 53.6 217.6 51.4 219 49.1C220.2 47.2 221.3 45.3 222.4 43.5C223.1 43.3 223.6 43.6 224.1 43.8C226.633 44.9333 229.133 46.0667 231.6 47.2C234.133 48.3334 236.667 49.4667 239.2 50.6C239.3 50.6 239.5 50.8 239.7 50.9C239.4 52 239.2 53.1 238.9 54.1C238.167 56.6333 237.433 59.2 236.7 61.8C236.233 63.4 235.767 65 235.3 66.6C234.7 68.8 234 71 233.4 73.1C232.4 76.5 231.5 80 230.6 83.4C230.4 84.1 230.1 84.8 229.8 85.7Z" fill="#BAEDB2"/>
<path d="M208.7 79.9C208.5 80.8 207.8 81.2 207.2 81.8C204.9 80.5 202.7 78.9 200.3 77.4C200.4 77.1 200.5 76.9 200.6 76.7C200.9 76.2 201.3 75.9 201.6 75.5C203 76 207.6 78.9 208.7 79.9Z" fill="white"/>
<path d="M221.9 88.1C221.8 87.4 221.8 86.8 222.1 86.2C222.3 86.1 222.4 86.1 222.6 86.1C223.6 86.1 229.6 87.1 230.5 87.3C230.8 88 230.5 88.5 230.1 89.1C229.1 89.3 228.1 88.9 227 88.8C225.9 88.8 224.8 88.6 223.7 88.5C223.3 88.5 222.9 88.4667 222.5 88.4C222.3 88.3 222.1 88.2 221.9 88.1Z" fill="white"/>
<path d="M207.2 147.2C207.1 147 207 146.8 207 146.6C206.3 140.3 205.6 134.1 204.9 127.8C205.3 127.7 205.6 127.5 206 127.5C207.667 127.3 209.367 127.1 211.1 126.9C215.3 126.5 219.4 126.1 223.5 125.7C227.5 125.3 231.4 124.9 235.4 124.5C236.1 124.4 236.7 124.4 237.4 124.5C237.9 126.6 238 128.8 238.3 130.9C238.6 133 238.8 135.2 239.1 137.3C239.4 139.4 239.7 141.5 239.8 143.6C239.7 143.7 239.6 143.8 239.6 143.8C239.5 143.9 239.4 143.9 239.3 143.9C228.767 145.033 218.233 146.167 207.7 147.3C207.6 147.3 207.4 147.2 207.2 147.2Z" fill="white"/>
<path fill-rule="evenodd" clip-rule="evenodd" d="M207.5 83.6C204.6 81.8 201.9 80 199.2 78.3C199 78.1 198.9 77.9 198.7 77.7C199.1 76.2 200.2 75.2 200.9 74C201.5 74 202 74 202.6 74C203.8 72 205 69.9 206.2 67.9C207.667 65.5 209.133 63.0667 210.6 60.6C212.4 57.6 214.2 54.6 216 51.6C217 50 217.967 48.3667 218.9 46.7C219.633 45.5 220.367 44.3 221.1 43.1C221.7 42 222.3 41.7 223.5 42.2C224.9 42.8 226.3 43.4 227.6 44C229.133 44.6667 230.633 45.3333 232.1 46C233.3 46.5333 234.5 47.0667 235.7 47.6C237.433 48.4 239.133 49.1667 240.8 49.9C241.3 50.3 241.1 50.9 241 51.4C240.5 52.9 240.1 54.5 239.6 56.1C239 58.2333 238.4 60.4 237.8 62.6C237.4 64.1333 236.967 65.6333 236.5 67.1C235.9 69.3 235.2 71.4 234.6 73.6C234 75.6 233.5 77.6 232.9 79.7C232.4 81.6 231.8 83.5 231.2 85.6C231.467 85.8667 231.733 86.1333 232 86.4C231.9 88.4 231.8 89.2 231 90.5C230.7 90.5 230.2 90.6 229.9 90.5C227.033 90.1667 224.2 89.8333 221.4 89.5C221.2 89.5 221 89.4 220.9 89.4C220.3 88.3 220.3 87.8 220.8 85.2C221.1 85 221.5 84.8 221.8 84.6C221.8 84.5 221.9 84.4 221.9 84.3C222 81.7 222.3 79.2 222.8 76.7C223.4 73.7 224.1 70.6 224.5 67.6C224.8 65.5 225.2 63.4 225.7 61.3C225.8 60.6 225.8 59.9 225.9 59.2C225.6 59.2 225.5 59.2 225.4 59.3C220.333 65.7667 215.233 72.2333 210.1 78.7C210.2 79 210.3 79.4 210.5 79.7C209.8 81.1 208.7 82.3 207.5 83.6ZM229.8 85.7C230.1 84.8 230.4 84.1 230.6 83.4C231.5 80 232.4 76.5 233.4 73.1C234 71 234.7 68.8 235.3 66.6C235.767 65 236.233 63.4 236.7 61.8C237.433 59.2 238.167 56.6333 238.9 54.1C239.2 53.1 239.4 52 239.7 50.9C239.5 50.8 239.3 50.6 239.2 50.6C236.667 49.4667 234.133 48.3334 231.6 47.2C229.133 46.0667 226.633 44.9333 224.1 43.8C223.6 43.6 223.1 43.3 222.4 43.5C221.3 45.3 220.2 47.2 219 49.1C217.6 51.4 216.2 53.6 214.9 55.9C213.1 58.9 211.3 62 209.5 65C207.7 68 205.9 71 204.1 74C203.9 74.3 203.9 74.6 203.8 74.9C205.5 76.3 207.5 77.5 208.9 78C209.8 77.4 210.3 76.3 211 75.5C213.4 72.5 215.8 69.5 218.1 66.5C219.9 64.2333 221.7 61.9333 223.5 59.6C224.433 58.4667 225.367 57.3 226.3 56.1C226.7 55.6 227.1 55.5 227.7 55.9C227.9 56.5 227.8 57.2 227.6 57.9C227.4 58.7 227.1 59.5 227 60.3C226.7 63.5 225.8 66.6 225.4 69.9C224.9 73.7 224 77.4 223.3 81.2C223.1 82.3 223.2 83.7 223.5 84.8C225.5 85.2 227.6 85.5 229.8 85.7ZM208.7 79.9C207.6 78.9 203 76 201.6 75.5C201.3 75.9 200.9 76.2 200.6 76.7C200.5 76.9 200.4 77.1 200.3 77.4C202.7 78.9 204.9 80.5 207.2 81.8C207.8 81.2 208.5 80.8 208.7 79.9ZM221.9 88.1C222.1 88.2 222.3 88.3 222.5 88.4C222.9 88.4667 223.3 88.5 223.7 88.5C224.8 88.6 225.9 88.8 227 88.8C228.1 88.9 229.1 89.3 230.1 89.1C230.5 88.5 230.8 88 230.5 87.3C229.6 87.1 223.6 86.1 222.6 86.1C222.4 86.1 222.3 86.1 222.1 86.2C221.8 86.8 221.8 87.4 221.9 88.1Z" fill="#3C3372"/>
<path fill-rule="evenodd" clip-rule="evenodd" d="M223.8 147.1C223.9 148.4 223.8 149.4 224.2 150.5C224.5 150.5 224.8 150.6 225.2 150.5C227.4 150.233 229.567 149.967 231.7 149.7C232.1 149.6 232.5 149.7 233 149.7C233.133 150.033 233.233 150.333 233.3 150.6C232.7 151.1 232 151.2 231.4 151.3C226.8 151.833 222.2 152.4 217.6 153C216.7 153.1 215.9 153.3 215 153C214.6 152.6 214.7 152.3 215.1 151.9C217.4 151.4 219.9 151.3 222.4 150.8C222.6 149.6 222.4 148.6 222.1 147.4C219.5 147.4 216.9 147.9 214.3 148.1C211.7 148.4 209.1 148.7 206.7 148.9C205.8 148.5 205.6 147.8 205.5 147.1C205.233 144.767 205 142.467 204.8 140.2C204.467 137.4 204.133 134.633 203.8 131.9C203.7 130.6 203.5 129.3 203.4 128C203.3 126.7 203.6 126.3 205 126.1C206.8 125.9 208.6 125.7 210.4 125.5C213.2 125.233 216.033 124.967 218.9 124.7C222.033 124.367 225.167 124.067 228.3 123.8C230.967 123.533 233.667 123.267 236.4 123C236.667 122.933 236.9 122.9 237.1 122.9C238.2 122.8 238.8 123.2 238.9 124.3C239.1 125.633 239.3 127 239.5 128.4C239.9 131.6 240.3 134.833 240.7 138.1C240.833 139.5 241 140.933 241.2 142.4C241.267 143.067 241.333 143.7 241.4 144.3C241.4 144.5 241.3 144.7 241.3 144.8C241 145.2 240.5 145.3 240 145.4C236.467 145.733 232.9 146.1 229.3 146.5C227.5 146.7 225.7 146.9 223.8 147.1ZM207.2 147.2C207.4 147.2 207.6 147.3 207.7 147.3C218.233 146.167 228.767 145.033 239.3 143.9C239.4 143.9 239.5 143.9 239.6 143.8C239.6 143.8 239.7 143.7 239.8 143.6C239.7 141.5 239.4 139.4 239.1 137.3C238.8 135.2 238.6 133 238.3 130.9C238 128.8 237.9 126.6 237.4 124.5C236.7 124.4 236.1 124.4 235.4 124.5C231.4 124.9 227.5 125.3 223.5 125.7C219.4 126.1 215.3 126.5 211.1 126.9C209.367 127.1 207.667 127.3 206 127.5C205.6 127.5 205.3 127.7 204.9 127.8C205.6 134.1 206.3 140.3 207 146.6C207 146.8 207.1 147 207.2 147.2Z" fill="#3C3372"/>
<path d="M230.2 49.9C230.1 50.7 229.7 50.9 229.4 50.7C228.6 50.4 227.9 50.1 227.1 49.7C227.2 49.3 227.2 49 227.2 48.7C228.5 48.7 229.2 49.5 230.2 49.9Z" fill="#3C3372"/>
<path d="M222.8 46C223.9 46.3 224.6 46.9 225.3 47.5C225.1 47.7667 224.933 48.0333 224.8 48.3C223.8 48.2 223.3 47.5 222.5 47C222.6 46.7 222.7 46.4 222.8 46Z" fill="#3C3372"/>
<path d="M233.9 52C233.8 52.1 233.7 52.3 233.7 52.4C233.6 52.5 233.5 52.6 233.3 52.6C232.5 52.6 231.9 52 231.1 51.6C231.2 51.3 231.2 51.1 231.3 50.9C232.5 50.6 233.2 51.3 233.9 52Z" fill="#3C3372"/>
<path d="M235.2 53.2C235.6 52.5 235.9 52.4 236.4 52.8C236.9 53 236.9 53.2 236.6 53.9C236 54.1 235.5 53.9 235.2 53.2Z" fill="#3C3372"/>
<path d="M163.6 138.4C163.533 137.267 163.433 136.133 163.3 135C163.2 133.4 162.5 132.1 161.5 130.9C159.8 128.9 157.8 127.3 155.4 126.5C151.2 125.1 147.1 125.1 143.2 127.1C142.2 127.567 141.267 128.067 140.4 128.6C137.3 130.8 134.6 133.4 132.9 136.9C131.6 139.6 130.9 142.5 130.5 145.4C130.4 145.6 130.5 145.8 130.6 146C130.8 146 131.1 146 131.3 145.9C135.5 145.1 139.8 144.6 144.1 144.7C146.3 144.767 148.5 144.867 150.7 145C152.233 145.067 153.733 145.133 155.2 145.2C155.4 145.2 155.7 145.2 155.7 144.8C155.7 144.8 155.667 144.8 155.6 144.8C155.9 144.4 156 143.7 156 143.3C157.6 143.367 159.2 143.267 160.8 143C162 142.8 162.8 142.1 163.2 141C163.5 140.2 163.7 139.3 163.6 138.4Z" fill="#FFBD5C"/>
<path d="M128.5 153.3C127.6 151.9 127.6 150.5 128 149.1C128.2 148.3 128.8 147.9 129.5 147.8C131.3 147.4 133 147 134.8 146.8C137.1 146.5 139.3 146.3 141.6 146.1C142.7 146 143.8 146.1 144.9 146.1C147 146.2 149.2 146.3 151.3 146.4C153.9 146.6 156.4 146.8 159 147C159.8 147.1 160.7 147.3 161.4 148C161.7 149.1 161.5 150.1 161.2 151.2C160.9 152 160.3 152.5 159.5 152.9C158.1 153.5 156.5 153.9 155 154.1C152 154.4 149 154.7 146 154.9C144.5 155.1 143.1 155.1 141.6 155.2C139.2 155.3 136.7 155 134.3 154.8C132.3 154.5 130.3 154.2 128.5 153.3Z" fill="#DB9A4B"/>
<path fill-rule="evenodd" clip-rule="evenodd" d="M157.5 145.3C158.3 145.4 158.9 145.5 159.4 145.6C160.2 145.8 160.9 146 161.6 146.2C162.4 146.6 162.9 147.2 162.9 148.1C162.9 149.2 162.9 150.2 162.7 151.2C162.5 152.5 161.7 153.5 160.5 154C159.6 154.5 158.6 154.8 157.6 155.1C155.9 155.5 154.2 155.8 152.4 155.9C151.2 155.9 150 156.1 148.8 156.2C143.8 156.7 138.8 156.8 133.8 156.2C132.1 156 130.5 155.5 128.9 155.1C127.6 154.8 126.8 153.9 126.5 152.6C126.167 151.2 126.2 149.8 126.6 148.4C126.8 147.8 127.167 147.3 127.7 146.9C128.1 146.7 128.467 146.5 128.8 146.3C129 145.233 129.2 144.133 129.4 143C129.7 141.3 130.2 139.6 130.8 138C133.3 131.8 137.9 127.6 144 125.1C147.3 123.7 150.7 123.8 154.2 124.6C157.7 125.4 160.4 127.3 162.7 130C163.8 131.2 164.4 132.6 164.7 134.2C165 136 165.1 137.8 165 139.6C165 140.6 164.7 141.5 164.2 142.4C163.7 143.4 162.9 144 161.8 144.3C161 144.5 160.1 144.5 159.2 144.7C158.7 144.8 158.2 144.6 157.5 145.3ZM130.6 146C130.8 146 131.1 146 131.3 145.9C135.5 145.1 139.8 144.6 144.1 144.7C146.3 144.767 148.5 144.867 150.7 145C152.233 145.067 153.733 145.133 155.2 145.2C155.4 145.2 155.7 145.2 155.7 144.8C155.433 144.733 155.167 144.7 154.9 144.7C154.167 144.567 153.433 144.433 152.7 144.3C152.433 144.233 152.2 144.133 152 144C151.8 143.9 151.6 143.6 151.7 143.3C151.8 143 152.1 142.8 152.3 142.8C153.1 142.8 153.8 143 154.6 143.1C156.6 143.4 158.7 143.4 160.8 143C162 142.8 162.8 142.1 163.2 141C163.5 140.2 163.7 139.3 163.6 138.4C163.533 137.267 163.433 136.133 163.3 135C163.2 133.4 162.5 132.1 161.5 130.9C159.8 128.9 157.8 127.3 155.4 126.5C151.2 125.1 147.1 125.1 143.2 127.1C142.2 127.567 141.267 128.067 140.4 128.6C137.3 130.8 134.6 133.4 132.9 136.9C131.6 139.6 130.9 142.5 130.5 145.4C130.4 145.6 130.5 145.7 130.6 146ZM128.5 153.3C130.3 154.2 132.3 154.5 134.3 154.8C136.7 155 139.2 155.3 141.6 155.2C143.1 155.1 144.5 155.1 146 154.9C149 154.7 152 154.4 155 154.1C156.5 153.9 158.1 153.5 159.5 152.9C160.3 152.5 160.9 152 161.2 151.2C161.5 150.1 161.7 149.1 161.4 148C160.7 147.3 159.8 147.1 159 147C156.4 146.8 153.9 146.6 151.3 146.4C149.2 146.3 147 146.2 144.9 146.1C143.8 146.1 142.7 146 141.6 146.1C139.3 146.3 137.1 146.5 134.8 146.8C133 147 131.3 147.4 129.5 147.8C128.8 147.9 128.2 148.3 128 149.1C127.6 150.5 127.6 151.9 128.5 153.3Z" fill="#3C3372"/>
<path d="M134.4 138.1C134.1 138 134 137.7 134.1 137.4C134.3 136.6 134.7 136 135.3 135.5C135.4 135.3 135.8 135.3 136 135.4C136.3 135.5 136.4 135.8 136.3 136.1C136.1 136.8 135.8 137.4 135.3 138C135.1 138.3 134.7 138.3 134.4 138.1Z" fill="#3C3372"/>
<path d="M133.8 140.1C133.9 140.2 134.2 140.4 134.2 140.6C134.4 141.1 134 141.5 133.6 141.4C133.3 141.4 133 141 133 140.7C133 140.4 133.3 140.1 133.8 140.1Z" fill="#3C3372"/>
<path d="M125.1 297.5C125.1 303.4 97.7 308.2 63.8 308.2C29.9 308.2 2.50003 303.4 2.50003 297.5C2.50003 291.6 29.9 286.8 63.8 286.8C97.7 286.8 125.1 291.6 125.1 297.5Z" fill="black"/>
<path d="M37.3 294.3C35.1 294.4 33 294.3 31 294.3C24.8 294.1 18.7 294.2 12.6 293.8C12.5 293.7 12.4 293.7 12.4 293.6C12.4 293.533 12.4 293.5 12.4 293.5C13 289.967 13.5667 286.467 14.1 283C14.2 282.9 14.3 282.8 14.4 282.6C14.9 282.5 15.6 282.4 16.2 282.4C19.4667 282.267 22.7334 282.2 26 282.2C26.7 282.2 27.5 282.3 28.2 282.5C30.3 283.1 32.2 284.1 33.9 285.4C35 286.3 35.9 287.3 36.6 288.6C37.6 290.3 37.9 292.1 37.3 294.3Z" fill="#4F9BA3"/>
<path d="M84.1 293.9C83.8 290.8 83.9 287.9 83.7 284.9C83.9 284.8 84.1 284.7 84.4 284.7C88.4 284.8 92.2 284.1 96 282.7C100.3 283.4 104.3 284.9 107.7 287.6C108.9 288.6 109.9 289.7 110.7 291C111.2 291.8 111.7 292.6 111.6 293.7C111.2 293.7 110.7 293.8 110.3 293.8C106.7 293.8 103.067 293.8 99.4 293.8C94.9334 293.867 90.4667 293.9 86 293.9C85.4 293.9 84.9 293.9 84.1 293.9Z" fill="#4F9BA3"/>
<path d="M117.1 72C116.9 72.3 117 72.7 117.3 72.9C117.6 73.1 118 73.2 118.3 73.4C119.4 74.1 120.6 74.9 121.8 75.7C122.3 76.1 122.9 76.5 123 77.4C122.8 78.2 122.4 78.9 121.8 79.6C120.8 80.6 119.8 81.7 118.8 82.7C118.333 83.1 117.867 83.4667 117.4 83.8C116.2 84.6 115.7 85.7 115.7 87.2C115.7 88.3 115.7 89.4 115.3 90.5C114.2 90.7 109.2 90.7 107.8 90.4C107.867 89.8 107.933 89.2 108 88.6C108.333 86.2 108.667 83.8333 109 81.5C109.2 79.7 109.5 77.9 109.8 76.2C109.9 75 110.5 74 111.4 73.1C111.8 72.7 112.267 72.3 112.8 71.9C115.9 69.3 119.4 67.3 122.9 65.5C123.5 65.2 124.1 65 124.7 64.8C124.9 64.8 125.2 64.8 125.4 64.9C125.2 65.6 124.7 65.9 124.3 66.3C122.5 67.9 120.667 69.5 118.8 71.1C118.3 71.5 117.7 71.7 117.1 72Z" fill="#FFC9B5"/>
<path d="M117.9 94C117.9 93.6667 117.867 93.3333 117.8 93V92.4C117.8 92.2 117.6 91.9 117.3 91.8C116.5 91.5 115.6 91.5 114.9 91.5C114.567 91.5 114.267 91.4667 114 91.4C113 91.3 112.1 91.3 111.2 91.3H110.6C110.6 91.3 109.9 91.3 109.7 91.3C108.9 91.3 108.1 91.4 107.2 91.8C107 91.9 106.8 92 106.8 92.3L106.7 92.6C106.633 92.8 106.6 93 106.6 93.2C106.467 94.1333 106.333 95.0333 106.2 95.9L105.9 98.2C105.833 98.9333 105.733 99.6667 105.6 100.4C105.467 101.533 105.333 102.633 105.2 103.7C104.867 106.167 104.533 108.6 104.2 111C104.2 111.4 104.167 111.767 104.1 112.1C103.9 113.7 103.7 115.3 103.8 116.9C103.8 117.033 103.833 117.133 103.9 117.2C102.167 114.467 100.433 111.767 98.7001 109.1C98.2334 108.367 97.7667 107.567 97.3 106.7L96.6 105.6C96.4 105.4 96.2 105.2 95.9 105.2C95.7667 105.2 95.6667 105.233 95.6 105.3C95.4667 105.367 95.3667 105.433 95.3 105.5C95.1 105.6 95 105.7 94.8 105.8C92.4 108.4 89.7 110.9 86.4 113.5C86.2 113.633 86.0334 113.8 85.9 114C85.8334 114.067 85.7667 114.133 85.7001 114.2C85.5001 114.4 85.4 114.7 85.6 115L85.8 115.3C85.8667 115.567 85.9667 115.8 86.1 116L87.1 117.5C88.5667 120.033 90.0667 122.5 91.6 124.9C93.1 127.3 94.9 129.5 97 131.5C98.9 133.3 100.9 134.5 103.1 135.1C103.767 135.3 104.433 135.4 105.1 135.4C105.9 135.4 106.667 135.233 107.4 134.9C109.733 133.833 111.3 132.267 112.1 130.2C112.4 129.3 112.7 128.3 113 127.5C113.9 124.2 114.7 120.7 115.4 116.5C116.1 111.9 116.8 107.3 117.3 102.8C117.8 99.5 117.9 96.7 117.9 94Z" fill="#5DB3C1"/>
<path d="M25.6 120.7C22.5 115.2 19.2 109.6 15.7 104L16.6 103.4C17.7 102.7 18.8 102 19.8 101.4C20.2667 101.067 20.7667 100.733 21.3 100.4C22.3 99.8 23.3 99.1 24.4 98.3C24.7 98.1 24.8 97.7 24.5 97.4C24.1667 96.8 23.8 96.2333 23.4 95.7C22.6 94.4 21.8 93.3 21.1 92C20.4 90.8 19.7 89.5 18.9 88.2C18.6334 87.6 18.3334 87 18 86.4C17.8 86.1 17.6 86 17.3 86C17.2334 86 17.1334 86.0333 17 86.1C16.9334 86.1 16.8334 86.1333 16.7 86.2C16.5 86.2667 16.3 86.3667 16.1 86.5L13.9 88C11.4 89.6 8.80003 91.2 6.30003 92.9C5.40003 93.5 4.40003 94.4 3.30003 95.4C1.30003 97.3 0.800019 99.7 1.90002 102.1L2.10003 102.4C2.60003 103.6 3.10002 104.8 3.70002 105.9L4.70002 107.7C6.30002 110.5 7.90002 113.4 9.70002 116.2C12 120 14.5 123.8 16.9 127.4C17.7667 128.733 18.6334 130.067 19.5 131.4C19.7 131.667 19.9 131.9 20.1 132.1C20.1667 132.233 20.2334 132.333 20.3 132.4C20.4334 132.533 20.6334 132.6 20.9 132.6C20.9667 132.6 21.0334 132.6 21.1 132.6C23.3 132 27.2 129.4 28.9 127.5C29.1 127.3 29.2 126.9 29 126.7C27.8667 124.7 26.7334 122.7 25.6 120.7Z" fill="#5DB3C1"/>
<path d="M31.2 269.8C25.6 269.8 20.1 269.4 14.7 269.3C14.5 269.3 14.3 269.2 14.2 269.2C14.2 269 14.1 268.9 14.1 268.8C20.6 229.3 27.2 189.8 33.7 150.4C34.1 149.8 34.6 150 35.1 150C38.9667 150.333 42.8334 150.633 46.7 150.9C50 151.2 53.3 151.4 56.7 151.6C60.8 151.8 64.9 152 69 152.1C69.5 152.2 69.9 152.2 70.5 152.3C70.7 152.767 70.9 153.233 71.1 153.7C73.1 159.3 74.7 165 76.1 170.8C78.4334 180 80.7334 189.267 83 198.6C85.2 207.5 87 216.5 88.5 225.5C89.6 231.9 90.6 238.3 91.5 244.7C92.3 250.2 92.8 255.8 93.4 261.3C93.6 262.9 93.7667 264.533 93.9 266.2C94 266.8 94.2 267.4 94 268C93.6 268.5 93.1 268.3 92.6 268.3C89.9 268.4 87.2 268.4 84.4 268.5C82.6 268.5 80.7 268.7 78.8 268.8C78.4 268.8 78 268.8 77.6 268.8C77.5 268.4 77.3 268.1 77.3 267.7C77.2 263.3 76.5 258.8 75.9 254.4C74.8 245.3 73.2 236.2 71.4 227.2C69.9 219.9 68.3 212.7 66.1 205.5C64.9 201.567 63.5667 197.667 62.1 193.8C59.6 186.9 56.9 180 54.2 173.1C53.6 171.7 53 170.2 52.3 168.8C52.1 168.333 51.8334 167.9 51.5 167.5C51.2 167.1 50.8 166.9 50.1 167.2C50 167.5 49.8 167.8 49.8 168.2C49.0667 172.067 48.3334 175.967 47.6 179.9C46.4 186.567 45.2 193.267 44 200C42.8667 206.067 41.7667 212.133 40.7 218.2C39.4334 225 38.1667 231.833 36.9 238.7C35.7 245.433 34.5 252.133 33.3 258.8C32.7 262.133 32.1 265.467 31.5 268.8C31.4 269.1 31.3 269.3 31.2 269.8Z" fill="#5DB3C1"/>
<path d="M96.3 100.9C95.2 99.1 94.1 97.2 93 95.4C89.4 89.7 85.9 83.9 81.8 78.6C79.1334 75.1333 76.2 71.9667 73 69.1C70.8 67.1 68.1 66.1 65.2 65.4C64 65.1 62.7 65 61.4 65.2C59.0667 65.4667 56.7667 66.0333 54.5 66.9C49.2 68.9 44.1 71.3 39.1 73.9C35.9 75.6 32.7 77.5 29.6 79.3C26.2667 81.1666 23 83.0667 19.8 85C19.4 85.3 18.8 85.5 18.6 86.2C21.4 92.1 25 97.6 29.9 102.3C32.4 100.6 34.9 99 37.4 97.3C37.4 97.3 37.4334 97.2667 37.5 97.2C37.6334 97.2667 37.8 97.3 38 97.3C38.1334 97.7 38.3334 98.1 38.6 98.5C38.5334 98.5667 38.5 98.6666 38.5 98.8C37.4334 103.8 36.4 108.867 35.4 114C34.6 118.3 33.8 122.6 33.1 127C32.8 128.3 32.7 129.6 32.5 130.9C32.9 131.5 33.1 132.1 33.5 132.7C35.3 135.7 34.2 139.3 31.9 140.9C31.6 141.1 31.3 141.4 31 141.7C30.8 143.5 30.5 145.3 30.4 147.1C30.4 147.5 30.4 147.8 30.4 148.2C31 148.2 31.6 148.3 32.1 148.4C36.9 148.733 41.7 149.067 46.5 149.4C49.7 149.6 52.9 149.833 56.1 150.1C58.6 150.2 61.1 150.4 63.6 150.5C67 150.633 70.4 150.733 73.8 150.8C74.1 150.8 74.5 150.6 74.8 150.6C74.8 150.3 74.9 150.1 74.9 150C74.9667 145.533 75.0667 141.033 75.2 136.5C75.2667 132.233 75.3667 127.933 75.5 123.6C75.5 121.6 75.5334 119.567 75.6 117.5C75.6 117.433 75.6 117.367 75.6 117.3C75.7334 116.967 75.8667 116.633 76 116.3C76.1334 115.7 76.1334 115.133 76 114.6C76 114.333 75.9667 114.1 75.9 113.9C76.4334 115.033 76.9667 116.167 77.5 117.3C77.6 117.6 77.8 117.9 78 118.1C78.3 118 78.6 117.9 78.8 117.8C84.7 114.3 90 110.2 94.7 105.1C95.5 104.2 96.3 103.3 96.9 102.1C96.7 101.6 96.5 101.3 96.3 100.9Z" fill="#FFBD5C"/>
<path d="M67.5 50.9C66.6 53.1 65.6001 55.2 64.2001 57C63.6001 56.8 63.6 56.1 63.4 55.7C63.1 55.2 63 54.7 62.6 54.4C62.1 54.2 61.7 54.4 61.5 54.7C61 55.5 60.6 56.2 60.1 56.9C59.8 57.4 59.6 58 59.1 58.3C58.7 58.3 58.8001 58 58.7001 57.8C57.9001 55.6 56.8 53.6 55.4 51.7C53.6 49.2333 52.3 46.5333 51.5 43.6C50.5 39.5 52.4001 35.2 56.2001 33.4C57.4001 32.8 58 32.2 57.9 30.8C57.8 28.7 59.1 27.1 61.1 26.5C62.2 26.1 63.4 25.8 64.6 25.7C67.9 25.2 71 24.3 74 23.1C75.8 22.3667 77.4667 21.4 79 20.2C79.7 19.6 80.5 19 81.3 18.6C81.9 18.2 82.7 18 83.4 17.8C83.8 17.7 84.2 17.8 84.5 18.2C84.7 18.6 84.6 19 84.4 19.3C84.2 19.7 83.9001 20 83.7001 20.2C83.9001 20.8 84.2 20.8 84.6 20.8C85.5 20.7 86.3001 20.6 87.2001 20.7C87.9001 20.7 88.5 20.7 89.1 20.9C90.7 21.4 91.2 22.6 90.3 24C89.9 24.7 89.3 25.3 88.8 25.9C88.6 26.2 88.6 26.5 88.5 26.7C88.9 27.4 89.4 27.3 90 27.3C90.7 27.3 91.4 27.4 91.9 28.1C91.9 28.3 91.9001 28.7 91.7001 28.9C91.3001 29.9 90.5 30.4 89.6 30.9C88.2 31.7 86.7334 32.3 85.2001 32.7C81.7334 33.6333 78.2667 34.5667 74.8 35.5C74.3 35.6 73.8 35.7 73.3 35.9C73 36 72.8 36.2 72.6 36.3C72.9 39.1 73.0001 40.6 72.7001 41.6C72.0001 46.2 71 49.7 67.5 50.9Z" fill="#4F9BA3"/>
<path d="M70.7 58.9C69.7 60.8 69.9 63 69.2 65.1C67.8 64.7 66.4 64.3 65.1 64.1C63.7 63.8 62.3 63.9 61 63.8C60.9 63.7 60.8 63.6 60.8 63.5C61.1 61.5 61.8 59.5 62.3 57.4C63.1 57.7 62.9 58.9 63.8 58.9C64.5 59 64.9 58.5 65.2 58C66 56.6 66.8 55.2 67.6 53.8C68 53.1 68.3 52.4 68.6 51.7C69.1 51.7 69.5 51.7 70 51.7C70.1334 51.4333 70.2334 51.2 70.3 51C70.2 50.8 70.1 50.7 70 50.7C69.8 50.5667 69.6 50.4667 69.4 50.4C68.2 49.9 67.6 48.9 67.5 47.7C67.3 46.1 67.6 44.6 68.3 43.1C68.5 42.8 68.7 42.4 69 42.1C69.7 41.5 70.4 41.5 71.2 42.1C72 42.9 72.3 44 72.3 45.1C72.3 45.6 72.2 46.1 72.2 46.4C72.4 47 72.8 47 73.4 46.8C73.5 46.5 73.7 46.1 73.7 45.7C74.1 43.9 74.2 42.1 74.2 40.2C74.1 39.2 73.9 38.1 74.2 37C76.1 36.5 78 36 80 35.5C80.1334 35.7 80.2334 35.8667 80.3 36C82.8 40.8 83.6 45.9 82.2 51.2C81.7 52.9 80.9 54.6 79.8 56C78.4 57.7 76.7 58.8 74.5 59C73.9 59.1 73.3 59 72.7 59C72.1 58.9 71.5 58.7 70.7 58.9Z" fill="#FFC9B5"/>
<path d="M94.9 281.1C94.3 281.8 93.7 281.9 93.1 282.1C90.7 282.9 88.1 283.1 85.6 283.3C85 283.3 84.3 283.2 83.7 282.9C83.3 278.7 82.8 274.5 82.4 270.2C84.3 269.8 86.3 270 88.2 269.8C90.1 269.6 92 269.7 94 269.7C94.6 271.7 94.4 273.6 94.6 275.5C94.8 277.4 94.8 279.3 94.9 281.1Z" fill="#FFC9B5"/>
<path d="M24.6 131.9C26 130.9 27.4 129.9 28.7 128.9C28.9 128.8 29.1 128.8 29.3 128.7C30.6 130.6 31.9 132.5 32.7 134.7C33.4 136.4 32.7 137.8 31.7 139.1C31.4 139.4 31 139.7 30.7 140C28.7 141.2 26.7 142.4 24.5 143.2C23.7 143.5 22.9 143.6 22.1 143.7C21.5 143.8 21 143.6 20.5 143.3C19.3 142.4 18.8 141.3 18.6 139.9C18.6 139.4 18.8 139.1 19.2 138.9C19.7 138.7 20.1 139 20.4 139.4C20.8 139.7 21.1 140.1 21.5 140.4C22 140.7 22.4 140.7 22.8 140C22.7 139.8 22.5 139.5 22.4 139.2C21.6 137.6 22.4 135.8 24.1 135.3C24.5 135.2 25 135.1 25.5 135C25.6 134.6 25.8 134.3 25.9 134C25.7 133.6 25.5 133.3 25.3 132.9C25.1 132.6 24.9 132.3 24.6 131.9Z" fill="#FFC9B5"/>
<path d="M26.2 271.2C26.1 272.9 25.9 274.3 25.8 275.8C25.6 277.3 25.4 278.8 25.2 280.4C25 280.5 24.7 280.7 24.4 280.7C21.3334 280.767 18.2667 280.833 15.2 280.9C15 280.9 14.9 280.8 14.7 280.8C14.7 279.4 15.7 272.8 16.3 271C17.3 270.7 18.4 271.1 19.5 271C20.6 271 21.7 271 22.8 271.1C23.9 271.1 25 271 26.2 271.2Z" fill="#FFC9B5"/>
<path d="M51.5 167.5C51.5 167.5 67.8 193.2 74.6 228C81.5 262.8 81 269.7 81 269.7H76.8C76.8 269.7 74.4 217.1 51.5 167.5Z" fill="black"/>
<path d="M81 269.7L94.9 269V271.6L82.4 276.5L81 269.7Z" fill="black"/>
<path d="M70.7 151.7L39.6 149.5L41.7 83.8L34.8 92.8C32.4 95.8 28.2 96.6 25 94.5L21.1 92L17.7 86.4L19.4 101.5L24.9 97.6L30.1 103.1L38.2 97.6L32.3 129.2L31.4 130C31.4 130 34.2 132.6 31.3 136.2C27.3 142.1 19.9 142.8 19.9 142.8C22.4 147.1 30 141 30 141V149.1L32.9 149.6L26.8 187.2L13.2 269.8H15.7L14.7 275.2L27.1 272.6L27.2 270.4L17 269.8L36.4 164.9C37.4 159.3 42.2 155.2 47.9 154.9L70.7 153.8L71.6 153.6L70.7 151.7Z" fill="black"/>
<path d="M98 107.9C98 107.9 94.8 115.6 88.5 118.5L85 114.6C85 114.6 92.5 109.7 96 104.8L98 107.9Z" fill="black"/>
<path fill-rule="evenodd" clip-rule="evenodd" d="M90.7 25.9C91.2 26.1 91.6 26.2 92 26.4C93.3 27.1 93.6 28.2 92.9 29.5C92.4334 30.4333 91.7667 31.1333 90.9 31.6C90 32.1 89.2 32.6 88.2 33C86.7 33.5 85.2 34 83.6 34.5C82.9334 34.7 82.2667 34.9 81.6 35.1C81.5 35.7 81.8 36 82 36.4C83.5 39.7 84.2 43.1 84.1 46.6C84.1 49.2 83.6 51.7 82.5 54C81.8 55.4 81 56.7 79.9 57.7C78.1 59.5 75.9 60.4 73.3 60.3C72.7 60.3 72.2 60.3 71.6 60.2C71.1 62 70.8 63.8 70.6 65.6C70.7 65.8 70.7 65.9 70.8 66C73.9 67.8 76.4 70.4 78.8 73C82.7 77.3 86.1 82 89.2 86.9C92 91.4 94.8 96 97.5 100.5C97.7 100.7 97.8 100.9 97.9 101.1C98.4 101.8 98.3 102.5 97.8 103.2C97.5 103.6 97.2 104 96.9 104.5C97.8 106.3 98.9 107.9 99.9 109.5C100.8 111 101.7 112.7 103 114.3C103.3 112.3 103.6 110.5 103.8 108.7C104.2 105.8 104.5 102.9 104.9 99.9C105.5 95.4 106.2 90.9 106.9 86.5C107.2 84.3 107.4 82.2 107.7 80.1C107.9 78.5 108.133 76.9333 108.4 75.4C108.5 74.6 108.9 73.8 109.4 73.2C110.1 72.3 110.9 71.5 111.8 70.7C114.6 68.5 117.6 66.6 120.8 65C121.5 64.6 122.2 64.2 122.9 63.9C123.6 63.6 124.4 63.4 125.1 63.3C125.8 63.2 126.4 63.3 126.8 63.9C127.3 64.5 127.1 65.2 126.7 65.8C126.2 66.7 125.5 67.4 124.7 67.9C123 69.1 121.6 70.6 120.1 72C120 72 120 72.2 119.8 72.4C120.1 72.6 120.3 72.8 120.6 73C121.2 73.5 121.9 73.9 122.6 74.4C123 74.7333 123.367 75.1 123.7 75.5C124.6 76.4 124.8 77.5 124.1 78.7C123.7 79.4 123.3 80.1 122.7 80.7C121.6 81.9 120.5 83 119.3 84.2C118.7 84.7 118.1 85.2 117.5 85.8C117 87.4 117 89 117.1 90.7C117.5 90.9 117.9 91.1 118.3 91.3C118.7 91.7 118.7 92.2 118.7 92.8C118.5 95.6 118.4 98.3 118.2 101.1C118 105.2 117.3 109.3 116.7 113.4C115.9 118.5 114.9 123.5 113.5 128.4C113.1 129.733 112.533 131 111.8 132.2C110.3 134.7 108 136 105.2 136.2C104.3 136.2 103.5 136 102.6 135.7C100.2 135 98.2 133.7 96.4 132C94.0667 129.733 92.0667 127.233 90.4 124.5C88.8 121.833 87.1667 119.167 85.5 116.5C85.3 116.2 85.1 115.9 84.9 115.6C82.2 116.9 80.1 119.1 77.1 119.8C76.7 123.2 76.9 126.8 76.8 130.3C76.8 133.9 76.6 137.5 76.6 141.1C76.5 144.7 76.5 148.2 76.4 151.6C76.2 152.2 75.8 152.3 75.4 152.3C74.8 152.3 74.2 152.3 73.6 152.3C73.2 152.3 72.9 152.4 72.4 152.4C72.4 152.8 72.4 153.1 72.5 153.3C76 162.9 78.2 172.8 80.7 182.7C82.7 190.833 84.6334 199 86.5 207.2C87.8 213.3 89 219.6 90.1 225.8C91.1 231.733 92.0334 237.667 92.9 243.6C93.6 249 94.2 254.4 94.8 259.8C95.1334 262.867 95.4334 265.933 95.7 269C95.8 271.1 95.9 273.2 96.1 275.3C96.2 277.2 96.3 279.1 96.5 281.1C97.1 281.3 97.7 281.5 98.4 281.6C102.1 282.5 105.6 284 108.7 286.5C110.167 287.7 111.367 289.1 112.3 290.7C112.9 291.9 113.4 293.2 113.2 294.5C112.9 295 112.5 295.2 112 295.2C111.6 295.267 111.2 295.267 110.8 295.2C104.933 295.267 99.0667 295.3 93.2 295.3C90.3 295.3 87.5 295.4 84.6 295.4C84 295.4 83.3 295.5 82.7 295.1C82.6 294.9 82.5 294.6 82.5 294.3C82.5 289.7 82.3 285.133 81.9 280.6C81.7 277.933 81.4334 275.267 81.1 272.6C81.1 271.8 80.9 271.1 80.7 270.3C80.3 270.3 80 270.2 79.7 270.2C79 270.2 78.3 270.3 77.6 270.4C76.7 270.4 76 270.1 75.6 269.1C76 268.1 75.9 266.9 75.8 265.7C75.4667 262.833 75.1334 259.967 74.8 257.1C74.4 254 74 250.8 73.5 247.7C72.7 242.7 71.8667 237.733 71 232.8C69.8 226.1 68.3 219.6 66.6 213C64.8 205.7 62.4 198.6 59.8 191.6C57.7334 186.267 55.6667 180.967 53.6 175.7C53 174.233 52.4 172.767 51.8 171.3C51.7 171 51.4 170.6 51.3 170.3C50.8 170.4 50.8 170.7 50.7 171C49.9 175.6 49.0667 180.233 48.2 184.9C47.2 190.3 46.2334 195.733 45.3 201.2C44.1667 207.2 43.0667 213.2 42 219.2C40.7334 226 39.5 232.8 38.3 239.6C37.1667 245.6 36.0667 251.6 35 257.6C34.4 261.133 33.7667 264.633 33.1 268.1C33 269 32.8 269.9 32.7 271C32.4 271.1 32.1 271.3 31.8 271.3C31 271.3 30.3 271.3 29.5 271.3C29 271.3 28.5 271.1 28 271.4C27.6 272.5 27.1 276.2 26.8 280.4C27.2 280.6 27.6 280.8 28 280.9C29.8 281.4 31.5 282.1 33.1 283.1C34.7 284 36.2 285.2 37.3 286.8C38.6 288.6 39.2 290.6 39.1 292.8C39.1 293.9 38.9 294.9 38.2 295.8C37.9 295.8 37.6 295.9 37.3 295.9C28.7667 295.7 20.2334 295.533 11.7 295.4C11.5 295.4 11.3 295.3 11.2 295.2C10.8 294.9 10.7 294.4 10.8 293.9C11 292.633 11.2 291.333 11.4 290C12.4 284.2 13.4 278.4 14.4 272.6C14.5 272.1 14.5 271.6 14.5 271C13.9 270.8 13.2 270.7 12.6 270.6C12.5 270.2 12.4 269.9 12.4 269.6C13.0667 265.933 13.7 262.267 14.3 258.6C15.0334 254 15.8 249.4 16.6 244.8C17.3334 240.2 18.0667 235.6 18.8 231C19.6 226.467 20.3667 221.933 21.1 217.4C21.9667 212 22.8667 206.633 23.8 201.3C24.7334 195.367 25.7 189.433 26.7 183.5C27.7 177.5 28.7 171.5 29.7 165.5C30.5 160.567 31.3 155.633 32.1 150.7C32.1 150.5 32.1 150.3 32.1 150C31.2 149.8 30.2 149.6 29.2 149.4C29.1 149 29 148.6 29 148.3C29.1 147 29.2 145.8 29.3 144.6C29.3667 144.067 29.4334 143.533 29.5 143C29.5 142.9 29.4 142.8 29.3 142.6C28.7667 142.867 28.2334 143.133 27.7 143.4C26.2 144.2 24.6 144.9 22.8 145.2C21.7334 145.4 20.7334 145.2 19.8 144.6C18 143.5 17.2 141.7 17.2 139.6C17.2 138.2 18.2 137.2 19.5 137.3C19.7 137.367 19.8667 137.4 20 137.4C20.1334 137.4 20.2667 137.367 20.4 137.3C20.8 136.6 21.1 135.7 21.7 135.1C22.3 134.5 23.1 134.1 23.8 133.5C23.6 133.3 23.4 133.067 23.2 132.8C22.4 133.1 21.6 133.3 20.8 133.5C20.6 133.6 20.4 133.5 20 133.4C19.8 133.1 19.4 132.7 19.1 132.2C16.6 128.3 14.2 124.4 11.5 120.5C8.60003 116.2 6.00003 111.6 3.50003 107.1C2.60003 105.6 2.00004 104 1.30004 102.5C1.10004 102.3 1.10003 102.1 1.00003 101.9C0.100033 99.7 0.500036 97.7 1.80004 95.9C2.40004 95.2 3.10004 94.5 3.80004 94C4.60004 93.3 5.40003 92.8 6.20003 92.3C14.2 87.2 22.1 81.9 30.4 77.3C35.3 74.5 40.2 71.9 45.2 69.5C49.2 67.6 53.1 65.8 57.3 64.7C57.9 64.5 58.4667 64.3333 59 64.2C59.6 62.9 60.1 61.1 60.2 59.4C59.9 59.8 59.7 60.1 59.5 60.3C59.3 60.5667 59.0667 60.8667 58.8 61.2C58.5334 61.2 58.3 61.1667 58.1 61.1C58 60.9 57.9 60.8 57.9 60.7C57.7 57.9 56.5 55.5 54.9 53.2C53.8 51.7 52.8 50.3 52 48.6C51.2 46.9333 50.5667 45.2 50.1 43.4C49 38.5 51.9 34.4 55.1 32.5C55.5 32.2 56 32 56.5 31.7C56.5667 31.3667 56.6 31 56.6 30.6C56.8 27.8 58.3 26 60.8 25.2C62.2 24.7 63.6 24.5 64.9 24.3C68.3 23.8 71.6 22.8 74.8 21.4C76.1 20.8 77.3 19.9 78.4 19C79.3334 18.3333 80.3 17.7 81.3 17.1C82 16.7 82.8 16.5 83.7 16.5C84.9 16.6 85.5 17 85.8 18.1C85.9 18.5 86 18.8 86.1 19.3C86.5 19.3 87 19.3 87.4 19.4C88.2 19.5 89 19.5 89.8 19.8C91.9 20.5 92.5 22.3 91.7 24.3C91.4 24.8 91.1 25.3 90.7 25.9ZM31.2 269.8C31.3 269.3 31.4 269.1 31.5 268.8C32.1 265.467 32.7 262.133 33.3 258.8C34.5 252.133 35.7 245.433 36.9 238.7C38.1667 231.833 39.4334 225 40.7 218.2C41.7667 212.133 42.8667 206.067 44 200C45.2 193.267 46.4 186.567 47.6 179.9C48.3334 175.967 49.0667 172.067 49.8 168.2C49.8 167.8 50 167.5 50.1 167.2C50.8 166.9 51.2 167.1 51.5 167.5C51.8334 167.9 52.1 168.333 52.3 168.8C53 170.2 53.6 171.7 54.2 173.1C56.9 180 59.6 186.9 62.1 193.8C63.5667 197.667 64.9 201.567 66.1 205.5C68.3 212.7 69.9 219.9 71.4 227.2C73.2 236.2 74.8 245.3 75.9 254.4C76.5 258.8 77.2 263.3 77.3 267.7C77.3 268.1 77.5 268.4 77.6 268.8C78 268.8 78.4 268.8 78.8 268.8C80.7 268.7 82.6 268.5 84.4 268.5C87.2 268.4 89.9 268.4 92.6 268.3C93.1 268.3 93.6 268.5 94 268C94.2 267.4 94 266.8 93.9 266.2C93.7667 264.533 93.6 262.9 93.4 261.3C92.8 255.8 92.3 250.2 91.5 244.7C90.6 238.3 89.6 231.9 88.5 225.5C87 216.5 85.2 207.5 83 198.6C80.7334 189.267 78.4334 180 76.1 170.8C74.7 165 73.1 159.3 71.1 153.7C70.9 153.233 70.7 152.767 70.5 152.3C69.9 152.2 69.5 152.2 69 152.1C64.9 152 60.8 151.8 56.7 151.6C53.3 151.4 50 151.2 46.7 150.9C42.8334 150.633 38.9667 150.333 35.1 150C34.6 150 34.1 149.8 33.7 150.4C27.2 189.8 20.6 229.3 14.1 268.8C14.1 268.9 14.2 269 14.2 269.2C14.3 269.2 14.5 269.3 14.7 269.3C20.1 269.4 25.6 269.8 31.2 269.8ZM96.9 102.1C96.7 101.6 96.5 101.3 96.3 100.9C95.2 99.1 94.1 97.2 93 95.4C89.4 89.7 85.9 83.9 81.8 78.6C79.1334 75.1333 76.2 71.9667 73 69.1C70.8 67.1 68.1 66.1 65.2 65.4C64 65.1 62.7 65 61.4 65.2C59.0667 65.4667 56.7667 66.0333 54.5 66.9C49.2 68.9 44.1 71.3 39.1 73.9C35.9 75.6 32.7 77.5 29.6 79.3C26.2667 81.1666 23 83.0667 19.8 85C19.4 85.3 18.8 85.5 18.6 86.2C21.4 92.1 25 97.6 29.9 102.3C32.4 100.6 34.9 99 37.4 97.3C37.5334 96.8333 37.6667 96.3333 37.8 95.8C38.4 93.5 39 91.1 39.6 88.7C40 87.1 40.4 85.5 40.5 83.8C40.5667 83.5333 40.6 83.3 40.6 83.1C40.7 82.7 40.9 82.6 41.6 82.8C41.7 83.1 41.7 83.4 41.7 83.8C41.7 85.2 41.4 86.7 41.1 88.1C40.2 91.6 39.3 95.2 38.5 98.8C37.4334 103.8 36.4 108.867 35.4 114C34.6 118.3 33.8 122.6 33.1 127C32.8 128.3 32.7 129.6 32.5 130.9C32.9 131.5 33.1 132.1 33.5 132.7C35.3 135.7 34.2 139.3 31.9 140.9C31.6 141.1 31.3 141.4 31 141.7C30.8 143.5 30.5 145.3 30.4 147.1C30.4 147.5 30.4 147.8 30.4 148.2C31 148.2 31.6 148.3 32.1 148.4C36.9 148.733 41.7 149.067 46.5 149.4C49.7 149.6 52.9 149.833 56.1 150.1C58.6 150.2 61.1 150.4 63.6 150.5C67 150.633 70.4 150.733 73.8 150.8C74.1 150.8 74.5 150.6 74.8 150.6C74.8 150.3 74.9 150.1 74.9 150C74.9667 145.533 75.0667 141.033 75.2 136.5C75.2667 132.233 75.3667 127.933 75.5 123.6C75.5 121.6 75.5334 119.567 75.6 117.5C75.6 116.7 75.5 115.9 75.1 115.2C74.6 114.1 74.1 113 73.6 111.9C71.5334 107.633 69.4667 103.367 67.4 99.1C67.2 98.5667 67 98.0333 66.8 97.5C66.7 97.2 66.8 96.8 67.2 96.7C67.9 96.8 68 97.3 68.2 97.8C71.2 104.3 74.6 110.7 77.5 117.3C77.6 117.6 77.8 117.9 78 118.1C78.3 118 78.6 117.9 78.8 117.8C84.7 114.3 90 110.2 94.7 105.1C95.5 104.2 96.3 103.3 96.9 102.1ZM83.7001 20.2C83.9001 20 84.2 19.7 84.4 19.3C84.6 19 84.7 18.6 84.5 18.2C84.2 17.8 83.8 17.7 83.4 17.8C82.7 18 81.9 18.2 81.3 18.6C80.5 19 79.7 19.6 79 20.2C77.4667 21.4 75.8 22.3667 74 23.1C71 24.3 67.9 25.2 64.6 25.7C63.4 25.8 62.2 26.1 61.1 26.5C59.1 27.1 57.8 28.7 57.9 30.8C58 32.2 57.4001 32.8 56.2001 33.4C52.4001 35.2 50.5 39.5 51.5 43.6C52.3 46.5333 53.6 49.2333 55.4 51.7C56.8 53.6 57.9001 55.6 58.7001 57.8C58.8001 58 58.7 58.3 59.1 58.3C59.6 58 59.8 57.4 60.1 56.9C60.6 56.2 61 55.5 61.5 54.7C61.7 54.4 62.1 54.2 62.6 54.4C63 54.7 63.1 55.2 63.4 55.7C63.6 56.1 63.6001 56.8 64.2001 57C65.6001 55.2 66.6 53.1 67.5 50.9C66.8 50 66.3 49 66.2 47.9C66 45.9667 66.3334 44.1667 67.2 42.5C67.5 41.9 68 41.3 68.5 40.9C69.4 40.1 70.5 40.1 71.4 40.7C71.9 41 72.3001 41.3 72.7001 41.6C73.0001 40.6 72.9 39.1 72.6 36.3C72.8 36.2 73 36 73.3 35.9C73.8 35.7 74.3 35.6 74.8 35.5C78.2667 34.5667 81.7334 33.6333 85.2001 32.7C86.7334 32.3 88.2 31.7 89.6 30.9C90.5 30.4 91.3001 29.9 91.7001 28.9C91.9001 28.7 91.9 28.3 91.9 28.1C91.4 27.4 90.7 27.3 90 27.3C89.4 27.3 88.9 27.4 88.5 26.7C88.6 26.5 88.6 26.2 88.8 25.9C89.3 25.3 89.9 24.7 90.3 24C91.2 22.6 90.7 21.4 89.1 20.9C88.5 20.7 87.9001 20.7 87.2001 20.7C86.3001 20.6 85.5 20.7 84.6 20.8C84.2 20.8 83.9001 20.8 83.7001 20.2ZM95.9 106C95.6 106.2 95.5 106.2 95.4 106.3C92.7 109.1 89.8 111.7 86.8 114C86.6 114.2 86.4 114.4 86.2 114.7C86.4 115 86.6 115.4 86.7 115.6C88.5667 118.6 90.4 121.6 92.2 124.6C93.7 126.9 95.5 129.1 97.5 131C99.2 132.6 101.1 133.8 103.3 134.4C104.6 134.8 105.9 134.8 107.1 134.2C109.1 133.4 110.6 132 111.4 129.9C111.733 129.033 112.033 128.167 112.3 127.3C113.3 123.7 114.1 120 114.7 116.4C115.433 111.867 116.067 107.333 116.6 102.8C117 99.9 117.2 97 117.1 94.1C117.1 93.5667 117.067 93.0333 117 92.5C116 92.1 114.9 92.3 113.9 92.2C112.8 92 111.7 92.1 110.6 92C109.5 92 108.5 92 107.5 92.4C107.4 92.7 107.3 93 107.3 93.3C107.1 94.9667 106.867 96.6333 106.6 98.3C106.4 100.167 106.167 102 105.9 103.8C105.567 106.267 105.267 108.7 105 111.1C104.7 113 104.4 114.9 104.5 116.9C104.9 117.433 105.3 118 105.7 118.6C106.033 119.133 106.367 119.667 106.7 120.2C106.8 120.3 106.8 120.5 106.8 120.7C106.667 120.9 106.467 121.1 106.2 121.3C105.9 121 105.5 120.9 105.3 120.6C104.9 120.133 104.533 119.633 104.2 119.1C102.2 115.9 100.167 112.7 98.1 109.5C97.4 108.4 96.7 107.2 95.9 106ZM14.7 103.8C16.4 102.7 17.9 101.7 19.4 100.8C20.9 99.8 22.4 98.9 23.9 97.8C22.7 95.9 21.6 94.2 20.5 92.4C19.4 90.6 18.4 88.7 17.3 86.7C17 86.9 16.8 87 16.5 87.1C13.3 89.2 10 91.3 6.70003 93.5C5.70003 94.2 4.70004 95 3.80004 95.9C2.10004 97.6 1.60004 99.6 2.60004 101.8C3.10004 103.1 3.70003 104.3 4.40003 105.6C6.30003 109 8.20004 112.5 10.3 115.8C13.5 120.9 16.8 126 20.1 131C20.4 131.4 20.6 131.6 20.9 131.9C22.9 131.3 26.8 128.8 28.4 127C23.9 119.3 19.6 111.5 14.7 103.8ZM70.7 58.9C71.5 58.7 72.1 58.9 72.7 59C73.3 59 73.9 59.1 74.5 59C76.7 58.8 78.4 57.7 79.8 56C80.9 54.6 81.7 52.9 82.2 51.2C83.6 45.9 82.8 40.8 80.3 36C80.2334 35.8667 80.1334 35.7 80 35.5C78 36 76.1 36.5 74.2 37C73.9 38.1 74.1 39.2 74.2 40.2C74.2 42.1 74.1 43.9 73.7 45.7C73.7 46.1 73.5 46.5 73.4 46.8C72.8 47 72.4 47 72.2 46.4C72.2 46.1 72.3 45.6 72.3 45.1C72.3 44 72 42.9 71.2 42.1C70.4 41.5 69.7 41.5 69 42.1C68.7 42.4 68.5 42.8 68.3 43.1C67.6 44.6 67.3 46.1 67.5 47.7C67.6 48.9 68.2 49.9 69.4 50.4C69.6 50.4667 69.8 50.5667 70 50.7C70.1 50.7 70.2 50.8 70.3 51C70.2334 51.2 70.1334 51.4333 70 51.7C69.5 51.7 69.1 51.7 68.6 51.7C68.3 52.4 68 53.1 67.6 53.8C66.8 55.2 66 56.6 65.2 58C64.9 58.5 64.5 59 63.8 58.9C62.9 58.9 63.1 57.7 62.3 57.4C61.8 59.5 61.1 61.5 60.8 63.5C60.8 63.6 60.9 63.7 61 63.8C62.3 63.9 63.7 63.8 65.1 64.1C66.4 64.3 67.8 64.7 69.2 65.1C69.9 63 69.7 60.8 70.7 58.9ZM16.8 104.2C16.9334 104.467 17.0667 104.7 17.2 104.9C19.4 108.7 21.7 112.4 23.9 116.2C26.1 120 28.3 123.8 30.5 127.7C30.7 128 30.8 128.6 31.5 128.7C33.1 119 34.9 109.5 36.9 99.9C36.9 99.8 36.8 99.7 36.7 99.5C36.4 99.6 36.1 99.7 35.9 99.9C34.1667 101.1 32.4334 102.3 30.7 103.5C30.3 103.7 30 104 29.4 103.8C28.2 102.5 26.9 101.1 25.6 99.7C25.4 99.4 25 99.1 24.8 98.9C22.3 100.3 17.8 103.3 16.8 104.2ZM37.3 294.3C37.9 292.1 37.6 290.3 36.6 288.6C35.9 287.3 35 286.3 33.9 285.4C32.2 284.1 30.3 283.1 28.2 282.5C27.5 282.3 26.7 282.2 26 282.2C22.7334 282.2 19.4667 282.267 16.2 282.4C15.6 282.4 14.9 282.5 14.4 282.6C14.3 282.8 14.2 282.9 14.1 283C13.5667 286.467 13 289.967 12.4 293.5C12.4 293.5 12.4 293.533 12.4 293.6C12.4 293.7 12.5 293.7 12.6 293.8C18.7 294.2 24.8 294.1 31 294.3C33 294.3 35.1 294.4 37.3 294.3ZM84.1 293.9C84.9 293.9 85.4 293.9 86 293.9C90.4667 293.9 94.9334 293.867 99.4 293.8C103.067 293.8 106.7 293.8 110.3 293.8C110.7 293.8 111.2 293.7 111.6 293.7C111.7 292.6 111.2 291.8 110.7 291C109.9 289.7 108.9 288.6 107.7 287.6C104.3 284.9 100.3 283.4 96 282.7C92.2 284.1 88.4 284.8 84.4 284.7C84.1 284.7 83.9 284.8 83.7 284.9C83.9 287.9 83.8 290.8 84.1 293.9ZM117.1 72C117.7 71.7 118.3 71.5 118.8 71.1C120.667 69.5 122.5 67.9 124.3 66.3C124.7 65.9 125.2 65.6 125.4 64.9C125.2 64.8 124.9 64.8 124.7 64.8C124.1 65 123.5 65.2 122.9 65.5C119.4 67.3 115.9 69.3 112.8 71.9C112.267 72.3 111.8 72.7 111.4 73.1C110.5 74 109.9 75 109.8 76.2C109.5 77.9 109.2 79.7 109 81.5C108.667 83.8333 108.333 86.2 108 88.6C107.933 89.2 107.867 89.8 107.8 90.4C109.2 90.7 114.2 90.7 115.3 90.5C115.7 89.4 115.7 88.3 115.7 87.2C115.7 85.7 116.2 84.6 117.4 83.8C117.867 83.4667 118.333 83.1 118.8 82.7C119.8 81.7 120.8 80.6 121.8 79.6C122.4 78.9 122.8 78.2 123 77.4C122.9 76.5 122.3 76.1 121.8 75.7C120.6 74.9 119.4 74.1 118.3 73.4C118 73.2 117.6 73.1 117.3 72.9C117 72.7 116.9 72.3 117.1 72ZM94.9 281.1C94.8 279.3 94.8 277.4 94.6 275.5C94.4 273.6 94.6 271.7 94 269.7C92 269.7 90.1 269.6 88.2 269.8C86.3 270 84.3 269.8 82.4 270.2C82.8 274.5 83.3 278.7 83.7 282.9C84.3 283.2 85 283.3 85.6 283.3C88.1 283.1 90.7 282.9 93.1 282.1C93.7 281.9 94.3 281.8 94.9 281.1ZM24.6 131.9C24.9 132.3 25.1 132.6 25.3 132.9C25.5 133.3 25.7 133.6 25.9 134C25.8 134.3 25.6 134.6 25.5 135C25 135.1 24.5 135.2 24.1 135.3C22.4 135.8 21.6 137.6 22.4 139.2C22.5 139.5 22.7 139.8 22.8 140C22.4 140.7 22 140.7 21.5 140.4C21.1 140.1 20.8 139.7 20.4 139.4C20.1 139 19.7 138.7 19.2 138.9C18.8 139.1 18.6 139.4 18.6 139.9C18.8 141.3 19.3 142.4 20.5 143.3C21 143.6 21.5 143.8 22.1 143.7C22.9 143.6 23.7 143.5 24.5 143.2C26.7 142.4 28.7 141.2 30.7 140C31 139.7 31.4 139.4 31.7 139.1C32.7 137.8 33.4 136.4 32.7 134.7C31.9 132.5 30.6 130.6 29.3 128.7C29.1 128.8 28.9 128.8 28.7 128.9C27.4 129.9 26 130.9 24.6 131.9ZM26.2 271.2C25 271 23.9 271.1 22.8 271.1C21.7 271 20.6 271 19.5 271C18.4 271.1 17.3 270.7 16.3 271C15.7 272.8 14.7 279.4 14.7 280.8C14.9 280.8 15 280.9 15.2 280.9C18.2667 280.833 21.3334 280.767 24.4 280.7C24.7 280.7 25 280.5 25.2 280.4C25.4 278.8 25.6 277.3 25.8 275.8C25.9 274.3 26.1 272.9 26.2 271.2Z" fill="#3C3372"/>
<path d="M32 40.1C30.1 37.2 27.6 35.2 24.4 33.8C25.2 33.1 26 32.6 26.5 32C27.1 31.4 27.6 30.7667 28 30.1C28.5 29.4 28.8 28.5 29.2 27.8C30.5 28.7 31.8 29.7 33.1 30.6C34.5 31.5 36.1 31.9 37.7 32.6C37.1 33.3 36.6 33.8 36.1 34.3C35.5667 34.9667 35.0667 35.6 34.6 36.2C34.1 36.8 33.7 37.5 33.3 38.1C32.9 38.7 32.7 39.5 32 40.1Z" fill="#FFBD5C"/>
<path d="M40.8 17.5C41.3 16.7 41.9 16 42.3 15.3C42.8 14.5 43.1 13.8 43.5 13C44.5 13.6 45.4 14.3 46.3 14.8C47.2 15.3 48.2 15.6 49.3 16.1C48.9 17 48.1 17.6 47.7 18.5C47.2 19.3 46.7 20.2 46.2 21.1C45.6 20.5 45.2 20 44.7 19.5C44.1 19.0333 43.4667 18.6333 42.8 18.3C42.2 18 41.5 17.7 40.8 17.5Z" fill="#FFBD5C"/>
<path d="M40.4 56.7C39.8 56.1 39.4 55.6 38.8 55.1C39.3 54.6 39.7 54 40.3 53.3C40.8 53.9 41.3 54.4 41.9 54.9C41.4 55.7 40.9 56.1 40.4 56.7Z" fill="#FFBD5C"/>
<path fill-rule="evenodd" clip-rule="evenodd" d="M40.7 32.2C40.5 32.4 40.3 32.7 40.1 32.9C36.5 35.4 34.2 38.7 32.8 42.8C32.7 43 32.7 43.3 32.6 43.5C32.4 43.6 32.2 43.9 32.1 43.9C31.8 43.9 31.5 43.7 31.2 43.6C31.4 41.3 30.2 39.7 28.6 38.3C26.8 36.5667 24.7 35.4 22.3 34.8C21.9667 34.6667 21.6667 34.5333 21.4 34.4C21.3 34.4 21.2 34.2 21.2 34.1C21.1 33.7 21.3 33.3 21.7 33.1C21.9 33 22.2 32.9 22.5 32.8C25.8 31.7 27.4 29.2 27.9 26C28 25.4 28 24.9 28 24.3C28.3334 24.2333 28.6667 24.1667 29 24.1C29.1 24.3 29.2 24.4 29.2 24.5C29.9 26.2 31.1 27.4 32.5 28.4C34.6 29.9 36.9 31 39.5 31.3C39.9 31.3 40.2 31.5 40.5 31.6C40.6 31.7 40.6 31.9 40.7 32.2ZM32 40.1C32.7 39.5 32.9 38.7 33.3 38.1C33.7 37.5 34.1 36.8 34.6 36.2C35.0667 35.6 35.5667 34.9667 36.1 34.3C36.6 33.8 37.1 33.3 37.7 32.6C36.1 31.9 34.5 31.5 33.1 30.6C31.8 29.7 30.5 28.7 29.2 27.8C28.8 28.5 28.5 29.4 28 30.1C27.6 30.7667 27.1 31.4 26.5 32C26 32.6 25.2 33.1 24.4 33.8C27.6 35.2 30.1 37.2 32 40.1Z" fill="#3C3372"/>
<path fill-rule="evenodd" clip-rule="evenodd" d="M47 24.4C46.8 24.5333 46.6 24.6667 46.4 24.8C45.9 24.7 45.7 24.4 45.5 24C45.4 23.6 45.3 23.1 45.1 22.7C44.1 20.5 42.4 19.3 40 19C39.6 18.9 39.1 18.9 38.6 18.9C38.2 18.8 37.9 18.5 37.9 18.1C37.9 17.5 38.4 17.3 38.7 17C40 16.2 40.8 15.1 41.5 13.8C42 12.8 42.3 11.7 42.2 10.6C42.1 10.3 42.3 10 42.3 9.80001C42.8 9.50001 43.2 9.6 43.5 9.9C43.5667 9.96667 43.6334 10.0667 43.7 10.2C45 12.8 47.4 13.9 50 14.5C50.6 14.6333 51.2 14.8 51.8 15C51.9 15.3 51.9 15.6 52 16C49.1 18.1 47.6 21 47 24.4ZM40.8 17.5C41.5 17.7 42.2 18 42.8 18.3C43.4667 18.6333 44.1 19.0333 44.7 19.5C45.2 20 45.6 20.5 46.2 21.1C46.7 20.2 47.2 19.3 47.7 18.5C48.1 17.6 48.9 17 49.3 16.1C48.2 15.6 47.2 15.3 46.3 14.8C45.4 14.3 44.5 13.6 43.5 13C43.1 13.8 42.8 14.5 42.3 15.3C41.9 16 41.3 16.7 40.8 17.5Z" fill="#3C3372"/>
<path fill-rule="evenodd" clip-rule="evenodd" d="M36.1 54.6C36.4 54.5 36.7 54.4 37 54.3C38 53.9 38.6 53.2 39 52.3C39.1 51.9 39.3 51.5 39.5 51.2C39.7 51 39.9 50.8 40.3 50.6C40.6 50.9 41 51.1 41.1 51.4C41.6 52.6 42.5 53.5 43.6 54.3C43.6 54.3 43.6334 54.3333 43.7 54.4C44 54.8 44.1 55.3 43.7 55.6C43.5667 55.7333 43.4334 55.8333 43.3 55.9C42.3 56.6 41.6 57.5 41.1 58.6C41 58.8 40.8 58.9 40.7 59.2C40.4 59.2 40 59.2 39.8 59.3C39.6 59.1 39.5 59 39.5 58.9C39 57.4 38.2 56.4 36.6 55.9C36.5 55.9 36.3 55.8 36.2 55.7C36 55.6 36 55.4 36.1 54.6ZM40.4 56.7C40.9 56.1 41.4 55.7 41.9 54.9C41.3 54.4 40.8 53.9 40.3 53.3C39.7 54 39.3 54.6 38.8 55.1C39.4 55.6 39.8 56.1 40.4 56.7Z" fill="#3C3372"/>
<path d="M71.6 173.4C71.3334 173.6 71.1 173.8 70.9 174C70.2 173.8 70.1 173.2 69.9 172.8C69.3 171.133 68.7334 169.467 68.2 167.8C67.1334 164.733 66.0667 161.667 65 158.6C64.8 158.1 64.7 157.5 64.5 156.9C64.8 156.7 65 156.5 65.2 156.3C65.5 156.5 65.7 156.6 65.9 156.9C66 157 66.1 157.3 66.2 157.5C67.9334 162.5 69.6667 167.5 71.4 172.5C71.4 172.7 71.5 173 71.6 173.4Z" fill="#3C3372"/>
<path fill-rule="evenodd" clip-rule="evenodd" d="M225.1 300.2C222.9 300.2 221.3 299.2 220.3 297.3C218.9 294.8 219 292.4 220.6 290.1C221.9 288.2 223.6 287.3 225.8 287.6C228 287.8 229.5 289 230.4 291C231.6 293.6 231 296.7 228.9 298.7C227.833 299.7 226.567 300.2 225.1 300.2ZM229.4 293.9C229.5 292.6 229.1 291.5 228.3 290.5C227.5 289.5 225.8 288.5 223.9 289.3C222.1 290 221.1 291.5 220.9 293.5C220.8 295.5 221.5 297.2 223.3 298.3C224.5 298.9 225.8 298.9 227 298.2C228.6 297.2 229.4 295.7 229.4 293.9Z" fill="#3C3372"/>
<path fill-rule="evenodd" clip-rule="evenodd" d="M167.3 300.9C165.1 300.9 163.5 299.9 162.4 298.2C160.9 295.8 161.1 292.5 162.9 290.3C165.5 287.2 170.2 287.6 172.2 291.2C173.6 293.8 173.1 297.3 170.9 299.3C169.9 300.3 168.6 300.9 167.3 300.9ZM171.5 293.8C171.5 293.1 171.1 291.9 170.1 290.9C168.9 289.8 167.5 289.4 165.9 290C164.1 290.7 163.1 292.2 163 294.2C162.8 296.2 163.5 297.9 165.4 299C166.6 299.6 167.8 299.6 169 298.9C170.7 297.9 171.4 296.4 171.5 293.8Z" fill="#3C3372"/>
<path d="M163.3 204.8C163.2 202.6 163.8 191.5 164.1 190.1C165.1 190 166.2 189.9 167.2 189.9C171.2 189.8 175.1 189.7 179.1 189.6C183.633 189.533 188.167 189.433 192.7 189.3C196.3 189.167 199.9 189.033 203.5 188.9C207.967 188.833 212.433 188.733 216.9 188.6C217.9 188.5 219 188.4 220 188.4C220.3 188.4 220.7 188.4 221 188.5C221 188.7 221.1 188.9 221.1 189.1C220.6 191.5 220.5 194 219.9 196.5C219.4 198.7 219.1 200.9 218.9 203.2C218.9 203.6 218.8 204 218.7 204.3C218.1 204.7 217.4 204.6 216.8 204.6C212.333 204.6 207.9 204.6 203.5 204.6C190.767 204.667 178.033 204.733 165.3 204.8C164.7 204.8 164 204.8 163.3 204.8Z" fill="#D1A76B"/>
<path d="M222.2 193.6C227.1 193.3 232 193.2 236.8 193.3C237.2 193.6 237.1 193.9 237 194.2C236.2 197.3 235.7 200.5 234.6 203.6C234.533 203.867 234.467 204.067 234.4 204.2C233.2 204.6 228.2 204.7 221.8 204.6C221.4 204.6 220.9 204.5 220.5 204.4C220.5 201.9 221.4 196.3 222.2 193.6Z" fill="#FFBD5C"/>
<path d="M136.4 192.9C135.8 193 135.4 193.2 134.8 193.3C132.4 193.7 129.933 193.967 127.4 194.1C125 194.3 122.7 194.6 120.3 194.8C118.2 195 116.2 195.2 114.1 195.3C113.4 195.4 112.7 195.2 112 195C111.5 194.9 111.3 194.5 111.1 194.1C110.9 193.6 111 193.1 111.4 192.9C111.533 192.767 111.7 192.667 111.9 192.6C114.4 191.5 117.1 190.6 119.9 190.4C120.9 190.3 121.8 190.1 122.8 190C124.3 189.8 125.7 189.7 127.1 189.7C129.3 189.6 131.4 189.7 133.6 189.7C134.6 189.7 135.433 190.067 136.1 190.8C136.6 191.3 136.9 191.9 136.4 192.9Z" fill="#B57341"/>
<path d="M228.8 192.5L227.4 204.8L220.5 204.4L222.2 193.6L228.8 192.5Z" fill="black"/>
<path d="M163.5 198.4L221.1 196.6L219.7 206.1L161.4 204.8L163.5 198.4Z" fill="black"/>
<path fill-rule="evenodd" clip-rule="evenodd" d="M229.4 293.9C229.4 295.7 228.6 297.2 227 298.2C225.8 298.9 224.5 298.9 223.3 298.3C221.5 297.2 220.8 295.5 220.9 293.5C221.1 291.5 222.1 290 223.9 289.3C225.8 288.5 227.5 289.5 228.3 290.5C229.1 291.5 229.5 292.6 229.4 293.9ZM226.6 293.7C226.6 293 226.2 292.5 225.7 292.5C225.1 292.4 224.4 292.8 224.2 293.4C224 294.1 224.4 294.8 225.1 295C225.6 295.2 226.3 294.8 226.5 294.1C226.5 294 226.6 293.8 226.6 293.7Z" fill="#5DB3C1"/>
<path fill-rule="evenodd" clip-rule="evenodd" d="M171.5 293.8C171.4 296.4 170.7 297.9 169 298.9C167.8 299.6 166.6 299.6 165.4 299C163.5 297.9 162.8 296.2 163 294.2C163.1 292.2 164.1 290.7 165.9 290C167.5 289.4 168.9 289.8 170.1 290.9C171.1 291.9 171.5 293.1 171.5 293.8ZM168.5 294.5C168.6 293.9 168 293.1 167.3 293C166.6 292.9 165.9 293.5 165.8 294.4C165.8 295.1 166.3 295.7 166.9 295.7C167.6 295.8 168.5 295.2 168.5 294.5Z" fill="#5DB3C1"/>
<path fill-rule="evenodd" clip-rule="evenodd" d="M164.1 286.4C163.6 285.9 163.6 285.2 163.4 284.6C162 278.9 160.6 273.2 159.2 267.5C157.2 259.4 155.3 251.2 153 243.2C152.3 240.6 151.8 238.1 151.1 235.6C149.9 231.3 148.7 227.2 147.6 223C146.2 218.067 144.833 213.133 143.5 208.2C142.433 204.467 141.4 200.767 140.4 197.1C140.2 196.3 139.933 195.533 139.6 194.8C139.3 194.1 139.1 193.5 138.4 193.1C138.3 193.2 138.2 193.2 138.2 193.2C137.1 194.5 135.6 194.7 134.1 194.9C131.5 195.3 129 195.6 126.3 195.7C124.8 195.8 123.2 196 121.7 196.2C118.9 196.5 116.1 196.8 113.3 196.7C112.7 196.7 112 196.6 111.4 196.4C110.8 196.3 110.3 195.8 110 195.2C109 193.7 109.5 192 111.1 191.3C112.433 190.7 113.8 190.2 115.2 189.8C116.4 189.4 117.633 189.133 118.9 189C121.5 188.7 124.1 188.3 126.7 188.2C128.9 188 131.1 188.1 133.2 188.2C134.5 188.2 135.8 188.5 136.8 189.4C137.3 189.9 137.7 190.5 138.4 191.3C139.9 191.8 140.7 193.3 141.2 194.9C142 197.4 142.7 199.8 143.4 202.3C143.5 202.8 143.6 203.3 143.8 203.8C144.1 204.7 144.3 204.9 145.3 204.9C146.5 204.9 147.7 204.9 149 204.9C152.267 204.9 155.567 204.867 158.9 204.8C159.7 204.8 160.5 204.8 161.4 204.8C161.5 204.4 161.6 204.1 161.7 203.7C161.9 199.9 162.133 196.067 162.4 192.2C162.5 191.3 162.6 190.3 162.7 189.5C163.1 188.8 163.7 188.8 164.2 188.7C166.6 188.6 169.1 188.5 171.5 188.4C176.1 188.3 180.7 188.2 185.3 188C190.5 187.8 195.8 187.6 201 187.4C206.2 187.267 211.367 187.133 216.5 187C218.033 186.933 219.567 186.867 221.1 186.8C221.6 186.8 222.1 186.8 222.5 187.3C222.4 188.8 222.2 190.4 222.1 192C222.5 192.1 222.8 192.2 223.1 192.2C226.2 191.8 229.3 191.9 232.4 191.8C233.733 191.733 235.067 191.7 236.4 191.7C237.1 191.7 237.9 191.7 238.6 192C238.933 192.267 239.067 192.633 239 193.1C238.2 196.233 237.433 199.4 236.7 202.6C236.5 203.1 236.4 203.7 236.2 204.3C236.6 204.4 236.9 204.5 237.3 204.5C238.967 204.5 240.633 204.5 242.3 204.5C242.8 204.5 243.3 204.5 243.5 205.1C243.367 205.9 243.133 206.7 242.8 207.5C236.6 220.9 230.433 234.333 224.3 247.8C224 248.4 223.7 249 223.4 249.6C222.9 249.7 222.5 249.8 222.1 249.8C219.433 249.8 216.767 249.833 214.1 249.9C209.1 249.967 204.133 250.067 199.2 250.2C192.533 250.333 185.867 250.467 179.2 250.6C173.6 250.733 168 250.833 162.4 250.9C160.867 250.967 159.367 251.033 157.9 251.1C157.6 251.1 157.3 251.2 156.9 251.2C156.9 251.9 157.1 252.4 157.2 252.9C158.267 257.233 159.3 261.533 160.3 265.8C161.7 271.467 163.067 277.133 164.4 282.8C164.6 283.5 164.9 284.2 165 284.9C165.7 285.2 166.3 285.1 166.8 285.1C171.6 284.967 176.367 284.867 181.1 284.8C183.6 284.7 186 284.7 188.5 284.7C194.3 284.567 200.1 284.433 205.9 284.3C211.7 284.233 217.533 284.133 223.4 284C223.8 284 224.3 284 224.8 284C225 284.1 225.2 284.3 225.4 284.5C225.4 285.1 225.1 285.3 224.6 285.4C224.267 285.4 223.933 285.4 223.6 285.4C218.133 285.533 212.667 285.667 207.2 285.8C204.9 285.8 202.7 285.8 200.4 285.9C194.6 285.967 188.833 286.067 183.1 286.2C177.367 286.333 171.6 286.467 165.8 286.6C165.3 286.6 164.7 286.6 164.1 286.4ZM163.3 204.8C164 204.8 164.7 204.8 165.3 204.8C178.033 204.733 190.767 204.667 203.5 204.6C207.9 204.6 212.333 204.6 216.8 204.6C217.4 204.6 218.1 204.7 218.7 204.3C218.8 204 218.9 203.6 218.9 203.2C219.1 200.9 219.4 198.7 219.9 196.5C220.5 194 220.6 191.5 221.1 189.1C221.1 188.9 221 188.7 221 188.5C220.7 188.4 220.3 188.4 220 188.4C219 188.4 217.9 188.5 216.9 188.6C212.433 188.733 207.967 188.833 203.5 188.9C199.9 189.033 196.3 189.167 192.7 189.3C188.167 189.433 183.633 189.533 179.1 189.6C175.1 189.7 171.2 189.8 167.2 189.9C166.2 189.9 165.1 190 164.1 190.1C163.8 191.5 163.2 202.6 163.3 204.8ZM232.5 226.4C235.4 219.9 238.5 213.3 241.5 206.7C241.5 206.5 241.5 206.4 241.5 206.2C241.1 205.8 240.5 205.9 240 205.9C236.933 205.967 233.867 206 230.8 206C229 206 227.3 206 225.6 206C225.2 206 224.9 206.1 224.5 206.2C224.2 212.8 224.1 219.3 224 225.8C224 226 224.1 226.2 224.1 226.4C225.5 226.7 230.9 226.7 232.5 226.4ZM201.2 226.5C202.4 226.7 208.5 226.8 210.7 226.6C210.9 226.6 211.1 226.5 211.4 226.4C211.467 224.133 211.533 221.867 211.6 219.6C211.6 217.4 211.6 215.2 211.6 213C211.6 210.7 211.8 208.5 211.6 206.1C210.3 206.1 209.1 206.1 207.9 206.1C206.7 206.1 205.6 206.1 204.4 206.1C203.2 206.2 202 206 200.8 206.3C200.6 208.3 200.8 224.6 201.2 226.5ZM166.8 228.3C166.5 228.2 166.4 228.2 166.3 228.2C163.367 228.133 160.4 228.1 157.4 228.1C157.2 228.1 157 228.3 156.7 228.4C156.7 229 156.7 229.6 156.7 230.2C156.767 233.733 156.8 237.267 156.8 240.8C156.8 243.267 156.8 245.7 156.8 248.1C156.8 248.6 156.7 249.1 157.2 249.5C158.7 249.6 160.3 249.5 161.9 249.5C163.5 249.5 165.2 249.6 166.8 249.3C166.9 248.8 166.9 248.5 166.9 248.1C167.1 239.4 167 230 166.8 228.3ZM211.2 248.3C211.2 247.3 211.2 246.4 211.2 245.5C211.267 241.9 211.3 238.333 211.3 234.8C211.4 233 211.4 231.2 211.5 229.4C211.5 229 211.4 228.6 211.3 228.1C209.5 228.1 207.8 228.1 206.2 228.1C204.5 228.2 202.8 228 201.1 228.3C201.1 228.6 201 228.9 201 229.2C201.133 235.4 201.233 241.6 201.3 247.8C201.3 248.1 201.4 248.4 201.5 248.6C203 248.8 209.7 248.6 211.2 248.3ZM199.6 248.6C199.7 248.2 199.7 247.8 199.7 247.4C199.7 241.6 199.667 235.8 199.6 230C199.6 229.4 199.6 228.8 199.3 228.2C199 228.2 198.7 228.1 198.4 228.1C195.667 228.1 192.967 228.133 190.3 228.2C190.2 228.2 190.1 228.3 190 228.3C189.9 228.4 189.8 228.5 189.8 228.6C189.733 234.8 189.633 240.967 189.5 247.1C189.5 247.567 189.533 248.033 189.6 248.5C189.6 248.567 189.633 248.6 189.7 248.6C189.7 248.667 189.733 248.733 189.8 248.8C190.9 248.9 197.7 248.9 199.6 248.6ZM166.9 226.4C166.9 225.8 166.9 225.233 166.9 224.7C166.967 222.5 167 220.333 167 218.2C167 214.6 167 211 167 207.4C167 207.1 166.9 206.7 166.8 206.3C165.6 206.2 164.5 206.3 163.4 206.3C162.3 206.2 161.2 206.2 160.1 206.3C159 206.4 157.9 206.2 156.9 206.5C156.8 206.8 156.7 206.9 156.7 207.1C156.7 213.367 156.733 219.633 156.8 225.9C156.8 226.1 156.8 226.3 156.9 226.5C157.1 226.5 157.3 226.6 157.6 226.6C160.467 226.6 163.367 226.6 166.3 226.6C166.5 226.6 166.6 226.5 166.9 226.4ZM188 248.7C188 248.2 188.1 247.7 188.1 247.2C188.1 245.667 188.1 244.167 188.1 242.7C188.167 238.167 188.2 233.667 188.2 229.2C188.2 228.9 188.1 228.6 188 228.2C186.5 228.1 184.9 228.1 183.4 228.1C181.9 228.2 180.3 227.9 178.7 228.3C178.7 228.7 178.7 229 178.7 229.4C178.567 232.733 178.5 236.033 178.5 239.3C178.433 242.1 178.4 244.9 178.4 247.7C178.4 248.2 178.3 248.6 178.7 249C181.2 249.3 186.4 249.1 188 248.7ZM178.7 226.4C180.7 226.7 186.9 226.7 188.2 226.4C188.3 224.8 188.4 223.1 188.4 221.4C188.4 219.733 188.4 218.067 188.4 216.4C188.4 214.667 188.433 212.967 188.5 211.3C188.5 209.6 188.7 208 188.4 206.2C187.3 206.1 186.2 206.2 185.2 206.2C184.133 206.133 183.1 206.133 182.1 206.2C181 206.2 180 206 178.9 206.3C178.7 208.8 178.8 211.3 178.8 213.7C178.7 217.9 178.6 222.1 178.7 226.4ZM213 226.5C214.2 226.8 215.2 226.6 216.3 226.6C217.3 226.667 218.267 226.667 219.2 226.6C220.3 226.6 221.3 226.8 222.4 226.4C222.9 219.8 222.6 213.3 223 206.7C223 206.6 222.9 206.4 222.8 206.2C221.8 205.9 220.7 206.1 219.7 206.1C218.567 206.033 217.467 206.033 216.4 206.1C215.4 206.1 214.3 205.9 213.3 206.3C213 213 213 219.7 213 226.5ZM190.2 206.2C189.9 208 189.7 224.6 190 226.4C190.2 226.5 190.4 226.6 190.6 226.6C193.333 226.6 196.067 226.6 198.8 226.6C199 226.6 199.1 226.5 199.3 226.4C199.3 226.3 199.4 226.2 199.4 226.1C199.333 219.833 199.267 213.533 199.2 207.2C199.2 206.9 199.1 206.6 199 206.2C196.1 206.2 193.2 206.2 190.2 206.2ZM212.9 228.3C212.9 229 212.9 229.6 212.9 230.1C212.833 234.167 212.767 238.233 212.7 242.3C212.633 243.967 212.633 245.667 212.7 247.4C212.7 247.7 212.8 248 212.9 248.4C215.7 248.4 218.4 248.5 221.1 248.3C221.4 248.3 221.7 248.1 222 248C222 247.4 222 246.8 222 246.2C222.067 243.533 222.133 240.867 222.2 238.2C222.267 235.2 222.333 232.2 222.4 229.2C222.4 228.9 222.3 228.5 222.2 228.2C220.3 228 214.5 228.1 212.9 228.3ZM177.1 226.5C177.1 226 177.2 225.6 177.2 225.2C177.267 224.333 177.3 223.467 177.3 222.6C177.3 217.667 177.333 212.767 177.4 207.9C177.4 207.4 177.6 206.8 177 206.2C174.4 206.2 171.7 206.2 169.1 206.3C168.9 206.3 168.8 206.4 168.7 206.5C168.4 208.5 168.4 225 168.6 226.4C168.7 226.4 168.8 226.6 168.9 226.6C171.1 226.6 173.3 226.6 175.5 226.6C176 226.6 176.5 226.6 177.1 226.5ZM176.9 249.1C176.9 248.7 177 248.5 177 248.2C177.067 241.867 177.1 235.5 177.1 229.1C177.1 228.8 177 228.5 177 228.2C175.5 228.1 174.1 228.1 172.7 228.1C171.3 228.2 170 227.9 168.6 228.3C168.6 228.5 168.5 228.7 168.5 228.9C168.5 235.433 168.467 242 168.4 248.6C168.4 248.8 168.6 249.1 168.7 249.4C171.4 249.3 174.1 249.4 176.9 249.1ZM222.2 193.6C221.4 196.3 220.5 201.9 220.5 204.4C220.9 204.5 221.4 204.6 221.8 204.6C228.2 204.7 233.2 204.6 234.4 204.2C234.467 204.067 234.533 203.867 234.6 203.6C235.7 200.5 236.2 197.3 237 194.2C237.1 193.9 237.2 193.6 236.8 193.3C232 193.2 227.1 193.3 222.2 193.6ZM144.7 206.6C144.8 207.1 144.8 207.6 144.9 208C146.5 213.733 148.1 219.433 149.7 225.1C149.9 225.6 150.1 226.1 150.2 226.5C152.5 226.8 154.1 226.7 155.2 226.3C155.2 225.9 155.3 225.5 155.3 225.1C155.3 223.967 155.3 222.8 155.3 221.6C155.3 217.133 155.3 212.667 155.3 208.2C155.3 207.6 155.4 207 155 206.5C153.8 206.4 147.5 206.3 145.4 206.4C145.2 206.4 145 206.5 144.7 206.6ZM136.4 192.9C136.9 191.9 136.6 191.3 136.1 190.8C135.433 190.067 134.6 189.7 133.6 189.7C131.4 189.7 129.3 189.6 127.1 189.7C125.7 189.7 124.3 189.8 122.8 190C121.8 190.1 120.9 190.3 119.9 190.4C117.1 190.6 114.4 191.5 111.9 192.6C111.7 192.667 111.533 192.767 111.4 192.9C111 193.1 110.9 193.6 111.1 194.1C111.3 194.5 111.5 194.9 112 195C112.7 195.2 113.4 195.4 114.1 195.3C116.2 195.2 118.2 195 120.3 194.8C122.7 194.6 125 194.3 127.4 194.1C129.933 193.967 132.4 193.7 134.8 193.3C135.4 193.2 135.8 193 136.4 192.9ZM223.6 244.9C223.667 244.967 223.767 245 223.9 245C224.1 244.533 224.333 244.067 224.6 243.6C226.733 239 228.833 234.367 230.9 229.7C231.1 229.3 231.5 228.8 231.3 228.3C229.7 228 225.3 228.1 224.1 228.3C224 228.4 223.9 228.5 223.9 228.6C223.767 233.733 223.633 238.833 223.5 243.9C223.5 244.3 223.5 244.6 223.6 244.9ZM150.7 228.3C150.8 228.8 150.9 229.1 151 229.5C151.667 232.167 152.367 234.833 153.1 237.5C153.6 239.5 154.1 241.5 154.7 243.4C154.8 243.8 154.7 244.3 155.4 244.5C155.333 239.233 155.267 234 155.2 228.8C155.2 228.6 155.1 228.4 155 228.2C153.7 228.1 152.3 228.1 150.7 228.3Z" fill="#3C3372"/>
<path d="M226.6 293.7C226.6 293.8 226.5 294 226.5 294.1C226.3 294.8 225.6 295.2 225.1 295C224.4 294.8 224 294.1 224.2 293.4C224.4 292.8 225.1 292.4 225.7 292.5C226.2 292.5 226.6 293 226.6 293.7Z" fill="#3C3372"/>
<path d="M168.5 294.5C168.5 295.2 167.6 295.8 166.9 295.7C166.3 295.7 165.8 295.1 165.8 294.4C165.9 293.5 166.6 292.9 167.3 293C168 293.1 168.6 293.9 168.5 294.5Z" fill="#3C3372"/>
<path d="M79.3 23.1C78.9 23.2 78.6 23.3 78.4 23.6C76.9334 24.2 75.4334 24.6 73.9 24.8C72.8 25 71.7 25.2 71.1 26.2C70.6 27 70.6001 28 71.2001 28.7C71.9001 29.7 73.4 29.8 74.6 29.8C76.7 29.8 79.9 29.2 81.3 27.4C82.5 25.7 81.6 22.9 79.3 23.1Z" fill="#F5F5F5"/>
<path d="M67.2 29C66.8 28.5 66.3 28.6 66 28.8C64.8 28.8 63.8 30.3 64.9 31.2C66.4 32.5 68.3 30.4 67.2 29Z" fill="#F5F5F5"/>
<path d="M117.8 76C117.5 75.1 117.3 73.9 116.5 73.3C116.233 73.1 115.9 72.9667 115.5 72.9C115.3 72.7 115 72.5 114.6 72.7C113.4 73.3667 112.367 74.2333 111.5 75.3C111 75.8 111.3 76.5 112 76.6C113.667 76.7333 115.367 76.8333 117.1 76.9C117.6 77 118 76.4 117.8 76Z" fill="#F5F5F5"/>
<path d="M24.8 136.4L24.6 136.8C24.2 137.7 25.5 138.5 25.9 137.6L26.1 137.2C26.5 136.3 25.2 135.6 24.8 136.4Z" fill="#F5F5F5"/>
<path d="M173.4 72.6C173 69.9 170.9 69.4 169.5 70.6C169.1 70.8 168.8 71.2 168.7 71.7C168.633 71.9667 168.533 72.2333 168.4 72.5C168.3 72.9 168.4 73.2 168.6 73.5C168.3 76.7 168 79.8 167.9 82.9C167.8 85.2 168.3 87.2 170.4 88.3C171 88.6 171.8 88.6 172.3 88.1C173.6 86.5 173.4 84.7 173.4 82.7C173.4 79.4 173.8 75.8 173.4 72.6Z" fill="#F5F5F5"/>
<path d="M174.4 45C174.3 44.2 173.8 43.6 173 43.5C172.8 43.3 172.567 43.1333 172.3 43C171.5 42.8 170.8 43.3 170.5 44.1C169.9 45.5 170.9 47 172.2 47.5C172.9 47.7 173.6 47.3 173.9 46.8C174.3 46.2 174.5 45.6 174.4 45Z" fill="#F5F5F5"/>
<path d="M171.3 53.6C170.9 53.6 170.5 53.8 170.2 54.2C169.8 54.4 169.5 54.8 169.6 55.4C169.6 55.7333 169.6 56.1 169.6 56.5C169.7 58.3 172 58.5 172.6 56.9C172.9 56.4 172.9 55.7 172.9 55.1C172.8 54.3 172.2 53.6 171.3 53.6Z" fill="#F5F5F5"/>
<path d="M112.6 95.2C112.1 94.4 111.2 94.4 110.5 94.8C109.8 94.6 108.9 94.8 108.7 95.8C108.367 97.2 108.333 98.6333 108.6 100.1C108.9 101.1 110.1 101.4 110.9 101C113 100 113.7 97.2 112.6 95.2Z" fill="#F5F5F5"/>
<path d="M14.8001 111.2C14.7001 111.2 14.5001 111.1 14.3001 111.1C10.6001 111.4 9.20007 114.7 6.60007 116.8C5.90007 117.3 6.00007 118.5 6.60007 119C8.10007 120.3 9.70007 119.6 11.1001 118.4C13.0001 116.8 14.9001 115.1 16.9001 113.4C18.3001 112.1 16.3001 110.1 14.8001 111.2Z" fill="#F5F5F5"/>
</svg>
