<svg width="540" height="550" viewBox="0 0 540 550" fill="none" xmlns="http://www.w3.org/2000/svg">
<path d="M75.2 459.4C109 473.2 136.4 438.7 207.8 452.3C260.8 462.3 268.6 485.7 316.1 494.6C372 504.9 430.9 485.6 463.9 460.8C559.3 389.4 575.4 171.3 446.3 60.7C341.1 -29.5 171.9 -20.5 76.6 74.9C-49.8 201.4 3.10001 430 75.2 459.4Z" fill="#B3DDFF"/>
<path d="M388 538.9C388 544.8 348.1 549.6 298.9 549.6C249.7 549.6 209.8 544.8 209.8 538.9C209.8 532.9 249.7 528.1 298.9 528.1C348.1 528.1 388 532.9 388 538.9Z" fill="black"/>
<path d="M300.1 436.1H221C208.6 436.1 198.5 426.1 198.5 413.6V218C198.5 205.6 208.6 195.5 221 195.5H300.1C312.5 195.5 322.6 205.6 322.6 218V413.6C322.6 426.1 312.5 436.1 300.1 436.1Z" fill="white"/>
<path d="M304.9 286.7C304.9 312.5 285.1 333.4 260.5 333.4C236 333.4 216.2 312.5 216.2 286.7C216.2 260.9 236 239.9 260.5 239.9C285.1 239.9 304.9 260.9 304.9 286.7Z" fill="#BAEDB2"/>
<path d="M300.9 286.7C300.9 310.1 282.8 329.1 260.5 329.1C238.3 329.1 220.2 310.1 220.2 286.7C220.2 263.2 238.3 244.2 260.5 244.2C282.8 244.2 300.9 263.2 300.9 286.7Z" fill="#BAEDB2"/>
<path d="M297 286.7C297 306.8 280.7 323.1 260.5 323.1C240.4 323.1 224.1 306.8 224.1 286.7C224.1 266.5 240.4 250.2 260.5 250.2C280.7 250.2 297 266.5 297 286.7Z" fill="#BAEDB2"/>
<path d="M291.6 286.7C291.6 303.8 277.7 317.7 260.5 317.7C243.4 317.7 229.5 303.8 229.5 286.7C229.5 269.5 243.4 255.7 260.5 255.7C277.7 255.7 291.6 269.5 291.6 286.7Z" fill="#BAEDB2"/>
<path fill-rule="evenodd" clip-rule="evenodd" d="M271.7 270.4C271.7 270.6 271.7 270.8 271.7 271C271.167 272.267 270.633 273.567 270.1 274.9C270 275.1 269.8 275.2 269.7 275.5C269.3 275.4 269 275.5 268.6 275.4C267.8 275.2 266.967 275 266.1 274.8C264.8 274.4 263.5 274.6 262.2 274.9C260.6 275.3 259.5 276.5 258.7 277.9C258.4 278.5 258.5 279.1 259 279.7C259.5 280.2 260 280.8 260.7 281.2C261.8 282 263.1 282.7 264.3 283.4C265.1 283.8 266 284.2 266.8 284.7C267.267 284.967 267.7 285.233 268.1 285.5C272.2 288.2 273.4 292.1 272.7 296.7C272.3 299.5 270.8 301.7 268.1 302.9C266.7 303.5 265.3 304.1 263.7 304.8C263.7 304.9 263.5 305.2 263.5 305.6C263.5 305.9 263.5 306.3 263.5 306.6C263.5 307.7 263 308.2 261.9 308.2C261.433 308.267 261 308.267 260.6 308.2C259.3 308.1 258 308 256.7 307.9C255.8 307 256.4 305.9 256 304.9C255.7 304.7 255.3 304.5 254.8 304.4C252.8 303.5 251 302.4 249.3 301.1C248.8 300.7 248.4 300.4 248.2 299.8C248.2 299.1 248.6 298.6 249 298C249.4 297.4 249.8 296.8 250.2 296.2C250.6 295.7 250.9 295 251.5 294.7C252.1 294.6 252.5 294.9 252.8 295.2C254.2 296.3 255.9 297.1 257.5 297.9C259.7 298.9 261.8 298.6 263.8 297.5C264.2 297.2 264.5 296.9 264.9 296.6C266.1 295.4 266.3 293.9 265.4 292.4C264.7 291.3 263.8 290.4 262.5 289.9C261.767 289.567 261.033 289.233 260.3 288.9C257.833 287.967 255.6 286.7 253.6 285.1C253.467 285.033 253.367 284.967 253.3 284.9C250.2 282.2 249.6 278 251.8 274.4C252.6 273.3 253.5 272.3 254.6 271.5C254.8 271.2 255.1 271 255.5 270.8C255.5 269.2 255.5 267.6 255.5 266C255.8 265.8 256.1 265.5 256.4 265.5C258 265.3 259.7 265.2 261.3 265.1C261.5 265 261.6 265.2 261.9 265.2C262.5 266.3 261.8 267.5 262.3 268.7C263.1 268.9 263.9 268.5 264.7 268.6C265.5 268.7 266.3 268.7 267.1 268.9C267.833 268.967 268.567 269.1 269.3 269.3C270.1 269.5 271 269.6 271.7 270.4ZM261.8 306.6C261.9 306.4 262 306.3 262 306.2C262 305.867 262.033 305.567 262.1 305.3C262.1 304.9 262.1 304.5 262.1 304.1C262.2 303.5 262.5 303.2 263 303.1C264.7 303 266.2 302.1 267.7 301.3C269.1 300.7 270 299.7 270.6 298.4C271.2 297.1 271.4 295.8 271.4 294.4C271.4 291.2 270.2 288.6 267.4 286.9C266.4 286.2 265.3 285.6 264.2 285C262.8 284.2 261.3 283.4 260 282.5C259.1 282 258.4 281.3 257.8 280.5C256.9 279.5 256.8 278.3 257.4 277.2C258.3 275.4 259.6 274 261.6 273.5C263.4 273 265.1 272.9 266.9 273.4C267.5 273.5 268.2 273.6 269 273.8C269.333 272.867 269.633 272.033 269.9 271.3C269.7 271.2 269.7 271 269.6 271C269.267 270.867 268.933 270.733 268.6 270.6C266.5 270.1 264.3 270 262.1 270.4C260.8 270.6 260.5 270.3 260.6 268.9C260.6 268.433 260.6 267.967 260.6 267.5C260.6 267.3 260.5 267 260.5 266.8C259.1 266.6 258.4 266.7 257.1 267C256.7 268.6 257.2 270.3 256.7 271.8C256.433 272 256.167 272.167 255.9 272.3C254.6 273.2 253.6 274.3 252.8 275.6C251.3 278.4 251.8 281.6 254.2 283.6C255.3 284.5 256.5 285.4 257.8 286.1C259.5 287 261.3 287.7 263.1 288.4C264.6 289.1 265.8 290.3 266.7 291.7C267.1 292.367 267.333 293.067 267.4 293.8C267.5 295.5 266.9 296.9 265.7 297.9C263.3 300 260.5 300.5 257.5 299.5C255.8 298.9 254.2 298 252.8 297C252.5 296.9 252.2 296.7 251.9 296.6C251.1 297.6 250.3 298.5 249.9 299.7C250.1 299.833 250.3 299.967 250.5 300.1C252.3 301.4 254.1 302.5 256.2 303.2C256.7 303.4 257.2 303.5 257.5 304.1C257.8 304.8 257.4 305.7 258 306.6C259.2 306.5 260.5 307 261.8 306.6Z" fill="#3C3372"/>
<path d="M261.8 306.6C260.5 307 259.2 306.5 258 306.6C257.4 305.7 257.8 304.8 257.5 304.1C257.2 303.5 256.7 303.4 256.2 303.2C254.1 302.5 252.3 301.4 250.5 300.1C250.3 299.967 250.1 299.833 249.9 299.7C250.3 298.5 251.1 297.6 251.9 296.6C252.2 296.7 252.5 296.9 252.8 297C254.2 298 255.8 298.9 257.5 299.5C260.5 300.5 263.3 300 265.7 297.9C266.9 296.9 267.5 295.5 267.4 293.8C267.333 293.067 267.1 292.367 266.7 291.7C265.8 290.3 264.6 289.1 263.1 288.4C261.3 287.7 259.5 287 257.8 286.1C256.5 285.4 255.3 284.5 254.2 283.6C251.8 281.6 251.3 278.4 252.8 275.6C253.6 274.3 254.6 273.2 255.9 272.3C256.167 272.167 256.433 272 256.7 271.8C257.2 270.3 256.7 268.6 257.1 267C258.4 266.7 259.1 266.6 260.5 266.8C260.5 267 260.6 267.3 260.6 267.5C260.6 267.967 260.6 268.433 260.6 268.9C260.5 270.3 260.8 270.6 262.1 270.4C264.3 270 266.5 270.1 268.6 270.6C268.933 270.733 269.267 270.867 269.6 271C269.7 271 269.7 271.2 269.9 271.3C269.633 272.033 269.333 272.867 269 273.8C268.2 273.6 267.5 273.5 266.9 273.4C265.1 272.9 263.4 273 261.6 273.5C259.6 274 258.3 275.4 257.4 277.2C256.8 278.3 256.9 279.5 257.8 280.5C258.4 281.3 259.1 282 260 282.5C261.3 283.4 262.8 284.2 264.2 285C265.3 285.6 266.4 286.2 267.4 286.9C270.2 288.6 271.4 291.2 271.4 294.4C271.4 295.8 271.2 297.1 270.6 298.4C270 299.7 269.1 300.7 267.7 301.3C266.2 302.1 264.7 303 263 303.1C262.5 303.2 262.2 303.5 262.1 304.1C262.1 304.5 262.1 304.9 262.1 305.3C262.033 305.567 262 305.867 262 306.2C262 306.3 261.9 306.4 261.8 306.6Z" fill="#F5F5F5"/>
<path fill-rule="evenodd" clip-rule="evenodd" d="M275.7 212.1H245.4C243.7 212.1 242.3 210.7 242.3 209V208.6C242.3 206.9 243.7 205.6 245.4 205.6H275.7C277.4 205.6 278.8 206.9 278.8 208.6V209C278.8 210.7 277.4 212.1 275.7 212.1ZM245.4 207.1C244.6 207.1 243.9 207.8 243.9 208.6V209C243.9 209.9 244.6 210.6 245.4 210.6H275.7C276.5 210.6 277.2 209.9 277.2 209V208.6C277.2 207.8 276.5 207.1 275.7 207.1H245.4Z" fill="#3C3372"/>
<path fill-rule="evenodd" clip-rule="evenodd" d="M260.5 426.6C257.1 426.6 254.4 423.9 254.4 420.5C254.4 417.1 257.1 414.3 260.5 414.3C263.9 414.3 266.7 417.1 266.7 420.5C266.7 423.9 263.9 426.6 260.5 426.6ZM260.5 415.8C258 415.8 255.9 417.9 255.9 420.5C255.9 423 258 425.1 260.5 425.1C263.1 425.1 265.2 423 265.2 420.5C265.2 417.9 263.1 415.8 260.5 415.8Z" fill="#3C3372"/>
<path fill-rule="evenodd" clip-rule="evenodd" d="M208.5 411.2C206 411.2 203.5 411.2 201 411.2C196.8 411.1 192.5 411.4 188.3 411.5C186.967 411.5 185.6 411.533 184.2 411.6C183.1 411.6 182 411.7 181 411.7C180.667 411.767 180.333 411.8 180 411.8C175.2 411.8 170.5 411.9 165.7 411.8C162.233 411.733 158.767 411.633 155.3 411.5C153.5 411.4 151.7 411.3 149.8 411.1C149 411 148.2 410.7 147.5 410.5C145.7 410.1 144.6 409 143.9 407.4C143.2 405.6 143 403.8 142.9 402C142.8 399.2 142.8 396.5 142.7 393.7C142.6 391.2 142.5 388.8 142.5 386.3C142.5 382.7 142.2 379.2 141.7 375.6C141.6 374.4 141.5 373.1 141.5 371.8C141.5 367.733 141.533 363.667 141.6 359.6C141.7 357.7 142.1 355.9 143 354.3C144.5 351.5 146.7 349.8 150 349.6C154 349.333 158.033 349.067 162.1 348.8C165.3 348.5 168.6 348.2 171.8 348C174.8 347.8 177.8 347.7 180.7 347.6C185.3 347.4 189.9 347.2 194.5 347.1C197.3 347 200 347.1 202.8 347C207.333 347 211.867 346.967 216.4 346.9C218.1 346.9 219.8 346.8 221.5 346.9C222.6 347 223.8 347.1 224.9 347.5C227.1 348.1 228.6 349.6 229.6 351.8C230.6 354.2 231.1 356.7 231.2 359.3C231.2 360.7 231.2 362.1 231.2 363.5C231.2 368.5 231.6 373.5 231.8 378.6C231.9 381.2 231.9 383.8 231.9 386.5C231.967 389.5 231.967 392.533 231.9 395.6C231.8 397.4 231.7 399.2 231.6 401C231.6 401.8 231.6 402.5 231.5 403.3C231.433 404.1 231.367 404.9 231.3 405.7C231 408.1 229.5 409.5 227.5 410.5C225.7 411.233 223.833 411.6 221.9 411.6C217.433 411.467 212.967 411.367 208.5 411.3C208.5 411.233 208.5 411.2 208.5 411.2ZM229.7 369.6C228.8 369.6 228.1 369.6 227.4 369.6C208.667 369.667 189.967 369.733 171.3 369.8C165.633 369.8 159.967 369.8 154.3 369.8C151.033 369.8 147.8 369.8 144.6 369.8C144.1 369.8 143.7 369.9 143.1 370C142.9 371.2 143 372.3 143.1 373.5C143.3 375.1 143.5 376.7 143.7 378.3C143.8 380 144.1 381.6 144.1 383.2C144.1 389.3 144.2 395.3 144.5 401.4C144.567 402.467 144.7 403.567 144.9 404.7C145.4 408.1 146.8 409 149.7 409.4C152.167 409.667 154.667 409.867 157.2 410C159.7 410.2 162.2 410.2 164.7 410.2C170.233 410.2 175.733 410.167 181.2 410.1C184.1 410 187.1 409.9 190 409.8C198.2 409.5 206.3 409.7 214.4 409.8C215.867 409.8 217.333 409.833 218.8 409.9C219.8 409.9 220.9 410 222 410C223.8 410.1 225.5 409.6 227.1 408.9C228.3 408.3 229.3 407.4 229.6 406C229.8 405 229.9 404 230 403C230 402.3 230 401.5 230 400.8C230.1 399.1 230.3 397.5 230.3 395.9C230.367 392.5 230.4 389.133 230.4 385.8C230.333 382.133 230.233 378.433 230.1 374.7C230 373.1 229.8 371.5 229.7 369.6ZM229.3 358.5C228.4 358.5 227.6 358.5 226.8 358.5C223.4 358.633 220 358.733 216.6 358.8C212.133 358.933 207.667 359.067 203.2 359.2C198.533 359.333 193.867 359.467 189.2 359.6C183.533 359.733 177.833 359.867 172.1 360C168.5 360.1 164.9 360.3 161.3 360.4C155.767 360.533 150.233 360.667 144.7 360.8C144.2 360.8 143.8 360.9 143.4 360.9C142.9 362.7 142.8 366.5 143.3 368.1C143.8 368.1 144.2 368.2 144.7 368.2C154.967 368.133 165.233 368.1 175.5 368.1C189.633 368.1 203.767 368.1 217.9 368.1C221.233 368.1 224.567 368.067 227.9 368C228.5 368 229 368.2 229.5 367.8C229.8 366 229.7 360.3 229.3 358.5ZM229.3 356.7C229.1 354.7 228.5 353 227.5 351.4C226.6 349.8 225.2 349.1 223.5 348.8C222.2 348.5 220.9 348.5 219.6 348.4C217.9 348.4 216.2 348.4 214.5 348.5C211.4 348.5 208.3 348.7 205.3 348.7C198.7 348.7 192.2 348.6 185.6 349C181.5 349.2 177.4 349.3 173.4 349.5C171 349.6 168.7 349.8 166.4 350C161.867 350.333 157.333 350.667 152.8 351C151.667 351.133 150.533 351.233 149.4 351.3C148.2 351.4 147.2 351.9 146.2 352.7C144.5 354.2 143.7 356.1 143.4 358.3C143.4 358.5 143.5 358.8 143.5 359.1C144.6 359.1 145.6 359.1 146.6 359.1C150.267 359.033 153.9 358.933 157.5 358.8C162.033 358.667 166.533 358.533 171 358.4C176.2 358.267 181.4 358.133 186.6 358C189.9 357.9 193.2 357.9 196.5 357.8C202.167 357.6 207.867 357.433 213.6 357.3C218.4 357.167 223.2 357.033 228 356.9C228.4 356.9 228.7 356.8 229.3 356.7Z" fill="#3C3372"/>
<path fill-rule="evenodd" clip-rule="evenodd" d="M229.7 369.6C229.8 371.5 230 373.1 230.1 374.7C230.233 378.433 230.333 382.133 230.4 385.8C230.4 389.133 230.367 392.5 230.3 395.9C230.3 397.5 230.1 399.1 230 400.8C230 401.5 230 402.3 230 403C229.9 404 229.8 405 229.6 406C229.3 407.4 228.3 408.3 227.1 408.9C225.5 409.6 223.8 410.1 222 410C220.9 410 219.8 409.9 218.8 409.9C217.333 409.833 215.867 409.8 214.4 409.8C206.3 409.7 198.2 409.5 190 409.8C187.1 409.9 184.1 410 181.2 410.1C175.733 410.167 170.233 410.2 164.7 410.2C162.2 410.2 159.7 410.2 157.2 410C154.667 409.867 152.167 409.667 149.7 409.4C146.8 409 145.4 408.1 144.9 404.7C144.7 403.567 144.567 402.467 144.5 401.4C144.2 395.3 144.1 389.3 144.1 383.2C144.1 381.6 143.8 380 143.7 378.3C143.5 376.7 143.3 375.1 143.1 373.5C143 372.3 142.9 371.2 143.1 370C143.7 369.9 144.1 369.8 144.6 369.8C147.8 369.8 151.033 369.8 154.3 369.8C159.967 369.8 165.633 369.8 171.3 369.8C189.967 369.733 208.667 369.667 227.4 369.6C228.1 369.6 228.8 369.6 229.7 369.6ZM222.4 396.4C221.6 396.3 221 396.2 220.4 396.2C212.867 396.2 205.367 396.2 197.9 396.2C197.433 396.2 196.933 396.267 196.4 396.4C196 396.4 195.7 396.7 195.8 397.3C196 397.5 196.2 397.7 196.6 397.8C197 397.9 197.4 397.9 197.9 397.9C201.033 397.9 204.167 397.9 207.3 397.9C211.633 397.9 215.967 397.867 220.3 397.8C221 397.8 221.7 398 222.4 397.4C222.4 397.2 222.4 396.9 222.4 396.4ZM222.3 402.6C220.6 402.6 218.9 402.5 217.2 402.6C214.9 402.6 212.6 402.8 210.3 402.9C205.967 403.033 201.667 403.167 197.4 403.3C197.1 403.3 196.8 403.3 196.5 403.4C196.2 403.5 196 403.8 195.7 404C196 405 196.6 405 197.3 405C199.367 404.867 201.433 404.767 203.5 404.7C206.1 404.567 208.667 404.467 211.2 404.4C213.4 404.3 215.6 404.3 217.8 404.2C219.4 404.2 220.9 404 222.3 403.9C222.7 403.5 222.9 403.1 222.3 402.6ZM222 390C221.3 389.6 220.6 389.7 219.9 389.7C215.9 389.8 211.8 389.9 207.8 389.9C204.5 390 201.3 390 198 390C197.467 390 196.9 390.033 196.3 390.1C195.9 390.2 195.6 390.5 195.7 390.9C195.7 391.3 196 391.6 196.4 391.6C196.6 391.667 196.8 391.7 197 391.7C204.667 391.567 212.333 391.467 220 391.4C220.3 391.4 220.7 391.4 221.1 391.3C221.4 391.3 221.8 391.1 222.2 390.9C222.133 390.567 222.067 390.267 222 390ZM209.9 384.8C209.6 384 209 384 208.5 384C204.7 384.067 200.9 384.1 197.1 384.1C196.6 384.2 196.1 384.2 195.7 384.7C195.767 384.967 195.833 385.3 195.9 385.7C196.5 385.7 196.9 385.8 197.3 385.8C200.167 385.8 203 385.767 205.8 385.7C206.8 385.7 207.8 385.6 208.8 385.5C209.3 385.5 209.7 385.4 209.9 384.8Z" fill="#5DB3C1"/>
<path d="M229.3 358.5C229.7 360.3 229.8 366 229.5 367.8C229 368.2 228.5 368 227.9 368C224.567 368.067 221.233 368.1 217.9 368.1C203.767 368.1 189.633 368.1 175.5 368.1C165.233 368.1 154.967 368.133 144.7 368.2C144.2 368.2 143.8 368.1 143.3 368.1C142.8 366.5 142.9 362.7 143.4 360.9C143.8 360.9 144.2 360.8 144.7 360.8C150.233 360.667 155.767 360.533 161.3 360.4C164.9 360.3 168.5 360.1 172.1 360C177.833 359.867 183.533 359.733 189.2 359.6C193.867 359.467 198.533 359.333 203.2 359.2C207.667 359.067 212.133 358.933 216.6 358.8C220 358.733 223.4 358.633 226.8 358.5C227.6 358.5 228.4 358.5 229.3 358.5Z" fill="#F5F5F5"/>
<path d="M229.3 356.7C228.7 356.8 228.4 356.9 228 356.9C223.2 357.033 218.4 357.167 213.6 357.3C207.867 357.433 202.167 357.6 196.5 357.8C193.2 357.9 189.9 357.9 186.6 358C181.4 358.133 176.2 358.267 171 358.4C166.533 358.533 162.033 358.667 157.5 358.8C153.9 358.933 150.267 359.033 146.6 359.1C145.6 359.1 144.6 359.1 143.5 359.1C143.5 358.8 143.4 358.5 143.4 358.3C143.7 356.1 144.5 354.2 146.2 352.7C147.2 351.9 148.2 351.4 149.4 351.3C150.533 351.233 151.667 351.133 152.8 351C157.333 350.667 161.867 350.333 166.4 350C168.7 349.8 171 349.6 173.4 349.5C177.4 349.3 181.5 349.2 185.6 349C192.2 348.6 198.7 348.7 205.3 348.7C208.3 348.7 211.4 348.5 214.5 348.5C216.2 348.4 217.9 348.4 219.6 348.4C220.9 348.5 222.2 348.5 223.5 348.8C225.2 349.1 226.6 349.8 227.5 351.4C228.5 353 229.1 354.7 229.3 356.7Z" fill="#5DB3C1"/>
<path d="M222.4 396.4C222.4 396.9 222.4 397.2 222.4 397.4C221.7 398 221 397.8 220.3 397.8C215.967 397.867 211.633 397.9 207.3 397.9C204.167 397.9 201.033 397.9 197.9 397.9C197.4 397.9 197 397.9 196.6 397.8C196.2 397.7 196 397.5 195.8 397.3C195.7 396.7 196 396.4 196.4 396.4C196.933 396.267 197.433 396.2 197.9 396.2C205.367 396.2 212.867 396.2 220.4 396.2C221 396.2 221.6 396.3 222.4 396.4Z" fill="#F5F5F5"/>
<path d="M222.3 402.6C222.9 403.1 222.7 403.5 222.3 403.9C220.9 404 219.4 404.2 217.8 404.2C215.6 404.3 213.4 404.3 211.2 404.4C208.667 404.467 206.1 404.567 203.5 404.7C201.433 404.767 199.367 404.867 197.3 405C196.6 405 196 405 195.7 404C196 403.8 196.2 403.5 196.5 403.4C196.8 403.3 197.1 403.3 197.4 403.3C201.667 403.167 205.967 403.033 210.3 402.9C212.6 402.8 214.9 402.6 217.2 402.6C218.9 402.5 220.6 402.6 222.3 402.6Z" fill="#F5F5F5"/>
<path d="M222 390C222.067 390.267 222.133 390.567 222.2 390.9C221.8 391.1 221.4 391.3 221.1 391.3C220.7 391.4 220.3 391.4 220 391.4C212.333 391.467 204.667 391.567 197 391.7C196.8 391.7 196.6 391.667 196.4 391.6C196 391.6 195.7 391.3 195.7 390.9C195.6 390.5 195.9 390.2 196.3 390.1C196.9 390.033 197.467 390 198 390C201.3 390 204.5 390 207.8 389.9C211.8 389.9 215.9 389.8 219.9 389.7C220.6 389.7 221.3 389.6 222 390Z" fill="#F5F5F5"/>
<path d="M209.9 384.8C209.7 385.4 209.3 385.5 208.8 385.5C207.8 385.6 206.8 385.7 205.8 385.7C203 385.767 200.167 385.8 197.3 385.8C196.9 385.8 196.5 385.7 195.9 385.7C195.833 385.3 195.767 384.967 195.7 384.7C196.1 384.2 196.6 384.2 197.1 384.1C200.9 384.1 204.7 384.067 208.5 384C209 384 209.6 384 209.9 384.8Z" fill="#F5F5F5"/>
<path d="M246.6 379H240.5V377.5H246.6C251.2 377.5 254.9 373.8 254.9 369.2V340.7H256.4V369.2C256.4 374.6 252 379 246.6 379Z" fill="#3C3372"/>
<path fill-rule="evenodd" clip-rule="evenodd" d="M255.6 341.5C254 341.5 252.6 340.2 252.6 338.5C252.6 336.9 254 335.5 255.6 335.5C257.3 335.5 258.6 336.9 258.6 338.5C258.6 340.2 257.3 341.5 255.6 341.5ZM255.6 337.1C254.8 337.1 254.2 337.7 254.2 338.5C254.2 339.3 254.8 340 255.6 340C256.4 340 257.1 339.3 257.1 338.5C257.1 337.7 256.4 337.1 255.6 337.1Z" fill="#3C3372"/>
<path fill-rule="evenodd" clip-rule="evenodd" d="M238.3 381.2C236.7 381.2 235.3 379.9 235.3 378.2C235.3 376.6 236.7 375.3 238.3 375.3C240 375.3 241.3 376.6 241.3 378.2C241.3 379.9 240 381.2 238.3 381.2ZM238.3 376.8C237.5 376.8 236.9 377.4 236.9 378.2C236.9 379 237.5 379.7 238.3 379.7C239.1 379.7 239.8 379 239.8 378.2C239.8 377.4 239.1 376.8 238.3 376.8Z" fill="#3C3372"/>
<path d="M338.5 447.2C338.167 449.133 337.8 451.1 337.4 453.1C337.3 453.7 337.2 454.2 336.9 454.8C336.5 455.9 335.7 456.6 334.4 456.6C331.667 456.6 328.933 456.6 326.2 456.6C318 456.733 309.833 456.867 301.7 457L301.8 473.4C302 476.1 302.2 478.8 302.4 481.6C302.733 485.467 303.067 489.367 303.4 493.3C303.533 494.9 303.667 496.533 303.8 498.2C303.8 499 303.8 499.8 303.8 500.8C299.8 501.2 295.9 501.6 292 501.9C291.8 502 291.5 501.9 291.3 501.9C291.2 501.6 291 501.4 291 501.1C289.5 490.7 288 480.2 286.4 469.6L284.7 457.3C282.767 457.367 280.867 457.367 279 457.3C273.3 457.1 267.7 457.7 262 457.7C261.867 457.7 261.733 457.7 261.6 457.7C260.4 457.9 259.9 458.4 260 459.6C260.1 460.8 260.3 462.1 260.4 463.3C260.933 468.167 261.433 473 261.9 477.8C262.3 482 262.733 486.2 263.2 490.4C263.533 493.333 263.833 496.267 264.1 499.2C264.2 499.8 264.1 500.5 264.1 501.1C263.7 501.5 263.2 501.5 262.7 501.5C261.2 501.6 259.7 501.6 258.2 501.7C254.333 501.9 250.467 502.1 246.6 502.3C246.4 502.3 246.2 502.2 245.8 502.2C245.7 501.9 245.6 501.6 245.5 501.3C245.3 499.1 245 496.8 244.8 494.6C244.533 490.333 244.267 486.033 244 481.7C243.8 477.6 243.8 473.4 243.6 469.3C243.4 465.8 243.1 462.3 242.7 458.8C242.3 455.2 242.3 451.7 242.9 448.2C243 447.1 243.5 446.2 244 445.2C246.1 441.7 249.3 439.9 253.2 439.2C254.6 438.9 256 438.8 257.5 438.8C261 438.7 264.5 438.6 268.1 438.5C270.3 438.4 272.6 438.4 274.8 438.3C280.467 438.167 286.133 438.033 291.8 437.9C296.333 437.767 300.867 437.633 305.4 437.5C307.4 437.4 309.3 437.3 311.2 437.2C315.5 439.5 319.9 441.5 324.5 442.9C329 444.4 333.6 445.6 338.5 446.2C338.5 446.6 338.5 446.9 338.5 447.2Z" fill="#5DB3C1"/>
<path fill-rule="evenodd" clip-rule="evenodd" d="M377.6 332.4C377.3 332.4 377 332.4 376.6 332.3C376.4 331.767 376.233 331.233 376.1 330.7C375.8 329.7 375.6 328.8 375.3 327.8C374.8 326.4 374.1 325.3 372.6 324.8C372.3 324.7 372 324.4 371.6 324.2C371.6 323.8 371.6 323.5 371.8 323.2C371.9 323 372.2 322.8 372.4 322.7C373.9 321.9 375 320.6 376.1 319.3C376.8 318.4 377.3 317.4 377.2 316.1C377.2 316 377.3 315.8 377.3 315.6C377.7 315.2 378.2 315 378.7 315.3C379.2 315.9 379.4 316.8 379.7 317.5C380.1 318.3 380.5 319.1 380.9 319.9C381.7 321.1 382.7 322 384.1 322.4C384.6 322.5 384.9 322.7 385 323.3C384.8 323.5 384.7 323.8 384.5 324C384.1 324.3 383.6 324.5 383.2 324.8C380.9 326.4 379.1 328.4 378.3 331.1C378.1 331.5 377.9 332 377.6 332.4ZM378.4 318.9C377.8 319.6 377.4 320.2 377 320.7C376.5 321.2 376.1 321.7 375.6 322.2C375.2 322.7 374.6 323.1 374.2 323.7C374.7 324.1 375.1 324.4 375.4 324.8C375.667 325.133 375.933 325.467 376.2 325.8C376.4 326.3 376.6 326.7 376.8 327.2C377 327.6 377 328.1 377.4 328.5C378.2 327.6 378.8 326.6 379.6 325.8C380.3 325 381.2 324.3 382.1 323.4C380.5 322.2 379.4 320.7 378.4 318.9Z" fill="#3C3372"/>
<path fill-rule="evenodd" clip-rule="evenodd" d="M363.5 315.8C363.2 315.8 363 315.8 362.7 315.8C362.5 315.6 362.3 315.4 362.3 315.2C361.7 312.3 360.4 309.9 358 308.1C357.8 307.9 357.6 307.6 357.6 307.3C357.5 307.1 357.6 306.9 357.7 306.7C359 306.2 360.5 306 361.5 304.8C362.4 303.7 362.8 302.4 363 301C363.5 300.9 363.9 300.9 364.4 300.8C364.6 301.4 364.8 301.9 365.1 302.4C365.4 303.1 365.7 303.8 366.1 304.5C366.767 305.633 367.7 306.5 368.9 307.1C369.4 307.3 369.8 307.5 370.4 307.8C370.1 308.2 370.1 308.6 369.8 308.8C369.5 309.1 369.1 309.3 368.7 309.6C366.5 310.8 364.9 312.6 364 315C363.933 315.2 363.833 315.367 363.7 315.5C363.7 315.6 363.7 315.6 363.5 315.8ZM364 304.3C363.3 305.1 362.8 305.8 362.2 306.4C361.6 306.9 361 307.3 360.4 307.8C361.4 309.3 362.4 310.8 363.4 312.3C363.9 311.7 364.4 311 365 310.5C365.5 309.9 366.2 309.4 366.8 308.9C367 308.7 367.2 308.4 367.4 308.1C365.9 307.2 365 305.8 364 304.3Z" fill="#3C3372"/>
<path fill-rule="evenodd" clip-rule="evenodd" d="M329.8 320.2C330.1 320.9 329.9 321.3 329.4 321.6C328.933 321.867 328.5 322.133 328.1 322.4C326.7 323.1 325.6 324.1 325.3 325.7C325.2 326.2 325 326.5 324.5 326.7C324 326.6 323.7 326.3 323.6 325.9C323.5 325.4 323.4 324.9 323.2 324.4C322.6 322.1 322.3 321.5 320.6 320C320.3 319.4 320.5 319 321 318.7C321.667 318.3 322.3 317.9 322.9 317.5C324.2 316.7 325 315.6 325.2 314.2C325.3 313.7 325.3 313.2 326.1 313C326.3 313.2 326.6 313.4 326.7 313.7C326.9 314.3 327 315 327.2 315.7C327.6 317.5 328.4 319.1 329.8 320.2ZM325.6 317.1C324.9 318.4 323.6 318.7 322.9 319.7C323.5 320.8 324.1 321.7 324.6 322.7C325.7 322 326.6 321.3 327.6 320.6C327 319.5 326.4 318.5 325.6 317.1Z" fill="#3C3372"/>
<path d="M378.4 318.9C379.4 320.7 380.5 322.2 382.1 323.4C381.2 324.3 380.3 325 379.6 325.8C378.8 326.6 378.2 327.6 377.4 328.5C377 328.1 377 327.6 376.8 327.2C376.6 326.7 376.4 326.3 376.2 325.8C375.933 325.467 375.667 325.133 375.4 324.8C375.1 324.4 374.7 324.1 374.2 323.7C374.6 323.1 375.2 322.7 375.6 322.2C376.1 321.7 376.5 321.2 377 320.7C377.4 320.2 377.8 319.6 378.4 318.9Z" fill="#FFBD5C"/>
<path d="M364 304.3C365 305.8 365.9 307.2 367.4 308.1C367.2 308.4 367 308.7 366.8 308.9C366.2 309.4 365.5 309.9 365 310.5C364.4 311 363.9 311.7 363.4 312.3C362.4 310.8 361.4 309.3 360.4 307.8C361 307.3 361.6 306.9 362.2 306.4C362.8 305.8 363.3 305.1 364 304.3Z" fill="#FFBD5C"/>
<path d="M325.6 317.1C326.4 318.5 327 319.5 327.6 320.6C326.6 321.3 325.7 322 324.6 322.7C324.1 321.7 323.5 320.8 322.9 319.7C323.6 318.7 324.9 318.4 325.6 317.1Z" fill="#FFBD5C"/>
<path d="M385.8 402.6C385.7 402.7 385.5 402.8 385.3 402.8C377.6 403.4 370 404.2 362.4 404.8L359.3 405.2C359.3 410.6 359.333 415.967 359.4 421.3C359.4 421.6 359.3 421.9 359.3 422.3C358.8 422.4 358.5 422.5 358.1 422.5C356.5 422.433 354.867 422.4 353.2 422.4C352.3 422.4 351.3 422.3 350.4 422.3C348.9 422.4 347.6 422.9 346.4 423.9C345 425.2 343.9 426.7 343.2 428.5C342.2 431.1 341.5 433.7 340.9 436.3C340.367 438.7 339.8 441.1 339.2 443.5C339.2 443.8 339 444.1 338.9 444.3C338.3 444.6 337.6 444.5 337 444.4C327.5 442.8 318.5 439.6 310.2 434.7C309.867 434.567 309.6 434.4 309.4 434.2C309.3 434.1 309.2 434 309.1 433.8C313 418.7 317.7 403.7 322 388.7C322.133 388.633 322.233 388.6 322.3 388.6C322.367 388.533 322.4 388.467 322.4 388.4C322.4 387.9 322.5 387.4 322.7 386.9V386.8C320.433 386.6 318.167 386.4 315.9 386.2C311.8 385.7 307.8 385.4 303.8 384.9C303.2 382.8 303.5 375.9 304.3 371.5C305.5 364.8 306.2 362.1 307.5 360.3C308.7 360.367 309.9 360.467 311.1 360.6C313.433 360.8 315.8 361 318.2 361.2C320.867 361.4 323.5 361.6 326.1 361.8C327.833 362 329.533 362.167 331.2 362.3C335.3 362.6 339.3 363.1 343.4 363.3C346.8 363.567 350.167 364 353.5 364.6C355.033 364.867 356.467 365.367 357.8 366.1C360.133 367.433 362.3 368.967 364.3 370.7C367.4 373.3 370.3 376.2 372.6 379.7C374.6 382.6 376.6 385.6 378.6 388.6C381.2 392.5 383.4 396.7 385.5 401C385.7 401.5 386.1 402 385.8 402.6Z" fill="white"/>
<path d="M304.8 361.9C304.4 363.4 304 364.8 303.7 366.2C303.367 367.667 303.067 369.133 302.8 370.6C302.5 372 302.5 373.5 302.1 374.9C301.7 374.8 301.3 374.8 300.9 374.7C298.6 373.9 296.3 373.1 294 372.2C291.8 371.3 289.7 370.1 287.8 368.6C285.1 366.6 283.8 363.8 283.4 360.6C282.8 356.4 282.4 352.2 281.8 348C281.1 343.3 281 338.5 280.7 333.7C280.567 332.3 280.4 330.867 280.2 329.4C279.867 326.533 279.533 323.7 279.2 320.9L286.4 319.1C288.867 329.633 291.3 340.133 293.7 350.6C294.3 353.133 294.9 355.633 295.5 358.1C296 360 296.4 360.5 298.4 360.8C300.2 361.067 302 361.333 303.8 361.6C304.1 361.7 304.4 361.8 304.8 361.9Z" fill="#FFBD5C"/>
<path d="M289.2 306.9C288.2 310.2 287.1 313.5 286 317C286 317.3 286.1 317.9 286.2 318.4C286.267 318.667 286.333 318.9 286.4 319.1L279.2 320.9C279.133 320.767 279.1 320.6 279.1 320.4C279 319.3 278.9 318.3 278.7 317.1C278.4 316.7 278 316.2 277.6 315.7C276.667 314.5 275.867 313.233 275.2 311.9C274.2 309.7 274.1 307.4 274.3 305C274.367 303.667 274.967 302.633 276.1 301.9C277.8 300.9 279.5 300.2 281.5 300.2C281.8 300.3 282.2 300.3 282.6 300.2C282.8 300.2 283.1 299.9 283.3 299.7C283.2 299.3 283.1 298.9 282.9 298.6C281.9 296.8 280.8 295 279.7 293.2C278.9 291.7 278 290.2 277.2 288.6C276.8 287.9 276.7 287.1 276.5 286.3C276.5 286 276.6 285.8 276.6 285.5C276.7 285.4 276.8 285.4 277 285.2C277.2 285.3 277.6 285.4 277.9 285.6C278.567 286.267 279.2 286.933 279.8 287.6C282.4 290.7 284.8 293.9 286.9 297.2C287.9 298.9 288.8 300.5 289.2 302.4C289.6 303.9 289.7 305.4 289.2 306.9Z" fill="#EAD6C1"/>
<path d="M366.5 331.8C366 331 365.3 330.3 364.7 329.6C364.4 329.3 364 329 363.6 328.7C363.6 327.7 363.6 326.8 363.6 326C363.7 324.6 363.2 323.5 362.3 322.6C361.433 321.8 360.567 321.067 359.7 320.4C358.6 319.6 357.5 318.9 356.4 318.1C353.1 315.7 350.5 312.7 348.8 308.9C348.3 308 347.9 307 347.5 306C347.1 305.267 346.7 304.533 346.3 303.8C345.9 303.3 345.6 302.8 344.8 302.7C344.6 302.9 344.3 303.2 344.1 303.5C344 303.9 343.9 304.3 343.7 304.7C343.6 305 343.2 305.2 343 305.5C341.6 305.3 341.5 303.3 340 303.2C339.8 303.5 339.5 303.8 339.4 304.1C339.3 304.6 339.4 305.2 339.4 305.8C339.4 306.2 339.3 306.6 339.2 307.1C338.8 307 338.4 307 338.2 306.8C337.7 306.4 337.2 305.9 336.7 305.4C336.3 304.9 335.8 304.5 335.1 304.6C334.5 305 334.3 305.6 334.4 306.2C334.5 307.1 334.7 308 335 308.8C336.1 311.8 337.6 314.7 339.2 317.4C341.8 321.5 344.8 325.3 348.5 328.3C348.8 328.5 349 328.7 349.1 328.9C349.2 329.6 348.9 329.9 348.5 330.3C348.233 330.567 348 330.833 347.8 331.1C346.9 331.5 346 332.5 345.5 334.4C345.5 334.6 345.3 334.7 345.4 335C344.3 340.1 346.4 344.3 348.6 347.9C348.667 347.9 348.7 347.933 348.7 348C349.4 349.2 350.3 350.4 351.3 351.4C351.7 350.733 352.067 350.067 352.4 349.4C352.7 348.9 353.1 348.5 353.9 348.8C354 349 354.2 349.2 354.3 349.5C354.5 349.7 354.4 350.1 355 350.1C357.1 347.1 360.1 344.7 362.7 342C363.4 341.3 364.1 340.7 364.7 339.9C365.7 338.8 366.5 337.5 367 336.1C367.6 334.6 367.5 333.1 366.5 331.8Z" fill="#5DB3C1"/>
<path d="M380.1 429.8C379.767 432.267 379.4 434.733 379 437.2C377.9 443.4 376.8 449.6 375.7 455.8C375.3 457.7 374.9 459.5 373.8 461.1C372.8 462.5 371.6 463.633 370.2 464.5C369.2 465.1 368.1 465.6 367.1 466.2C366.4 466.5 365.7 466.5 365 466.6C360.533 466.667 356.067 466.733 351.6 466.8C347.8 466.867 343.967 466.9 340.1 466.9C339.9 466.967 339.667 467 339.4 467C337.1 467 334 467 331.1 467.1C326.8 467.1 323 467.2 323 467.2C320 467.267 317.067 467.3 314.2 467.3C307.533 467.433 300.9 467.567 294.3 467.7C287.9 467.767 281.5 467.867 275.1 468C275 468 274.9 467.9 274.7 467.9C273.5 467.1 272.8 466.1 272.5 464.7C272 462.7 272.8 461.1 274.1 459.7C274.6 459.3 275.2 459.1 275.9 459.1C278.1 459 280.4 458.9 282.7 458.9C288.8 458.8 295 458.8 301.2 458.7C308 458.6 314.9 458.5 321.8 458.3C323.467 458.3 325.167 458.267 326.9 458.2H333.6L338.1 458.1C339 453.4 339.8 448.6 340.8 443.8C341.6 440.2 342.5 436.5 343.5 432.8C343.8 431.4 344.4 430.1 344.9 428.7C345.4 427.3 346.4 426.1 347.5 425.1C348.4 424.3 349.4 423.9 350.6 424C352 424 353.3 424 354.6 424C360.4 424 366.2 423.967 372 423.9C373 423.9 374 423.8 375 423.7C376 423.633 377 423.7 378 423.9C379.3 424.2 380.1 425 380.2 426.4C380.3 427.5 380.3 428.6 380.1 429.8Z" fill="#FFBD5C"/>
<path d="M323 467.2C323 467.2 326.8 467.1 331.1 467.1C330.767 467.167 330.4 467.2 330 467.2C327.667 467.2 325.333 467.2 323 467.2Z" fill="#FFBD5C"/>
<path d="M333.6 458.2H326.9C328.3 458.2 329.667 458.167 331 458.1C331.7 458.1 332.4 458.1 333.1 458.1C333.233 458.1 333.4 458.133 333.6 458.2Z" fill="#FFBD5C"/>
<path d="M345.7 345.2C345.8 346.3 346.3 347.2 346.9 348.1C347.8 349.5 348.7 350.8 349.6 352.2C350.5 353.4 351 353.5 352.6 353.2C352.7 353.5 352.8 353.8 352.8 354.1C352.9 356.9 353.1 359.7 353.2 362.6C352.8 362.7 352.5 362.8 352.3 362.7C348.9 362.1 345.5 361.9 342.2 361.6C342 361.6 341.8 361.5 341.5 361.4C341.5 361.1 341.3 360.7 341.3 360.4C341.233 357.333 341.167 354.233 341.1 351.1C341.1 350.833 341.1 350.533 341.1 350.2C340.3 349.7 339.3 349.8 338.5 349.6C335.7 349.1 333.5 347.6 331.9 345.2C330.9 343.5 330.3 341.7 330.2 339.7C330.1 337.5 330.4 335.4 331.2 333.4C332.7 329.2 335.3 326 339 323.5C339.6 323.2 340.1 322.9 340.7 322.6C341.8 323.8 342.7 324.9 343.8 326C344.8 327.1 345.9 328.1 347 329.3C346.2 330.5 345.4 331.7 344.6 332.9C343.8 334.1 343 335.3 342.5 336.6C343 337.6 343.2 337.8 343.9 337.6C345.3 337.1 346.8 336.8 348.1 336.1C348.9 335.7 349.8 335.4 350.7 335.5C351.567 335.567 352.067 336 352.2 336.8C352.8 339.4 351.1 342.5 348.7 343.5C348.1 343.7 347.5 343.8 346.8 343.7C346 343.5 345.3 343.1 345 342.2C345 341.9 344.9 341.6 344.7 341.3C344.5 340.9 344.2 340.8 343.7 340.9C343.367 341.167 343.233 341.5 343.3 341.9C343.6 343.1 344.1 344.2 345.2 344.8C345.4 344.9 345.5 345 345.7 345.2Z" fill="#EAD6C1"/>
<path d="M361.1 422.4C361 421.9 360.9 421.5 360.9 421.1C360.8 418.9 360.9 413.8 361.1 412.4C363.4 411.8 365.9 412 368.2 411.5C368.7 411.1 368.8 410.7 368.6 410.2C368.4 409.533 368.2 408.9 368 408.3C367.8 407.6 367.6 406.9 367.3 406.2C367.6 406.1 367.8 405.9 368 405.9C372.2 405.567 376.4 405.2 380.6 404.8C380.8 405.1 381 405.3 381.1 405.5C382.033 407.567 382.933 409.633 383.8 411.7C384.6 413.6 384.9 415.5 384.8 417.6C384.7 418.9 384.1 419.8 383.1 420.6C381.967 421.4 380.667 421.833 379.2 421.9C376.733 422.1 374.233 422.233 371.7 422.3C368.7 422.4 365.8 422.4 362.8 422.5C362.3 422.5 361.8 422.4 361.1 422.4Z" fill="#FFBD5C"/>
<path d="M254.7 527.2C255.2 527.4 255.5 527.5 255.8 527.7C257.6 528.7 259.6 529.2 261.6 529.2C262.867 529.2 264.133 529.2 265.4 529.2C265.9 529.2 266.4 529.2 266.8 529.3C267.4 530.8 267.9 535.8 267.8 537.8C267.5 537.9 267.1 538 266.8 538C262.267 538.133 257.733 538.267 253.2 538.4C247.8 538.6 242.4 538.767 237 538.9C236.6 538.9 236.2 538.8 235.7 538.8C235.8 537.9 236.2 537.2 236.7 536.7C237.5 535.8 238.4 534.9 239.4 534.1C240.5 533.3 241.7 532.6 242.9 531.9C246.7 529.9 250.6 528.4 254.7 527.2Z" fill="#4F9BA3"/>
<path d="M266.7 527.5C263.6 527.8 260.7 527.9 257.8 526.9C257.6 526.3 257.4 525.8 257.3 525.3C255.833 518.567 254.367 511.8 252.9 505C252.8 504.6 252.8 504.2 252.7 503.7C253 503.6 253.2 503.5 253.3 503.5C257 503.5 260.6 503 264.3 503.1C264.9 505.1 264.8 507.1 265.1 509.1C265.4 511.1 265.5 513.2 265.7 515.3C265.9 517.3 266.2 519.3 266.3 521.3C266.5 523.3 266.9 525.3 266.7 527.5Z" fill="#EAD6C1"/>
<path d="M296.6 527.3C299.4 529.4 302.7 529.6 306.1 529.5C306.8 530.8 306.5 532.2 306.7 533.4C306.9 534.7 307 536 306.8 537.3C306.7 537.4 306.7 537.5 306.6 537.5C306.533 537.5 306.467 537.533 306.4 537.6C304.1 537.7 301.7 537.8 299.3 537.9C293.1 538.1 286.867 538.267 280.6 538.4C280.5 538.4 280.4 538.3 280.3 538.2C280 537.8 280.3 537.4 280.5 537C281.2 535.5 282.3 534.3 283.5 533.2C286.8 530.1 290.7 528.3 295 527.6C295.533 527.467 296.067 527.367 296.6 527.3Z" fill="#4F9BA3"/>
<path d="M294 503.4C294.9 503.3 295.5 503.1 296.1 503.1C298.7 503 301.3 502.4 303.9 502.7C304 502.9 304.2 503.1 304.2 503.2C304.867 511.2 305.5 519.167 306.1 527.1C306.1 527.3 306 527.4 305.9 527.7C303.7 528.2 301.5 527.7 299.2 527C298.4 524.5 298.1 521.9 297.5 519.3C296.9 516.7 296.3 514 295.8 511.4C295.2 508.8 294.7 506.2 294 503.4Z" fill="#EAD6C1"/>
<path d="M275.4 440.9C274.6 439.8 274.1 440 272.9 439.8C272.6 439.8 272.3 439.9 272.1 440C270.833 439.933 269.567 439.867 268.3 439.8C266.8 439.7 265.1 439.4 263.7 439.7C262 440 261.1 441.8 262.4 443.2C264 444.8 267.7 444.2 269.7 444.2C271.6 444.2 274.4 444.5 275.4 442.4C275.6 442 275.7 441.4 275.4 440.9Z" fill="#F5F5F5"/>
<path d="M283.3 439.3C283.033 439.3 282.8 439.367 282.6 439.5C281.8 439.7 281.1 440.3 281 441.1C280.7 442.4 281.6 443.5 282.8 443.6C284 443.7 285.1 443 285.4 441.9C285.7 440.5 284.6 439.4 283.3 439.3Z" fill="#F5F5F5"/>
<path d="M287 328.8C286.8 327.6 286.6 325.2 285.4 324.5C285.2 323.9 284 324 283.9 324.8C283.8 326 283.5 335.8 286.6 333.7C287.9 332.8 287.2 330 287 328.8Z" fill="#F5F5F5"/>
<path d="M288.5 338.6C288.4 338.2 288.1 338 287.8 338C287.6 338 287.433 338 287.3 338C287 338 286.8 338.1 286.6 338.3C286.5 338.5 286.4 338.7 286.5 338.9C286.633 339.233 286.767 339.567 286.9 339.9C287.2 340.5 287.9 340.6 288.3 340C288.633 339.6 288.7 339.133 288.5 338.6Z" fill="#F5F5F5"/>
<path d="M301.6 364.7C301.3 363.5 300.3 362.8 299.1 362.7C298.967 362.7 298.833 362.733 298.7 362.8C297.7 362.5 296.7 362.5 296.7 363.7C296.7 364.5 297.6 364.8 298.2 365.1C299.1 365.4 300 365.6 300.9 365.7C301.4 365.8 301.7 365.2 301.6 364.7Z" fill="#F5F5F5"/>
<path d="M353.2 318.7C353 317.8 352.4 317 352 316.3C351.4 315.4 350.9 314.4 350.2 313.6C349.9 313.3 349.3 312.9 348.8 312.7C348 312.1 346.6 311.7 346.1 312.8C345.5 314.4 347 316.4 347.9 317.5C348.7 318.6 349.9 320.4 351.3 320.7C352.6 321 353.4 319.8 353.2 318.7Z" fill="#F5F5F5"/>
<path d="M354.5 322C354.433 322.133 354.4 322.267 354.4 322.4C354.333 322.467 354.333 322.567 354.4 322.7C354.5 323.5 354.8 324.2 355.5 324.5C356.3 324.7 357.1 324.4 357.3 323.6C357.6 322.1 355.4 320.4 354.5 322Z" fill="#F5F5F5"/>
<path d="M366.7 404.8L381.6 404.1C381.6 404.1 391.7 421.3 379.4 423.7C379.4 423.7 381.7 424.2 380.3 431.3C378.8 438.3 377.4 450.2 377.4 450.2C377.4 450.2 378.3 464.4 366.7 467.2L337.8 468C337.8 468 340.7 467.1 342.8 461.3C344.9 455.5 349 432.5 350.3 429.3C351.2 426.9 364.8 427 371.5 427.2C373.4 427.3 375 425.7 375 423.7L374.1 422.5L356.1 423.7L360 382.5L360.3 412L367.9 410.6L366.7 404.8Z" fill="black"/>
<path d="M314.2 457.3C314.2 457.3 325.4 458.2 328.3 449.2C328.3 449.2 318 445.2 312.8 437.2C312.8 437.2 324.8 443 334.4 444.5C334.4 444.5 335.5 422.6 343 422.5C350.4 422.3 356.8 422.5 356.8 422.5C356.8 422.5 345.9 420.9 343.2 429.9C340.6 438.9 337.1 457.3 337.1 457.3H314.2Z" fill="black"/>
<path d="M350 362.8V351.4C350 351.4 368.4 335.4 364.8 328.5C364.8 328.5 373.7 334.9 363.8 341.8C353.9 348.8 353.4 353.2 353.2 356.1C353 359 353 359 353 359L354 363.6L350 362.8Z" fill="black"/>
<path d="M261.6 457.7L258.4 458C256.9 458.1 255.7 459.5 255.9 461L259.8 502.3L251.7 502.6L252.7 506.6L266.8 513.5L260 459.6L261.6 457.7Z" fill="black"/>
<path d="M286.4 471.9L297.8 472.9L300.1 502H304L301.7 468L285.5 469.2L286.4 471.9Z" fill="black"/>
<path d="M302.1 444.4C301.9 444.2 301.8 444 301.6 443.8C301.8 443.5 302 443.2 302.3 443.1C303.1 442.8 303.9 442.6 304.7 442.5C306.9 441.967 309.1 441.433 311.3 440.9C311.6 440.9 311.9 440.8 312.2 440.8C312.5 440.8 312.8 441.1 312.8 441.4C312.8 441.6 312.8 441.9 312.6 442.1C312.4 442.3 312.1 442.4 311.8 442.5C309 443.1 306.233 443.733 303.5 444.4C303 444.5 302.5 444.4 302.1 444.4Z" fill="#3C3372"/>
<path fill-rule="evenodd" clip-rule="evenodd" d="M388 403.5C387.7 404.2 387.1 404.3 386.5 404.3C385.5 404.433 384.5 404.533 383.5 404.6C383.3 404.7 383.1 404.8 382.7 404.8C382.9 405.3 383 405.7 383.2 406.1C383.867 407.7 384.533 409.267 385.2 410.8C386.3 413.2 386.5 415.8 386.3 418.4C386.1 419.6 385.7 420.6 384.7 421.3C384 421.9 383.2 422.4 382.4 422.9C382 423.1 381.5 423.3 381 423.5C381.1 423.8 381.1 424 381.1 424.1C381.9 425.5 382.1 427 381.8 428.5C381.4 431.8 381 435.1 380.4 438.4C379.4 444.5 378.1 450.6 377.1 456.6C376.5 460.8 374.2 463.8 370.8 466.1C369.8 466.8 368.6 467.5 367.4 468.2C367.667 469.4 367.9 470.633 368.1 471.9C372.033 489.233 375.933 506.567 379.8 523.9C380.733 528.033 381.667 532.2 382.6 536.4C382.733 536.933 382.833 537.5 382.9 538.1C382.9 538.5 382.7 538.8 382.1 538.9C381.9 538.7 381.6 538.5 381.5 538.2C381.2 537.7 381.1 537.2 381 536.6C377.4 520.467 373.8 504.3 370.2 488.1C368.867 482.167 367.533 476.2 366.2 470.2C366 469.6 365.9 469 365.7 468.3C365.2 468.3 364.8 468.2 364.4 468.2C359.267 468.267 354.167 468.333 349.1 468.4C344.9 468.467 340.733 468.533 336.6 468.6C335.7 468.6 334.7 468.6 333.8 468.8C333.5 469.5 333.6 470.1 333.7 470.7C334.1 474.967 334.533 479.233 335 483.5C335.267 486.3 335.567 489.133 335.9 492C336.233 495.267 336.567 498.567 336.9 501.9C337.167 504.7 337.467 507.533 337.8 510.4C338.133 513.733 338.467 517.033 338.8 520.3C339.067 523.3 339.367 526.267 339.7 529.2C339.967 531.8 340.233 534.433 340.5 537.1C340.5 537.7 340.7 538.3 340.2 538.9C339.933 538.9 339.633 538.9 339.3 538.9C339.2 538.5 339 538.2 339 537.8C338.6 534.067 338.2 530.3 337.8 526.5C337.333 522.167 336.867 517.8 336.4 513.4C336 509.3 335.6 505.1 335.2 501C334.7 496.5 334.3 492.1 333.8 487.6C333.533 484.667 333.233 481.733 332.9 478.8C332.633 476 332.367 473.167 332.1 470.3C332 469.9 331.9 469.4 331.8 468.8C331.3 468.8 331 468.7 330.6 468.7C328 468.7 325.4 468.8 322.9 468.9C320.7 468.9 318.5 468.9 316.2 468.9C314.6 469 313 469 311.3 469C311.2 469.5 311.1 469.8 311.1 470.2C311 470.5 311 470.8 311 471.1C311 491.9 310.967 512.7 310.9 533.5C310.9 534.833 310.867 536.167 310.8 537.5C310.8 538.3 310.6 538.6 310.1 538.7C309.6 538.7 309.2 538.3 309.2 537.5C309.2 536.6 309.2 535.6 309.2 534.7C309.267 518.833 309.333 503 309.4 487.2C309.467 481.933 309.5 476.633 309.5 471.3C309.5 470.6 309.6 470 309.4 469.3C307.8 468.9 304.5 469 303.1 469.4C303.1 469.8 303.1 470.3 303.1 470.8C303.567 475.933 304 481.1 304.4 486.3C304.7 490 305 493.7 305.3 497.4C305.6 501.3 306 505.3 306.3 509.2C306.6 512.8 306.9 516.4 307.1 520C307.5 524.067 307.867 528.133 308.2 532.2C308.333 534 308.467 535.833 308.6 537.7C308.7 538.1 308.6 538.5 308.6 539C307.8 539.1 307.1 539.2 306.3 539.3C301.3 539.433 296.267 539.567 291.2 539.7C287.733 539.833 284.267 539.967 280.8 540.1C280.2 540.1 279.6 540.1 279 539.8C278.3 539.5 278 539 278.3 538.3C278.7 537 279.2 535.7 280.1 534.6C282.167 531.867 284.733 529.767 287.8 528.3C289.9 527.3 292 526.4 294.4 526C295.2 525.9 296 525.6 297 525.4C297 524.9 297 524.6 296.9 524.2C295.567 517.867 294.2 511.533 292.8 505.2C292.7 504.7 292.5 504.2 292.3 503.7C291.6 503.7 290.8 503.7 290 503.6C289.8 503.1 289.6 502.6 289.5 502.2C288.967 498.467 288.433 494.767 287.9 491.1C287.233 486.433 286.567 481.767 285.9 477.1C285.567 474.967 285.233 472.833 284.9 470.7C284.9 470.4 284.8 470 284.7 469.7C283.3 469.3 279.1 469.3 277.2 469.7C276.8 469.9 276.9 470.3 276.9 470.7C276.8 473.2 276.7 475.7 276.7 478.3C276.6 482.9 276.6 487.6 276.5 492.2C276.367 501.6 276.233 511 276.1 520.4C276.1 524.1 276.1 527.7 276 531.4C276 533.733 275.967 536.067 275.9 538.4C275.9 538.8 275.7 539.2 275.7 539.7C275.3 539.7 275 539.7 274.6 539.7C274.5 539.3 274.4 538.9 274.4 538.5C274.4 534.5 274.433 530.467 274.5 526.4C274.5 525.4 274.6 524.3 274.6 523.2C274.6 516.1 274.7 509 274.8 501.9C274.867 491.633 275 481.333 275.2 471C275.2 470.7 275.1 470.3 275.1 469.9C273.7 469.3 272.6 468.4 271.8 467.2C271 466 270.8 464.6 270.8 463.2C270.8 461.7 271.6 460.5 272.3 459.3C272 459.1 271.9 459 271.8 459C268.667 459.067 265.533 459.167 262.4 459.3C262.2 459.3 262.1 459.5 261.9 459.5C261.6 460.4 261.8 461.2 261.9 462C262.367 466.667 262.833 471.367 263.3 476.1C263.767 480.5 264.233 484.867 264.7 489.2C265.1 493.5 265.5 497.8 266 502C266.4 506.4 266.833 510.8 267.3 515.2C267.633 518.133 267.933 521.067 268.2 524C268.533 527.267 268.867 530.533 269.2 533.8C269.333 535.2 269.467 536.567 269.6 537.9C269.7 539.1 269.3 539.6 268.2 539.6C267 539.7 265.9 539.7 264.8 539.7C258.933 539.833 253.067 540 247.2 540.2C243.9 540.3 240.6 540.4 237.4 540.5C236.2 540.5 235.1 540.5 234.1 540.5C233.5 540.1 233.5 539.7 233.6 539.2C234.1 537.7 234.8 536.3 235.9 535.2C236.8 534.2 237.8 533.3 238.9 532.5C240.4 531.5 242 530.5 243.7 529.7C247.1 528 250.7 526.7 254.3 525.5C254.6 525.4 255 525.4 255.4 525.3C255.7 524.8 255.4 524.3 255.3 523.9C253.967 517.567 252.6 511.233 251.2 504.9C251.1 504.6 251 504.3 250.9 503.9C249.9 503.5 248.8 503.8 247.7 503.8C246.7 503.8 245.7 503.8 244.9 503.8C244.2 503.2 244.1 502.6 244 502C243.8 499.9 243.5 497.9 243.4 495.8C242.9 490.8 242.6 485.7 242.4 480.7C242.3 477.5 242.2 474.3 242.1 471.1C241.8 467.2 241.6 463.4 241.2 459.6C240.7 456.1 240.8 452.7 241.1 449.2C241.5 444.7 244 441.5 247.9 439.3C250.4 437.9 253.1 437.3 256 437.3C258.4 437.3 260.7 437.1 263 437.1C268 436.9 272.967 436.733 277.9 436.6C284 436.5 290 436.3 296.1 436.1C299.967 436.033 303.8 435.933 307.6 435.8C307.7 435.8 307.8 435.7 308 435.6C307.8 435.2 307.5 434.8 307.2 434.3C308.267 430.5 309.333 426.7 310.4 422.9C311.467 418.967 312.567 415.067 313.7 411.2C314.833 407.4 315.967 403.6 317.1 399.8C319.1 393.3 320 390 320.2 388.3C318.2 388 316.2 387.8 314.2 387.6C312.1 387.4 310.1 387.1 308 387C303.2 386.6 303.2 386.6 302.1 385.9C301.7 384.5 302 383 301.9 381.5C301.9 380 301.9 378.5 301.9 376.9C301.4 376.7 300.9 376.4 300.4 376.2C298.467 375.533 296.533 374.833 294.6 374.1C291.7 373.1 289.2 371.7 286.8 369.9C283.9 367.8 282.5 364.9 281.9 361.5C281.6 359.6 281.4 357.7 281.2 355.8C280.733 352.333 280.3 348.833 279.9 345.3C279.767 344.3 279.667 343.3 279.6 342.3C279.4 338.7 279.2 335 278.8 331.4C278.5 328 278 324.6 277.6 321.3C277.5 320.6 277.4 319.9 277.4 319.2C277.3 318.3 277.1 317.5 276.4 316.8C275 315.133 273.967 313.3 273.3 311.3C272.4 308.9 272.3 306.5 272.8 304C273.067 302.8 273.633 301.833 274.5 301.1C276 300 277.6 299.1 279.4 298.8C279.9 298.8 280.3 298.6 280.7 298.6C281 298.2 280.7 297.9 280.6 297.6C279.8 296.3 278.9 295 278.1 293.6C277.233 292.133 276.4 290.667 275.6 289.2C275.1 288 274.9 286.8 275 285.5C275 284.1 276.6 282.7 278.3 283.9C278.8 284.3 279.4 284.8 279.8 285.3C282.3 287.9 284.5 290.9 286.6 293.9C287.6 295.433 288.533 297 289.4 298.6C290.6 300.6 291.2 302.9 291 305.3C291 306.4 290.8 307.5 290.4 308.6C289.5 311.5 288.5 314.3 287.6 317.3C290.8 331.1 294.033 344.967 297.3 358.9C300 359.5 302.7 359.8 305.4 360.2C305.8 359.667 306.133 359.2 306.4 358.8C307.1 358.5 307.7 358.6 308.3 358.7C313 359.3 317.6 359.5 322.3 359.8C323.6 359.9 324.9 360.1 326.2 360.2C330.067 360.533 333.9 360.867 337.7 361.2C338.3 361.3 338.9 361.2 339.7 361.2C339.8 357.9 339.5 354.8 339.4 351.5C338.7 351.3 338.2 351.2 337.7 351.1C332.6 350 329.3 345.8 328.8 341C328.4 337.7 328.8 334.5 330.2 331.4C332 327.5 334.7 324.4 338.3 322.1C338.7 321.8 339.1 321.6 339.5 321.3C339.7 320.8 339.3 320.5 339.1 320.2C337.2 317.4 335.7 314.4 334.2 311.3C333.8 310.3 333.4 309.3 333.1 308.3C332.8 307.3 332.7 306.3 332.9 305.3C333.2 303.4 334.6 302.5 336.5 303.2C336.8 303.3 337.2 303.5 337.6 303.8C337.8 303.4 337.9 303.1 338.1 302.8C338.967 301.467 340.1 301.2 341.5 302C341.8 302.2 342.1 302.4 342.5 302.7C342.8 302.3 343.1 301.9 343.5 301.5C344.2 300.9 345.1 300.8 345.9 301.3C346.4 301.6 346.9 302 347.2 302.4C347.8 303.2 348.333 304.067 348.8 305C349.2 305.8 349.5 306.7 349.9 307.6C351.567 311.333 354.067 314.433 357.4 316.9C358.4 317.6 359.4 318.2 360.4 318.9C361.4 319.7 362.367 320.5 363.3 321.3C364.9 322.7 365.4 324.5 365.3 326.6C365.233 327 365.167 327.367 365.1 327.7C365.767 328.433 366.433 329.133 367.1 329.8C369.3 332.2 369.4 335.3 368.1 337.7C367.3 339.3 366.3 340.7 365 342C363.5 343.5 361.9 345 360.4 346.5C359.333 347.633 358.267 348.767 357.2 349.9C356.7 350.4 356.3 351 356 351.6C355.7 352.4 355.2 353 354.4 353.4C354.4 356.7 354.7 359.9 354.9 363C355.1 363.1 355.2 363.3 355.3 363.3C359.6 364.7 363 367.4 366.4 370.3C369.5 373.1 372.3 376.2 374.6 379.7C376.3 382.4 378.2 385 380 387.7C382.7 391.8 385 396.3 387.1 400.8C387.5 401.7 388.1 402.5 388 403.5ZM348.5 328.3C348.8 328.5 349 328.7 349.1 328.9C349.2 329.6 348.9 329.9 348.5 330.3C347.3 331.5 346.4 333 345.5 334.4C345.4 334.6 345.3 334.8 345.6 335.2C345.7 335.2 346 335.2 346.2 335.1C346.9 334.8 347.5 334.5 348.1 334.3C349.2 333.9 350.3 333.7 351.5 333.9C352.567 334.167 353.267 334.8 353.6 335.8C353.8 336.5 354 337.2 354 337.9C353.8 341.1 352 344 348.8 345.1C348.4 345.233 348 345.367 347.6 345.5C347.9 347 349.6 349.7 351.3 351.4C351.7 350.733 352.067 350.067 352.4 349.4C352.7 348.9 353.1 348.5 353.9 348.8C354 349 354.2 349.2 354.3 349.5C354.5 349.7 354.4 350.1 355 350.1C357.1 347.1 360.1 344.7 362.7 342C363.4 341.3 364.1 340.7 364.7 339.9C365.7 338.8 366.5 337.5 367 336.1C367.6 334.6 367.5 333.1 366.5 331.8C366 331 365.3 330.3 364.7 329.6C364.4 329.3 364 329 363.6 328.7C363.6 327.7 363.6 326.8 363.6 326C363.7 324.6 363.2 323.5 362.3 322.6C361.433 321.8 360.567 321.067 359.7 320.4C358.6 319.6 357.5 318.9 356.4 318.1C353.1 315.7 350.5 312.7 348.8 308.9C348.3 308 347.9 307 347.5 306C347.1 305.267 346.7 304.533 346.3 303.8C345.9 303.3 345.6 302.8 344.8 302.7C344.6 302.9 344.3 303.2 344.1 303.5C344 303.9 343.9 304.3 343.7 304.7C343.6 305 343.2 305.2 343 305.5C341.6 305.3 341.5 303.3 340 303.2C339.8 303.5 339.5 303.8 339.4 304.1C339.3 304.6 339.4 305.2 339.4 305.8C339.4 306.2 339.3 306.6 339.2 307.1C338.8 307 338.4 307 338.2 306.8C337.7 306.4 337.2 305.9 336.7 305.4C336.3 304.9 335.8 304.5 335.1 304.6C334.5 305 334.3 305.6 334.4 306.2C334.5 307.1 334.7 308 335 308.8C336.1 311.8 337.6 314.7 339.2 317.4C341.8 321.5 344.8 325.3 348.5 328.3ZM341.1 350.2C341.1 350.533 341.1 350.833 341.1 351.1C341.167 354.233 341.233 357.333 341.3 360.4C341.3 360.7 341.5 361.1 341.5 361.4C341.8 361.5 342 361.6 342.2 361.6C345.5 361.9 348.9 362.1 352.3 362.7C352.5 362.8 352.8 362.7 353.2 362.6C353.1 359.7 352.9 356.9 352.8 354.1C352.8 353.8 352.7 353.5 352.6 353.2C351 353.5 350.5 353.4 349.6 352.2C348.7 350.8 347.8 349.5 346.9 348.1C346.3 347.2 345.8 346.3 345.7 345.2C345.5 345 345.4 344.9 345.2 344.8C344.1 344.2 343.6 343.1 343.3 341.9C343.233 341.5 343.367 341.167 343.7 340.9C344.2 340.8 344.5 340.9 344.7 341.3C344.9 341.6 345 341.9 345 342.2C345.3 343.1 346 343.5 346.8 343.7C347.5 343.8 348.1 343.7 348.7 343.5C351.1 342.5 352.8 339.4 352.2 336.8C352.067 336 351.567 335.567 350.7 335.5C349.8 335.4 348.9 335.7 348.1 336.1C346.8 336.8 345.3 337.1 343.9 337.6C343.2 337.8 343 337.6 342.5 336.6C343 335.3 343.8 334.1 344.6 332.9C345.4 331.7 346.2 330.5 347 329.3C345.9 328.1 344.8 327.1 343.8 326C342.7 324.9 341.8 323.8 340.7 322.6C340.1 322.9 339.6 323.2 339 323.5C335.3 326 332.7 329.2 331.2 333.4C330.4 335.4 330.1 337.5 330.2 339.7C330.3 341.7 330.9 343.5 331.9 345.2C333.5 347.6 335.7 349.1 338.5 349.6C339.3 349.8 340.3 349.7 341.1 350.2ZM277.6 315.7C278 316.2 278.4 316.7 278.7 317.1C278.8 318.1 278.9 319 279 319.9L286.2 318.2C286.1 317.7 286 317.3 286 317C287.1 313.5 288.2 310.2 289.2 306.9C289.7 305.4 289.6 303.9 289.2 302.4C288.8 300.5 287.9 298.9 286.9 297.2C284.8 293.9 282.4 290.7 279.8 287.7C279.2 286.967 278.567 286.267 277.9 285.6C277.6 285.4 277.2 285.3 277 285.2C276.8 285.4 276.7 285.4 276.6 285.5C276.6 285.8 276.5 286.1 276.5 286.3C276.7 287.1 276.8 287.9 277.2 288.6C278 290.2 278.9 291.7 279.7 293.2C280.8 295 281.9 296.8 282.9 298.6C283.1 298.9 283.2 299.3 283.3 299.7C283.1 299.9 282.8 300.2 282.6 300.2C282.2 300.3 281.8 300.3 281.4 300.2C279.5 300.2 277.8 300.9 276.1 301.9C274.967 302.633 274.367 303.667 274.3 305C274.1 307.4 274.2 309.7 275.2 311.9C275.867 313.233 276.667 314.5 277.6 315.7ZM302.8 370.6C303.067 369.133 303.367 367.667 303.7 366.2C304 364.8 304.4 363.4 304.8 361.9C304.4 361.8 304.1 361.7 303.8 361.6C302 361.333 300.2 361.067 298.4 360.8C296.4 360.5 296 360 295.5 358.1C294.9 355.633 294.3 353.133 293.7 350.6C291.3 340.333 288.9 330.067 286.5 319.8L279.2 321.4C279.533 324.067 279.867 326.733 280.2 329.4C280.4 330.867 280.567 332.3 280.7 333.7C281 338.5 281.1 343.3 281.8 348C282.4 352.2 282.8 356.4 283.4 360.6C283.8 363.8 285.1 366.6 287.8 368.6C289.7 370.1 291.8 371.3 294 372.2C296.3 373.1 298.6 373.9 300.9 374.7C301.3 374.8 301.7 374.8 302.1 374.9C302.5 373.5 302.5 372 302.8 370.6ZM266.8 529.3C266.4 529.2 265.9 529.2 265.4 529.2C264.133 529.2 262.867 529.2 261.6 529.2C259.6 529.2 257.6 528.7 255.8 527.7C255.5 527.5 255.2 527.4 254.7 527.2C250.6 528.4 246.7 529.9 242.9 531.9C241.7 532.6 240.5 533.3 239.4 534.1C238.4 534.9 237.5 535.8 236.7 536.7C236.2 537.2 235.8 537.9 235.7 538.8C236.2 538.8 236.6 538.9 237 538.9C242.4 538.767 247.8 538.6 253.2 538.4C257.733 538.267 262.267 538.133 266.8 538C267.1 538 267.5 537.9 267.8 537.8C267.9 535.8 267.4 530.8 266.8 529.3ZM264.3 503.1C260.6 503 257 503.5 253.3 503.5C253.2 503.5 253 503.6 252.7 503.7C252.8 504.2 252.8 504.6 252.9 505C254.367 511.8 255.833 518.567 257.3 525.3C257.4 525.8 257.6 526.3 257.8 526.9C260.7 527.9 263.6 527.8 266.7 527.5C266.9 525.3 266.5 523.3 266.3 521.3C266.2 519.3 265.9 517.3 265.7 515.3C265.5 513.2 265.4 511.1 265.1 509.1C264.8 507.1 264.9 505.1 264.3 503.1ZM279 457.3C283.1 457.4 287.2 457.2 291.3 457.1C302.9 456.967 314.533 456.8 326.2 456.6C328.933 456.6 331.667 456.6 334.4 456.6C335.7 456.6 336.5 455.9 336.9 454.8C337.1 454.2 337.3 453.7 337.4 453.1C337.8 451.167 338.167 449.2 338.5 447.2C338.5 446.9 338.5 446.6 338.5 446.2C333.6 445.6 329 444.4 324.5 442.9C319.9 441.5 315.5 439.5 311.2 437.2C309.3 437.3 307.4 437.4 305.4 437.5C300.867 437.633 296.333 437.767 291.8 437.9C286.133 438.033 280.467 438.167 274.8 438.3C272.6 438.4 270.3 438.4 268 438.5C264.5 438.6 261 438.7 257.5 438.8C256 438.8 254.6 438.9 253.2 439.2C249.3 439.9 246.1 441.7 244 445.2C243.5 446.2 243 447.1 242.9 448.2C242.3 451.7 242.3 455.2 242.7 458.8C243.1 462.3 243.4 465.8 243.6 469.3C243.8 473.4 243.8 477.6 244 481.8C244.267 486.067 244.533 490.333 244.8 494.6C245 496.8 245.3 499.1 245.5 501.3C245.6 501.6 245.7 501.9 245.8 502.2C246.2 502.2 246.4 502.3 246.7 502.3C250.5 502.1 254.333 501.9 258.2 501.7C259.7 501.6 261.2 501.6 262.7 501.5C263.2 501.5 263.7 501.5 264.1 501.1C264.1 500.5 264.1 499.8 264.1 499.2C263.833 496.267 263.533 493.333 263.2 490.4C262.733 486.2 262.3 482 261.9 477.8C261.367 473 260.867 468.167 260.4 463.3C260.267 462.1 260.133 460.867 260 459.6C259.9 458.4 260.4 457.9 261.6 457.7C261.733 457.7 261.867 457.7 262 457.7C267.7 457.7 273.3 457.1 279 457.3ZM306.1 529.5C302.7 529.6 299.4 529.4 296.6 527.3C296.067 527.367 295.533 527.467 295 527.6C290.7 528.3 286.8 530.1 283.5 533.2C282.3 534.3 281.2 535.5 280.5 537C280.3 537.4 280 537.8 280.3 538.2C280.4 538.3 280.5 538.4 280.6 538.4C286.867 538.267 293.1 538.1 299.3 537.9C301.7 537.8 304.1 537.7 306.4 537.6C306.467 537.533 306.533 537.5 306.6 537.5C306.7 537.5 306.7 537.4 306.8 537.3C307 536 306.9 534.7 306.7 533.4C306.5 532.2 306.8 530.8 306.1 529.5ZM303.9 502.7C301.3 502.4 298.7 503 296.1 503.1C295.5 503.1 294.9 503.3 294 503.4C294.7 506.2 295.2 508.8 295.8 511.4C296.3 514 296.9 516.7 297.5 519.3C298.1 521.9 298.4 524.5 299.2 527C301.5 527.7 303.7 528.2 305.9 527.7C306 527.4 306.1 527.3 306.1 527.1C305.5 519.167 304.867 511.2 304.2 503.2C304.2 503.1 304 502.9 303.9 502.7ZM302.4 481.6C302.1 478.1 301.9 474.6 301.6 471.1C301.5 470.4 301.6 469.8 301 469.2C300.5 469.2 300 469.1 299.4 469.2C298 469.2 296.7 469.3 295.3 469.3C292.7 469.3 290.1 469.3 287.5 469.4C287.2 469.4 286.8 469.5 286.4 469.6C287.9 480.2 289.5 490.7 291 501.1C291 501.4 291.2 501.6 291.3 501.9C291.5 501.9 291.8 502 292 502C295.9 501.6 299.8 501.2 303.8 500.8C303.8 499.8 303.8 499 303.8 498.2C303.667 496.533 303.533 494.9 303.4 493.3C303.067 489.367 302.733 485.467 302.4 481.6ZM335.5 460.1C335.2 458.8 334.4 458.2 333.1 458.1C332.4 458.1 331.7 458.1 331 458.1C327.933 458.167 324.867 458.233 321.8 458.3C314.933 458.433 308.067 458.567 301.2 458.7C295 458.8 288.8 458.8 282.7 458.9C280.4 458.9 278.1 459 275.9 459.1C275.2 459.1 274.6 459.3 274.1 459.7C272.8 461.1 272 462.7 272.5 464.7C272.8 466.1 273.5 467.1 274.7 467.9C274.9 467.9 275 468 275 468C281.467 467.867 287.9 467.767 294.3 467.7C300.9 467.567 307.533 467.433 314.2 467.3C319.467 467.233 324.733 467.2 330 467.2C331.1 467.2 332.1 466.9 333.1 466.5C333.9 466.3 334.3 465.9 334.7 465.2C335.6 463.6 335.8 461.9 335.5 460.1ZM380.2 426.4C380.1 425 379.3 424.2 378 423.9C377 423.7 376 423.633 375 423.7C374 423.8 373 423.9 372 423.9C366.2 423.967 360.4 424 354.6 424C353.267 424 351.933 424 350.6 424C349.4 423.9 348.4 424.3 347.5 425.1C346.4 426.1 345.4 427.3 344.9 428.7C344.4 430.1 343.8 431.4 343.5 432.8C342.5 436.5 341.6 440.2 340.8 443.8C339.7 449.1 338.8 454.4 337.8 459.6C337.4 461.9 337.1 464.2 336 466.3C335.9 466.4 336 466.6 336 466.7C336.6 467.1 337.4 466.9 338 466.9C342.533 466.9 347.067 466.867 351.6 466.8C356.067 466.733 360.533 466.667 365 466.6C365.7 466.5 366.4 466.5 367.1 466.2C368.1 465.6 369.2 465.1 370.2 464.5C371.6 463.6 372.8 462.5 373.8 461.1C374.9 459.5 375.3 457.7 375.7 455.8C376.8 449.6 377.9 443.4 379 437.2C379.4 434.733 379.767 432.267 380.1 429.8C380.3 428.6 380.3 427.5 380.2 426.4ZM385.5 401C383.4 396.7 381.2 392.5 378.6 388.6C376.6 385.6 374.6 382.7 372.6 379.7C370.3 376.2 367.4 373.3 364.3 370.7C362.3 368.967 360.133 367.433 357.8 366.1C356.467 365.367 355.033 364.867 353.5 364.6C350.167 364 346.8 363.567 343.4 363.3C339.4 363.1 335.3 362.6 331.2 362.3C329.533 362.167 327.833 362 326.1 361.8C323.5 361.6 320.867 361.4 318.2 361.2C315.8 361 313.433 360.8 311.1 360.6C309.9 360.467 308.7 360.367 307.5 360.3C306.2 362.1 305.5 364.8 304.3 371.5C303.5 375.9 303.2 382.8 303.8 384.9C307.8 385.4 311.9 385.7 315.9 386.2C320 386.6 324.2 386.9 328.3 387.4C328.4 387.7 328.6 387.9 328.6 388.2C328.6 388.3 328.5 388.5 328.4 388.7C327.9 388.8 327.5 388.9 327.1 388.8C326.2 388.8 325.3 388.7 324.5 388.6C323.7 388.5 322.8 388.3 322 388.7C317.7 403.7 313 418.7 309.1 433.8C309.2 434 309.3 434.1 309.4 434.2C309.6 434.4 309.867 434.567 310.2 434.7C318.5 439.6 327.5 442.8 337 444.4C337.6 444.5 338.3 444.6 338.9 444.3C339 444.1 339.2 443.8 339.2 443.5C339.8 441.1 340.367 438.7 340.9 436.3C341.5 433.7 342.2 431.1 343.2 428.5C343.867 426.7 344.933 425.167 346.4 423.9C347.533 422.9 348.867 422.367 350.4 422.3C351.3 422.3 352.3 422.4 353.2 422.4C354.867 422.4 356.5 422.433 358.1 422.5C358.5 422.5 358.8 422.4 359.3 422.3C359.3 421.9 359.4 421.6 359.4 421.3C359.333 408.233 359.3 395.2 359.3 382.2C359.3 381.533 359.333 380.9 359.4 380.3C359.4 380.1 359.6 380 359.7 379.7C360.033 379.833 360.367 379.933 360.7 380C360.8 380.5 360.8 381 360.8 381.4C360.8 382.6 360.8 383.8 360.8 385C360.867 391.067 360.9 397.1 360.9 403.1C360.9 403.7 360.7 404.3 361.3 404.8C369.3 404.2 377.3 403.5 385.3 402.8C385.5 402.8 385.7 402.7 385.8 402.6C386.1 402 385.7 401.5 385.5 401ZM381.1 405.5C381 405.3 380.8 405.1 380.6 404.8C376.4 405.2 372.2 405.567 368 405.9C367.8 405.9 367.6 406.1 367.3 406.2C367.6 406.9 367.8 407.6 368 408.3C368.2 408.9 368.4 409.533 368.6 410.2C368.8 410.7 368.7 411.1 368.2 411.5C365.9 412 363.4 411.8 361.1 412.4C360.9 413.8 360.8 418.9 360.9 421.1C360.9 421.5 361 421.9 361.1 422.4C361.8 422.4 362.3 422.5 362.8 422.5C365.8 422.4 368.7 422.4 371.7 422.3C374.233 422.233 376.733 422.1 379.2 421.9C380.667 421.833 381.967 421.4 383.1 420.6C384.1 419.8 384.7 418.9 384.8 417.6C384.9 415.5 384.6 413.6 383.8 411.7C382.933 409.633 382.033 407.567 381.1 405.5ZM361 410.4C362.1 410.7 363 410.5 363.9 410.4C364.8 410.3 365.8 410.3 366.7 409.8C366.4 408.6 366.1 407.4 365.5 406.2C364 406.2 362.5 406.2 361 406.7C361 407.3 360.9 407.7 360.9 408.2C360.9 408.9 360.9 409.6 361 410.4Z" fill="#3C3372"/>
<path d="M375.5 252.4C375.4 263.6 367.2 272.7 357 274.7C345.6 276.9 335.3 269.9 332.9 259.1C330.8 249.7 335.1 240.2 342.8 235.2C347.5 232.1 352.7 230.9 358.2 231.8C366.3 233.2 371.8 238 374.5 245.8C375.2 247.9 375.4 250.1 375.5 252.4Z" fill="#BAEDB2"/>
<path fill-rule="evenodd" clip-rule="evenodd" d="M353.3 248.5C354.1 247.9 354.6 247.5 355.2 247.1C356.3 246.2 357.6 245.5 359.1 245.3C361.5 244.9 363.6 245.8 364.8 248C365.5 249.1 365.8 250.3 365.7 251.6C365.6 252.9 365.4 254.3 364.7 255.6C362.3 260.3 358.6 263.8 353.8 266.1C351.2 267.2 350.8 267.1 348.9 265.3C345.4 262.1 342.7 258.4 341.5 253.7C341 251.8 341 249.9 341.3 248.1C341.6 246.6 342.3 245.3 343.4 244.4C346.8 241.7 351 243.5 352.3 246.3C352.7 247 352.9 247.6 353.3 248.5ZM351.1 265C352 265.2 352.5 264.9 353.1 264.6C357.5 262.5 360.9 259.4 363.2 255C363.8 253.9 364.1 252.7 364.1 251.4C364.2 248.8 362.1 245.7 358.3 247.2C356.7 247.8 355.333 248.767 354.2 250.1C354 250.4 353.8 250.7 353.6 250.9C352.8 251.1 352.4 250.7 352 250.2C351.8 249.7 351.7 249 351.5 248.5C351.3 247.9 351.1 247.4 350.8 246.9C349.8 245.3 348.3 244.6 346.5 244.8C344.7 245 343.6 246.1 343.1 247.8C342.633 249.4 342.567 251.033 342.9 252.7C343.6 256 345.3 258.9 347.4 261.5C348.5 262.8 349.6 264.1 351.1 265Z" fill="#3C3372"/>
<path d="M351.1 265C349.6 264.1 348.5 262.8 347.4 261.5C345.3 258.9 343.6 256 342.9 252.7C342.567 251.033 342.633 249.4 343.1 247.8C343.6 246.1 344.7 245 346.5 244.8C348.3 244.6 349.8 245.3 350.8 246.9C351.1 247.4 351.3 247.9 351.5 248.5C351.7 249 351.8 249.7 352 250.2C352.4 250.7 352.8 251.1 353.6 250.9C353.8 250.7 354 250.4 354.2 250.1C355.333 248.767 356.7 247.8 358.3 247.2C362.1 245.7 364.2 248.8 364.1 251.4C364.1 252.7 363.8 253.9 363.2 255C360.9 259.4 357.5 262.5 353.1 264.6C352.5 264.9 352 265.2 351.1 265Z" fill="#D1A76B"/>
<path d="M362.2 249.7C361.9 248.6 360.9 248.5 359.9 248.6C359.767 248.533 359.6 248.5 359.4 248.5C358.2 248.7 356 249.3 356 250.9C356 251.5 356.5 252 357.2 252.1C358 252.1 358.4 251.4 359.1 251.1C359.9 250.8 362.9 251.7 362.2 249.7Z" fill="#F5F5F5"/>
</svg>
