<?xml version="1.0" encoding="utf-8"?>
<!-- Generator: Adobe Illustrator 21.0.0, SVG Export Plug-In . SVG Version: 6.00 Build 0)  -->
<svg version="1.1" id="Layer_1" xmlns="http://www.w3.org/2000/svg" xmlns:xlink="http://www.w3.org/1999/xlink" x="0px" y="0px"
	 viewBox="0 0 512 512" style="enable-background:new 0 0 512 512;" xml:space="preserve">
<style type="text/css">
	.st0{fill:#71CCE0;}
	.st1{fill:#DFDFDF;}
	.st2{fill:#4A555F;}
	.st3{fill:#FFD452;}
	.st4{fill:#F58E6F;}
	.st5{fill:#FFFFFF;}
	.st6{fill:none;}
</style>
<g>
	<g>
		<g>
			<circle class="st3" cx="352.891" cy="389.878" r="90.106"/>
		</g>
	</g>
	<g>
		<g>
			<g>
				<path class="st2" d="M255.739,116.284H64.73c-15.296,0-27.742,12.446-27.742,27.743v298.639
					c0,15.298,12.446,27.744,27.742,27.744h191.009c2.394,0,4.747-0.301,6.996-0.896l4.925-1.303l-3.289-3.891
					c-2.725-3.226-5.313-6.655-7.688-10.184c-3.761-5.62-7.025-11.566-9.704-17.68c-6.482-14.679-9.769-30.347-9.769-46.568
					c0-9.687,1.194-19.283,3.549-28.527c1.573-6.223,3.665-12.3,6.226-18.078c1.303-2.988,2.813-6.052,4.485-9.103
					c5.29-9.621,11.946-18.45,19.787-26.25c3.365-3.364,7.048-6.598,10.95-9.613l1.252-0.967V144.027
					C283.459,128.729,271.025,116.284,255.739,116.284z M277.015,294.198c-3.656,2.899-7.119,5.979-10.308,9.169
					c-8.271,8.226-15.298,17.549-20.886,27.712c-1.766,3.223-3.363,6.462-4.734,9.608c-2.702,6.095-4.913,12.519-6.572,19.087
					c-2.488,9.758-3.749,19.89-3.749,30.113c0,17.123,3.472,33.667,10.314,49.163c2.828,6.453,6.276,12.735,10.253,18.677
					c1.426,2.122,2.926,4.208,4.483,6.239c-0.025,0-0.052,0-0.078,0H64.73c-11.743,0-21.298-9.555-21.298-21.3V144.027
					c0-11.744,9.555-21.299,21.298-21.299h191.009c11.732,0,21.277,9.555,21.277,21.299V294.198z"/>
			</g>
		</g>
	</g>
	<g>
		<g>
			<g>
				<path class="st0" d="M255.723,130.759H64.723c-7.303,0-13.253,5.95-13.253,13.275v87.016h217.507v-87.016
					C268.977,136.709,263.048,130.759,255.723,130.759z M240.344,213.393H77.675v-60.509h162.669V213.393z"/>
			</g>
		</g>
	</g>
	<g>
		<g>
			<g>
				<path class="st0" d="M268.979,305.652v-52.081H51.468v189.096c0,7.318,5.944,13.262,13.24,13.262h189.298
					c-3.828-5.719-7.183-11.799-9.975-18.171H219.33V360.57h18.306c1.621-6.417,3.76-12.632,6.395-18.576H219.33V312.7h29.317
					v19.927C254.119,322.675,260.986,313.601,268.979,305.652z M101.117,437.758H71.8v-29.317h29.317V437.758z M101.117,389.887
					H71.8V360.57h29.317V389.887z M101.117,341.994H71.8V312.7h29.317V341.994z M101.117,294.124H71.8v-29.317h29.317V294.124z
					 M150.294,437.758h-29.317v-29.317h29.317V437.758z M150.294,389.887h-29.317V360.57h29.317V389.887z M150.294,341.994h-29.317
					V312.7h29.317V341.994z M150.294,294.124h-29.317v-29.317h29.317V294.124z M199.47,437.758h-29.317v-29.317h29.317V437.758z
					 M199.47,389.887h-29.317V360.57h29.317V389.887z M199.47,341.994h-29.317V312.7h29.317V341.994z M199.47,294.124h-29.317
					v-29.317h29.317V294.124z M219.33,294.124v-29.317h29.317v29.317H219.33z"/>
			</g>
		</g>
	</g>
	<g>
		<g>
			<g>
				<path class="st2" d="M74.446,149.652v66.957h169.131v-66.957H74.446z M237.133,210.165H80.89v-54.069h156.242V210.165z"/>
			</g>
		</g>
	</g>
	<g>
		<g>
			<rect x="88.927" y="164.132" class="st4" width="140.169" height="37.997"/>
		</g>
	</g>
	<g>
		<g>
			<rect x="40.21" y="239.08" class="st2" width="242.534" height="6.444"/>
		</g>
	</g>
	<g>
		<g>
			<g>
				<path class="st2" d="M68.587,261.591v35.755h35.755v-35.755H68.587z M97.898,290.902H75.031v-22.866h22.867V290.902z"/>
			</g>
		</g>
	</g>
	<g>
		<g>
			<g>
				<path class="st2" d="M117.763,261.591v35.755h35.755v-35.755H117.763z M147.073,290.902h-22.867v-22.866h22.867V290.902z"/>
			</g>
		</g>
	</g>
	<g>
		<g>
			<g>
				<path class="st2" d="M166.938,261.591v35.755h35.755v-35.755H166.938z M196.249,290.902h-22.867v-22.866h22.867V290.902z"/>
			</g>
		</g>
	</g>
	<g>
		<g>
			<g>
				<path class="st2" d="M216.114,261.591v35.755h35.755v-35.755H216.114z M245.425,290.902h-22.867v-22.866h22.867V290.902z"/>
			</g>
		</g>
	</g>
	<g>
		<g>
			<g>
				<path class="st2" d="M68.587,309.468v35.755h35.755v-35.755H68.587z M97.898,338.779H75.031v-22.867h22.867V338.779z"/>
			</g>
		</g>
	</g>
	<g>
		<g>
			<g>
				<path class="st2" d="M117.763,309.468v35.755h35.755v-35.755H117.763z M147.073,338.779h-22.867v-22.867h22.867V338.779z"/>
			</g>
		</g>
	</g>
	<g>
		<g>
			<g>
				<path class="st2" d="M166.938,309.468v35.755h35.755v-35.755H166.938z M196.249,338.779h-22.867v-22.867h22.867V338.779z"/>
			</g>
		</g>
	</g>
	<g>
		<g>
			<g>
				<path class="st2" d="M216.108,309.478v35.738h30.034l0.843-1.933c1.303-2.988,2.813-6.052,4.487-9.107l0.396-0.723v-23.975
					H216.108z M245.425,331.809c-1.256,2.327-2.421,4.66-3.48,6.963h-19.393v-22.85h22.873V331.809z"/>
			</g>
		</g>
	</g>
	<g>
		<g>
			<g>
				<path class="st2" d="M68.587,357.345V393.1h35.755v-35.755H68.587z M97.898,386.656H75.031V363.79h22.867V386.656z"/>
			</g>
		</g>
	</g>
	<g>
		<g>
			<g>
				<path class="st2" d="M117.763,357.345V393.1h35.755v-35.755H117.763z M147.073,386.656h-22.867V363.79h22.867V386.656z"/>
			</g>
		</g>
	</g>
	<g>
		<g>
			<g>
				<path class="st2" d="M166.938,357.345V393.1h35.755v-35.755H166.938z M196.249,386.656h-22.867V363.79h22.867V386.656z"/>
			</g>
		</g>
	</g>
	<g>
		<g>
			<g>
				<path class="st2" d="M68.587,405.223v35.756h35.755v-35.756H68.587z M97.898,434.534H75.031v-22.868h22.867V434.534z"/>
			</g>
		</g>
	</g>
	<g>
		<g>
			<g>
				<path class="st2" d="M117.763,405.223v35.756h35.755v-35.756H117.763z M147.073,434.534h-22.867v-22.868h22.867V434.534z"/>
			</g>
		</g>
	</g>
	<g>
		<g>
			<g>
				<path class="st2" d="M166.938,405.223v35.756h35.755v-35.756H166.938z M196.249,434.534h-22.867v-22.868h22.867V434.534z"/>
			</g>
		</g>
	</g>
	<g>
		<g>
			<g>
				<path class="st2" d="M246.979,436.456c-6.482-14.679-9.769-30.347-9.769-46.568c0-9.687,1.194-19.283,3.547-28.521l1.026-4.018
					h-25.675v83.631h32.868L246.979,436.456z M222.552,434.535v-70.743h11.013c-1.859,8.509-2.798,17.268-2.798,26.095
					c0,15.469,2.832,30.463,8.428,44.648H222.552z"/>
			</g>
		</g>
	</g>
	<g>
		<g>
			<path class="st2" d="M378.207,369.176v-0.448c0-13.959-11.357-25.316-25.315-25.316c-13.96,0-25.317,11.357-25.317,25.316v1.646
				c0,12.985,10.564,23.549,23.548,23.549h3.535c9.431,0,17.104,7.673,17.104,17.104c0,10.406-8.466,18.873-18.871,18.873
				c-10.406,0-18.873-8.466-18.873-18.872h-6.444c0,13.959,11.357,25.316,25.317,25.316c13.958,0,25.315-11.357,25.315-25.317
				c0-12.984-10.564-23.548-23.548-23.548h-3.535c-9.431,0-17.104-7.673-17.104-17.104v-1.646c0-10.406,8.466-18.872,18.873-18.872
				c10.405,0,18.871,8.466,18.871,18.872v0.448H378.207z"/>
		</g>
	</g>
	<g>
		<g>
			<rect x="349.67" y="326.625" class="st2" width="6.444" height="20.01"/>
		</g>
	</g>
	<g>
		<g>
			<rect x="349.67" y="433.123" class="st2" width="6.444" height="20.01"/>
		</g>
	</g>
	<g>
		<g>
			<g>
				<path class="st2" d="M291.756,328.144l-4.535-4.577c-1.578,1.563-3.115,3.198-4.569,4.858l4.846,4.246
					C288.853,331.125,290.285,329.601,291.756,328.144z M276.804,347.9l-5.639-3.119c-1.078,1.948-2.094,3.952-3.021,5.957
					l5.848,2.704C274.855,351.577,275.801,349.712,276.804,347.9z M266.248,383.346l-6.427-0.476c-0.161,2.2-0.25,4.442-0.258,6.661
					l6.444,0.025C266.015,387.487,266.095,385.396,266.248,383.346z M283.573,337.488l-5.135-3.891
					c-1.336,1.761-2.626,3.6-3.839,5.461l5.404,3.514C281.129,340.838,282.331,339.128,283.573,337.488z M271.587,359.175
					l-6.029-2.276c-0.787,2.082-1.504,4.209-2.131,6.321l6.176,1.838C270.188,363.092,270.855,361.113,271.587,359.175z
					 M276.476,431.266l-5.659,3.086c1.072,1.962,2.211,3.892,3.39,5.735l5.429-3.47
					C278.538,434.898,277.475,433.098,276.476,431.266z M283.168,441.726l-5.169,3.845c1.313,1.767,2.717,3.519,4.172,5.206
					l4.879-4.208C285.698,445,284.391,443.37,283.168,441.726z M271.36,419.978l-6.045,2.236c0.77,2.077,1.621,4.15,2.534,6.164
					l5.869-2.662C272.868,423.841,272.075,421.912,271.36,419.978z M266.204,395.767l-6.431,0.432
					c0.149,2.215,0.38,4.447,0.684,6.633l6.381-0.887C266.554,399.909,266.343,397.832,266.204,395.767z M267.909,408.059
					l-6.301,1.347c0.466,2.178,1.011,4.355,1.621,6.467l6.192-1.79C268.851,412.115,268.344,410.089,267.909,408.059z
					 M422.812,338.29l5.181-3.832c-1.317-1.781-2.714-3.537-4.153-5.218l-4.896,4.19
					C420.284,334.996,421.584,336.631,422.812,338.29z M429.455,348.77l5.672-3.056c-1.051-1.953-2.184-3.889-3.367-5.753
					l-5.441,3.45C427.42,345.147,428.475,346.95,429.455,348.77z M286.698,455.67c1.554,1.564,3.193,3.099,4.869,4.562l4.237-4.856
					c-1.563-1.363-3.088-2.792-4.533-4.248L286.698,455.67z M434.533,360.082l6.05-2.217c-0.764-2.088-1.609-4.164-2.507-6.169
					l-5.882,2.637C433.033,356.2,433.82,358.135,434.533,360.082z M373.258,298.779c-2.171-0.481-4.378-0.89-6.559-1.214
					l-0.944,6.375c2.031,0.301,4.084,0.681,6.106,1.13L373.258,298.779z M439.599,384.311l6.431-0.407
					c-0.141-2.216-0.361-4.448-0.656-6.636l-6.385,0.862C439.263,380.167,439.469,382.246,439.599,384.311z M437.938,372.009
					l6.31-1.315c-0.453-2.165-0.99-4.345-1.601-6.479l-6.197,1.771C437.019,367.97,437.518,369.998,437.938,372.009z
					 M386.035,302.606c-2.073-0.788-4.2-1.509-6.318-2.144l-1.85,6.173c1.972,0.591,3.952,1.262,5.882,1.995L386.035,302.606z
					 M419.327,324.329c-1.557-1.576-3.188-3.116-4.852-4.577l-4.254,4.839c1.548,1.362,3.069,2.797,4.521,4.267L419.327,324.329z
					 M398.141,308.232c-1.951-1.082-3.952-2.1-5.949-3.028l-2.719,5.842c1.861,0.865,3.725,1.814,5.542,2.822L398.141,308.232z
					 M409.311,315.526c-1.773-1.347-3.608-2.64-5.456-3.846l-3.52,5.397c1.718,1.122,3.428,2.326,5.078,3.58L409.311,315.526z
					 M268.048,371.071l-6.293-1.393c-0.476,2.158-0.883,4.367-1.204,6.563l6.377,0.934
					C267.226,375.131,267.603,373.077,268.048,371.071z M414.257,451.383l4.543,4.566c1.561-1.551,3.094-3.192,4.558-4.878
					l-4.862-4.227C417.133,448.412,415.707,449.939,414.257,451.383z M404.866,459.508l3.86,5.16
					c1.775-1.328,3.522-2.733,5.194-4.179l-4.212-4.875C408.147,456.961,406.519,458.271,404.866,459.508z M394.428,466.21
					l3.079,5.66c1.94-1.055,3.87-2.199,5.739-3.401l-3.482-5.42C398.026,464.165,396.23,465.229,394.428,466.21z M358.94,476.556
					l0.441,6.429c2.211-0.152,4.443-0.385,6.635-0.694l-0.898-6.381C363.076,476.197,360.998,476.415,358.94,476.556z
					 M297.335,314.881c-1.779,1.32-3.532,2.72-5.213,4.163l4.199,4.888c1.563-1.343,3.197-2.646,4.852-3.875L297.335,314.881z
					 M371.232,474.823l1.351,6.302c2.165-0.465,4.34-1.015,6.471-1.636l-1.804-6.186
					C375.268,473.879,373.244,474.392,371.232,474.823z M422.402,442.012l5.152,3.872c1.332-1.771,2.616-3.614,3.818-5.477
					l-5.416-3.493C424.838,438.649,423.642,440.364,422.402,442.012z M437.803,408.372l6.297,1.368
					c0.47-2.162,0.866-4.373,1.179-6.569l-6.381-0.908C438.609,404.307,438.24,406.363,437.803,408.372z M439.775,389.878
					c0,2.079-0.073,4.167-0.218,6.207l6.427,0.457c0.155-2.192,0.235-4.435,0.235-6.664H439.775z M434.309,420.28l6.037,2.255
					c0.778-2.081,1.487-4.211,2.108-6.332l-6.184-1.812C435.691,416.362,435.032,418.344,434.309,420.28z M429.136,431.576
					l5.651,3.096c1.061-1.938,2.07-3.946,2.995-5.966l-5.857-2.685C431.064,427.903,430.124,429.771,429.136,431.576z
					 M383.143,471.352l2.245,6.041c2.073-0.77,4.145-1.625,6.159-2.543l-2.668-5.865C387,469.839,385.07,470.635,383.143,471.352z
					 M320.072,477.272c2.073,0.778,4.202,1.492,6.329,2.12l1.825-6.18c-1.978-0.585-3.96-1.249-5.888-1.973L320.072,477.272z
					 M320.722,302.245c-2.077,0.761-4.153,1.609-6.173,2.52l2.651,5.874c1.877-0.846,3.809-1.635,5.741-2.344L320.722,302.245z
					 M307.946,471.689c1.944,1.071,3.95,2.083,5.961,3.009l2.693-5.854c-1.871-0.861-3.738-1.803-5.55-2.799L307.946,471.689z
					 M360.073,296.823c-2.2-0.169-4.441-0.26-6.662-0.272l-0.034,6.444c2.068,0.01,4.156,0.096,6.205,0.253L360.073,296.823z
					 M296.748,464.437c1.762,1.33,3.602,2.618,5.469,3.827l3.503-5.41c-1.739-1.125-3.451-2.323-5.091-3.561L296.748,464.437z
					 M308.577,307.723c-1.945,1.051-3.881,2.187-5.75,3.378l3.461,5.435c1.741-1.109,3.541-2.166,5.351-3.144L308.577,307.723z
					 M333.537,298.56c-2.175,0.459-4.353,1.001-6.475,1.612l1.779,6.192c1.976-0.567,4.004-1.072,6.027-1.499L333.537,298.56z
					 M346.056,482.96c2.194,0.159,4.437,0.242,6.662,0.247l0.013-6.444c-2.075-0.004-4.164-0.082-6.209-0.23L346.056,482.96z
					 M346.746,296.75c-2.213,0.144-4.445,0.368-6.637,0.668l0.877,6.385c2.039-0.28,4.116-0.489,6.176-0.622L346.746,296.75z
					 M332.859,481.051c2.161,0.473,4.369,0.874,6.564,1.19l0.923-6.377c-2.043-0.296-4.099-0.669-6.11-1.109L332.859,481.051z"/>
			</g>
		</g>
	</g>
	<g>
		<g>
			<g>
				<path class="st2" d="M352.892,267.757c-67.339,0-122.122,54.784-122.122,122.121C230.77,457.216,285.553,512,352.892,512
					c67.337,0,122.12-54.784,122.12-122.122C475.012,322.541,420.229,267.757,352.892,267.757z M352.892,505.556
					c-63.786,0-115.678-51.893-115.678-115.678s51.892-115.677,115.678-115.677c63.784,0,115.676,51.892,115.676,115.677
					S416.676,505.556,352.892,505.556z"/>
			</g>
		</g>
	</g>
	<g>
		<g>
			<g>
				<path class="st2" d="M104.388,0C90.357,0,78.941,11.415,78.941,25.446v97.279h172.934v-97.37
					c0.046-9.79,7.415-17.877,17.142-18.813c0.608-0.059,1.223-0.088,1.844-0.088V0.009L104.388,0z M245.431,25.339v90.942H85.385
					V25.446c0-10.478,8.525-19.002,19.003-19.002l149.509,0.009C248.701,11.097,245.467,17.844,245.431,25.339z"/>
			</g>
		</g>
	</g>
	<g>
		<g>
			<g>
				<path class="st2" d="M341.6,78.05l0.006,97.084c0.05,13.106,9.918,23.936,22.959,25.193c0.822,0.078,1.642,0.128,2.465,0.128
					h51.777c0.826,0,1.653-0.05,2.448-0.128c13.047-1.254,22.925-12.085,22.978-25.206v-71.635c0-10.472,8.519-18.992,18.99-18.992
					V78.05H341.6z M437.789,103.486v71.623c-0.04,9.783-7.413,17.868-17.155,18.804c-0.596,0.058-1.21,0.097-1.827,0.097H367.03
					c-0.621,0-1.24-0.04-1.854-0.098c-9.725-0.937-17.088-9.021-17.125-18.791v-59.377l-0.006-3.222V84.494h98.278
					C441.088,89.156,437.789,95.943,437.789,103.486z"/>
			</g>
		</g>
	</g>
	<g>
		<g>
			<g>
				<path class="st2" d="M365.147,193.92c-9.725-0.937-17.088-9.031-17.125-18.814l0.023-149.785
					c-0.052-13.106-9.92-23.938-22.963-25.195C324.261,0.049,323.439,0,322.621,0h-51.766c-0.827,0-1.649,0.05-2.448,0.127
					c-13.047,1.255-22.925,12.087-22.976,25.207v97.391h10.291c11.745,0,21.3,9.555,21.3,21.299v56.439h67.778l22.202-0.023v-6.444
					C366.38,193.995,365.761,193.977,365.147,193.92z M283.466,194.018v-49.995c0-15.297-12.446-27.743-27.744-27.743h-3.847V25.346
					c0.038-9.784,7.409-17.867,17.148-18.805c0.598-0.058,1.214-0.097,1.831-0.097h51.766c0.619,0,1.242,0.041,1.852,0.097
					c9.725,0.938,17.088,9.022,17.127,18.792l-0.023,149.785c0.029,7.487,3.256,14.232,8.443,18.877L283.466,194.018z"/>
			</g>
		</g>
	</g>
	<g>
		<g>
			<path class="st4" d="M333.541,175.106v-55.603l0.022-11.258V25.376c-0.022-5.637-4.261-10.295-9.827-10.832
				c-0.372-0.035-0.745-0.064-1.117-0.064h-51.764c-0.358,0-0.715,0.027-1.062,0.06c-5.612,0.54-9.86,5.198-9.882,10.792v83.156
				c17.763,2.081,31.592,17.224,31.592,35.535v41.957h42.039v-0.022h1.818C334.192,182.555,333.557,178.904,333.541,175.106z"/>
		</g>
	</g>
	<g>
		<g>
			<rect x="108.812" y="30.383" class="st2" width="114.228" height="6.444"/>
		</g>
	</g>
	<g>
		<g>
			<rect x="108.812" y="58.747" class="st2" width="114.228" height="6.444"/>
		</g>
	</g>
	<g>
		<g>
			<rect x="108.812" y="87.111" class="st2" width="114.228" height="6.444"/>
		</g>
	</g>
	<g>
		<g>
			<rect x="344.799" y="105.936" class="st2" width="66.626" height="6.444"/>
		</g>
	</g>
	<g>
		<g>
			<rect x="344.799" y="134.3" class="st2" width="66.626" height="6.444"/>
		</g>
	</g>
	<g>
		<g>
			<rect x="344.799" y="162.663" class="st2" width="66.626" height="6.444"/>
		</g>
	</g>
</g>
</svg>
