<svg xmlns="http://www.w3.org/2000/svg" width="48" height="46.943" viewBox="0 0 48 46.943">
  <g>
    <g>
      <rect x="4.191" y="28.879" width="18.064" height="18.064" fill="#fddc85"/>
      <polygon points="4.191 46.943 0 42.753 0 24.686 4.191 28.879 4.191 46.943" fill="#db5743"/>
      <polygon points="4.191 28.879 0 24.686 18.065 24.686 22.255 28.879 4.191 28.879" fill="#f87670"/>
      <path d="M15.8,37.31a2.994,2.994,0,0,0-2.5-4.649H9.661a.75.75,0,0,0-.75.75v9a.75.75,0,0,0,.75.75h5.25A2.992,2.992,0,0,0,15.8,37.31ZM10.41,34.161H13.3a1.5,1.5,0,0,1,0,3H10.41Zm4.5,7.5h-4.5v-3h4.5a1.5,1.5,0,0,1,0,3Z" fill="#525c6b"/>
    </g>
    <g>
      <rect x="29.935" y="23.667" width="18.065" height="18.064" fill="#ffbd66"/>
      <polygon points="29.935 41.731 25.744 37.541 25.744 19.474 29.935 23.667 29.935 41.731" fill="#2ba0bf"/>
      <polygon points="29.935 23.667 25.744 19.474 43.808 19.474 48 23.667 29.935 23.667" fill="#59c5ef"/>
      <path d="M42.108,35.01a3.321,3.321,0,0,1-2.7,1.438,3.764,3.764,0,0,1,0-7.5,3.324,3.324,0,0,1,2.7,1.438.75.75,0,0,0,1.218-.876,4.806,4.806,0,0,0-3.92-2.063,5.26,5.26,0,0,0,0,10.5,4.8,4.8,0,0,0,3.92-2.063.75.75,0,1,0-1.218-.874Z" fill="#525c6b"/>
    </g>
    <g>
      <rect x="12.013" y="5.042" width="18.065" height="18.064" transform="translate(-3.247 6.941) rotate(-17.409)" fill="#f1bb6b"/>
      <polygon points="15.135 25.386 9.882 22.641 4.476 5.405 9.73 8.15 15.135 25.386" fill="#3daa9d"/>
      <polygon points="9.73 8.15 4.476 5.405 21.713 0 26.966 2.745 9.73 8.15" fill="#79ccb8"/>
      <path d="M20.344,9.261a.749.749,0,0,0-1.316.427l-.5,6.179v0l-.281,3.492a.753.753,0,0,0,.688.809H19a.75.75,0,0,0,.747-.689l.238-2.98,3.626-1.137,1.975,2.3a.75.75,0,1,0,1.139-.977Zm-.229,5.633.264-3.29,2.168,2.526Z" fill="#525c6b"/>
    </g>
  </g>
</svg>
