<?xml version="1.0" encoding="iso-8859-1"?>
<!-- Generator: Adobe Illustrator 19.0.0, SVG Export Plug-In . SVG Version: 6.00 Build 0)  -->
<svg version="1.1" id="Layer_1" xmlns="http://www.w3.org/2000/svg" xmlns:xlink="http://www.w3.org/1999/xlink" x="0px" y="0px"
	 viewBox="0 0 512 512" style="enable-background:new 0 0 512 512;" xml:space="preserve">
<path style="fill:#F9BA8F;" d="M487.153,124.533c0-17.101-12.158-30.431-28.289-33.496l-156.868-0.666H162.365l-38.225,0.495
	l44.997,70.126h318.489L487.153,124.533z"/>
<polygon style="fill:#E8AD85;" points="487.153,124.533 485.645,114.689 153.526,114.689 232.962,194.124 479.378,194.124 "/>
<polyline style="fill:#FFEFCA;" points="430.756,123.785 430.756,61.506 331.351,61.506 331.351,123.785 "/>
<polygon style="fill:#FFDFA1;" points="331.351,61.506 331.351,132.943 364.245,132.943 364.245,118.743 364.245,66.401 
	364.245,61.506 "/>
<path style="fill:#FED1A9;" d="M504.812,280.194V152.298c0-14.658-11.882-28.856-26.54-28.856H184.54
	c-28.793-31.008-31.096-59.611-73.41-59.611H9.4v344.64c0,14.658,11.882,26.54,26.54,26.54h442.333
	c14.658,0,26.54-11.882,26.54-26.54v-72.628V280.194z"/>
<polygon style="fill:#FFFFFF;" points="197.48,273.158 197.48,189.967 61.374,189.967 61.374,345.191 197.48,345.191 
	197.48,308.343 "/>
<circle style="fill:#FFEFCA;" cx="129.537" cy="252.185" r="32.437"/>
<path d="M34.834,451.047h442.333c19.207,0,34.834-15.627,34.834-34.834v-72.628c0-4.58-3.712-8.294-8.294-8.294
	c-4.581,0-8.294,3.713-8.294,8.294v72.628c0,10.061-8.184,18.246-18.246,18.246H34.834c-10.062,0-18.246-8.185-18.246-18.246V79.866
	h93.436c25.571,0,33.423,11.314,46.431,30.06c5.653,8.148,12.061,17.381,20.901,26.902c1.569,1.69,3.771,2.65,6.078,2.65h293.733
	c9.55,0,18.246,9.8,18.246,20.562v127.897c0,4.58,3.712,8.294,8.294,8.294c4.581,0,8.294-3.713,8.294-8.294V160.039
	c0-13.33-7.39-25.549-17.884-32.111c-1.869-18.626-15.653-33.658-34.81-37.297c-4.492-0.856-8.84,2.099-9.696,6.6
	c-0.855,4.5,2.1,8.841,6.601,9.696c9.327,1.772,16.575,7.881,19.764,15.964h-38.031V69.247c0-4.58-3.712-8.294-8.294-8.294h-99.404
	c-4.581,0-8.294,3.713-8.294,8.294v53.643H187.11c-4.974-5.623-9.071-11.114-12.876-16.484h126.655c4.581,0,8.294-3.713,8.294-8.294
	s-3.712-8.294-8.294-8.294H162.477c-11.401-15.065-24.505-26.54-52.452-26.54H8.294C3.712,63.279,0,66.992,0,71.573v344.64
	C0,435.42,15.627,451.047,34.834,451.047z M421.356,122.89h-49.924V77.541h49.924V122.89z M338.54,77.541h16.305v45.349H338.54
	V77.541z"/>
<path d="M424.253,255.939H283.558c-4.581,0-8.294,3.713-8.294,8.294s3.712,8.294,8.294,8.294h140.695
	c4.581,0,8.294-3.713,8.294-8.294S428.835,255.939,424.253,255.939z"/>
<path d="M424.253,303.346H283.558c-4.581,0-8.294,3.713-8.294,8.294s3.712,8.294,8.294,8.294h140.695
	c4.581,0,8.294-3.713,8.294-8.294S428.835,303.346,424.253,303.346z"/>
<path d="M196.375,289.193c4.581,0,8.294-3.713,8.294-8.294v-83.191c0-4.58-3.712-8.294-8.294-8.294H60.268
	c-4.581,0-8.294,3.713-8.294,8.294v155.223c0,4.58,3.712,8.294,8.294,8.294h136.107c4.581,0,8.294-3.713,8.294-8.294v-36.846
	c0-4.58-3.712-8.294-8.294-8.294c-4.581,0-8.294,3.713-8.294,8.294v28.553H68.562V206.002h119.519v74.897
	C188.081,285.479,191.793,289.193,196.375,289.193z"/>
<path d="M128.432,219.19c-22.035,0-40.027,17.592-40.699,39.467c-0.159,0.642-0.253,1.31-0.253,2.003
	c0,0.832,0.126,1.633,0.354,2.391c1.605,21.002,19.194,37.603,40.6,37.603c21.962,0,39.908-17.474,40.693-39.248
	c0.022-0.247,0.038-0.494,0.038-0.746c0-0.083-0.01-0.164-0.012-0.247c0.002-0.164,0.012-0.326,0.012-0.491
	C169.163,237.462,150.891,219.19,128.432,219.19z M128.432,284.066c-10.121,0-18.8-6.262-22.384-15.113h9.114
	c4.581,0,8.294-3.713,8.294-8.294s-3.712-8.294-8.294-8.294h-9.656c3.179-9.622,12.252-16.587,22.926-16.587
	s19.747,6.966,22.926,16.587h-9.876c-4.581,0-8.294,3.713-8.294,8.294s3.712,8.294,8.294,8.294h9.335
	C147.233,277.804,138.553,284.066,128.432,284.066z"/>
<path d="M81.692,319.636c0,4.58,3.712,8.294,8.294,8.294h76.672c4.581,0,8.294-3.713,8.294-8.294s-3.712-8.294-8.294-8.294H89.986
	C85.404,311.342,81.692,315.056,81.692,319.636z"/>
<g>
</g>
<g>
</g>
<g>
</g>
<g>
</g>
<g>
</g>
<g>
</g>
<g>
</g>
<g>
</g>
<g>
</g>
<g>
</g>
<g>
</g>
<g>
</g>
<g>
</g>
<g>
</g>
<g>
</g>
</svg>
