<svg xmlns="http://www.w3.org/2000/svg" viewBox="0 0 512 512">
  <defs>
    <style>
      .cls-1 {
        fill: #19e77c;
      }

      .cls-2 {
        fill: #00a865;
      }

      .cls-3 {
        fill: #f6edff;
      }

      .cls-4 {
        fill: #fbf6ff;
      }

      .cls-5 {
        fill: #ecd9ff;
      }

      .cls-6 {
        fill: #e6ccff;
      }

      .cls-7 {
        fill: #3659c1;
      }

      .cls-8 {
        fill: #5f7bce;
      }

      .cls-9 {
        fill: #e9d1ff;
      }

      .cls-10 {
        fill: #fcf9ff;
      }

      .cls-11 {
        fill: #ddb8ff;
      }

      .cls-12 {
        fill: #559aff;
      }

      .cls-13 {
        fill: #1876ff;
      }
    </style>
  </defs>
  <title>E Commerce_512px</title>
  <g id="Ledger">
    <g>
      <rect class="cls-1" x="21.33333" y="234.66667" width="469.33333" height="256" rx="42.66667" ry="42.66667"/>
      <rect class="cls-2" x="42.66667" y="426.66667" width="426.66665" height="42.66667" rx="21.33331" ry="21.33331"/>
      <rect class="cls-3" x="21.33333" y="234.66667" width="469.33333" height="213.33333" rx="42.66667" ry="42.66667"/>
      <rect class="cls-3" x="21.33333" y="21.33333" width="469.33333" height="213.33333" rx="42.66667" ry="42.66667"/>
      <rect class="cls-4" x="42.66667" y="42.66667" width="426.66667" height="42.66667" rx="21.33331" ry="21.33331"/>
      <path class="cls-5" d="M480,126.41878a10.66673,10.66673,0,0,0-10.66667,10.66667V192A21.35757,21.35757,0,0,1,448,213.33333H74.66667a10.66667,10.66667,0,1,0,0,21.33334H448A42.6667,42.6667,0,0,0,490.66667,192V137.08545A10.66673,10.66673,0,0,0,480,126.41878Z"/>
      <path class="cls-6" d="M480,277.33333A10.66673,10.66673,0,0,0,469.33333,288V405.33333A21.35757,21.35757,0,0,1,448,426.66667H74.66667a10.66667,10.66667,0,1,0,0,21.33333H448a42.6667,42.6667,0,0,0,42.66667-42.66667V288A10.66673,10.66673,0,0,0,480,277.33333Z"/>
      <rect class="cls-6" x="85.33333" y="234.66667" width="341.33333" height="21.33333" rx="10.66666" ry="10.66666"/>
      <rect class="cls-7" x="128" y="213.33333" width="21.33333" height="42.66667" rx="10.66666" ry="10.66666"/>
      <circle class="cls-8" cx="138.66667" cy="224" r="10.66667"/>
      <rect class="cls-7" x="362.66667" y="213.33333" width="21.33333" height="42.66667" rx="10.66666" ry="10.66666"/>
      <circle class="cls-8" cx="373.33333" cy="224" r="10.66667"/>
      <rect class="cls-8" x="64" y="64" width="85.33333" height="21.33333" rx="10.66666" ry="10.66666"/>
      <rect class="cls-8" x="170.66667" y="64" width="64" height="21.33333" rx="10.66666" ry="10.66666"/>
      <g>
        <path class="cls-1" d="M373.33333,106.66667H330.66667a10.66667,10.66667,0,0,1,0-21.33334h64a10.66667,10.66667,0,0,0,0-21.33333h-64a32,32,0,0,0,0,64h42.66666a10.66667,10.66667,0,1,1,0,21.33333h-64a10.66667,10.66667,0,0,0,0,21.33334h64a32,32,0,0,0,0-64Z"/>
        <rect class="cls-1" x="341.33333" y="42.66667" width="21.33333" height="42.66667" rx="10.66666" ry="10.66666"/>
        <rect class="cls-1" x="341.33333" y="149.33333" width="21.33333" height="42.66667" rx="10.66666" ry="10.66666"/>
      </g>
      <rect class="cls-9" x="64" y="106.66667" width="170.66667" height="85.33333" rx="21.33333" ry="21.33333"/>
      <rect class="cls-10" x="64" y="320" width="362.66667" height="42.66667"/>
      <rect class="cls-11" x="320" y="320" width="106.66667" height="42.66667"/>
      <rect class="cls-9" x="213.33333" y="320" width="106.66667" height="42.66667"/>
      <rect class="cls-9" x="64" y="320" width="42.66667" height="42.66667"/>
      <path class="cls-3" d="M64,362.66667H426.66667a0,0,0,0,1,0,0V384a21.33333,21.33333,0,0,1-21.33333,21.33333h-320A21.33333,21.33333,0,0,1,64,384V362.66667A0,0,0,0,1,64,362.66667Z"/>
      <path class="cls-12" d="M85.33333,277.33333h320a21.33333,21.33333,0,0,1,21.33333,21.33333V320a0,0,0,0,1,0,0H64a0,0,0,0,1,0,0V298.66667A21.33333,21.33333,0,0,1,85.33333,277.33333Z"/>
      <path class="cls-13" d="M320,277.33333h85.33333a21.33333,21.33333,0,0,1,21.33333,21.33333V320a0,0,0,0,1,0,0H320a0,0,0,0,1,0,0V277.33333A0,0,0,0,1,320,277.33333Z"/>
      <rect class="cls-12" x="213.33333" y="277.33333" width="106.66667" height="42.66667"/>
      <rect class="cls-13" x="106.66667" y="277.33333" width="106.66667" height="42.66667"/>
      <path class="cls-3" d="M64,362.66667H426.66666a0,0,0,0,1,0,0V384a21.33333,21.33333,0,0,1-21.33333,21.33333h-320A21.33333,21.33333,0,0,1,64,384V362.66667A0,0,0,0,1,64,362.66667Z"/>
      <path class="cls-9" d="M320,362.66667H426.66666a0,0,0,0,1,0,0V384a21.33333,21.33333,0,0,1-21.33333,21.33333H320a0,0,0,0,1,0,0V362.66667A0,0,0,0,1,320,362.66667Z"/>
      <rect class="cls-10" x="213.33333" y="362.66667" width="106.66667" height="42.66667"/>
      <rect class="cls-11" x="106.66666" y="362.66667" width="106.66667" height="42.66667"/>
    </g>
  </g>
</svg>
