<?xml version="1.0" encoding="utf-8"?>
<!-- Generator: Adobe Illustrator 23.0.0, SVG Export Plug-In . SVG Version: 6.00 Build 0)  -->
<svg version="1.1" id="Layer_1" xmlns="http://www.w3.org/2000/svg" xmlns:xlink="http://www.w3.org/1999/xlink" x="0px" y="0px"
	 viewBox="0 0 500 500" style="enable-background:new 0 0 500 500;" xml:space="preserve">
<style type="text/css">
	.st0{fill:#83E1E5;}
	.st1{fill:#AAB1BA;}
	.st2{fill:#FDDF7F;}
	.st3{fill:#ECF4F7;}
	.st4{fill:#1C1D21;}
</style>
<g>
	<g>
		<ellipse class="st2" cx="254.072" cy="181.423" rx="102.041" ry="102.209"/>
	</g>
</g>
<g>
	<g>
		<path class="st0" d="M350.664,267.333h-41.293c-15.934,10.311-34.917,16.3-55.299,16.3c-20.381,0-39.365-5.988-55.299-16.3h-31.57
			c-33.479,0-60.62,27.185-60.62,60.72V495h278.404v-43.737h10.781c8.569,0,15.516-6.958,15.516-15.541v-107.67
			C411.284,294.518,384.143,267.333,350.664,267.333z"/>
	</g>
</g>
<g>
	<g>
		<path class="st1" d="M290.272,307.6h-54.32c-3.241,0-5.868,2.626-5.868,5.866v85.647h55.678c5.738,0,10.389-4.65,10.389-10.386
			v-28.062v-47.187C296.152,310.232,293.519,307.6,290.272,307.6z"/>
	</g>
</g>
<g>
	<g>
		<rect x="106.583" y="363.781" class="st2" width="52.594" height="131.219"/>
	</g>
</g>
<g>
	<g>
		<path class="st2" d="M358.69,363.781v36.134c0,4.434-3.596,8.029-8.032,8.029h-20.586c-4.427,0-8.016-3.587-8.016-8.013v-38.034
			c0-7.151-5.799-12.948-12.952-12.948s-12.952,5.797-12.952,12.948v26.83c0,5.736-4.651,10.386-10.389,10.386h-59.643
			c-7.006,0-12.685,5.689-12.685,12.706v26.738c0,7.017,5.679,12.706,12.685,12.706h169.76c8.508,0,15.405-6.908,15.405-15.43
			v-72.052H358.69z"/>
	</g>
</g>
<g>
	<g>
		<path class="st0" d="M235.162,144.266L235.162,144.266c-5.683-4.606-14.012-4.222-19.228,0.886l-3.906,3.825l-3.906-3.825
			c-5.216-5.109-13.545-5.493-19.228-0.886v0c-6.114,4.955-6.938,13.839-1.836,19.792l24.97,29.138l24.97-29.138
			C242.099,158.104,241.275,149.221,235.162,144.266z"/>
	</g>
</g>
<g>
	<g>
		<path class="st0" d="M319.25,144.266L319.25,144.266c-5.683-4.606-14.012-4.222-19.228,0.886l-3.906,3.825l-3.906-3.825
			c-5.216-5.109-13.545-5.493-19.228-0.886l0,0c-6.114,4.955-6.938,13.839-1.836,19.792l24.97,29.138l24.97-29.138
			C326.188,158.104,325.364,149.221,319.25,144.266z"/>
	</g>
</g>
<g>
	<g>
		<path class="st3" d="M303.3,215.537c-4.378-3.804-11.009-3.339-14.813,1.038c-8.7,10.01-21.22,15.792-34.415,15.933
			c-13.195-0.14-25.715-5.922-34.415-15.933c-3.804-4.377-10.435-4.841-14.813-1.038c-4.377,3.804-4.841,10.436-1.038,14.813
			c12.69,14.602,30.988,23.017,50.266,23.157c19.278-0.14,37.576-8.556,50.266-23.157
			C308.142,225.973,307.677,219.341,303.3,215.537z"/>
	</g>
</g>
<path class="st4" d="M239.534,16.535c0-2.761,2.239-5,5-5h6.535V5c0-2.761,2.239-5,5-5s5,2.239,5,5v6.535h6.535c2.761,0,5,2.239,5,5
	s-2.239,5-5,5h-6.535v6.534c0,2.761-2.239,5-5,5s-5-2.239-5-5v-6.534h-6.535C241.773,21.535,239.534,19.296,239.534,16.535z
	 M168.406,21.535h6.535v6.534c0,2.761,2.239,5,5,5s5-2.239,5-5v-6.534h6.535c2.761,0,5-2.239,5-5s-2.239-5-5-5h-6.535V5
	c0-2.761-2.239-5-5-5s-5,2.239-5,5v6.535h-6.535c-2.761,0-5,2.239-5,5S165.645,21.535,168.406,21.535z M320.663,21.535h6.535v6.534
	c0,2.761,2.239,5,5,5s5-2.239,5-5v-6.534h6.535c2.761,0,5-2.239,5-5s-2.239-5-5-5h-6.535V5c0-2.761-2.239-5-5-5s-5,2.239-5,5v6.535
	h-6.535c-2.761,0-5,2.239-5,5S317.901,21.535,320.663,21.535z M101.583,479.544V328.052c0-36.238,29.437-65.72,65.62-65.72h16.717
	c-22.586-19.671-36.889-48.648-36.889-80.909c0-59.115,48.019-107.209,107.041-107.209s107.041,48.094,107.041,107.209
	c0,32.261-14.303,61.239-36.889,80.909h26.439c36.183,0,65.62,29.482,65.62,65.72v107.781c0,11.265-9.153,20.43-20.405,20.43h-5.892
	v23.28c0,2.761-2.239,5-5,5s-5-2.239-5-5v-23.28H226.119c-9.751,0-17.685-7.943-17.685-17.706v-26.739
	c0-9.763,7.934-17.706,17.685-17.706h59.643c2.972,0,5.39-2.416,5.39-5.386v-26.83c0-0.277,0.029-0.546,0.042-0.82
	c-0.011-0.138-0.042-0.271-0.042-0.412v-47.187c0-0.484-0.395-0.878-0.88-0.878h-54.32c-0.479,0-0.868,0.389-0.868,0.866v64.781
	c0,2.761-2.239,5-5,5s-5-2.239-5-5v-64.781c0-5.992,4.875-10.866,10.868-10.866h54.32c5.999,0,10.88,4.88,10.88,10.878v32.352
	c2.401-1.193,5.094-1.881,7.952-1.881c9.899,0,17.953,8.052,17.953,17.948v38.034c0,1.661,1.353,3.013,3.016,3.013h20.586
	c1.671,0,3.031-1.359,3.031-3.029v-75.634c0-2.761,2.239-5,5-5s5,2.239,5,5v34.5h42.594v-30.729c0-30.724-24.951-55.72-55.62-55.72
	h-39.835c-7.056,4.428-14.562,7.973-22.366,10.623c-0.046,0.016-0.092,0.032-0.138,0.048c-0.742,0.251-1.487,0.494-2.234,0.728
	c-0.261,0.082-0.524,0.161-0.786,0.241c-1.053,0.321-2.111,0.626-3.174,0.915c-0.508,0.138-1.015,0.279-1.526,0.41
	c-0.506,0.129-1.013,0.251-1.52,0.372c-0.603,0.145-1.209,0.285-1.816,0.42c-0.437,0.097-0.872,0.195-1.31,0.286
	c-1.011,0.211-2.026,0.411-3.048,0.593c-0.248,0.044-0.498,0.082-0.747,0.124c-0.865,0.148-1.733,0.286-2.605,0.413
	c-0.336,0.049-0.673,0.096-1.01,0.142c-0.913,0.124-1.829,0.237-2.749,0.338c-0.198,0.022-0.395,0.048-0.592,0.068
	c-1.108,0.115-2.221,0.211-3.338,0.292c-0.275,0.02-0.55,0.035-0.825,0.053c-0.876,0.057-1.754,0.103-2.635,0.138
	c-0.316,0.013-0.632,0.026-0.948,0.036c-1.125,0.035-2.254,0.059-3.388,0.059s-2.262-0.024-3.388-0.059
	c-0.316-0.01-0.632-0.023-0.948-0.036c-0.881-0.035-1.759-0.081-2.635-0.138c-0.275-0.018-0.55-0.033-0.825-0.053
	c-1.117-0.081-2.23-0.177-3.338-0.292c-0.198-0.021-0.395-0.046-0.592-0.068c-0.92-0.101-1.836-0.214-2.749-0.338
	c-0.337-0.046-0.674-0.093-1.01-0.142c-0.872-0.127-1.74-0.265-2.605-0.413c-0.249-0.042-0.499-0.08-0.747-0.124
	c-1.021-0.182-2.037-0.382-3.048-0.593c-0.438-0.091-0.874-0.19-1.31-0.286c-0.607-0.135-1.212-0.275-1.816-0.42
	c-0.508-0.122-1.015-0.243-1.52-0.372c-0.511-0.131-1.018-0.271-1.526-0.41c-1.063-0.289-2.12-0.594-3.174-0.915
	c-0.262-0.08-0.525-0.159-0.786-0.241c-0.747-0.234-1.492-0.477-2.234-0.728c-0.046-0.016-0.092-0.032-0.138-0.048
	c-7.804-2.65-15.31-6.196-22.366-10.623h-30.112c-30.669,0-55.62,24.996-55.62,55.72v30.728h42.594v-34.5c0-2.761,2.239-5,5-5
	s5,2.239,5,5v155.262c0,2.761-2.239,5-5,5s-5-2.239-5-5V368.781h-42.594v110.763c0,2.761-2.239,5-5,5
	S101.583,482.305,101.583,479.544z M406.284,435.833v-67.052H363.69v31.134c0,7.184-5.846,13.029-13.031,13.029h-20.586
	c-7.177,0-13.016-5.838-13.016-13.013v-38.034c0-4.383-3.567-7.948-7.953-7.948c-4.385,0-7.952,3.565-7.952,7.948v26.83
	c0,8.484-6.904,15.386-15.39,15.386h-59.643c-4.237,0-7.685,3.457-7.685,7.706v26.739c0,4.249,3.448,7.706,7.685,7.706h169.76
	C401.616,446.263,406.284,441.584,406.284,435.833z M224.883,274.136c0.211,0.067,0.422,0.134,0.633,0.199
	c0.619,0.191,1.241,0.378,1.865,0.557c0.385,0.11,0.772,0.214,1.159,0.319c0.819,0.224,1.642,0.437,2.47,0.64
	c0.559,0.137,1.118,0.272,1.679,0.398c0.422,0.095,0.845,0.188,1.269,0.277c0.716,0.151,1.434,0.295,2.154,0.43
	c0.256,0.048,0.51,0.101,0.767,0.148c0.969,0.174,1.942,0.33,2.917,0.474c0.299,0.044,0.6,0.085,0.9,0.127
	c0.8,0.111,1.603,0.212,2.407,0.303c0.241,0.027,0.482,0.058,0.724,0.083c1.022,0.108,2.046,0.2,3.073,0.276
	c0.213,0.016,0.426,0.026,0.639,0.041c0.847,0.057,1.696,0.102,2.546,0.137c0.283,0.012,0.567,0.023,0.851,0.032
	c1.044,0.033,2.089,0.056,3.137,0.056s2.093-0.023,3.137-0.056c0.284-0.009,0.568-0.021,0.851-0.032
	c0.85-0.035,1.699-0.08,2.546-0.137c0.213-0.014,0.427-0.025,0.639-0.041c1.027-0.076,2.051-0.168,3.073-0.276
	c0.242-0.026,0.482-0.056,0.724-0.083c0.804-0.091,1.607-0.192,2.407-0.303c0.3-0.042,0.601-0.082,0.9-0.127
	c0.975-0.144,1.948-0.3,2.917-0.474c0.257-0.046,0.511-0.099,0.767-0.148c0.72-0.135,1.438-0.278,2.154-0.43
	c0.424-0.09,0.847-0.182,1.269-0.277c0.561-0.127,1.121-0.262,1.679-0.398c0.827-0.203,1.651-0.416,2.47-0.64
	c0.387-0.105,0.774-0.209,1.159-0.319c0.624-0.179,1.246-0.366,1.865-0.557c0.211-0.065,0.422-0.132,0.633-0.199
	c39.289-12.44,67.852-49.296,67.852-92.713c0-53.601-43.532-97.209-97.041-97.209s-97.041,43.608-97.041,97.209
	C157.031,224.84,185.594,261.696,224.883,274.136z M270.026,335.33c2.761,0,5-2.239,5-5s-2.239-5-5-5h-2.25c-2.761,0-5,2.239-5,5
	s2.239,5,5,5H270.026z M208.231,196.449l-24.97-29.138c-3.347-3.905-4.936-8.859-4.473-13.949c0.464-5.11,2.935-9.72,6.958-12.98
	c7.69-6.232,18.814-5.717,25.875,1.198l0.407,0.399l0.407-0.399c7.062-6.916,18.185-7.431,25.875-1.198
	c4.022,3.26,6.493,7.87,6.958,12.981c0.462,5.09-1.126,10.044-4.474,13.949l-24.97,29.137c-0.95,1.109-2.336,1.746-3.796,1.746
	S209.181,197.557,208.231,196.449z M190.854,160.804l21.173,24.707l21.173-24.707c1.575-1.838,2.323-4.16,2.107-6.538
	c-0.218-2.398-1.388-4.571-3.295-6.116c-3.68-2.983-9.207-2.731-12.581,0.574l-3.906,3.825c-1.944,1.904-5.053,1.904-6.997,0
	l-3.906-3.825c-1.798-1.761-4.207-2.655-6.622-2.655c-2.118,0-4.24,0.687-5.959,2.081c-1.907,1.546-3.078,3.718-3.295,6.116
	C188.531,156.644,189.279,158.966,190.854,160.804z M267.35,167.311c-3.347-3.905-4.935-8.859-4.473-13.949
	c0.464-5.11,2.935-9.72,6.958-12.981c7.69-6.232,18.814-5.717,25.875,1.198l0.407,0.399l0.407-0.399
	c7.062-6.916,18.186-7.431,25.875-1.198c4.022,3.26,6.493,7.87,6.958,12.981c0.462,5.09-1.126,10.044-4.474,13.949l-24.97,29.137
	c-0.95,1.109-2.336,1.746-3.796,1.746s-2.847-0.638-3.796-1.746L267.35,167.311z M274.943,160.804l21.173,24.707l21.173-24.707
	c1.575-1.838,2.323-4.16,2.107-6.538c-0.218-2.398-1.388-4.571-3.295-6.116c-3.68-2.983-9.207-2.731-12.581,0.574l-3.906,3.825
	c-1.944,1.904-5.053,1.904-6.997,0l-3.906-3.825c-1.798-1.761-4.207-2.655-6.622-2.655c-2.118,0-4.24,0.687-5.959,2.081
	c-1.907,1.546-3.078,3.718-3.295,6.116C272.62,156.644,273.369,158.966,274.943,160.804z M446.904,490h-3.813c-2.761,0-5,2.239-5,5
	s2.239,5,5,5h3.813c2.761,0,5-2.239,5-5S449.666,490,446.904,490z M425.931,490H86.207c-2.761,0-5,2.239-5,5s2.239,5,5,5h339.725
	c2.761,0,5-2.239,5-5S428.692,490,425.931,490z M69.047,490h-3.813c-2.761,0-5,2.239-5,5s2.239,5,5,5h3.813c2.761,0,5-2.239,5-5
	S71.808,490,69.047,490z M254.072,227.507c11.746-0.14,22.912-5.318,30.641-14.212c5.605-6.45,15.414-7.138,21.866-1.532
	c0,0,0,0,0,0.001c6.451,5.606,7.138,15.416,1.532,21.867c-13.609,15.659-33.292,24.727-54.003,24.877
	c-20.783-0.151-40.466-9.218-54.076-24.877c-5.606-6.451-4.919-16.26,1.532-21.867c6.452-5.606,16.263-4.918,21.867,1.532
	C231.161,222.188,242.327,227.367,254.072,227.507z M254.019,237.507c-14.621-0.155-28.521-6.589-38.136-17.653
	c-1.086-1.249-2.616-1.889-4.155-1.889c-1.28,0-2.565,0.443-3.605,1.346c-2.288,1.989-2.532,5.47-0.543,7.759
	c11.728,13.494,28.686,21.307,46.528,21.437c17.77-0.13,34.728-7.943,46.456-21.437c1.989-2.289,1.745-5.769-0.543-7.759
	c-2.289-1.99-5.771-1.746-7.76,0.543c-9.615,11.063-23.515,17.497-38.136,17.653C254.09,237.507,254.054,237.507,254.019,237.507z"
	/>
</svg>
