<?xml version="1.0" encoding="utf-8"?>
<!-- Generator: Adobe Illustrator 24.0.0, SVG Export Plug-In . SVG Version: 6.00 Build 0)  -->
<svg version="1.1" id="Layer_1" xmlns="http://www.w3.org/2000/svg" xmlns:xlink="http://www.w3.org/1999/xlink" x="0px" y="0px"
	 viewBox="0 0 256 256" enable-background="new 0 0 256 256" xml:space="preserve">
<g>
</g>
<g>
	<path fill="#EEEEEE" d="M221.634,11.512v211.34c0,2.76-2.24,5-5,5h-17.33V63.512l-35.36-35.36H56.694v-16.64c0-2.76,2.24-5,5-5
		h154.94C219.394,6.512,221.634,8.752,221.634,11.512z"/>
	<path fill="#AEAEAE" d="M206.304,63.512v164.34h-7V63.512l-35.36-35.36H56.694v-7h107.25c1.86,0,3.64,0.74,4.95,2.05l35.36,35.36
		C205.564,59.872,206.304,61.652,206.304,63.512z"/>
	<path fill="#EEEEEE" d="M199.304,63.512v180.97c0,2.76-2.24,5-5,5H39.374c-2.77,0-5-2.24-5-5V33.152c0-2.76,2.23-5,5-5h124.57
		L199.304,63.512z"/>
	<path fill="#AEAEAE" d="M199.306,63.508v7h-30.36c-6.62,0-12-5.38-12-12v-30.36h7v30.36c0,2.76,2.24,5,5,5H199.306z"/>
	<path fill="#EEEEEE" d="M139.766,122.244l-30.821,45.402c-1.749,2.576-5.743,0.673-4.886-2.295l9.441-32.642H96.169
		c-1.826,0-3.137-1.754-2.627-3.504l11.72-40.098c0.332-1.153,1.413-1.964,2.622-1.964h17.519c1.831,0,3.132,1.749,2.627,3.488
		l-7.86,27.343h17.331C139.7,117.975,140.991,120.433,139.766,122.244z"/>
	<path fill="#EFBF27" d="M139.766,122.244l-30.821,45.402c-1.749,2.576-5.743,0.673-4.886-2.295l9.441-32.642H96.169
		c-1.826,0-3.137-1.754-2.627-3.504l11.72-40.098c0.332-1.153,1.413-1.964,2.622-1.964h17.519c1.831,0,3.132,1.749,2.627,3.488
		l-7.86,27.343h17.331C139.7,117.975,140.991,120.433,139.766,122.244z"/>
	<circle cx="133.14" cy="249.49" r="2.5"/>
	<path d="M224.13,11.51c0-4.13-3.36-7.5-7.5-7.5H61.69c-4.13,0-7.49,3.37-7.5,7.5v14.14H39.37c-4.14,0-7.5,3.37-7.5,7.5V244.49
		c0,4.13,3.36,7.489,7.5,7.5h83.77c1.38,0,2.5-1.12,2.5-2.5c0-1.37-1.11-2.49-2.48-2.5c-0.01,0-0.01,0-0.02,0H39.37
		c-1.38,0-2.5-1.131-2.51-2.5V33.149c0.01-1.38,1.13-2.5,2.51-2.5H161.45v27.86c0,4.13,3.359,7.5,7.5,7.5h27.859
		c0,9.824,0,168.085,0,178.48c-0.01,1.369-1.13,2.5-2.5,2.5h-51.17c-1.38,0-2.5,1.119-2.5,2.5c0,1.38,1.12,2.5,2.5,2.5h51.17
		c4.13-0.011,7.49-3.37,7.5-7.5V230.35h14.82c4.14,0,7.5-3.37,7.5-7.5V84.22c0-1.38-1.12-2.5-2.5-2.5c-1.37,0-2.48,1.11-2.49,2.48
		c-0.01,0.01-0.01,0.01-0.01,0.02v138.63c0,1.38-1.12,2.5-2.5,2.5h-14.82V63.51c0-0.681-0.284-1.32-0.747-1.777L165.71,26.38
		c-0.439-0.43-1.084-0.73-1.76-0.73c-0.002,0-0.004,0-0.005,0s-0.004,0-0.005,0H59.19V11.51c0.01-1.37,1.13-2.5,2.5-2.5h154.94
		c1.38,0,2.5,1.13,2.5,2.5v52.71c0,1.38,1.12,2.5,2.5,2.5s2.5-1.12,2.5-2.5V11.51z M166.439,34.178l26.839,26.832H168.95
		c-1.381,0-2.5-1.13-2.511-2.5V34.178z"/>
	<circle cx="221.63" cy="74.22" r="2.5"/>
	<path d="M49.95,207.89c-1.381,0-2.5,1.119-2.5,2.5v10.693v10.693c0,1.381,1.119,2.5,2.5,2.5s2.5-1.119,2.5-2.5v-8.193h8.031
		c3.61,0,6.547-2.937,6.547-6.547v-2.6c0-3.61-2.937-6.547-6.547-6.547H49.95z M62.028,214.437v2.6c0,0.853-0.694,1.547-1.547,1.547
		H52.45v-5.693h8.031C61.334,212.89,62.028,213.584,62.028,214.437z"/>
	<path d="M79.307,207.89c-4.42,0-8.017,3.597-8.017,8.017v10.354c0,4.42,3.596,8.017,8.017,8.017h3.544
		c4.42,0,8.017-3.597,8.017-8.017v-10.354c0-4.42-3.596-8.017-8.017-8.017H79.307z M85.868,215.906v10.354
		c0,1.663-1.353,3.017-3.017,3.017h-3.544c-1.664,0-3.017-1.354-3.017-3.017v-10.354c0-1.663,1.353-3.017,3.017-3.017h3.544
		C84.515,212.89,85.868,214.243,85.868,215.906z"/>
	<path d="M97.63,207.89c-1.381,0-2.5,1.119-2.5,2.5v21.387c0,1.381,1.119,2.5,2.5,2.5h14.578c1.381,0,2.5-1.119,2.5-2.5
		s-1.119-2.5-2.5-2.5H100.13V210.39C100.13,209.009,99.011,207.89,97.63,207.89z"/>
	<path d="M136.048,212.89c1.381,0,2.5-1.119,2.5-2.5s-1.119-2.5-2.5-2.5H121.47c-1.381,0-2.5,1.119-2.5,2.5s1.119,2.5,2.5,2.5h4.789
		v16.387h-4.789c-1.381,0-2.5,1.119-2.5,2.5s1.119,2.5,2.5,2.5h14.578c1.381,0,2.5-1.119,2.5-2.5s-1.119-2.5-2.5-2.5h-4.788V212.89
		H136.048z"/>
	<path d="M151.779,212.894h1.645c2.188,0,3.968,1.78,3.968,3.968c0,1.381,1.119,2.5,2.5,2.5s2.5-1.119,2.5-2.5
		c0-4.945-4.022-8.968-8.968-8.968h-1.645c-4.945,0-8.968,4.022-8.968,8.968v8.444c0,4.944,4.022,8.967,8.968,8.967h1.645
		c4.945,0,8.968-4.022,8.968-8.967c0-1.381-1.119-2.5-2.5-2.5s-2.5,1.119-2.5,2.5c0,2.188-1.78,3.967-3.968,3.967h-1.645
		c-2.188,0-3.968-1.779-3.968-3.967v-8.444C147.812,214.674,149.592,212.894,151.779,212.894z"/>
	<path d="M176.439,234.272c1.381,0,2.5-1.119,2.5-2.5v-9.919l6.854-10.056c0.778-1.141,0.483-2.696-0.657-3.474
		c-1.139-0.777-2.696-0.483-3.474,0.657l-5.224,7.663l-5.224-7.663c-0.777-1.142-2.335-1.436-3.474-0.657
		c-1.141,0.777-1.436,2.333-0.657,3.474l6.854,10.056v9.919C173.939,233.153,175.059,234.272,176.439,234.272z"/>
	<path d="M68.81,87.83c0.88-1.061,0.74-2.641-0.32-3.521c-1.01-0.85-2.66-0.71-3.51,0.3c0,0.011-0.01,0.011-0.01,0.011
		c-0.903,1.071-0.717,2.673,0.31,3.52C66.335,89.03,67.907,88.9,68.81,87.83z"/>
	<path d="M184.45,128c0-37.273-30.187-67.602-67.607-67.61c-0.001,0-0.002,0-0.003,0c-0.001,0-0.001,0-0.002,0
		c-0.003,0-0.005,0-0.008,0c-16.44,0-32.29,5.97-44.62,16.811c-1.041,0.915-1.129,2.497-0.22,3.529c0.88,1,2.53,1.101,3.53,0.23
		c10.793-9.489,24.491-14.943,38.82-15.514v7.674c0,1.38,1.12,2.5,2.5,2.5s2.5-1.12,2.5-2.5v-7.669
		c32.598,1.272,58.754,27.39,60.048,60.049h-7.678c-1.37,0-2.5,1.12-2.5,2.5s1.13,2.5,2.5,2.5h7.678
		c-1.292,32.607-27.393,58.779-60.058,60.049v-7.669c0-1.38-1.12-2.5-2.49-2.5c-1.38,0-2.5,1.12-2.5,2.5v7.669
		c-32.905-1.284-58.777-27.697-60.058-60.049h7.678c1.37,0,2.5-1.12,2.5-2.5s-1.13-2.5-2.5-2.5h-7.684
		c0.427-10.564,3.493-20.831,8.943-29.851c0.723-1.21,0.322-2.731-0.85-3.43c-1.114-0.687-2.677-0.387-3.43,0.84
		c-7.076,11.691-10.204,25.927-9.707,35.073c0.071,37.389,30.378,67.477,67.607,67.477C154.265,195.609,184.45,165.263,184.45,128z"
		/>
	<path d="M125.4,84.64h-17.52c-2.34,0.01-4.36,1.53-5.02,3.78L91.14,128.5c-0.982,3.372,1.583,6.698,5.03,6.71h14.01l-8.52,29.45
		c-1.729,5.645,6.107,9.326,9.35,4.39l13.97-20.58c0.78-1.14,0.48-2.7-0.66-3.47c-1.1-0.75-2.72-0.44-3.47,0.66l-13.97,20.58
		c-0.205,0.271-0.497,0.012-0.42-0.181l9.44-32.66c0.467-1.595-0.741-3.189-2.4-3.189H96.17c-0.16,0-0.282-0.191-0.23-0.29
		l11.73-40.12c0-0.06,0.12-0.16,0.2-0.16h17.53c0.139,0,0.268,0.112,0.23,0.311l-7.86,27.33c-0.465,1.583,0.719,3.189,2.4,3.189
		h17.33c0.172,0.009,0.289,0.188,0.2,0.37l-5.62,8.27c-0.771,1.141-0.48,2.7,0.66,3.48c1.109,0.75,2.729,0.43,3.479-0.67l5.62-8.271
		c2.36-4.721-0.908-8.159-4.34-8.17h-14.01l6.94-24.16C131.406,88.034,128.887,84.651,125.4,84.64z"/>
	<path d="M126.47,137.38c-0.78,1.15-0.48,2.71,0.66,3.479c1.134,0.774,2.706,0.476,3.47-0.67c0.772-1.118,0.489-2.677-0.66-3.47
		C128.83,135.97,127.21,136.29,126.47,137.38z"/>
</g>
</svg>
