<?xml version="1.0" encoding="utf-8"?>
<!-- Generator: Adobe Illustrator 18.0.0, SVG Export Plug-In . SVG Version: 6.00 Build 0)  -->
<!DOCTYPE svg PUBLIC "-//W3C//DTD SVG 1.1//EN" "http://www.w3.org/Graphics/SVG/1.1/DTD/svg11.dtd">
<svg version="1.1" id="ecommerce_1_" xmlns="http://www.w3.org/2000/svg" xmlns:xlink="http://www.w3.org/1999/xlink" x="0px"
	 y="0px" viewBox="0 0 115 115" style="enable-background:new 0 0 115 115;" xml:space="preserve">
<style type="text/css">
	.st0{fill:#FFEEAD;}
	.st1{fill:#C9B77D;}
	.st2{fill:#99734A;}
	.st3{fill:#FF6F69;}
	.st4{fill:#96CEB4;}
	.st5{fill:none;}
	.st6{fill:#AA9865;}
	.st7{fill:#71A58A;}
	.st8{fill:#FFCC5C;}
	.st9{fill:#825E3B;}
	.st10{fill:#639376;}
	.st11{fill:#E05858;}
	.st12{fill:#C1821E;}
	.st13{fill:#D6A041;}
	.st14{fill:#B28559;}
	.st15{fill:#BF4343;}
	.st16{fill:#D3C089;}
	.st17{fill:#7C5C3C;}
	.st18{fill:#FDCC5C;}
	.st19{fill:#FFFFFF;}
</style>
<g id="saving_1_">
	<g>
		<g>
			<g>
				<path class="st3" d="M103.531,77.744c-0.221-0.287-0.51-0.629-0.898-0.911c-0.191-1.808-0.942-3.391-2.146-4.429
					c-1.578-1.363-3.923-1.785-6.126-1.113c-1.753,0.54-3.399,1.744-4.758,3.485c-0.433,0.553-0.334,1.354,0.219,1.787
					c0.553,0.431,1.354,0.336,1.787-0.22c0.723-0.925,1.918-2.131,3.499-2.617c1.35-0.414,2.809-0.177,3.715,0.606
					c0.505,0.436,0.876,1.058,1.092,1.797c-0.782-0.052-1.72-0.067-2.641,0.16c-1.399,0.344-2.529,1.235-3.023,2.377
					c-0.719,1.661,0.004,3.776,1.612,4.715c1.477,0.864,3.459,0.669,4.822-0.472c0.698-0.586,1.226-1.394,1.563-2.381
					c0.727,1.596,0.816,3.488,0.188,5.129c-0.251,0.656,0.077,1.393,0.734,1.644c0.15,0.057,0.303,0.085,0.455,0.085
					c0.512,0,0.995-0.311,1.189-0.818C105.925,83.669,105.42,80.206,103.531,77.744z M99.05,80.957
					c-0.535,0.449-1.352,0.545-1.902,0.225c-0.497-0.291-0.769-1.022-0.559-1.506c0.178-0.411,0.674-0.762,1.295-0.916
					c0.352-0.086,0.732-0.117,1.136-0.117c0.333,0,0.684,0.021,1.052,0.048C99.968,79.456,99.704,80.407,99.05,80.957z"/>
			</g>
		</g>
	</g>
	<g>
		<g>
			<path class="st11" d="M94.273,71.327c-1.72,0.553-3.334,1.738-4.67,3.449c-0.433,0.553-0.334,1.354,0.219,1.787
				c0.553,0.431,1.354,0.336,1.787-0.22c0.629-0.805,1.635-1.796,2.923-2.367C94.529,73.088,94.454,72.205,94.273,71.327z"/>
		</g>
	</g>
	<g>
		<g>
			<path class="st15" d="M33.473,98.646l-4.279-1.304c-1.402-0.428-2.9,0.37-3.327,1.772l-2.367,7.765
				c-0.428,1.402,0.37,2.9,1.772,3.327l4.279,1.304c1.402,0.427,2.9-0.37,3.327-1.772l2.367-7.765
				C35.673,100.571,34.875,99.074,33.473,98.646z"/>
		</g>
	</g>
	<g>
		<g>
			<path class="st15" d="M77.532,108.132l-0.99-8.057c-0.179-1.455-1.516-2.5-2.971-2.321l-4.44,0.545
				c-1.455,0.179-2.5,1.516-2.321,2.971l0.99,8.057c0.179,1.455,1.516,2.5,2.971,2.321l4.44-0.545
				C76.667,110.924,77.711,109.587,77.532,108.132z"/>
		</g>
	</g>
	<g>
		<g>
			<path class="st3" d="M40.771,101.631l-4.44-0.545c-1.455-0.179-2.792,0.866-2.971,2.321l-0.99,8.057
				c-0.179,1.455,0.866,2.792,2.321,2.971l4.44,0.545c1.455,0.179,2.792-0.866,2.971-2.321l0.99-8.057
				C43.271,103.147,42.226,101.81,40.771,101.631z"/>
		</g>
	</g>
	<g>
		<g>
			<path class="st3" d="M86.29,105.213l-2.367-7.765c-0.427-1.402-1.925-2.2-3.327-1.772l-4.279,1.304
				c-1.402,0.428-2.2,1.925-1.772,3.327l2.367,7.765c0.428,1.402,1.925,2.2,3.327,1.772l4.279-1.304
				C85.92,108.113,86.718,106.615,86.29,105.213z"/>
		</g>
	</g>
	<g>
		<g>
			<path class="st3" d="M11.808,67.946c-1.218,0-2.205,3.742-2.205,8.357s0.987,8.357,2.205,8.357c7.586,0,7.546-3.742,7.546-8.357
				S20.398,67.946,11.808,67.946z"/>
		</g>
	</g>
	<g>
		<g>
			<path class="st11" d="M40.771,101.631l-4.44-0.545c-1.455-0.179-2.792,0.866-2.971,2.321l-0.613,4.993
				c2.969,1.202,6.168,2.117,9.542,2.737l0.803-6.534C43.271,103.147,42.226,101.81,40.771,101.631z"/>
		</g>
	</g>
	<g>
		<g>
			<path class="st11" d="M83.923,97.448c-0.428-1.402-1.925-2.2-3.327-1.772l-4.279,1.304c-1.402,0.428-2.2,1.925-1.772,3.327
				l2.075,6.806c3.176-1.574,6.034-3.509,8.481-5.802L83.923,97.448z"/>
		</g>
	</g>
	<g>
		<g>
			<path class="st11" d="M13.744,68.032c-1.127,3.321-1.739,6.942-1.739,10.843c0,2.008,0.161,3.929,0.47,5.764
				c6.894-0.224,6.878-3.864,6.878-8.336C19.353,72.074,20.208,68.587,13.744,68.032z"/>
		</g>
	</g>
	<g>
		<g>
			<path class="st3" d="M53.246,42.526c-21.957,0-39.757,12.659-39.757,33.43c0,20.771,17.8,32.037,39.757,32.037
				s39.757-11.266,39.757-32.037C93.003,55.185,75.203,42.526,53.246,42.526z"/>
		</g>
	</g>
	<g>
		<g>
			<path class="st11" d="M40.669,44.021c-6.5,1.609-12.256,4.485-16.776,8.478c0.293,0.61,0.725,1.208,1.305,1.753
				c2.149,2.018,7.668,5.848,11.049,3.947C39.631,56.295,43.97,46.938,40.669,44.021z"/>
		</g>
	</g>
	<g>
		<g>
			<path class="st0" d="M60.816,68.429c-2.507,0-4.717,1.273-6.019,3.208c-1.302-1.935-3.511-3.208-6.019-3.208
				c-4.004,0-7.25,3.246-7.25,7.25c0,0.354,0.034,0.7,0.083,1.04c0.949,9.161,10.839,13.216,13.185,13.216
				c2.563,0,12.226-4.194,13.182-13.194c0.051-0.348,0.086-0.7,0.086-1.062C68.066,71.674,64.82,68.429,60.816,68.429z"/>
		</g>
	</g>
	<g>
		<g>
			<ellipse class="st9" cx="27.236" cy="64.928" rx="2.137" ry="3.018"/>
		</g>
	</g>
	<g>
		<g>
			<path class="st3" d="M39.497,41.422c-5.362-1.669-14.299,4.643-14.299,4.643c-2.445,1.532-2.149,4.25,0,6.268
				c2.149,2.018,7.668,5.848,11.049,3.947C39.962,54.191,44.86,43.091,39.497,41.422z"/>
		</g>
	</g>
	<g>
		<g>
			<path class="st15" d="M65.034,46.125c-6.345-1.384-12.884-1.65-19.321-0.785c-0.918,0.123-1.547,0.945-1.402,1.794v0
				c0.145,0.85,0.963,1.425,1.82,1.311c6.075-0.816,12.247-0.566,18.236,0.741c0.845,0.183,1.706-0.325,1.92-1.16l0,0
				C66.499,47.192,65.939,46.321,65.034,46.125z"/>
		</g>
	</g>
	<g>
		<g>
			<circle class="st13" cx="52.748" cy="19.934" r="17.388"/>
		</g>
	</g>
	<g>
		<g>
			<circle class="st8" cx="52.748" cy="17.388" r="17.388"/>
		</g>
	</g>
	<g>
		<g>
			<circle class="st19" cx="52.748" cy="17.388" r="13.534"/>
		</g>
	</g>
	<g>
		<g>
			<circle class="st0" cx="52.748" cy="17.388" r="12.53"/>
		</g>
	</g>
	<g>
		<g>
			<path class="st13" d="M55.435,16.427c-1.739-1.324-2.596-1.973-2.596-2.596c0-0.182,0.104-0.39,0.338-0.39
				c0.208,0,0.675,0.987,0.857,0.987l3.557-0.182c0.181-0.026,0.285-0.13,0.285-0.285c0-2.285-1.454-4.258-3.842-4.751
				c0-1.532,0-1.687-0.208-1.687h-1.895c-0.104,0-0.182,0.104-0.182,0.234v1.428c-2.415,0.493-3.713,2.57-3.713,4.543
				c0,1.869,0.961,3.401,2.44,4.465c2.051,1.48,2.674,2.051,2.674,2.726c0,0.338-0.234,0.571-0.571,0.571
				c-0.597,0-1.013-0.545-1.194-1.454c-0.052-0.233-0.13-0.285-0.286-0.285l-3.297,0.182c-0.13,0.026-0.207,0.104-0.207,0.233
				c0,3.064,1.428,4.855,4.154,5.348c0,1.558,0,1.739,0.207,1.739h1.869c0.104,0,0.208-0.104,0.208-0.208V25.54
				c2.414-0.468,3.868-2.233,3.868-4.829C57.902,19.101,57.045,17.647,55.435,16.427z"/>
		</g>
	</g>
	<g>
		<g>
			<path class="st8" d="M55.435,15.473c-1.739-1.324-2.596-1.973-2.596-2.596c0-0.182,0.104-0.39,0.338-0.39
				c0.208,0,0.675,0.987,0.857,0.987l3.557-0.182c0.181-0.026,0.285-0.13,0.285-0.285c0-2.285-1.454-4.258-3.842-4.751
				c0-1.532,0-1.687-0.208-1.687h-1.895c-0.104,0-0.182,0.104-0.182,0.234v1.428c-2.415,0.494-3.713,2.57-3.713,4.543
				c0,1.869,0.961,3.401,2.44,4.465c2.051,1.48,2.674,2.051,2.674,2.726c0,0.338-0.234,0.571-0.571,0.571
				c-0.597,0-1.013-0.545-1.194-1.454c-0.052-0.233-0.13-0.285-0.286-0.285l-3.297,0.182c-0.13,0.026-0.207,0.103-0.207,0.233
				c0,3.064,1.428,4.855,4.154,5.348c0,1.558,0,1.739,0.207,1.739h1.869c0.104,0,0.208-0.104,0.208-0.208v-1.506
				c2.414-0.467,3.868-2.233,3.868-4.829C57.902,18.146,57.045,16.693,55.435,15.473z"/>
		</g>
	</g>
</g>
</svg>
