<?xml version="1.0" encoding="utf-8"?>
<!-- Generator: Adobe Illustrator 23.0.3, SVG Export Plug-In . SVG Version: 6.00 Build 0)  -->
<svg version="1.1" xmlns="http://www.w3.org/2000/svg" xmlns:xlink="http://www.w3.org/1999/xlink" x="0px" y="0px"
	 viewBox="0 0 256 256" style="enable-background:new 0 0 256 256;" xml:space="preserve">
<style type="text/css">
	.st0{fill:#878787;}
	.st1{fill:#F2E1D6;}
	.st2{fill:#FFFFFF;}
	.st3{fill:#F0C020;}
	.st4{fill:#F9E5AF;}
	.st5{fill:#72C1E8;}
	.st6{fill:#C5E5FF;}
	.st7{fill:#13BF6D;}
	.st8{fill:#76FFBA;}
	.st9{fill:#EFEFEF;}
	.st10{fill:#FC5D3D;}
	.st11{fill:#FFCBC2;}
	.st12{fill:#FFB69F;}
	.st13{fill:#AFAFAF;}
	.st14{fill:#7C7B7A;}
	.st15{fill:#D6C0B4;}
	.st16{fill:#7A7380;}
	.st17{fill:#F0AB20;}
	.st18{fill:#FBE0E2;}
	.st19{fill:#4C4945;}
	.st20{fill:#68B0D4;}
	.st21{fill:#B35034;}
	.st22{fill:#EDAF85;}
	.st23{fill:#139C6D;}
</style>
<g id="Layer_2">
</g>
<g id="Layer_1">
	<g>
		<g>
			<g>
				<g>
					<path class="st10" d="M209.867,61.523l-14.545,14.401c-15.873-20.509-40.19-32.963-66.915-33.017
						c-44.03-0.088-80.328,33.088-84.983,75.763l10.983,0.055c3.92,0.019,6.347,4.271,4.366,7.651L36.96,163.731
						c-1.972,3.389-6.87,3.365-8.817-0.044L6.702,126.118c-1.948-3.4,0.522-7.627,4.442-7.607l11.823,0.059
						c4.754-53.794,50.007-96.294,105.44-96.018C161.17,22.714,190.523,37.71,209.867,61.523z"/>
				</g>
				<g>
					<path class="st11" d="M32.892,121.949c-1.434-0.048-2.533-1.29-2.406-2.718c4.405-49.852,46.114-89.294,97.921-89.128
						c26.152,0.129,50.833,10.451,69.224,29.064c0.971,0.981,0.961,2.564-0.021,3.535c-0.981,0.971-2.563,0.961-3.535-0.021
						c-17.451-17.661-40.841-27.455-65.668-27.578c-48.618-0.166-88.78,37.496-92.94,84.567
						C35.35,120.995,34.217,121.993,32.892,121.949z"/>
				</g>
				<g>
					<path class="st7" d="M46.136,194.477l14.545-14.401c15.461,19.978,39.549,32.871,66.814,33.016
						c44.131,0.201,80.421-33.015,85.084-75.763l-10.983-0.055c-3.92-0.019-6.347-4.271-4.366-7.651l21.813-37.354
						c1.972-3.389,6.87-3.365,8.817,0.044l21.441,37.569c1.948,3.4-0.522,7.627-4.442,7.607l-11.823-0.059
						c-4.729,53.52-49.694,96.296-105.541,96.018C94.629,233.285,65.326,218.1,46.136,194.477z"/>
				</g>
				<g>
					<path class="st8" d="M127.495,225.897c-26.152-0.129-50.732-10.451-69.123-29.064c-0.97-0.981-0.961-2.564,0.021-3.535
						c0.983-0.97,2.565-0.96,3.536,0.021c17.451,17.661,40.74,27.455,65.567,27.578c48.617,0.166,88.88-37.496,93.041-84.567
						c0.122-1.376,1.352-2.387,2.71-2.271c1.376,0.121,2.393,1.335,2.271,2.71C221.13,186.386,179.511,226.065,127.495,225.897z"/>
				</g>
			</g>
			<g>
				<g>
					<g>
						<path class="st5" d="M166.26,135.187c4.589-19.967-10.538-38.856-30.831-38.957c-15.376-0.076-28.257,10.771-31.289,25.258
							c-13.03-5.58-27.627,3.95-27.698,18.183c-0.055,10.979,8.801,19.923,19.78,19.977L166.919,160
							c6.862,0.034,12.452-5.501,12.486-12.362C179.439,140.589,173.566,134.768,166.26,135.187z"/>
					</g>
					<g>
						<path class="st6" d="M155.475,133.578c-1.365-0.205-2.306-1.479-2.1-2.844c0.072-0.485,0.127-0.978,0.16-1.464
							c0.095-1.378,1.303-2.41,2.666-2.322c1.378,0.095,2.417,1.289,2.322,2.666c-0.043,0.62-0.111,1.247-0.205,1.864
							C158.112,132.852,156.824,133.787,155.475,133.578z M151.257,119.121c-3.224-5.76-9.314-9.358-15.896-9.391
							c-1.381-0.007-2.494-1.132-2.487-2.513c0.007-1.376,1.125-2.487,2.5-2.487c0.004,0,0.008,0,0.013,0
							c8.379,0.042,16.132,4.62,20.233,11.949c0.674,1.205,0.244,2.729-0.961,3.402C153.46,120.753,151.934,120.33,151.257,119.121z
							"/>
					</g>
				</g>
			</g>
		</g>
		<path d="M39.121,164.99l21.81-37.351c2.973-5.041-0.682-11.368-6.51-11.41l-8.16-0.05c5.971-41.758,43.352-71.461,82.146-70.779
			c14.47,0.254,27.733,3.498,40.664,10.909c1.16,0.66,2.75,0.221,3.41-0.93c0.69-1.19,0.271-2.73-0.92-3.41
			c-13.156-7.541-27.391-11.397-43.154-11.57c-43.223-0.476-82.51,32.416-87.466,78c-0.17,1.484,1.014,2.771,2.47,2.771l10.98,0.06
			c2.067,0,3.217,2.249,2.22,3.88l-21.81,37.36c-1.021,1.73-3.476,1.718-4.49-0.02l-21.44-37.57c-0.991-1.776,0.283-3.87,2.27-3.87
			c0.033,0,11.797,0.06,11.83,0.06c1.28,0,2.37-1,2.49-2.279c4.564-51.713,48.523-93.74,102.946-93.74
			c30.082,0,59.606,13.529,79.514,38.05c0.84,1.03,2.49,1.2,3.52,0.36c1.068-0.862,1.237-2.447,0.37-3.5c0-0.01,0-0.01,0-0.01
			c-20.055-24.67-50.382-39.74-83.404-39.9c-57.588,0-101.893,43.146-107.706,96.01l-9.55-0.05c-5.864,0.027-9.51,6.275-6.62,11.35
			l21.44,37.561C28.847,170.006,36.177,170.05,39.121,164.99z"/>
		<path d="M188.051,64.21c-0.97-0.92-2.61-0.87-3.53,0.1c-0.945,1.008-0.906,2.586,0.11,3.54c3.14,2.96,6.07,6.19,8.71,9.601
			c0.875,1.129,2.46,1.264,3.51,0.449c1.125-0.868,1.274-2.455,0.45-3.5C194.501,70.78,191.391,67.359,188.051,64.21z"/>
		<path d="M177.191,61.62c1.124,0.834,2.681,0.564,3.49-0.521c0.867-1.169,0.543-2.695-0.51-3.49c-1.08-0.8-2.71-0.55-3.5,0.511
			C175.823,59.265,176.099,60.811,177.191,61.62z"/>
		<path d="M61.741,206.81c-4.97-4.189-9.57-8.87-13.66-13.91c-0.84-1.029-2.49-1.199-3.52-0.359c-1.07,0.859-1.23,2.439-0.37,3.51
			c4.3,5.29,9.12,10.19,14.33,14.58c1.034,0.873,2.61,0.779,3.52-0.3C62.957,209.242,62.768,207.677,61.741,206.81z"/>
		<path d="M70.131,216.21c0.78-1.13,0.49-2.69-0.64-3.47c-1.1-0.761-2.72-0.471-3.48,0.63c-0.78,1.13-0.5,2.689,0.64,3.479
			C67.776,217.627,69.341,217.353,70.131,216.21z"/>
		<path d="M230.032,91.069c-2.885-5.077-10.236-5.118-13.15-0.05l-21.811,37.34c-2.973,5.048,0.697,11.369,6.511,11.41l8.16,0.04
			c-5.676,39.698-40.203,70.78-82.247,70.78c-25.61-0.14-49.174-11.82-64.834-32.04c-0.82-1.06-2.45-1.27-3.51-0.45
			c-1.141,0.883-1.255,2.47-0.45,3.51c15.865,20.49,40.661,33.817,68.794,33.98c46.366,0,82.826-34.582,87.566-77.99
			c0.169-1.482-1.011-2.819-2.47-2.819h-10.98c-2.016-0.014-3.226-2.19-2.229-3.891l21.82-37.359c1.031-1.75,3.48-1.704,4.489,0.02
			l21.44,37.57c0.984,1.758-0.274,3.66-2.271,3.66h-11.81h-0.02c-1.28,0-2.381,1.149-2.49,2.43
			c-4.547,51.501-48.3,93.74-103.047,93.74c-17.42-0.091-34.644-4.601-49.723-13.051c-1.17-0.649-2.76-0.199-3.4,0.96
			c-0.662,1.165-0.288,2.696,0.95,3.4c15.332,8.59,33.129,13.586,52.174,13.69c57.403,0,101.986-43.08,107.806-96.011l9.54,0.051
			c5.86-0.03,9.519-6.273,6.63-11.351L230.032,91.069z"/>
		<path d="M135.442,93.73c-15.828,0-28.878,10.497-33.052,24.492c-14.159-4.002-28.373,6.636-28.447,21.436
			c-0.062,12.369,9.898,22.428,22.268,22.49l70.695,0.352c0.025,0,0.05,0,0.076,0c8.194-0.001,14.882-6.646,14.923-14.85
			c0.036-7.301-5.294-13.728-12.666-14.821C172.146,112.337,156.292,93.834,135.442,93.73z M176.905,147.625
			c-0.027,5.456-4.474,9.875-9.924,9.875c-0.017,0-0.033,0-0.05,0l-70.696-0.352c-9.583-0.048-17.34-7.883-17.292-17.465
			c0.061-12.397,12.803-20.785,24.213-15.897c1.449,0.622,3.108-0.242,3.431-1.786c2.769-13.232,14.543-23.27,28.83-23.27
			c18.715,0.092,32.633,17.51,28.407,35.897c-0.381,1.663,0.983,3.174,2.58,3.056C172.197,137.336,176.933,141.961,176.905,147.625z
			"/>
	</g>
</g>
</svg>
