<?xml version="1.0" encoding="iso-8859-1"?>
<!-- Generator: Adobe Illustrator 19.0.0, SVG Export Plug-In . SVG Version: 6.00 Build 0)  -->
<svg xmlns="http://www.w3.org/2000/svg" xmlns:xlink="http://www.w3.org/1999/xlink" version="1.1" id="Layer_1" x="0px" y="0px" viewBox="0 0 512 512" style="enable-background:new 0 0 512 512;" xml:space="preserve">
<path style="fill:#FF507D;" d="M408.059,69.156H279.979c-13.838,0-27.11,5.497-36.896,15.283L15.794,311.728  c-10.189,10.189-10.189,26.708,0,36.896l147.583,147.582c10.189,10.189,26.707,10.189,36.896,0l227.289-227.289  c9.786-9.786,15.283-23.057,15.283-36.896V103.941C442.844,84.729,427.27,69.156,408.059,69.156z M373.401,164.688  c-14.409,0-26.089-11.68-26.089-26.089c0-14.409,11.68-26.089,26.089-26.089c14.409,0,26.089,11.68,26.089,26.089  S387.81,164.688,373.401,164.688z"/>
<path style="fill:#D23C69;" d="M408.138,84.093c-0.028-8.258-6.732-14.938-14.99-14.938H279.978  c-13.838,0-27.11,5.497-36.894,15.283l-227.29,227.29c-10.189,10.189-10.189,26.708,0,36.896l125.442,125.442  c5.094,5.094,13.353,5.094,18.448,0l0,0c5.094-5.094,5.094-13.353,0-18.448l-27.363-27.363c-47.546-47.546-47.546-124.633,0-172.18  L273.52,114.875c9.786-9.786,23.056-15.283,36.894-15.283h82.733c8.3,0,15.02-6.743,14.99-15.043L408.138,84.093z"/>
<path d="M512,60.331c0-16.116-6.276-31.266-17.671-42.66C482.935,6.276,467.784,0,451.669,0s-31.266,6.276-42.66,17.67  c-5.388,5.389-10.8,11.759-16.084,18.934c-2.67,3.625-1.896,8.729,1.731,11.399c3.625,2.67,8.729,1.895,11.399-1.731  c4.8-6.518,9.673-12.262,14.484-17.073c8.316-8.314,19.371-12.893,31.131-12.893c11.76,0,22.815,4.58,31.131,12.895  s12.895,19.371,12.895,31.131s-4.58,22.815-12.895,31.131c-8.408,8.408-19.691,16.943-31.802,24.305v-11.826  c0-23.676-19.263-42.938-42.938-42.938h-128.08c-16.116,0-31.266,6.276-42.661,17.671L10.029,305.963  C3.561,312.431,0,321.029,0,330.176s3.561,17.745,10.029,24.212l147.583,147.583C164.08,508.439,172.679,512,181.824,512  c9.146,0,17.745-3.561,24.213-10.029l227.289-227.289c11.396-11.394,17.671-26.546,17.671-42.661v-97.46  c17.074-9.413,32.795-21.032,43.332-31.568C505.724,91.597,512,76.447,512,60.331z M434.691,232.021  c0,11.76-4.58,22.816-12.895,31.131L194.508,490.441c-6.993,6.993-18.371,6.994-25.365,0L21.559,342.858  c-6.993-6.994-6.993-18.372,0-25.365l227.289-227.29c8.315-8.315,19.371-12.895,31.131-12.895h128.079  c14.685,0,26.633,11.948,26.633,26.633v20.746c-3.534,1.722-7.064,3.317-10.541,4.724c-21.253,8.605-38.49,9.917-44.984,3.422  c-3.184-3.184-8.346-3.184-11.529,0c-3.184,3.184-3.184,8.346,0,11.529c4.507,4.507,10.298,7.13,16.944,8.246  c-3.11,2.477-7.023,3.924-11.179,3.924c-9.89,0-17.936-8.046-17.936-17.936s8.046-17.936,17.936-17.936  c2.049,0,4.055,0.34,5.961,1.012c4.246,1.494,8.902-0.735,10.398-4.982c1.496-4.247-0.735-8.902-4.982-10.398  c-3.65-1.285-7.479-1.937-11.377-1.937c-18.881,0-34.242,15.361-34.242,34.242s15.361,34.242,34.242,34.242  c13.728,0,26.087-8.244,31.453-20.723c9.506-1.653,19.696-5.025,29.837-9.48V232.021z"/>
<g>
</g>
<g>
</g>
<g>
</g>
<g>
</g>
<g>
</g>
<g>
</g>
<g>
</g>
<g>
</g>
<g>
</g>
<g>
</g>
<g>
</g>
<g>
</g>
<g>
</g>
<g>
</g>
<g>
</g>
</svg>
