<?xml version="1.0" encoding="UTF-8"?>
<!DOCTYPE svg PUBLIC "-//W3C//DTD SVG 1.1//EN" "http://www.w3.org/Graphics/SVG/1.1/DTD/svg11.dtd">
<!-- Creator: CorelDRAW X5 -->
<svg xmlns="http://www.w3.org/2000/svg" xml:space="preserve" width="2048px" height="2048px" style="shape-rendering:geometricPrecision; text-rendering:geometricPrecision; image-rendering:optimizeQuality; fill-rule:evenodd; clip-rule:evenodd"
viewBox="0 0 2048 2048"
 xmlns:xlink="http://www.w3.org/1999/xlink">
 <defs>
  <style type="text/css">
   <![CDATA[
    .fil11 {fill:none}
    .fil3 {fill:#00C853}
    .fil9 {fill:#ADADAD}
    .fil7 {fill:#BDBDBD}
    .fil4 {fill:#D50000}
    .fil5 {fill:#FF6D00}
    .fil2 {fill:#FFD600}
    .fil0 {fill:#379188;fill-rule:nonzero}
    .fil1 {fill:#4DB6AC;fill-rule:nonzero}
    .fil10 {fill:#795548;fill-rule:nonzero}
    .fil8 {fill:#E7BB87;fill-rule:nonzero}
    .fil6 {fill:#FDCC92;fill-rule:nonzero}
   ]]>
  </style>
 </defs>
 <g id="Layer_x0020_1">
  <metadata id="CorelCorpID_0Corel-Layer"/>
  <g id="_327455728">
   <path class="fil0" d="M1024 801c207,0 394,31 531,81 146,54 237,132 237,222 0,90 -91,169 -237,222 -137,50 -324,81 -531,81 -101,0 -135,-18 -135,-51 0,-24 19,-40 42,-60 21,-18 49,-41 49,-60 0,-44 -46,-58 -113,-61 -64,0 -237,17 -313,29 -46,5 -90,9 -129,9 -100,0 -170,-25 -170,-110 0,-79 70,-149 186,-202 77,-37 192,-64 255,-74l0 0c99,-18 211,-28 328,-28z"/>
   <path class="fil1" d="M1024 801c207,0 394,30 531,78 146,52 237,127 237,214 0,87 -91,162 -237,214 -137,48 -324,78 -531,78 -101,0 -135,-17 -135,-49 0,-24 19,-39 42,-57 21,-17 49,-40 49,-58 0,-42 -46,-56 -113,-58 -64,0 -237,17 -313,28 -46,5 -90,9 -129,9 -100,0 -170,-24 -170,-106 0,-76 70,-144 186,-194 77,-35 192,-62 255,-71l0 0c99,-17 211,-27 328,-27z"/>
   <ellipse class="fil2" cx="858" cy="929" rx="134" ry="51"/>
   <ellipse class="fil3" cx="1184" cy="923" rx="128" ry="57"/>
   <ellipse class="fil4" cx="1312" cy="1207" rx="128" ry="49"/>
   <ellipse class="fil5" cx="1472" cy="1020" rx="128" ry="57"/>
   <g>
    <g>
     <path class="fil6" d="M501 613c15,18 34,50 50,76 44,73 97,178 149,296l3 6c52,120 97,246 139,375 42,130 80,258 117,383 5,17 -5,35 -22,40 -15,4 -31,-3 -38,-17 -67,-113 -134,-230 -196,-345 -64,-118 -124,-238 -176,-359 -52,-120 -92,-233 -116,-317 -9,-33 -17,-74 -20,-100 54,10 74,14 110,-41z"/>
     <path class="fil7" d="M391 654c3,25 11,67 20,100 12,42 27,90 47,143 5,15 11,30 17,45 69,-3 125,-30 173,-70 -4,-8 -7,-15 -11,-23 -30,-62 -60,-117 -86,-160 -16,-27 -35,-58 -50,-76 -6,20 -20,36 -44,46l-4 1c-22,7 -44,4 -63,-7z"/>
    </g>
    <path class="fil8" d="M937 1791l0 0c-15,4 -31,-3 -38,-17 -67,-113 -134,-230 -196,-345 -64,-118 -124,-238 -176,-359 -52,-120 -92,-233 -116,-317 -9,-33 -17,-74 -20,-100 33,6 53,10 72,0l474 1137z"/>
    <path class="fil9" d="M391 654c3,25 11,67 20,100 12,42 27,90 47,143 5,15 11,30 17,45 36,-1 69,-10 99,-23l-110 -263c-2,1 -4,2 -6,3l-4 1c-22,7 -44,4 -63,-7z"/>
    <path class="fil10" d="M485 486c34,78 46,151 -21,180l-4 1c-22,7 -44,4 -63,-7 -26,-14 -48,-43 -64,-79 -14,-33 -24,-72 -28,-111 -7,-66 3,-134 37,-172l36 -42 18 53c6,17 21,45 37,76 17,32 36,67 51,101z"/>
   </g>
  </g>
  <rect class="fil11" width="2048" height="2048"/>
 </g>
</svg>
