<svg xmlns="http://www.w3.org/2000/svg" shape-rendering="geometricPrecision" text-rendering="geometricPrecision" image-rendering="optimizeQuality" fill-rule="evenodd" clip-rule="evenodd" viewBox="0 0 512 509.222"><path fill="#012E67" d="M259.806 129.836c11.228-25.854 23.64-50.516 38.693-71.206 28.097-38.613 96.888-85.198 138.954-40.085 41.706 44.725-2.085 93.865-54.027 111.291h94.84c9.293 0 17.735 3.794 23.838 9.897 6.102 6.102 9.896 14.545 9.896 23.837v48.35c0 9.243-3.794 17.655-9.896 23.764l-.038.036.038.038c-5.205 5.204-12.11 8.73-19.795 9.654v228.029c0 9.772-4.017 18.696-10.497 25.21l-.116.114c-6.507 6.456-15.415 10.457-25.166 10.457H66.028c-9.86 0-18.811-4.024-25.284-10.497a18.823 18.823 0 01-1.375-1.535c-5.668-6.356-9.122-14.692-9.122-23.749V245.473c-7.91-.817-15.02-4.385-20.351-9.715a19.364 19.364 0 01-1.418-1.587C3.205 228.194 0 220.391 0 211.92v-48.35c0-9.209 3.787-17.621 9.896-23.764l.114-.114c6.138-6.085 14.533-9.856 23.724-9.856h96.377C78.169 112.41 34.378 63.27 76.083 18.545c42.067-45.113 110.858 1.472 138.955 40.085 15.053 20.69 27.465 45.352 38.694 71.206h6.074zm79.679 0C460.098 85.432 425.811.025 357.98 38.696c-15.169 8.649-27.987 24.885-39.468 41.061-12.625 17.795-23.671 36.639-30.983 50.079h51.956zm-165.433 0h51.953c-7.314-13.44-18.355-32.284-30.983-50.079-11.48-16.176-24.296-32.412-39.468-41.061C87.725.025 53.441 85.432 174.052 129.836z"/><path fill="#FECE00" d="M40.019 148.691h431.962l.192.002h6.093c8.184 0 14.878 6.699 14.878 14.877v48.35c0 8.179-6.697 14.878-14.878 14.878h-8.528v.147l-.033-.007-.033-.005-.031-.007-.033-.007-.034-.005-.033-.007-.01-.003-.023-.002-.031-.005-.033-.007-.034-.004-.033-.005-.033-.007-.033-.005-.034-.005-.019-.005h-.014l-.033-.004-.033-.005-.034-.005-.033-.004-.033-.005-.033-.005-.034-.005-.026-.005h-.007l-.033-.004-.033-.003-.034-.004-.033-.005-.033-.003-.036-.004-.033-.003-.033-.004h-.003l-.031-.003-.033-.004-.035-.003-.034-.002-.066-.008-.033-.002-.036-.002h-.01l-.024-.003-.033-.002-.035-.002-.034-.003-.033-.002-.035-.002-.034-.003-.033-.002H468.132l-.033-.003-.033-.002h-.036l-.033-.002h-.036l-.033-.003h-.061l-.008-.002H467.757l-.036-.002H42.295l-.076.002h-.076l-.019.002h-.054l-.039.003h-.037l-.036.002h-.038l-.038.002-.036.003h-.005l-.033.002-.038.003-.035.002-.039.002-.035.003-.038.002-.036.002-.026.003h-.012l-.035.002-.074.007-.038.003-.036.005-.038.002-.035.005h-.01l-.028.002-.036.005h-7.485c-8.184 0-14.878-6.694-14.878-14.878v-48.35c0-8.183 6.694-14.877 14.878-14.877h6.093l.192-.002zM463.453 248.73v224.711c0 9.309-7.614 16.925-16.923 16.925H66.028c-9.309 0-16.925-7.616-16.925-16.925V248.73h414.35z"/><path fill="#012E67" fill-rule="nonzero" d="M215.57 135.661h80.86c6.91 0 12.514 5.661 12.514 12.64v342.11c0 6.979-5.604 12.639-12.514 12.639h-80.86c-6.91 0-12.514-5.66-12.514-12.639v-342.11c0-6.979 5.604-12.64 12.514-12.64z"/><path fill="#FF1D0D" d="M215.57 148.301h80.86v342.11h-80.86z"/><path fill="#fff" d="M256 291.274l8.699 14.819 16.17 4.069-10.794 13.228 1.294 17.332-15.371-6.642-15.367 6.642 1.294-17.334-10.794-13.226 16.172-4.069zM255.998 170.281l8.701 14.818 16.167 4.069-10.794 13.229 1.295 17.334-15.369-6.644-15.37 6.644 1.295-17.336-10.794-13.227 16.172-4.069zM256 412.268l8.699 14.818 16.17 4.069-10.794 13.229 1.294 17.331-15.371-6.641-15.367 6.641 1.294-17.333-10.794-13.227 16.172-4.069z"/></svg>