<svg xmlns="http://www.w3.org/2000/svg" shape-rendering="geometricPrecision" text-rendering="geometricPrecision" image-rendering="optimizeQuality" fill-rule="evenodd" clip-rule="evenodd" viewBox="0 0 512 504.89"><path fill="#EB2335" d="M474.778 237.433v250.026c0 9.583-7.848 17.431-17.431 17.431H55.226c-9.584 0-17.431-7.844-17.431-17.431V237.433h436.983z"/><path fill="#ED3949" d="M474.778 237.433V487.46c0-193.281-232.672-240.297-436.983-250.027h436.983z"/><path fill="#00A341" d="M15.323 136.99h481.354c8.428 0 15.323 6.916 15.323 15.323v69.798c0 8.414-6.908 15.322-15.323 15.322h-8.783l-463.214.557-9.357-.557C6.922 236.934 0 230.539 0 222.111v-69.798c0-8.429 6.894-15.323 15.323-15.323z"/><path fill="#3C3" d="M15.323 136.99h117.198c-12.055-5.13-23.431-12.135-33.023-20.455-9.388-8.141-17.13-17.575-22.215-27.782-5.237-10.514-7.701-21.871-6.351-33.543 1.344-11.613 6.453-23.402 16.348-34.807 3.717-4.286 7.686-7.834 11.84-10.707l.469-.348c15.488-10.481 33.032-11.39 50.329-6.468 16.521 4.699 32.812 14.817 46.675 26.845 11.004 9.545 20.534 20.325 27.455 30.553 7.537 11.14 14.383 23.456 20.717 36.486 4.232 8.706 8.218 17.665 12.025 26.776 3.808-9.111 7.794-18.07 12.024-26.776 6.336-13.03 13.181-25.346 20.719-36.486 6.921-10.228 16.451-21.008 27.455-30.553 13.863-12.028 30.154-22.146 46.674-26.845 17.298-4.922 34.842-4.013 50.33 6.468l.467.348c4.156 2.873 8.123 6.421 11.84 10.707 9.896 11.405 15.006 23.197 16.353 34.807 1.348 11.672-1.113 23.023-6.354 33.54-5.083 10.204-12.824 19.641-22.213 27.782-9.592 8.322-20.969 15.328-33.025 20.458h115.618c8.428 0 15.322 6.915 15.322 15.322H0c0-8.428 6.895-15.322 15.323-15.322zm195.046 0h12.958a550.084 550.084 0 00-12.427-23.173c-4.696-8.283-10.011-17.125-15.706-25.749-5.117-7.755-10.526-15.509-16.279-22.286-5.549-6.54-11.437-12.193-17.698-16.028-15.509-9.503-28.381-10.544-36.634-6.275-4.286 2.213-7.338 5.961-8.782 10.683-1.572 5.153-1.338 11.522 1.117 18.53 7.054 20.135 31.599 44.231 82.224 60.512l11.227 3.786zm79.885 0h12.956l11.229-3.786c50.624-16.278 75.171-40.377 82.225-60.512 2.455-7.005 2.688-13.38 1.114-18.53-1.442-4.722-4.496-8.47-8.78-10.683-8.253-4.269-21.126-3.228-36.632 6.275-6.263 3.839-12.148 9.488-17.701 16.028-5.754 6.777-11.161 14.531-16.28 22.286-5.689 8.618-11.003 17.454-15.695 25.73a557.045 557.045 0 00-12.436 23.192z"/><path fill="#FFC943" d="M205.564 237.434h103.738v166.052l-51.79-33.987-51.948 33.987z"/><path fill="#007C4D" d="M257.229 164.833l9.432 16.065 17.526 4.41-11.701 14.34 1.405 18.789-16.662-7.202-16.659 7.202 1.404-18.792-11.701-14.337 17.529-4.411 9.427-16.064zm164.592-.198l9.5 16.183 17.656 4.443-11.787 14.446 1.415 18.928-16.785-7.257-16.782 7.257 1.413-18.931-11.787-14.443 17.659-4.444 9.498-16.182zm-333.527 1.868l8.844 15.063 16.433 4.136-10.971 13.446 1.317 17.618-15.624-6.753-15.621 6.753 1.317-17.621-10.971-13.443 16.437-4.137 8.839-15.062z"/><path fill="#F60" d="M257.433 288.363l9.431 16.065 17.526 4.41-11.7 14.34 1.403 18.788-16.661-7.201-16.659 7.201 1.403-18.791-11.7-14.337 17.53-4.412z"/></svg>