<?xml version="1.0" encoding="iso-8859-1"?>
<!-- Uploaded to: SVG Repo, www.svgrepo.com, Generator: SVG Repo Mixer Tools -->
<svg version="1.1" id="Layer_1" xmlns="http://www.w3.org/2000/svg" xmlns:xlink="http://www.w3.org/1999/xlink" 
	 viewBox="0 0 464 464" xml:space="preserve">
<g>
	<path style="fill:#CC9966;" d="M424,152v144H296V152H424z M416,256c0-17.6-14.4-32-32-32c-4,0-8,0.8-12,2.4c-4-1.6-8-2.4-12-2.4
		c-17.6,0-32,14.4-32,32s14.4,32,32,32c4,0,8-0.8,12-2.4c4,1.6,8,2.4,12,2.4C401.6,288,416,273.6,416,256z M392,184v-16h-80v16H392z
		"/>
	<path style="fill:#CC9966;" d="M256,296v24H144V128h112v8h-72c-4,0-8,4-8,8v64c0,4,4,8,8,8h72v32h-72v16h72v16h-72v16H256z"/>
</g>
<g>
	<path style="fill:#42210B;" d="M440,144v160c0,4-4,8-8,8H296v117.6c0,19.2-15.2,34.4-34.4,34.4H58.4C39.2,464,24,448.8,24,429.6
		V50.4C24,31.2,39.2,16,58.4,16h203.2c19.2,0,34.4,15.2,34.4,34.4V136h136C436,136,440,140,440,144z M424,296V152H296v144H424z
		 M280,429.6V360v-56V144V50.4C280,40,272,32,261.6,32H58.4C48,32,40,40,40,50.4V360v69.6C40,440,48,448,58.4,448H160h101.6
		C272,448,280,440,280,429.6z"/>
	<path style="fill:#42210B;" d="M416,56v32c0,4.8-4,8-8,8h-16v16h-16V96h-24V80h48V64h-40c-4,0-8-3.2-8-8V24c0-4.8,4-8,8-8h16V0h16
		v16h24v16h-48v16h40C412,48,416,51.2,416,56z"/>
	<path style="fill:#42210B;" d="M384,224c17.6,0,32,14.4,32,32s-14.4,32-32,32c-4,0-8-0.8-12-2.4c-4,1.6-8,2.4-12,2.4
		c-17.6,0-32-14.4-32-32s14.4-32,32-32c4,0,8,0.8,12,2.4C376,224.8,380,224,384,224z M400,256c0-7.2-5.6-13.6-12-15.2
		c2.4,4.8,4,9.6,4,15.2s-1.6,11.2-4,15.2C394.4,269.6,400,263.2,400,256z M376,256c0-4-1.6-8-4-10.4c-2.4,2.4-4,6.4-4,10.4
		s1.6,8,4,10.4C374.4,264,376,260,376,256z M352,256c0-5.6,1.6-11.2,4-15.2c-7.2,1.6-12,8-12,15.2s5.6,13.6,12,15.2
		C353.6,267.2,352,261.6,352,256z"/>
	<rect x="312" y="168" style="fill:#42210B;" width="80" height="16"/>
</g>
<g>
	<path style="fill:#FF7D00;" d="M388,240.8c7.2,1.6,12,8,12,15.2s-5.6,13.6-12,15.2c2.4-4.8,4-9.6,4-15.2S390.4,244.8,388,240.8z"/>
	<path style="fill:#FF7D00;" d="M372,245.6c2.4,2.4,4,6.4,4,10.4s-1.6,8-4,10.4c-2.4-2.4-4-6.4-4-10.4S369.6,248,372,245.6z"/>
</g>
<path style="fill:#2FB4C2;" d="M356,240.8c-2.4,4-4,9.6-4,15.2s1.6,11.2,4,15.2c-7.2-1.6-12-8-12-15.2S349.6,242.4,356,240.8z"/>
<path style="fill:#42210B;" d="M272,328v32c0,4-4,8-8,8H160H56c-4.8,0-8-4-8-8V88c0-4.8,3.2-8,8-8h208c4,0,8,3.2,8,8v32v24v64V328z
	 M256,352v-16H136c-4,0-8-4-8-8V120c0-4,4-8,8-8h120V96H64v256H256z M256,320v-24h-72v-16h72v-16h-72v-16h72v-32h-72c-4,0-8-4-8-8
	v-64c0-4,4-8,8-8h72v-8H144v192H256z M256,200v-48h-24v8h8c4,0,8,4,8,8v32H256z M232,200v-24h-8c-4,0-8-4-8-8v-16h-24v48H232z"/>
<path style="fill:#FFF8EF;" d="M256,336v16H64V96h192v16H136c-4,0-8,4-8,8v208c0,4,4,8,8,8H256z"/>
<path style="fill:#2FB4C2;" d="M256,152v48h-8v-32c0-4-4-8-8-8h-8v-8H256z"/>
<path style="fill:#FF7D00;" d="M232,176v24h-40v-48h24v16c0,4,4,8,8,8H232z"/>
<g>
	<rect x="184" y="48" style="fill:#42210B;" width="24" height="16"/>
	<path style="fill:#42210B;" d="M160,376c17.6,0,32,14.4,32,32s-14.4,32-32,32s-32-14.4-32-32S142.4,376,160,376z M176,408
		c0-8.8-7.2-16-16-16s-16,7.2-16,16s7.2,16,16,16S176,416.8,176,408z"/>
	<rect x="104" y="48" style="fill:#42210B;" width="64" height="16"/>
</g>
<path style="fill:#FF7D00;" d="M261.6,32H58.4C48,32,40,40,40,50.4V360v69.6C40,440,48,448,58.4,448H160h101.6
	c10.4,0,18.4-8,18.4-18.4V360v-56V144V50.4C280,40,272,32,261.6,32z M184,48h24v16h-24V48z M104,48h64v16h-64V48z M160,440
	c-17.6,0-32-14.4-32-32s14.4-32,32-32s32,14.4,32,32S177.6,440,160,440z M264,368H160H56c-4,0-8-4-8-8V88c0-4,4-8,8-8h208
	c4,0,8,4,8,8v32v24v64v120v32C272,364,268,368,264,368z"/>
<g>
	<path style="fill:#FF9900;" d="M48,88c0-4,4-8,8-8h208c4,0,8,4,8,8V58.4C272,48,264,40,253.6,40H66.4C56,40,48,48,48,58.4V88z
		 M184,48h24v16h-24V48z M104,48h64v16h-64V48z"/>
	<path style="fill:#FF9900;" d="M128,408c0-20,18.4-36,39.2-31.2c11.2,2.4,20.8,12,24,24C196,421.6,180,440,160,440h88.8
		c12.8,0,23.2-10.4,23.2-23.2V360c0,4-4,8-8,8H160H56c-4,0-8-4-8-8v56.8c0,12.8,10.4,23.2,23.2,23.2H160
		C142.4,440,128,425.6,128,408z"/>
</g>
<path style="fill:#E0CBB5;" d="M64,352h72l-53.6-6.4C76.8,344.8,72,340,72,334.4V115.2c0-6.4,4.8-11.2,11.2-11.2L240,96H64V352z"/>
<g>
	<path style="fill:#B37D4D;" d="M224,320l-46.4-11.2c-10.4-2.4-18.4-12-19.2-23.2L144,128v192H224z"/>
	<path style="fill:#B37D4D;" d="M296,152l101.6,6.4c10.4,0.8,19.2,9.6,20,20L424,272V152H296z"/>
</g>
</svg>