<svg id="artwork" xmlns="http://www.w3.org/2000/svg" viewBox="0 0 512 512"><title>Salary</title><g id="Salary"><polygon points="369.3 399.46 68.5 399.46 68.5 218.28 119.06 152.5 320.73 152.5 369.3 218.28 369.3 399.46" style="fill:#c6d0dc"/><polygon points="218.49 267.31 67.68 399.46 369.3 399.46 218.49 267.31" style="fill:#fff"/><rect x="298.66" y="328.5" width="180.48" height="110.33" style="fill:#59aee4"/><rect x="362.23" y="328.52" width="53.33" height="70.94" style="fill:#fff"/><rect x="362.76" y="398" width="53.33" height="40.82" style="fill:#c6d0dc"/><rect x="342.63" y="328.52" width="19.6" height="110.33" style="fill:#548fbf"/><rect x="415.57" y="328.52" width="19.6" height="110.33" style="fill:#548fbf"/><polygon points="279.61 438.85 236.26 438.85 236.26 391.87 236.26 341.2 279.61 341.2 279.61 438.85" style="fill:#f7c648"/><polygon points="279.61 438.82 257.94 438.82 257.94 391.85 257.94 341.2 279.61 341.2 279.61 438.82" style="fill:#e2a223"/><polygon points="343.59 91.31 114.63 91.31 114.63 129.53 94.9 129.53 94.9 228.62 218.9 275.93 343.58 226 342.97 140 343.59 140 343.59 91.31" style="fill:#fff"/><rect x="114.6" y="109.97" width="228.96" height="19.56" style="fill:#c6d0dc"/><path d="M239.62,214.87q-2.61-3.74-10.24-5.66l-8.39-2.1q-6.87-1.7-6.87-5.93a5.4,5.4,0,0,1,2.19-4.41,9.7,9.7,0,0,1,6-1.73h.57q7,.08,8.92,5.6l8.46-2.1a12.5,12.5,0,0,0-6.38-7.88,21.48,21.48,0,0,0-5.88-2.21V178H216v10.75a17,17,0,0,0-6.08,3.13A13,13,0,0,0,205,202.48a14.36,14.36,0,0,0,1.39,6.26,11.23,11.23,0,0,0,3.71,4.54,23.45,23.45,0,0,0,7.16,2.88l9.44,2.45c2.53.66,4.18,1.55,5,2.7a6.58,6.58,0,0,1,1.16,3.74,5.62,5.62,0,0,1-2.55,4.67,11.49,11.49,0,0,1-6.59,1.86h-1.48C215.73,231.4,212,229,211,224.26l-8.65,1.84a15.11,15.11,0,0,0,7.33,9.59,23.44,23.44,0,0,0,6.28,2.37v11.22h12v-11a20.2,20.2,0,0,0,8.77-3.71,13.58,13.58,0,0,0,5.48-11.44A14.21,14.21,0,0,0,239.62,214.87Z" style="fill:#f7c648"/><path d="M363.3,227.1v80.4h12v-91l-25.72-39V85.31H108.63v33.12h12V97.31h217V124h-248v53.45l-27.09,39V405.46H213.67v-12H84.41L218.89,275.3,278.82,328l7.92-9-48.45-42.56Zm-13.72-27.8,10.64,16.11-10.64,4.19Zm-260-.85V220.1l-11.83-4.63ZM74.5,386.2V227.08l125.26,49ZM218.88,259.33l-9,7.88L101.59,224.8V136h236v88.36L228.16,267.47Z"/><path d="M310.17,156.85v-6H129.62v6a10.7,10.7,0,0,1-10.56,10.81h-6v34.12h12V178.84a22.79,22.79,0,0,0,15.77-16H299a22.79,22.79,0,0,0,15.76,16v22.94h12V167.66h-6A10.69,10.69,0,0,1,310.17,156.85Z"/><path d="M421.57,322.5H293.19v25.7h0v96.63H485.67V322.5ZM356.23,432.83h-51v-7.66h51Zm0-19.66h-51v-7.71h51Zm0-19.71h-51v-59h51Zm53.34,39.37H368.23v-7.66h41.34Zm0-19.66H368.23v-7.71h41.34Zm0-19.71H368.23v-59h41.34Zm64.1,39.37h-52.1v-7.66h52.1Zm0-19.66h-52.1v-7.71h52.1Zm0-65v45.26h-52.1v-59h52.1Z"/><path d="M230.26,444.83h55.35V335.2H230.26Zm12-97.63h31.35V360H242.26Zm0,24.8h31.35v12H242.26Zm0,24h31.35V408.5H242.26Zm0,24.49h31.35v12.33H242.26Z"/></g></svg>