<?xml version="1.0" encoding="utf-8"?>
<!-- Generator: Adobe Illustrator 22.0.0, SVG Export Plug-In . SVG Version: 6.00 Build 0)  -->
<svg version="1.1" id="Icon_Set" xmlns="http://www.w3.org/2000/svg" xmlns:xlink="http://www.w3.org/1999/xlink" x="0px" y="0px"
	 viewBox="0 0 64 64" style="enable-background:new 0 0 64 64;" xml:space="preserve">
<style type="text/css">
	.st0{fill:#40C4FF;}
	.st1{fill:#263238;}
	.st2{fill:#FFD740;}
	.st3{fill:#FF5252;}
	.st4{fill:#4DB6AC;}
	.st5{fill:#FFFFFF;}
	.st6{fill:#4FC3F7;}
	.st7{fill:#37474F;}
</style>
<g>
	<g>
		<path class="st1" d="M50.747,44.935c-0.128,0-0.256-0.049-0.354-0.146l-3.663-3.662c-0.104-0.104-0.157-0.248-0.145-0.395
			c0.012-0.147,0.088-0.281,0.208-0.366c0.571-0.407,1.055-0.811,1.478-1.233c0.425-0.426,0.829-0.909,1.233-1.479
			c0.085-0.12,0.219-0.196,0.366-0.208c0.154-0.01,0.292,0.041,0.396,0.145l3.663,3.663c0.094,0.094,0.146,0.221,0.146,0.354
			s-0.053,0.26-0.146,0.354L51.1,44.788C51.002,44.886,50.875,44.935,50.747,44.935z M47.847,40.829l2.899,2.898l2.122-2.121
			l-2.899-2.899c-0.322,0.417-0.649,0.79-0.99,1.132l0,0C48.639,40.179,48.266,40.505,47.847,40.829z M48.625,39.485h0.01H48.625z"
			/>
	</g>
	<g>
		<path class="st0" d="M48.625,22.515c-4.686-4.686-12.284-4.686-16.971,0s-4.686,12.284,0,16.971
			c4.686,4.686,12.284,4.686,16.971,0C53.312,34.799,53.312,27.201,48.625,22.515z M46.504,37.364
			c-3.515,3.515-9.213,3.515-12.728,0s-3.515-9.213,0-12.728c3.515-3.515,9.213-3.515,12.728,0
			C50.019,28.151,50.019,33.849,46.504,37.364z"/>
		<path class="st1" d="M40.14,43.494c-3.201,0-6.402-1.219-8.839-3.655c-4.874-4.874-4.874-12.804,0-17.678
			c4.874-4.873,12.804-4.873,17.678,0l0,0c4.874,4.874,4.874,12.804,0,17.678C46.542,42.275,43.341,43.494,40.14,43.494z
			 M40.14,19.505c-2.945,0-5.89,1.121-8.132,3.363c-4.483,4.484-4.483,11.779,0,16.264c4.484,4.482,11.78,4.484,16.264,0
			c4.483-4.484,4.483-11.779,0-16.264C46.03,20.626,43.085,19.505,40.14,19.505z M40.14,40.496c-2.433,0-4.865-0.927-6.717-2.778
			c-3.704-3.704-3.704-9.731,0-13.436c3.704-3.703,9.73-3.703,13.435,0c1.794,1.794,2.783,4.18,2.783,6.718
			s-0.988,4.924-2.783,6.718C45.005,39.569,42.573,40.496,40.14,40.496z M40.14,22.504c-2.177,0-4.353,0.828-6.01,2.485
			c-3.314,3.314-3.314,8.707,0,12.021s8.706,3.314,12.021,0l0,0c1.605-1.605,2.49-3.74,2.49-6.011s-0.884-4.405-2.49-6.011
			C44.493,23.332,42.317,22.504,40.14,22.504z"/>
	</g>
	<g>
		<path class="st1" d="M58.878,53.359c-0.4,0-0.777-0.156-1.061-0.439l-7.071-7.07c-0.584-0.585-0.584-1.537,0-2.122l2.122-2.121
			c0.585-0.584,1.536-0.584,2.121,0l7.071,7.071c0.585,0.585,0.585,1.536,0,2.121l-2.122,2.121
			C59.656,53.203,59.279,53.359,58.878,53.359z M53.929,42.167c-0.128,0-0.256,0.049-0.354,0.146l0,0l-2.122,2.121
			c-0.195,0.195-0.195,0.513,0,0.708l7.071,7.07c0.19,0.19,0.519,0.188,0.707,0l2.122-2.121c0.195-0.195,0.195-0.512,0-0.707
			l-7.071-7.071C54.185,42.216,54.057,42.167,53.929,42.167z M53.222,41.96h0.01H53.222z"/>
	</g>
	<g>
		<path class="st1" d="M7,57.5c-0.276,0-0.5-0.224-0.5-0.5v-1c0-0.276,0.224-0.5,0.5-0.5s0.5,0.224,0.5,0.5v1
			C7.5,57.276,7.276,57.5,7,57.5z"/>
	</g>
	<g>
		<path class="st1" d="M7,54.5c-0.276,0-0.5-0.224-0.5-0.5V40c0-0.276,0.224-0.5,0.5-0.5s0.5,0.224,0.5,0.5v14
			C7.5,54.276,7.276,54.5,7,54.5z"/>
	</g>
	<g>
		<path class="st1" d="M56,14.5c-0.276,0-0.5-0.224-0.5-0.5v-1c0-0.276,0.224-0.5,0.5-0.5s0.5,0.224,0.5,0.5v1
			C56.5,14.276,56.276,14.5,56,14.5z"/>
	</g>
	<g>
		<path class="st1" d="M56,30.5c-0.276,0-0.5-0.224-0.5-0.5V16c0-0.276,0.224-0.5,0.5-0.5s0.5,0.224,0.5,0.5v14
			C56.5,30.276,56.276,30.5,56,30.5z"/>
	</g>
	<g>
		<path class="st1" d="M49.5,62.5h-36c-1.654,0-3-1.346-3-3v-49c0-1.654,1.346-3,3-3h36c1.654,0,3,1.346,3,3v12.791
			c0,0.276-0.224,0.5-0.5,0.5s-0.5-0.224-0.5-0.5V10.5c0-1.103-0.897-2-2-2h-36c-1.103,0-2,0.897-2,2v49c0,1.103,0.897,2,2,2h36
			c1.103,0,2-0.897,2-2V49.364c0-0.276,0.224-0.5,0.5-0.5s0.5,0.224,0.5,0.5V59.5C52.5,61.154,51.154,62.5,49.5,62.5z"/>
	</g>
	<g>
		<path class="st1" d="M11,4.5H7C6.724,4.5,6.5,4.276,6.5,4S6.724,3.5,7,3.5h4c0.276,0,0.5,0.224,0.5,0.5S11.276,4.5,11,4.5z"/>
	</g>
	<g>
		<path class="st1" d="M9,6.5C8.724,6.5,8.5,6.276,8.5,6V2c0-0.276,0.224-0.5,0.5-0.5S9.5,1.724,9.5,2v4C9.5,6.276,9.276,6.5,9,6.5z
			"/>
	</g>
	<g>
		<path class="st1" d="M6,10H2c-0.276,0-0.5-0.224-0.5-0.5S1.724,9,2,9h4c0.276,0,0.5,0.224,0.5,0.5S6.276,10,6,10z"/>
	</g>
	<g>
		<path class="st1" d="M4,12c-0.276,0-0.5-0.224-0.5-0.5v-4C3.5,7.224,3.724,7,4,7s0.5,0.224,0.5,0.5v4C4.5,11.776,4.276,12,4,12z"
			/>
	</g>
	<g>
		<path class="st1" d="M27,39H16.5c-0.276,0-0.5-0.224-0.5-0.5s0.224-0.5,0.5-0.5H27c0.276,0,0.5,0.224,0.5,0.5S27.276,39,27,39z"/>
	</g>
	<g>
		<path class="st1" d="M46.5,47h-30c-0.276,0-0.5-0.224-0.5-0.5s0.224-0.5,0.5-0.5h30c0.276,0,0.5,0.224,0.5,0.5S46.777,47,46.5,47z
			"/>
	</g>
	<g>
		<path class="st1" d="M46.5,51h-30c-0.276,0-0.5-0.224-0.5-0.5s0.224-0.5,0.5-0.5h30c0.276,0,0.5,0.224,0.5,0.5S46.777,51,46.5,51z
			"/>
	</g>
	<g>
		<path class="st1" d="M46.5,55h-30c-0.276,0-0.5-0.224-0.5-0.5s0.224-0.5,0.5-0.5h30c0.276,0,0.5,0.224,0.5,0.5S46.777,55,46.5,55z
			"/>
	</g>
	<g>
		<path class="st1" d="M21.75,42H16.5c-0.276,0-0.5-0.224-0.5-0.5s0.224-0.5,0.5-0.5h5.25c0.276,0,0.5,0.224,0.5,0.5
			S22.026,42,21.75,42z"/>
	</g>
	<g>
		<path class="st2" d="M45.14,35.833h-10c-0.552,0-1-0.448-1-1v-7c0-0.552,0.448-1,1-1h10c0.552,0,1,0.448,1,1v7
			C46.14,35.386,45.692,35.833,45.14,35.833z"/>
		<path class="st1" d="M45.14,36.333h-10c-0.827,0-1.5-0.673-1.5-1.5v-7c0-0.827,0.673-1.5,1.5-1.5h10c0.827,0,1.5,0.673,1.5,1.5v7
			C46.64,35.66,45.967,36.333,45.14,36.333z M35.14,27.333c-0.276,0-0.5,0.225-0.5,0.5v7c0,0.275,0.224,0.5,0.5,0.5h10
			c0.276,0,0.5-0.225,0.5-0.5v-7c0-0.275-0.224-0.5-0.5-0.5H35.14z"/>
	</g>
	<g>
		<path class="st1" d="M42.14,27.333h-4c-0.276,0-0.5-0.224-0.5-0.5v-1c0-0.827,0.673-1.5,1.5-1.5h2c0.827,0,1.5,0.673,1.5,1.5v1
			C42.64,27.109,42.417,27.333,42.14,27.333z M38.64,26.333h3v-0.5c0-0.275-0.224-0.5-0.5-0.5h-2c-0.276,0-0.5,0.225-0.5,0.5V26.333
			z"/>
	</g>
	<g>
		<path class="st1" d="M38.14,31.833h-4c-0.276,0-0.5-0.224-0.5-0.5s0.224-0.5,0.5-0.5h4c0.276,0,0.5,0.224,0.5,0.5
			S38.417,31.833,38.14,31.833z"/>
	</g>
	<g>
		<path class="st1" d="M46.14,31.833h-4c-0.276,0-0.5-0.224-0.5-0.5s0.224-0.5,0.5-0.5h4c0.276,0,0.5,0.224,0.5,0.5
			S46.416,31.833,46.14,31.833z"/>
	</g>
	<g>
		<path class="st1" d="M51.5,16.5H11c-0.276,0-0.5-0.224-0.5-0.5s0.224-0.5,0.5-0.5h40.5c0.276,0,0.5,0.224,0.5,0.5
			S51.776,16.5,51.5,16.5z"/>
	</g>
	<g>
		<path class="st1" d="M15,14c-1.103,0-2-0.897-2-2s0.897-2,2-2s2,0.897,2,2S16.103,14,15,14z M15,11c-0.551,0-1,0.448-1,1
			s0.449,1,1,1s1-0.448,1-1S15.551,11,15,11z"/>
	</g>
	<g>
		<path class="st1" d="M20,14c-1.103,0-2-0.897-2-2s0.897-2,2-2s2,0.897,2,2S21.103,14,20,14z M20,11c-0.551,0-1,0.448-1,1
			s0.449,1,1,1s1-0.448,1-1S20.551,11,20,11z"/>
	</g>
	<g>
		<rect x="15" y="20.5" class="st3" width="12" height="4"/>
		<path class="st1" d="M27,25H15c-0.276,0-0.5-0.224-0.5-0.5v-4c0-0.276,0.224-0.5,0.5-0.5h12c0.276,0,0.5,0.224,0.5,0.5v4
			C27.5,24.776,27.276,25,27,25z M15.5,24h11v-3h-11V24z"/>
	</g>
	<g>
		<path class="st1" d="M40.14,32.333c-0.276,0-0.5-0.224-0.5-0.5v-1c0-0.276,0.224-0.5,0.5-0.5s0.5,0.224,0.5,0.5v1
			C40.64,32.109,40.417,32.333,40.14,32.333z"/>
	</g>
</g>
</svg>
