<svg xmlns="http://www.w3.org/2000/svg" viewBox="0 0 64 64"><defs><style>.cls-1{isolation:isolate;}.cls-2{fill:#ff1800;}.cls-3,.cls-6{fill:#fff;}.cls-4{fill:none;stroke:#000;stroke-miterlimit:10;stroke-width:2px;}.cls-5{opacity:0.19;mix-blend-mode:multiply;}.cls-6{mix-blend-mode:overlay;}</style></defs><title>Icon Color</title><g class="cls-1"><g id="Layer_3" data-name="Layer 3"><g id="Vector"><path class="cls-2" d="M53.94,19.92a2.45,2.45,0,0,0-1.18-.29H50.38a2.5,2.5,0,0,0-1.79.74A17.6,17.6,0,0,0,31.78,8.91,17.63,17.63,0,0,0,15.07,20.08a2.49,2.49,0,0,0-1.44-.45H11.24a2.45,2.45,0,0,0-1.18.29C12.22,10.42,21.23,3.3,32,3.3S51.78,10.42,53.94,19.92Z"/><path class="cls-2" d="M61.57,45V56.84a3.85,3.85,0,0,1-3.85,3.86H6.29a3.86,3.86,0,0,1-3.86-3.86V45A3.85,3.85,0,0,0,6.29,48.8H57.72A3.85,3.85,0,0,0,61.57,45Z"/><path class="cls-3" d="M38.19,45a3.81,3.81,0,0,1-1.13,2.72,3.86,3.86,0,0,1-2.73,1.13H29.67a3.86,3.86,0,1,1,0-7.71h4.66A3.86,3.86,0,0,1,38.19,45Z"/><path class="cls-2" d="M61.57,28.21V45a3.85,3.85,0,0,1-3.85,3.85H34.33a3.86,3.86,0,0,0,2.73-1.13A3.81,3.81,0,0,0,38.19,45a3.86,3.86,0,0,0-3.86-3.86H29.67a3.86,3.86,0,1,0,0,7.71H6.29A3.85,3.85,0,0,1,2.43,45V28.21a3.86,3.86,0,0,1,3.86-3.86H57.72A3.85,3.85,0,0,1,61.57,28.21Z"/><path class="cls-3" d="M16.17,22.18v2.17H8.7V22.18a2.56,2.56,0,0,1,1.36-2.26,2.45,2.45,0,0,1,1.18-.29h2.39a2.49,2.49,0,0,1,1.44.45A2.56,2.56,0,0,1,16.17,22.18Z"/><path class="cls-3" d="M55.31,22.18v2.17H47.83V22.18a2.56,2.56,0,0,1,2.55-2.55h2.38a2.45,2.45,0,0,1,1.18.29A2.55,2.55,0,0,1,55.31,22.18Z"/></g><g id="Line"><path class="cls-4" d="M53.94,19.92a2.45,2.45,0,0,0-1.18-.29H50.38a2.5,2.5,0,0,0-1.79.74A17.6,17.6,0,0,0,31.78,8.91,17.63,17.63,0,0,0,15.07,20.08a2.49,2.49,0,0,0-1.44-.45H11.24a2.45,2.45,0,0,0-1.18.29C12.22,10.42,21.23,3.3,32,3.3S51.78,10.42,53.94,19.92Z"/><path class="cls-4" d="M45,48.8H57.72A3.85,3.85,0,0,0,61.57,45V56.84a3.85,3.85,0,0,1-3.85,3.86H6.29a3.86,3.86,0,0,1-3.86-3.86V45A3.85,3.85,0,0,0,6.29,48.8H45"/><path class="cls-4" d="M38.19,45a3.81,3.81,0,0,1-1.13,2.72,3.86,3.86,0,0,1-2.73,1.13H29.67a3.86,3.86,0,1,1,0-7.71h4.66A3.86,3.86,0,0,1,38.19,45Z"/><path class="cls-4" d="M45,48.8H34.33a3.86,3.86,0,0,0,2.73-1.13A3.81,3.81,0,0,0,38.19,45a3.86,3.86,0,0,0-3.86-3.86H29.67a3.86,3.86,0,1,0,0,7.71H6.29A3.85,3.85,0,0,1,2.43,45V40"/><path class="cls-4" d="M2.43,35V28.21a3.86,3.86,0,0,1,3.86-3.86H57.72a3.85,3.85,0,0,1,3.85,3.86V45a3.85,3.85,0,0,1-3.85,3.85H52"/><path class="cls-4" d="M16.17,22.18v2.17H8.7V22.18a2.56,2.56,0,0,1,1.36-2.26,2.45,2.45,0,0,1,1.18-.29h2.39a2.49,2.49,0,0,1,1.44.45A2.56,2.56,0,0,1,16.17,22.18Z"/><path class="cls-4" d="M55.31,22.18v2.17H47.83V22.18a2.56,2.56,0,0,1,2.55-2.55h2.38a2.45,2.45,0,0,1,1.18.29A2.55,2.55,0,0,1,55.31,22.18Z"/></g><g id="Shadow"><path class="cls-5" d="M57.72,60.7a3.85,3.85,0,0,0,3.85-3.86V28.21a3.85,3.85,0,0,0-3.85-3.86H55.31V22.18a2.55,2.55,0,0,0-1.37-2.26,21.44,21.44,0,0,0-13.4-15,2.31,2.31,0,0,1,.2.24c1.74,2.34,2.62,4.79,3.49,8.59a16.48,16.48,0,0,1,4.36,6.64,2.52,2.52,0,0,0-.76,1.81v2.17H46.3c.7,4.3.8,7.25-.3,10.65-.51,1.59-2.22,6.86-7,10-5.74,3.77-10,.62-22.79,1.92C10.93,47.46,5.81,48,2.43,49.7v7.14A3.86,3.86,0,0,0,6.29,60.7Z"/></g><g id="Highlight"><path class="cls-3" d="M16.17,22.18v2.17H47.83V22.18a2.52,2.52,0,0,1,.76-1.81A17.6,17.6,0,0,0,31.78,8.91,17.63,17.63,0,0,0,15.07,20.08,2.56,2.56,0,0,1,16.17,22.18Z"/><path class="cls-6" d="M8.61,55.06A6.64,6.64,0,0,1,14,48.46c-4-.82-7-4.42-8.18-8.33S5,32,5.61,28c.13-.87.48-2.19.8-3.62H6.29a3.86,3.86,0,0,0-3.86,3.86V56.84A3.86,3.86,0,0,0,6.29,60.7H9.77C9.61,58.81,8.69,57,8.61,55.06Z"/></g></g></g></svg>