<svg xmlns="http://www.w3.org/2000/svg" viewBox="0 0 64 64"><defs><style>.cls-1{fill:#f2f2f2;}.cls-2{fill:#d1d1d1;}.cls-3{fill:#213949;}.cls-4{fill:#13242d;}.cls-5{fill:aqua;}.cls-6{fill:#8ffffc;}.cls-7{fill:#76e2dd;}</style></defs><title>23.Bath soap</title><g id="_23.Bath_soap" data-name="23.Bath soap"><path class="cls-1" d="M38.3,26.4a11.8,11.8,0,0,0-20.1,8.3V58H41.7V34.8A11.7,11.7,0,0,0,38.3,26.4Z"/><path class="cls-2" d="M32,23.2a12.1,12.1,0,0,0-2.7.8,11.7,11.7,0,0,0-7.1,10.8V58h-4V34.8A11.8,11.8,0,0,1,30,23Z"/><path class="cls-3" d="M34.7,18.8V24a11.7,11.7,0,0,0-9.4,0V18.8Z"/><path class="cls-4" d="M27.9,18.8v4.4a12.2,12.2,0,0,0-2.6.8V18.8Z"/><rect class="cls-1" x="27.7" y="11.5" width="4.5" height="7.31"/><rect class="cls-3" x="24.2" y="6" width="15.7" height="5.5"/><rect class="cls-4" x="24.2" y="6" width="3.6" height="5.5"/><path class="cls-5" d="M43.2,15.5,42,13.4l-1.2,2.1a1.4,1.4,0,1,0,2.5,0Z"/><path class="cls-5" d="M45.6,22.2,44.3,20l-1.2,2.1a1.4,1.4,0,1,0,2.5,0Z"/><path class="cls-5" d="M40.3,20.9l-1.2-2.1-1.2,2.1A1.4,1.4,0,0,0,39.1,23h0A1.4,1.4,0,0,0,40.3,20.9Z"/><path class="cls-6" d="M41.7,38.2V58H18.2V39.8h.2a4.9,4.9,0,0,1,8.7-1.3,4.9,4.9,0,0,1,2.8-.9,4.8,4.8,0,0,1,2.9,1,4.9,4.9,0,0,1,8.8-.4Z"/><path class="cls-7" d="M22.3,36.4V58h-4V39.8h.2A4.9,4.9,0,0,1,22.3,36.4Z"/></g></svg>