<svg xmlns="http://www.w3.org/2000/svg" xmlns:xlink="http://www.w3.org/1999/xlink" viewBox="0 0 216.69 228.36"><defs><style>.cls-1{isolation:isolate;}.cls-2{opacity:0.4;mix-blend-mode:multiply;fill:url(#linear-gradient);}.cls-3{fill:#cec09f;}.cls-4{fill:#a8dedb;stroke:#1f2687;}.cls-4,.cls-6{stroke-miterlimit:10;stroke-width:6px;}.cls-5{fill:#f2a7c5;}.cls-6{fill:none;stroke:#212683;}.cls-7{fill:#212683;}</style><linearGradient id="linear-gradient" x1="12.3" y1="114.18" x2="216.69" y2="114.18" gradientUnits="userSpaceOnUse"><stop offset="0" stop-color="#efa6c2"/><stop offset="1" stop-color="#96cdbd"/></linearGradient></defs><title>Beauty Treatment</title><g class="cls-1"><g id="Layer_2" data-name="Layer 2"><g id="Layer_1-2" data-name="Layer 1"><path class="cls-2" d="M160,95a56.58,56.58,0,0,0-19.12,3.31,67.89,67.89,0,1,0-100,24.92,56.69,56.69,0,1,0,81.52,70.85A56.68,56.68,0,1,0,160,95Z"/><polygon class="cls-3" points="94.24 174.74 94.24 210.76 22.65 210.76 42 186.01 70.9 178.76 74.09 172.18 94.24 174.74"/><polygon class="cls-3" points="94.24 174.74 94.24 210.76 165.83 210.76 146.47 186.01 117.58 178.76 114.39 172.18 94.24 174.74"/><path class="cls-4" d="M63.58,35.21C66.31,25.27,79,17.76,94.25,17.76s27.93,7.52,30.66,17.46"/><path class="cls-5" d="M152.79,72.71a30.69,30.69,0,0,1-1.34,9,33.68,33.68,0,0,1-3.61,8l0,0A44,44,0,0,1,137.52,101a55.11,55.11,0,0,1-6.37,4.32A65,65,0,0,1,118.56,111a78.2,78.2,0,0,1-24.32,3.79,77.72,77.72,0,0,1-24.83-4A65.12,65.12,0,0,1,57,105.16a53,53,0,0,1-6.56-4.56c-.4-.32-.79-.64-1.17-1a42.19,42.19,0,0,1-9.09-10.78,31.35,31.35,0,0,1-.5-31.37C44.36,48.77,53,41.48,64,36.7a76.17,76.17,0,0,1,30.29-6.06,76.39,76.39,0,0,1,29.61,5.77c15.81,6.67,26.88,18.53,28.68,32.32A30.9,30.9,0,0,1,152.79,72.71Z"/><path class="cls-3" d="M97.69,210.76H91.32a3.19,3.19,0,0,1,6.37,0Z"/><path class="cls-3" d="M151.73,133v63.68l-3.45-11.81A29.58,29.58,0,0,0,143,174.74a29,29,0,0,0-2.91-3.16l-20.48-19.25c-1,.75-2.12,1.46-3.24,2.12a5.72,5.72,0,0,0-2.67,6.08l1.9,9.33q-21.36,9.89-42.73-.23l1.85-9.1a5.71,5.71,0,0,0-2.66-6.08c-1.12-.66-2.2-1.37-3.24-2.12L48.36,171.58a29,29,0,0,0-2.91,3.16,29.36,29.36,0,0,0-5,9.45v-60l10.26-13.72V97.24c-.4-.32-.79-.64-1.17-1l1.19,0A23.78,23.78,0,0,1,74.47,73.4H114A23.8,23.8,0,0,1,137.8,97.18a43.14,43.14,0,0,0,10.3-10.84,44,44,0,0,1-10.3,11.35v12.74L148.69,125Z"/><path class="cls-3" d="M186.59,123.87h-3.84a1.6,1.6,0,0,0-1.6,1.6v3.84a1.81,1.81,0,0,1-2.08,1.79,1.9,1.9,0,0,1-1.55-1.93v-3.7a1.6,1.6,0,0,0-1.6-1.6h-3.84a1.82,1.82,0,0,1-1.8-2.08,1.92,1.92,0,0,1,1.94-1.55h3.7a1.6,1.6,0,0,0,1.6-1.6V114.8A1.81,1.81,0,0,1,179.6,113a1.91,1.91,0,0,1,1.55,1.93v3.7a1.6,1.6,0,0,0,1.6,1.6h3.7a1.9,1.9,0,0,1,1.93,1.55A1.82,1.82,0,0,1,186.59,123.87Z"/><path class="cls-6" d="M50.71,96.29l-1.19,0h0a41.57,41.57,0,0,1-9.07-9.86,30.67,30.67,0,0,1-4.88-13,26.09,26.09,0,0,1-.23-3.54,29.9,29.9,0,0,1,4.61-15.75c3.64-5.95,9.29-11.17,16.36-15.27h0a65.06,65.06,0,0,1,7.29-3.61A79.46,79.46,0,0,1,94.25,29.3a79.39,79.39,0,0,1,30.65,5.92c15.21,6.37,25.87,17.36,27.91,30.15a28.36,28.36,0,0,1,.14,8,28.25,28.25,0,0,1-1.22,5.39,32.47,32.47,0,0,1-3.61,7.52l0,0a43.14,43.14,0,0,1-10.3,10.84h0"/><polyline class="cls-6" points="109.99 210.76 140.79 210.76 151.73 210.76 155.84 210.76 159.62 210.76"/><polyline class="cls-6" points="19.9 210.76 32.65 210.76 38.73 210.76 40.43 210.76 78.49 210.76"/><path class="cls-6" d="M50.69,110.43V97.18c0-.3,0-.6,0-.89A23.78,23.78,0,0,1,74.47,73.4H114A23.8,23.8,0,0,1,137.8,97.18h0v13.24"/><path class="cls-6" d="M68.85,152.33c1,.75,2.12,1.46,3.24,2.12a5.71,5.71,0,0,1,2.66,6.08l-1.85,9.1-.83,4a5.78,5.78,0,0,1-4.26,4.45l-27.38,6.72-.23.06"/><path class="cls-6" d="M148.28,184.91l-27.6-6.78a5.8,5.8,0,0,1-4.27-4.45l-.78-3.82-1.9-9.33a5.72,5.72,0,0,1,2.67-6.08c1.12-.66,2.2-1.37,3.24-2.12"/><path class="cls-4" d="M77,144.66l-8.16,7.67L48.36,171.58a29,29,0,0,0-2.91,3.16,29.36,29.36,0,0,0-5,9.45c-.08.23-.15.45-.22.68v0l-2,7h0l-2.82,9.68-2.67,9.14H12.42a5.42,5.42,0,0,1-4.94-7.63L20.2,174.74l4.41-9.83L39.79,125l.64-.86,10.26-13.72,5.79-7.75a8.23,8.23,0,0,1,.77-.88,7.58,7.58,0,0,1,12,1.85,5.1,5.1,0,0,1,.62,2.36.66.66,0,0,1,0,.14,5.29,5.29,0,0,1-.17,1.31,4.81,4.81,0,0,1-.3.88L53.8,143.24a1.82,1.82,0,0,0,2.49,2.37l6.1-3.1A12.77,12.77,0,0,1,77,144.66Z"/><path class="cls-4" d="M176.06,210.76H155.84l-4.11-14.08-3.45-11.81A29.58,29.58,0,0,0,143,174.74a29,29,0,0,0-2.91-3.16l-20.48-19.25-8.17-7.67a12.79,12.79,0,0,1,14.63-2.15l6.1,3.1a1.82,1.82,0,0,0,2.48-2.37l-15.59-34.9a4.5,4.5,0,0,1-.25-.7,5.29,5.29,0,0,1-.21-1.48.34.34,0,0,1,0-.1,5.27,5.27,0,0,1,.62-2.41A7.56,7.56,0,0,1,131.43,102a7.45,7.45,0,0,1,.57.67l5.8,7.75L148.69,125l3,8,12.15,31.91,4.4,9.83L181,203.13A5.41,5.41,0,0,1,176.06,210.76Z"/><path class="cls-6" d="M116.14,169.63l-.51.23q-21.36,9.89-42.73-.23"/><rect class="cls-7" x="74.09" y="82.52" width="2.36" height="5.31" rx="1.18" ry="1.18"/><rect class="cls-7" x="74.09" y="89.96" width="2.36" height="5.31" rx="1.18" ry="1.18"/><rect class="cls-7" x="77.82" y="86.24" width="2.36" height="5.31" rx="1.18" ry="1.18" transform="translate(167.89 9.9) rotate(90)"/><rect class="cls-7" x="70.37" y="86.24" width="2.36" height="5.31" rx="1.18" ry="1.18" transform="translate(160.45 17.34) rotate(90)"/><rect class="cls-7" x="115.56" y="86.82" width="1.16" height="2.62" rx="0.58" ry="0.58"/><rect class="cls-7" x="115.56" y="90.49" width="1.16" height="2.62" rx="0.58" ry="0.58"/><rect class="cls-7" x="117.4" y="88.65" width="1.16" height="2.62" rx="0.58" ry="0.58" transform="translate(207.94 -28.01) rotate(90)"/><rect class="cls-7" x="113.72" y="88.65" width="1.16" height="2.62" rx="0.58" ry="0.58" transform="translate(204.27 -24.34) rotate(90)"/><rect class="cls-7" x="80.51" y="128.34" width="1.68" height="3.79" rx="0.84" ry="0.84"/><rect class="cls-7" x="80.51" y="133.65" width="1.68" height="3.79" rx="0.84" ry="0.84"/><rect class="cls-7" x="83.16" y="130.99" width="1.68" height="3.79" rx="0.84" ry="0.84" transform="translate(216.89 48.88) rotate(90)"/><rect class="cls-7" x="77.85" y="130.99" width="1.68" height="3.79" rx="0.84" ry="0.84" transform="translate(211.58 54.2) rotate(90)"/><path class="cls-6" d="M94.24,120v4.29a5.42,5.42,0,0,0,6.49,5.31h0"/><path class="cls-6" d="M69.85,106q5.31-2.3,10.62,3.45"/><path class="cls-6" d="M107.89,109.46q5.37-5.82,10.75-3.4"/><path class="cls-6" d="M82.86,151c4.15,1.52,11.78,4.07,22.87,0"/><ellipse class="cls-7" cx="94.51" cy="210.76" rx="3.18" ry="3.18"/><line class="cls-6" x1="38.14" y1="191.93" x2="100.73" y2="191.93"/><line class="cls-6" x1="105.73" y1="191.93" x2="111.47" y2="191.93"/><line class="cls-6" x1="35.31" y1="201.62" x2="61.15" y2="201.62"/><line class="cls-6" x1="56.29" y1="38.83" x2="56.29" y2="58.76"/><line class="cls-6" x1="56.29" y1="68.42" x2="56.29" y2="62.09"/><path class="cls-7" d="M12.49,18.08H9.64A1.24,1.24,0,0,1,8.4,16.85V14A1.48,1.48,0,0,0,7.2,12.5a1.4,1.4,0,0,0-1.6,1.39v3a1.24,1.24,0,0,1-1.24,1.24H1.51A1.48,1.48,0,0,0,0,19.28a1.4,1.4,0,0,0,1.39,1.6h3A1.24,1.24,0,0,1,5.6,22.12V25a1.48,1.48,0,0,0,1.2,1.49,1.4,1.4,0,0,0,1.6-1.39v-3a1.24,1.24,0,0,1,1.24-1.24h3A1.4,1.4,0,0,0,14,19.28,1.48,1.48,0,0,0,12.49,18.08Z"/><path class="cls-7" d="M186.59,123.87h-3.84a1.6,1.6,0,0,0-1.6,1.6v3.84a1.81,1.81,0,0,1-2.08,1.79,1.9,1.9,0,0,1-1.55-1.93v-3.7a1.6,1.6,0,0,0-1.6-1.6h-3.84a1.82,1.82,0,0,1-1.8-2.08,1.92,1.92,0,0,1,1.94-1.55h3.7a1.6,1.6,0,0,0,1.6-1.6V114.8A1.81,1.81,0,0,1,179.6,113a1.91,1.91,0,0,1,1.55,1.93v3.7a1.6,1.6,0,0,0,1.6,1.6h3.7a1.9,1.9,0,0,1,1.93,1.55A1.82,1.82,0,0,1,186.59,123.87Z"/><path class="cls-7" d="M188.89,14.28H186A1.24,1.24,0,0,1,184.8,13V10.19a1.47,1.47,0,0,0-1.2-1.49,1.4,1.4,0,0,0-1.6,1.38v3a1.24,1.24,0,0,1-1.24,1.24h-2.85a1.47,1.47,0,0,0-1.49,1.2,1.4,1.4,0,0,0,1.38,1.6h3A1.24,1.24,0,0,1,182,18.31v2.85a1.47,1.47,0,0,0,1.2,1.49,1.4,1.4,0,0,0,1.6-1.38v-3A1.24,1.24,0,0,1,186,17.08h3a1.4,1.4,0,0,0,1.38-1.6A1.47,1.47,0,0,0,188.89,14.28Z"/></g></g></g></svg>