<?xml version="1.0" encoding="utf-8"?>
<!-- Generator: Adobe Illustrator 24.1.2, SVG Export Plug-In . SVG Version: 6.00 Build 0)  -->
<svg version="1.1" id="Food_Delivery_Part_2" xmlns="http://www.w3.org/2000/svg" xmlns:xlink="http://www.w3.org/1999/xlink"
	 x="0px" y="0px" viewBox="0 0 24 24" style="enable-background:new 0 0 24 24;" xml:space="preserve">
<g>
	<path d="M16.905,22H7.095l-1.2-12h12.211L16.905,22z M8.905,20h6.189l0.8-8H8.105L8.905,20z"/>
</g>
<g>
	<rect x="5" y="10" width="14" height="2"/>
</g>
<g>
	<path d="M18,11h-2c0-2.206-1.794-4-4-4s-4,1.794-4,4H6c0-3.309,2.691-6,6-6S18,7.691,18,11z"/>
</g>
<g>
	<polygon points="13.381,6.196 11.42,5.804 12.18,2 18,2 18,4 13.82,4 	"/>
</g>
<g>
	<rect x="10" y="14" width="4" height="2"/>
</g>
</svg>
