<?xml version="1.0" encoding="utf-8"?>
<!-- Generator: Adobe Illustrator 24.0.0, SVG Export Plug-In . SVG Version: 6.00 Build 0)  -->
<svg version="1.1" xmlns="http://www.w3.org/2000/svg" xmlns:xlink="http://www.w3.org/1999/xlink" x="0px" y="0px"
	 viewBox="0 0 256 256" enable-background="new 0 0 256 256" xml:space="preserve">
<g id="Layer_1">
</g>
<g id="Layer_2">
</g>
<g id="Layer_3">
</g>
<g id="Layer_4">
</g>
<g id="Layer_5">
</g>
<g id="Layer_6">
</g>
<g id="Layer_7">
</g>
<g id="Layer_8">
</g>
<g id="Layer_9">
</g>
<g id="Layer_10">
</g>
<g id="Layer_11">
</g>
<g id="Layer_12">
</g>
<g id="Layer_13">
</g>
<g id="Layer_14">
</g>
<g id="Layer_15">
</g>
<g id="Layer_16">
</g>
<g id="Layer_17">
</g>
<g id="Layer_18">
</g>
<g id="Layer_19">
</g>
<g id="Layer_20">
</g>
<g id="Layer_21">
</g>
<g id="Layer_22">
</g>
<g id="Layer_23">
</g>
<g id="Layer_24">
</g>
<g id="Layer_25">
</g>
<g id="Layer_26">
	<g>
		<g>
			<g>
				<path fill="#5290DB" d="M227.59,127.639l-3.949-26.854c-0.251-1.705-1.713-2.968-3.436-2.968h-79.255
					c-1.723,0-3.186,1.263-3.436,2.968l-3.949,26.854c-0.606,4.119-0.91,8.276-0.91,12.439v109.308c0,2.272,1.842,4.114,4.114,4.114
					h19.374c2.23,0,4.043-1.771,4.11-4c1.001-33.49,13.89-84.623,19.026-103.807c0.356-1.331,2.242-1.331,2.599,0
					c5.136,19.184,18.025,70.317,19.026,103.807c0.067,2.229,1.879,4,4.109,4h19.374c2.272,0,4.114-1.842,4.114-4.114V140.078
					C228.5,135.915,228.196,131.757,227.59,127.639z"/>
			</g>
		</g>
		<g>
			<g>
				<path fill="#3A70BF" d="M220.822,88.164c0-1.681-1.375-3.056-3.056-3.056h-74.377c-1.681,0-3.056,1.375-3.056,3.056
					l-0.901,10.017c0.462-0.226,0.974-0.364,1.518-0.364h79.255c0.544,0,1.056,0.138,1.518,0.364L220.822,88.164z"/>
			</g>
		</g>
		<g>
			<g>
				<path fill="#5290DB" d="M112.816,19.438c-6.081,0-11.639-3.435-14.359-8.874l-1.336-2.672C96.785,7.219,95.837,7.19,95.46,7.84
					l-3.948,6.82c-0.77,1.329-1.94,2.381-3.344,3.005l-17.51,7.782c12.02,30.597-4.371,83.049-4.371,83.049v24.12
					c0,2.37,1.921,4.292,4.292,4.292h44.336V19.438H112.816z"/>
			</g>
		</g>
		<g>
			<g>
				<path fill="#F5C84C" d="M70.579,136.908c-0.16,0-0.312-0.03-0.467-0.047v10.085c0,2.603,2.11,4.714,4.714,4.714h40.089v-14.752
					H70.579z"/>
			</g>
		</g>
		<g>
			<g>
				<path fill="#F5C84C" d="M70.658,25.448c0,0-29.828,29.828-40.575,99.475c-0.242,1.567,0.664,3.09,2.151,3.638l15.924,5.867
					c1.378,0.508,2.922,0.062,3.811-1.107c3.09-4.062,10.14-13.964,14.317-24.824C66.287,108.497,82.678,56.045,70.658,25.448z"/>
			</g>
		</g>
		<g>
			<g>
				<path fill="#FCDD86" d="M48.159,134.428l-15.924-5.867c-0.391-0.144-0.739-0.358-1.039-0.62l-3.493,9.731
					c-0.642,1.789,0.288,3.76,2.077,4.402l11.558,4.149c1.789,0.642,3.76-0.288,4.403-2.077l3.416-9.518
					C48.822,134.612,48.486,134.549,48.159,134.428z"/>
			</g>
		</g>
		<g>
			<g>
				<path fill="#3A70BF" d="M114.915,2.5c-7.725,0-14.556,1.929-18.821,4.891c0.391-0.076,0.823,0.091,1.027,0.501l1.336,2.672
					c2.719,5.439,8.278,8.874,14.359,8.874h4.198c6.081,0,11.639-3.435,14.358-8.874l1.336-2.672
					c0.205-0.409,0.636-0.577,1.028-0.501C129.471,4.429,122.64,2.5,114.915,2.5z"/>
			</g>
		</g>
		<g>
			<g>
				<path fill="#F5C84C" d="M140.949,97.816c-1.723,0-3.186,1.263-3.436,2.968l-3.949,26.854c-0.606,4.119-0.91,8.276-0.91,12.439
					v109.308c0,2.272,1.842,4.114,4.114,4.114h5.417V140.078c0-4.163,0.304-8.321,0.91-12.439l3.949-26.854
					c0.251-1.705,1.713-2.968,3.436-2.968H140.949z"/>
			</g>
		</g>
		<g>
			<g>
				<path fill="#F5C84C" d="M227.59,127.639l-3.949-26.854c-0.251-1.705-1.713-2.968-3.436-2.968h-9.532
					c1.723,0,3.186,1.263,3.436,2.968l3.949,26.854c0.606,4.119,0.91,8.276,0.91,12.439V253.5h5.417
					c2.272,0,4.114-1.842,4.114-4.114V140.078C228.5,135.915,228.196,131.757,227.59,127.639z"/>
			</g>
		</g>
		<g>
			<g>
				<path fill="#F5C84C" d="M159.171,25.448c-6.826,17.376-4.489,41.797-1.195,59.66h32.575
					C177.456,43.74,159.171,25.448,159.171,25.448z"/>
			</g>
		</g>
		<g>
			<g>
				<path fill="#5290DB" d="M159.171,25.448l-17.51-7.782c-1.404-0.624-2.574-1.676-3.344-3.005l-3.948-6.82
					c-0.376-0.65-1.325-0.621-1.661,0.051l-1.336,2.672c-2.719,5.439-8.278,8.874-14.358,8.874h-2.099v117.471h17.799
					c0.115-3.102,0.398-6.197,0.85-9.27l3.949-26.854c0.172-1.166,0.917-2.114,1.918-2.604l0.901-10.017
					c0-1.681,1.375-3.056,3.056-3.056h14.587C154.682,67.244,152.345,42.824,159.171,25.448z"/>
			</g>
		</g>
		<g>
			<g>
				<path fill="#F5C84C" d="M114.915,136.908v14.752h17.739v-11.583c0-1.057,0.02-2.114,0.06-3.169H114.915z"/>
			</g>
		</g>
		<g>
			<g>
				<path fill="#DAE6F1" d="M112.816,19.438c-6.081,0-11.639-3.435-14.358-8.874l-1.336-2.672C96.785,7.219,95.837,7.19,95.46,7.84
					l-3.948,6.82c-0.77,1.33-1.94,2.382-3.344,3.005l-17.51,7.782c4.604,11.718,5.038,26.641,3.823,40.597h40.433V19.438H112.816z"
					/>
			</g>
		</g>
		<g>
			<g>
				<path fill="#DAE6F1" d="M159.171,25.448l-17.51-7.782c-1.404-0.624-2.574-1.676-3.344-3.005l-3.948-6.82
					c-0.376-0.65-1.325-0.621-1.661,0.051l-1.336,2.672c-2.719,5.439-8.278,8.874-14.358,8.874h-2.099v46.607h40.433
					C154.133,52.089,154.567,37.166,159.171,25.448z"/>
			</g>
		</g>
		<g>
			<g>
				<path fill="#FC8C48" d="M140.712,45.922h-12.409c-1.253,0-2.268,1.015-2.268,2.268v4.995c0,1.253,1.015,2.268,2.268,2.268
					h12.409c1.253,0,2.268-1.016,2.268-2.268V48.19C142.98,46.937,141.965,45.922,140.712,45.922z"/>
			</g>
		</g>
		<g>
			<g>
				<path fill="#5290DB" d="M138.317,14.661l-3.948-6.82c-0.376-0.65-1.325-0.621-1.661,0.051l-1.336,2.672
					c-2.719,5.439-8.278,8.874-14.358,8.874h-2.099V34.7c14.553-0.524,22.062-11.338,25.293-17.923
					C139.453,16.2,138.799,15.493,138.317,14.661z"/>
			</g>
		</g>
		<g>
			<g>
				<path fill="#5290DB" d="M112.816,19.438c-6.081,0-11.639-3.435-14.359-8.874l-1.336-2.672C96.785,7.219,95.837,7.19,95.46,7.84
					l-3.948,6.82c-0.482,0.833-1.135,1.539-1.891,2.117c3.231,6.585,10.741,17.398,25.293,17.923V19.438H112.816z"/>
			</g>
		</g>
		<g>
			<g>
				<g>
					<g>
						<path d="M230.064,127.275l-3.949-26.854c-0.428-2.91-2.968-5.105-5.91-5.105h-79.255c-2.941,0-5.482,2.195-5.909,5.104
							l-3.949,26.854c-0.622,4.223-0.937,8.53-0.937,12.803v109.308c0,3.647,2.967,6.614,6.614,6.614h19.374
							c3.598,0,6.5-2.822,6.608-6.426c0.923-30.884,12.009-76.827,17.826-99.022c5.817,22.196,16.903,68.139,17.826,99.022
							c0.107,3.604,3.01,6.426,6.608,6.426h19.374c3.647,0,6.614-2.967,6.614-6.614V140.078
							C231,135.809,230.685,131.501,230.064,127.275z M226,249.386c0,0.89-0.724,1.614-1.614,1.614h-19.374
							c-0.877,0-1.584-0.692-1.61-1.575c-1.002-33.523-13.698-84.163-19.11-104.378c-0.457-1.706-1.95-2.852-3.714-2.852
							s-3.257,1.146-3.714,2.852c-5.412,20.216-18.108,70.855-19.11,104.378c-0.026,0.884-0.734,1.576-1.61,1.576h-19.374
							c-0.89,0-1.614-0.724-1.614-1.614V140.078c0-4.03,0.297-8.093,0.883-12.076l3.949-26.854c0.069-0.474,0.483-0.832,0.962-0.832
							h79.255c0.479,0,0.894,0.357,0.963,0.832l3.949,26.854c0.586,3.986,0.883,8.049,0.883,12.076V249.386z"/>
					</g>
				</g>
			</g>
		</g>
		<g>
			<g>
				<path d="M223.32,88.036c-0.068-3.005-2.534-5.428-5.555-5.428h-74.377c-3.021,0-5.486,2.423-5.555,5.428l-0.86,9.557
					c-0.124,1.375,0.891,2.59,2.266,2.714c1.371,0.122,2.59-0.89,2.714-2.266l0.869-9.652c0.007-0.075,0.01-0.149,0.01-0.224
					c0-0.302,0.255-0.557,0.556-0.557h74.377c0.301,0,0.556,0.255,0.556,0.557c0,0.075,0.003,0.149,0.01,0.224l0.869,9.655
					c0.117,1.299,1.208,2.276,2.487,2.276c0.075,0,0.151-0.003,0.227-0.01c1.375-0.124,2.39-1.338,2.266-2.714L223.32,88.036z"/>
			</g>
		</g>
		<g>
			<g>
				<path fill="#F5C84C" d="M219.8,50.85c-4.5-0.8-8-4.3-8.9-8.7c0-0.2-0.4-0.2-0.4,0c-0.9,4.4-4.4,7.9-8.9,8.7
					c-0.2,0-0.2,0.3,0,0.4c4.5,0.8,8,4.3,8.9,8.7c0,0.2,0.4,0.2,0.4,0c0.9-4.4,4.4-7.9,8.9-8.7C220,51.15,220,50.85,219.8,50.85z"/>
			</g>
		</g>
		<g>
			<g>
				<path fill="#FC657E" d="M77.275,7.449c-2.262-0.402-4.022-2.162-4.475-4.374c0-0.101-0.201-0.101-0.201,0
					c-0.453,2.212-2.212,3.972-4.475,4.374c-0.101,0-0.101,0.151,0,0.201c2.262,0.402,4.022,2.162,4.475,4.374
					c0,0.1,0.201,0.1,0.201,0c0.452-2.212,2.212-3.972,4.475-4.374C77.376,7.6,77.376,7.449,77.275,7.449z"/>
			</g>
		</g>
		<g>
			<g>
				<path fill="#70D6F9" d="M106.2,171.9h-2.3v-2.3c0-1.7-1.4-3.2-3.2-3.2s-3.2,1.4-3.2,3.2v2.3h-2.3c-1.7,0-3.2,1.4-3.2,3.2
					s1.4,3.2,3.2,3.2h2.3v2.3c0,1.7,1.4,3.2,3.2,3.2s3.2-1.4,3.2-3.2v-2.3h2.3c1.7,0,3.2-1.4,3.2-3.2S108,171.9,106.2,171.9z"/>
			</g>
		</g>
		<g>
			<g>
				<path fill="#87D147" d="M193.8,28.5c-1.878,0-3.4,1.522-3.4,3.4c0,1.878,1.522,3.4,3.4,3.4c1.878,0,3.4-1.522,3.4-3.4
					C197.2,30.022,195.678,28.5,193.8,28.5z"/>
			</g>
		</g>
		<g>
			<g>
				<path fill="#FC657E" d="M112.8,197.5c-1.878,0-3.4,1.522-3.4,3.4c0,1.878,1.522,3.4,3.4,3.4c1.878,0,3.4-1.522,3.4-3.4
					C116.2,199.022,114.678,197.5,112.8,197.5z"/>
			</g>
		</g>
		<g>
			<g>
				<path d="M114.915,134.409H70.579c-0.988,0-1.792-0.804-1.792-1.792v-23.743c1.534-5.026,15.298-51.906,5.021-82.09l15.374-6.833
					c1.898-0.843,3.452-2.239,4.493-4.037l2.501-4.321l0.044,0.089c3.163,6.326,9.521,10.256,16.595,10.256h2.099
					c1.381,0,2.5-1.119,2.5-2.5s-1.119-2.5-2.5-2.5h-2.099c-5.167,0-9.812-2.871-12.123-7.492l-1.336-2.672
					C98.79,5.639,97.65,4.91,96.382,4.871c-1.258-0.024-2.45,0.619-3.085,1.717l-3.949,6.82c-0.509,0.878-1.268,1.561-2.195,1.973
					l-17.51,7.782c-1.223,0.543-1.801,1.954-1.312,3.199c11.556,29.416-4.27,80.874-4.431,81.39
					c-0.075,0.241-0.114,0.493-0.114,0.746v24.12c0,3.745,3.047,6.792,6.792,6.792h44.335c1.381,0,2.5-1.119,2.5-2.5
					S116.295,134.409,114.915,134.409z"/>
			</g>
		</g>
		<g>
			<g>
				<path d="M114.915,149.161H74.826c-1.221,0-2.214-0.993-2.214-2.214v-7.538h42.303c1.381,0,2.5-1.119,2.5-2.5s-1.119-2.5-2.5-2.5
					l-44.324-0.006l-0.206-0.026c-0.708-0.08-1.413,0.148-1.942,0.623c-0.529,0.474-0.832,1.151-0.832,1.862v10.085
					c0,3.978,3.236,7.214,7.214,7.214h40.089c1.381,0,2.5-1.119,2.5-2.5S116.295,149.161,114.915,149.161z"/>
			</g>
		</g>
		<g>
			<g>
				<path d="M72.426,23.68c-0.976-0.977-2.56-0.977-3.535,0c-1.242,1.241-30.53,31.207-41.278,100.862
					c-0.421,2.73,1.159,5.408,3.758,6.365l15.924,5.867c0.669,0.247,1.358,0.366,2.038,0.366c1.781,0,3.497-0.819,4.628-2.305
					c2.852-3.749,9.955-13.648,14.323-24.581c0.513-1.282-0.111-2.737-1.394-3.249c-1.281-0.512-2.736,0.112-3.249,1.394
					c-4.142,10.363-10.933,19.823-13.66,23.409c-0.223,0.294-0.609,0.405-0.958,0.275L33.1,126.216
					c-0.376-0.139-0.605-0.522-0.545-0.911c10.475-67.886,39.581-97.797,39.872-98.089C73.402,26.239,73.402,24.656,72.426,23.68z"
					/>
			</g>
		</g>
		<g>
			<g>
				<path d="M49.861,132.666c-1.298-0.465-2.731,0.208-3.197,1.508l-3.275,9.126c-0.175,0.49-0.716,0.746-1.205,0.569l-11.558-4.148
					c-0.489-0.176-0.744-0.716-0.569-1.205l3.388-9.439c0.466-1.3-0.209-2.731-1.508-3.198c-1.3-0.465-2.731,0.209-3.198,1.508
					l-3.388,9.44c-1.106,3.083,0.502,6.493,3.585,7.6l11.559,4.148c0.661,0.237,1.336,0.35,2,0.35c2.438,0,4.729-1.512,5.6-3.936
					l3.275-9.126C51.836,134.564,51.161,133.132,49.861,132.666z"/>
			</g>
		</g>
		<g>
			<g>
				<path d="M134.866,5.136C129.984,1.872,122.712,0,114.915,0C107.088,0,99.8,1.883,94.918,5.166
					c-1.146,0.771-1.45,2.324-0.68,3.47c0.483,0.718,1.272,1.105,2.077,1.105c0.479,0,0.965-0.138,1.393-0.426
					C101.726,6.613,108.158,5,114.915,5c6.733,0,13.152,1.604,17.172,4.292c1.149,0.769,2.701,0.459,3.468-0.688
					C136.322,7.456,136.014,5.903,134.866,5.136z"/>
			</g>
		</g>
		<g>
			<g>
				<path d="M152.227,97.383c-0.279-1.352-1.598-2.221-2.954-1.944c-2.448,0.505-4.338,2.507-4.702,4.981l-3.948,26.854
					c-0.622,4.225-0.937,8.533-0.937,12.803V252.5c0,1.381,1.119,2.5,2.5,2.5s2.5-1.119,2.5-2.5V140.078
					c0-4.028,0.297-8.091,0.884-12.076l3.948-26.854c0.06-0.403,0.367-0.729,0.765-0.812
					C151.635,100.058,152.505,98.735,152.227,97.383z"/>
			</g>
		</g>
		<g>
			<g>
				<path d="M220.532,127.275l-3.95-26.854c-0.336-2.288-1.984-4.193-4.199-4.855c-1.324-0.395-2.716,0.357-3.111,1.68
					c-0.395,1.323,0.357,2.716,1.68,3.111c0.36,0.107,0.629,0.418,0.684,0.792l3.95,26.854c0.586,3.983,0.883,8.045,0.883,12.076
					v112.255c0,1.381,1.119,2.5,2.5,2.5s2.5-1.119,2.5-2.5V140.078C221.468,135.805,221.153,131.498,220.532,127.275z"/>
			</g>
		</g>
		<g>
			<g>
				<path d="M192.762,83.81c-13.117-41.095-31.065-59.372-31.823-60.13c-0.974-0.974-2.554-0.976-3.532-0.001
					c-0.977,0.974-0.979,2.556-0.006,3.534c0.177,0.179,17.887,18.293,30.598,58.118c0.339,1.063,1.322,1.74,2.381,1.74
					c0.251,0,0.508-0.038,0.761-0.119C192.456,86.532,193.182,85.125,192.762,83.81z"/>
			</g>
		</g>
		<g>
			<g>
				<path d="M160.186,23.163l-17.51-7.782c-0.928-0.412-1.687-1.094-2.195-1.973l-3.948-6.82c-0.635-1.097-1.792-1.738-3.084-1.717
					c-1.268,0.038-2.408,0.767-2.977,1.902l-1.336,2.672c-2.31,4.622-6.955,7.492-12.122,7.492h-2.099c-1.381,0-2.5,1.119-2.5,2.5
					v117.471c0,1.381,1.119,2.5,2.5,2.5h17.003c1.381,0,2.5-1.119,2.5-2.5s-1.119-2.5-2.5-2.5h-14.503V21.933
					c6.912-0.145,13.091-4.045,16.194-10.252l0.044-0.088l2.501,4.32c1.04,1.797,2.594,3.193,4.492,4.037l15.375,6.833
					c-6.002,17.669-3.696,41.24-0.604,58.234c0.248,1.358,1.547,2.262,2.907,2.012c1.358-0.247,2.259-1.549,2.012-2.907
					c-3.109-17.087-5.432-40.979,1.161-57.76C161.987,25.117,161.409,23.707,160.186,23.163z"/>
			</g>
		</g>
		<g>
			<g>
				<path d="M131.906,149.161h-16.992c-1.381,0-2.5,1.119-2.5,2.5s1.119,2.5,2.5,2.5h16.992c1.381,0,2.5-1.119,2.5-2.5
					S133.287,149.161,131.906,149.161z"/>
			</g>
		</g>
		<g>
			<g>
				<path d="M114.292,63.544H75.063c-1.381,0-2.5,1.119-2.5,2.5s1.119,2.5,2.5,2.5h39.229c1.381,0,2.5-1.119,2.5-2.5
					S115.672,63.544,114.292,63.544z"/>
			</g>
		</g>
		<g>
			<g>
				<path d="M154.767,63.544h-39.06c-1.381,0-2.5,1.119-2.5,2.5s1.119,2.5,2.5,2.5h39.06c1.381,0,2.5-1.119,2.5-2.5
					S156.148,63.544,154.767,63.544z"/>
			</g>
		</g>
		<g>
			<g>
				<g>
					<g>
						<path d="M140.712,43.422h-12.409c-2.629,0-4.769,2.139-4.769,4.768v4.996c0,2.629,2.139,4.768,4.769,4.768h12.409
							c2.629,0,4.768-2.139,4.768-4.768V48.19C145.48,45.561,143.341,43.422,140.712,43.422z M140.48,52.954h-11.945v-4.532h11.945
							V52.954z"/>
					</g>
				</g>
			</g>
		</g>
		<g>
			<g>
				<path d="M141.149,14.913c-1.235-0.621-2.736-0.124-3.357,1.109c-2.875,5.712-9.602,15.406-22.356,16.152
					c-1.378,0.081-2.43,1.263-2.35,2.642c0.078,1.329,1.179,2.354,2.493,2.354c0.049,0,0.099-0.001,0.148-0.004
					c15.259-0.892,23.172-12.221,26.53-18.895C142.879,17.036,142.383,15.533,141.149,14.913z"/>
			</g>
		</g>
		<g>
			<g>
				<path d="M114.655,32.187c-12.155-0.592-18.941-8.984-22.494-15.92c-0.63-1.229-2.137-1.714-3.365-1.085
					c-1.229,0.629-1.715,2.136-1.085,3.365c3.401,6.639,11.392,17.888,26.701,18.635c0.042,0.002,0.083,0.003,0.124,0.003
					c1.325,0,2.43-1.041,2.495-2.378C117.098,33.427,116.035,32.254,114.655,32.187z"/>
			</g>
		</g>
	</g>
</g>
<g id="Layer_27">
</g>
<g id="Layer_28">
</g>
<g id="Layer_29">
</g>
<g id="Layer_30">
</g>
<g id="Layer_31">
</g>
<g id="Layer_32">
</g>
<g id="Layer_33">
</g>
<g id="Layer_34">
</g>
<g id="Layer_35">
</g>
<g id="Layer_36">
</g>
<g id="Layer_37">
</g>
<g id="Layer_38">
</g>
<g id="Layer_39">
</g>
<g id="Layer_40">
</g>
<g id="Layer_41">
</g>
<g id="Layer_42">
</g>
<g id="Layer_43">
</g>
<g id="Layer_44">
</g>
<g id="Layer_45">
</g>
<g id="Layer_46">
</g>
<g id="Layer_47">
</g>
<g id="Layer_48">
</g>
<g id="Layer_49">
</g>
<g id="Layer_50">
</g>
<g id="Layer_51">
</g>
<g id="Layer_52">
</g>
<g id="Layer_53">
</g>
<g id="Layer_54">
</g>
<g id="Layer_55">
</g>
<g id="Layer_56">
</g>
<g id="Layer_57">
</g>
<g id="Layer_58">
</g>
<g id="Layer_59">
</g>
<g id="Layer_60">
</g>
<g id="Layer_61">
</g>
<g id="Layer_62">
</g>
<g id="Layer_63">
</g>
<g id="Layer_64">
</g>
<g id="Layer_65">
</g>
<g id="Layer_66">
</g>
<g id="Layer_67">
</g>
<g id="Layer_68">
</g>
<g id="Layer_69">
</g>
<g id="Layer_70">
</g>
<g id="Layer_71">
</g>
<g id="Layer_72">
</g>
<g id="Layer_73">
</g>
<g id="Layer_74">
</g>
<g id="Layer_75">
</g>
</svg>
