<?xml version="1.0" encoding="iso-8859-1"?>
<!-- Generator: Adobe Illustrator 19.0.0, SVG Export Plug-In . SVG Version: 6.00 Build 0)  -->
<svg version="1.1" id="Layer_1" xmlns="http://www.w3.org/2000/svg" xmlns:xlink="http://www.w3.org/1999/xlink" x="0px" y="0px"
	 viewBox="0 0 512.002 512.002" style="enable-background:new 0 0 512.002 512.002;" xml:space="preserve">
<path style="fill:#FFD267;" d="M121.269,477.518l88.399-401.289c1.07-4.851,5.372-8.306,10.342-8.306h71.982
	c4.972,0,9.272,3.454,10.342,8.306l88.398,401.289H121.269z"/>
<path style="opacity:0.1;enable-background:new    ;" d="M252.461,67.924H220.01c-4.972,0-9.272,3.454-10.342,8.306l-88.398,401.289
	h32.451L242.12,76.229C243.189,71.378,247.49,67.924,252.461,67.924z"/>
<ellipse style="fill:#FFD267;" cx="101.513" cy="133.371" rx="14.435" ry="14.424"/>
<g>
	<ellipse style="fill:#FFFF00;" cx="148.836" cy="133.371" rx="14.436" ry="14.424"/>
	<ellipse style="fill:#FFFF00;" cx="367.523" cy="133.371" rx="14.436" ry="14.424"/>
</g>
<g>
	<ellipse style="fill:#FFD267;" cx="414.836" cy="133.371" rx="14.437" ry="14.424"/>
	<ellipse style="fill:#FFD267;" cx="123.968" cy="22.261" rx="14.435" ry="14.423"/>
</g>
<g>
	<ellipse style="fill:#FFFF00;" cx="171.291" cy="22.261" rx="14.436" ry="14.423"/>
	<ellipse style="fill:#FFFF00;" cx="333.564" cy="22.261" rx="14.436" ry="14.423"/>
</g>
<ellipse style="fill:#FFD267;" cx="380.887" cy="22.261" rx="14.436" ry="14.423"/>
<g>
	<path style="fill:#52676D;" d="M154.428,498.889c0,2.913-2.361,5.275-5.277,5.275H84.778c-2.914,0-5.277-2.361-5.277-5.275v-10.549
		c0-2.913,2.363-5.275,5.277-5.275h64.373c2.915,0,5.277,2.361,5.277,5.275V498.889z"/>
	<path style="fill:#52676D;" d="M432.501,498.889c0,2.913-2.363,5.275-5.277,5.275h-64.373c-2.915,0-5.277-2.361-5.277-5.275
		v-10.549c0-2.913,2.361-5.275,5.277-5.275h64.373c2.914,0,5.277,2.361,5.277,5.275V498.889z"/>
</g>
<path d="M447.418,164.532h-24.742v-10.349c8.422-3.179,14.437-11.295,14.437-20.81c0-12.274-9.992-22.259-22.274-22.259
	c-12.282,0-22.273,9.986-22.273,22.259c0,9.515,6.015,17.632,14.436,20.81v10.35h-31.646v-10.35
	c8.421-3.179,14.436-11.295,14.436-20.81c0-12.274-9.992-22.259-22.273-22.259s-22.273,9.986-22.273,22.259
	c0,9.515,6.015,17.632,14.436,20.81v10.35h-29.547l-19.445-88.269h96.698c4.329,0,7.837-3.509,7.837-7.837s-3.508-7.837-7.837-7.837
	h-18.665V43.07c8.42-3.179,14.435-11.295,14.435-20.81C403.16,9.986,393.168,0,380.888,0c-12.282,0-22.273,9.986-22.273,22.261
	c0,9.515,6.015,17.632,14.436,20.81v17.519h-31.646V43.07c8.42-3.179,14.435-11.295,14.435-20.81C355.841,9.986,345.849,0,333.568,0
	c-12.282,0-22.273,9.986-22.273,22.261c0,9.515,6.015,17.632,14.436,20.81v17.519h-33.387h-3.18V47.328
	c0-4.328-3.508-7.837-7.837-7.837c-4.329,0-7.837,3.509-7.837,7.837v13.261h-34.982V47.328c0-4.328-3.508-7.837-7.837-7.837
	c-4.329,0-7.837,3.509-7.837,7.837v13.261h-3.18h-40.528V43.07c8.421-3.179,14.436-11.295,14.436-20.81
	C193.564,9.986,183.573,0,171.291,0s-22.273,9.986-22.273,22.261c0,9.515,6.015,17.632,14.436,20.81v17.519h-31.646V43.07
	c8.42-3.179,14.435-11.295,14.435-20.81C146.244,9.986,136.252,0,123.972,0s-22.273,9.986-22.273,22.261
	c0,9.515,6.015,17.631,14.435,20.81v17.52h-11.522c-4.329,0-7.837,3.509-7.837,7.837s3.508,7.837,7.837,7.837h96.698l-19.445,88.269
	H156.67v-10.35c8.421-3.179,14.436-11.295,14.436-20.81c0-12.274-9.992-22.259-22.273-22.259s-22.272,9.986-22.272,22.259
	c0,9.515,6.015,17.632,14.435,20.81v10.35h-31.646v-10.35c8.42-3.179,14.435-11.295,14.435-20.81
	c0-12.274-9.992-22.259-22.272-22.259s-22.272,9.986-22.272,22.259c0,9.515,6.015,17.632,14.435,20.81v10.35H64.584
	c-4.329,0-7.837,3.509-7.837,7.837s3.508,7.837,7.837,7.837h113.829l-64.99,295.024H84.778c-7.231,0-13.113,5.882-13.113,13.111
	v10.549c0,7.23,5.883,13.111,13.113,13.111h64.373c7.231,0,13.113-5.882,13.113-13.111v-10.549c0-7.23-5.883-13.111-13.113-13.111
	h-19.679l7.92-35.955h237.217l7.92,35.955h-19.679c-7.231,0-13.113,5.882-13.113,13.111v10.549c0,7.23,5.883,13.111,13.113,13.111
	h64.373c7.231,0,13.113-5.882,13.113-13.111v-10.549c0-7.23-5.883-13.111-13.113-13.111h-28.646l-64.99-295.024h113.829
	c4.329,0,7.837-3.509,7.837-7.837C455.255,168.042,451.747,164.532,447.418,164.532z M414.84,126.786
	c3.639,0,6.601,2.955,6.601,6.586c0,3.632-2.961,6.587-6.601,6.587c-3.638,0-6.6-2.955-6.6-6.587
	C408.24,129.741,411.201,126.786,414.84,126.786z M367.521,126.786c3.638,0,6.6,2.955,6.6,6.586c0,3.632-2.961,6.587-6.6,6.587
	c-3.638,0-6.6-2.955-6.6-6.587C360.92,129.741,363.882,126.786,367.521,126.786z M380.888,15.673c3.638,0,6.599,2.955,6.599,6.587
	s-2.96,6.586-6.599,6.586s-6.6-2.955-6.6-6.586C374.288,18.628,377.249,15.673,380.888,15.673z M333.568,15.673
	c3.638,0,6.599,2.955,6.599,6.587s-2.96,6.586-6.599,6.586s-6.6-2.955-6.6-6.586C326.968,18.628,329.93,15.673,333.568,15.673z
	 M171.291,15.673c3.638,0,6.6,2.955,6.6,6.587s-2.961,6.586-6.6,6.586s-6.6-2.955-6.6-6.586
	C164.691,18.628,167.652,15.673,171.291,15.673z M123.972,15.673c3.638,0,6.599,2.955,6.599,6.587s-2.96,6.586-6.599,6.586
	s-6.599-2.955-6.599-6.586C117.372,18.628,120.333,15.673,123.972,15.673z M148.834,126.786c3.638,0,6.6,2.955,6.6,6.586
	c0,3.632-2.961,6.587-6.6,6.587c-3.638,0-6.599-2.955-6.599-6.587C142.235,129.741,145.195,126.786,148.834,126.786z
	 M101.514,126.786c3.638,0,6.599,2.955,6.599,6.586c0,3.632-2.96,6.587-6.599,6.587s-6.599-2.955-6.599-6.587
	C94.915,129.741,97.876,126.786,101.514,126.786z M146.591,496.327H87.338v-5.424h59.253V496.327z M424.664,496.327h-59.253v-5.424
	h59.253V496.327z M238.792,367.084c-2.13-3.769-6.912-5.097-10.678-2.969l-84.707,47.852l22.042-100.061l191.767,111.694H154.68
	l81.142-45.839C239.591,375.633,240.92,370.852,238.792,367.084z M279.521,76.263c-3.571,3.519-7.123,7.021-10.249,10.144
	c-3.063,3.059-3.065,8.021-0.005,11.083c1.531,1.532,3.537,2.298,5.544,2.298c2.004,0,4.009-0.764,5.539-2.293
	c3.274-3.271,13.994-13.834,15.579-15.401l16.288,73.94l-79.845-79.772H279.521z M298.545,164.532h-85.416
	c3.077-3.022,23.747-22.973,30.861-30.51c2.971-3.147,2.827-8.107-0.32-11.079c-3.146-2.97-8.106-2.829-11.079,0.32
	c-6.862,7.268-28.835,28.467-32.701,32.3l16.177-73.433L298.545,164.532z M240.119,238.493c-2.743-3.347-7.681-3.835-11.029-1.092
	l-57.634,47.246l22.204-100.796l130.624,107.656H187.81l51.217-41.985C242.374,246.778,242.863,241.841,240.119,238.493z
	 M188.478,307.18h136.694l-48.709,28.047c-3.751,2.16-5.041,6.951-2.881,10.702c1.45,2.518,4.087,3.928,6.798,3.928
	c1.327,0,2.672-0.337,3.903-1.047l62.474-35.974l21.868,99.271L188.478,307.18z M213.878,180.205h84.134
	c-0.275,0.223-16.706,13.531-25.148,20.717c-3.296,2.806-3.694,7.751-0.888,11.048c1.55,1.821,3.753,2.757,5.972,2.757
	c1.796,0,3.601-0.613,5.075-1.869c8.295-7.061,16.292-13.538,24.024-19.801c3.689-2.987,7.462-6.048,11.298-9.192l22.188,100.727
	L213.878,180.205z"/>
<g>
</g>
<g>
</g>
<g>
</g>
<g>
</g>
<g>
</g>
<g>
</g>
<g>
</g>
<g>
</g>
<g>
</g>
<g>
</g>
<g>
</g>
<g>
</g>
<g>
</g>
<g>
</g>
<g>
</g>
</svg>
