<?xml version="1.0" encoding="utf-8"?>
<!-- Generator: Adobe Illustrator 22.0.0, SVG Export Plug-In . SVG Version: 6.00 Build 0)  -->
<svg version="1.1" id="Layer_1" xmlns="http://www.w3.org/2000/svg" xmlns:xlink="http://www.w3.org/1999/xlink" x="0px" y="0px"
	 viewBox="0 0 500 500" style="enable-background:new 0 0 500 500;" xml:space="preserve">
<style type="text/css">
	.st0{fill:#AAB1BA;}
	.st1{fill:#FDDF7F;}
	.st2{fill:#ECF4F7;}
	.st3{fill:#83E1E5;}
	.st4{fill:#1C1D21;}
	.st5{fill:none;}
</style>
<g>
	<path class="st0" d="M389.539,268.341c0,0.001-0.001,0.003-0.001,0.004c4.638-15.019,7.138-30.975,7.138-47.517
		c0-88.83-72.011-160.842-160.842-160.842h-44.638c88.831,0,160.842,72.012,160.842,160.842S280.026,381.67,191.196,381.67H30.354
		V495h439.292V381.67V268.341H389.539z"/>
</g>
<g>
	<rect x="30.354" y="467.577" class="st2" width="439.292" height="27.422"/>
</g>
<path class="st2" d="M333.521,295.763h136.125v-27.422h-80.107h-44.658c4.64-15.018,7.157-30.969,7.157-47.512
	c0-88.831-72.011-160.842-160.842-160.842c-88.831,0-160.842,72.011-160.842,160.842S102.365,381.67,191.196,381.67H30.354v27.422
	h439.292V381.67v-27.422H281.017C302.986,339.428,321.086,319.321,333.521,295.763z"/>
<g>
	<circle class="st0" cx="191.196" cy="129.03" r="30.925"/>
</g>
<g>
	<circle class="st0" cx="141.893" cy="299.266" r="30.925"/>
</g>
<g>
	<circle class="st0" cx="240.499" cy="299.266" r="30.925"/>
</g>
<g>
	<circle class="st0" cx="284.224" cy="197.019" r="30.925"/>
</g>
<g>
	<circle class="st0" cx="98.168" cy="197.019" r="30.925"/>
</g>
<g>
	<circle class="st0" cx="191.196" cy="220.462" r="29.697"/>
</g>
<path class="st4" d="M233.466,16.535c0-2.761,2.238-5,5-5H245V5c0-2.761,2.238-5,5-5s5,2.239,5,5v6.535h6.534c2.762,0,5,2.239,5,5
	s-2.238,5-5,5H255v6.534c0,2.761-2.238,5-5,5s-5-2.239-5-5v-6.534h-6.534C235.704,21.535,233.466,19.296,233.466,16.535z
	 M411.348,123.616h6.534v6.535c0,2.761,2.238,5,5,5s5-2.239,5-5v-6.535h6.534c2.762,0,5-2.239,5-5s-2.238-5-5-5h-6.534v-6.535
	c0-2.761-2.238-5-5-5s-5,2.239-5,5v6.535h-6.534c-2.762,0-5,2.239-5,5S408.586,123.616,411.348,123.616z M469.646,490H30.354
	c-2.762,0-5,2.239-5,5s2.238,5,5,5h439.291c2.762,0,5-2.239,5-5S472.407,490,469.646,490z M403.036,414.092v48.485h66.609
	c2.762,0,5,2.239,5,5s-2.238,5-5,5H30.354c-2.762,0-5-2.239-5-5s2.238-5,5-5h66.609v-48.485H30.354c-2.762,0-5-2.239-5-5
	s2.238-5,5-5h439.291c2.762,0,5,2.239,5,5s-2.238,5-5,5H403.036z M255,462.577h64.018v-48.485H255V462.577z M245,414.092h-64.018
	v48.485H245V414.092z M106.964,462.577h64.019v-48.485h-64.019V462.577z M393.036,414.092h-64.019v48.485h64.019V414.092z
	 M469.646,300.763c2.762,0,5-2.239,5-5s-2.238-5-5-5H353.049c-2.762,0-5,2.239-5,5s2.238,5,5,5h38.626v48.485h-81.521
	c-2.762,0-5,2.239-5,5s2.238,5,5,5h159.492c2.762,0,5-2.239,5-5s-2.238-5-5-5h-67.971v-48.485H469.646z M474.646,381.67
	c0,2.761-2.238,5-5,5H53.804c-2.762,0-5-2.239-5-5s2.238-5,5-5h80.655C70.871,353.447,25.354,292.354,25.354,220.828
	c0-91.445,74.396-165.842,165.842-165.842h44.637c91.445,0,165.842,74.396,165.842,165.842c0,10.78-1.041,21.561-3.094,32.043
	c-0.532,2.711-3.168,4.476-5.868,3.946c-2.71-0.531-4.477-3.158-3.946-5.868c1.93-9.851,2.908-19.985,2.908-30.122
	c0-81.311-62.587-148.276-142.12-155.243c0.579,0.218,1.153,0.446,1.728,0.671c0.296,0.115,0.593,0.228,0.888,0.344
	c1.135,0.45,2.264,0.912,3.386,1.386c0.225,0.095,0.447,0.194,0.671,0.29c0.904,0.387,1.803,0.781,2.699,1.183
	c0.363,0.163,0.724,0.329,1.086,0.494c0.787,0.36,1.57,0.727,2.35,1.099c0.346,0.165,0.693,0.329,1.038,0.496
	c1.004,0.488,2.003,0.984,2.997,1.491c0.09,0.046,0.18,0.09,0.27,0.135c1.077,0.553,2.145,1.12,3.208,1.695
	c0.322,0.174,0.641,0.352,0.961,0.528c0.761,0.418,1.519,0.842,2.273,1.272c0.351,0.2,0.701,0.4,1.049,0.603
	c0.794,0.461,1.583,0.929,2.369,1.402c0.26,0.156,0.521,0.31,0.78,0.468c1.027,0.626,2.046,1.263,3.058,1.911
	c0.236,0.151,0.47,0.307,0.705,0.459c0.785,0.509,1.567,1.022,2.343,1.544c0.334,0.225,0.667,0.451,1,0.678
	c0.707,0.482,1.409,0.97,2.108,1.462c0.307,0.217,0.615,0.432,0.921,0.65c0.962,0.688,1.918,1.383,2.865,2.091
	c0.036,0.027,0.072,0.054,0.108,0.081c0.943,0.706,1.876,1.425,2.804,2.151c0.298,0.233,0.594,0.47,0.89,0.706
	c0.666,0.528,1.327,1.061,1.984,1.599c0.314,0.257,0.628,0.515,0.941,0.775c0.712,0.591,1.417,1.189,2.119,1.792
	c0.217,0.186,0.436,0.37,0.652,0.557c0.902,0.783,1.795,1.576,2.68,2.378c0.228,0.206,0.452,0.417,0.678,0.624
	c0.667,0.612,1.33,1.228,1.987,1.85c0.295,0.28,0.589,0.561,0.883,0.843c0.616,0.592,1.227,1.189,1.833,1.791
	c0.263,0.26,0.527,0.519,0.788,0.781c0.844,0.847,1.681,1.701,2.506,2.566c0.075,0.079,0.149,0.16,0.224,0.24
	c0.753,0.793,1.498,1.594,2.236,2.402c0.261,0.286,0.52,0.574,0.779,0.862c0.566,0.628,1.127,1.26,1.684,1.897
	c0.264,0.302,0.528,0.604,0.79,0.908c0.62,0.72,1.233,1.446,1.841,2.177c0.167,0.2,0.336,0.398,0.502,0.599
	c0.759,0.921,1.507,1.85,2.246,2.788c0.205,0.26,0.406,0.523,0.609,0.784c0.544,0.698,1.084,1.401,1.617,2.108
	c0.247,0.328,0.492,0.656,0.737,0.986c0.515,0.694,1.024,1.392,1.528,2.094c0.21,0.292,0.421,0.582,0.629,0.875
	c0.693,0.978,1.377,1.961,2.049,2.954c0.097,0.143,0.191,0.289,0.287,0.432c0.578,0.86,1.148,1.725,1.71,2.596
	c0.214,0.332,0.425,0.665,0.636,0.998c0.454,0.715,0.903,1.433,1.346,2.155c0.209,0.341,0.419,0.681,0.626,1.024
	c0.515,0.852,1.022,1.71,1.522,2.572c0.109,0.188,0.221,0.374,0.33,0.562c0.599,1.042,1.186,2.093,1.763,3.149
	c0.167,0.305,0.328,0.612,0.493,0.918c0.417,0.775,0.829,1.554,1.234,2.336c0.189,0.365,0.377,0.732,0.563,1.099
	c0.4,0.787,0.792,1.578,1.18,2.372c0.152,0.312,0.308,0.623,0.458,0.936c0.524,1.09,1.037,2.185,1.538,3.288
	c0.088,0.194,0.172,0.39,0.259,0.585c0.413,0.921,0.819,1.845,1.216,2.775c0.157,0.366,0.31,0.735,0.464,1.103
	c0.333,0.795,0.66,1.594,0.98,2.396c0.146,0.365,0.293,0.73,0.437,1.097c0.386,0.986,0.764,1.977,1.132,2.972
	c0.058,0.157,0.119,0.313,0.177,0.47c0.42,1.146,0.825,2.3,1.22,3.458c0.115,0.337,0.226,0.677,0.339,1.015
	c0.282,0.845,0.559,1.694,0.828,2.545c0.124,0.392,0.247,0.784,0.368,1.178c0.27,0.876,0.531,1.756,0.786,2.638
	c0.092,0.317,0.187,0.633,0.277,0.95c0.335,1.184,0.658,2.373,0.968,3.568c0.063,0.242,0.12,0.485,0.182,0.727
	c0.245,0.965,0.482,1.932,0.71,2.903c0.093,0.398,0.183,0.797,0.274,1.195c0.196,0.861,0.384,1.725,0.566,2.592
	c0.081,0.384,0.163,0.767,0.24,1.151c0.229,1.13,0.448,2.263,0.653,3.401c0.018,0.096,0.037,0.192,0.054,0.288
	c0.22,1.23,0.423,2.465,0.615,3.704c0.058,0.372,0.111,0.745,0.166,1.118c0.133,0.896,0.26,1.794,0.378,2.694
	c0.054,0.413,0.108,0.826,0.159,1.24c0.119,0.958,0.228,1.92,0.331,2.884c0.033,0.308,0.069,0.616,0.101,0.925
	c0.126,1.259,0.239,2.522,0.337,3.789c0.022,0.287,0.039,0.575,0.06,0.862c0.072,0.994,0.136,1.99,0.19,2.989
	c0.023,0.42,0.042,0.841,0.062,1.261c0.043,0.917,0.077,1.836,0.105,2.758c0.012,0.393,0.026,0.785,0.035,1.179
	c0.03,1.289,0.049,2.581,0.049,3.877c0,71.526-45.516,132.619-109.104,155.842h221.712
	C472.407,376.67,474.646,378.909,474.646,381.67z M191.196,376.67c85.932,0,155.842-69.91,155.842-155.842
	S277.128,64.986,191.196,64.986S35.354,134.896,35.354,220.828S105.265,376.67,191.196,376.67z M30.354,386.67h6.096
	c2.762,0,5-2.239,5-5s-2.238-5-5-5h-6.096c-2.762,0-5,2.239-5,5S27.593,386.67,30.354,386.67z M191.196,255.159
	c-19.132,0-34.697-15.565-34.697-34.697s15.565-34.696,34.697-34.696s34.696,15.564,34.696,34.696S210.328,255.159,191.196,255.159z
	 M215.893,220.462c0-13.618-11.079-24.696-24.696-24.696c-13.618,0-24.697,11.079-24.697,24.696s11.079,24.697,24.697,24.697
	C204.813,245.159,215.893,234.08,215.893,220.462z M155.271,129.03c0-19.81,16.116-35.926,35.926-35.926
	c19.809,0,35.925,16.116,35.925,35.926c0,19.809-16.116,35.925-35.925,35.925C171.387,164.956,155.271,148.839,155.271,129.03z
	 M165.271,129.03c0,14.295,11.63,25.925,25.926,25.925c14.295,0,25.925-11.63,25.925-25.925s-11.63-25.926-25.925-25.926
	C176.9,103.104,165.271,114.735,165.271,129.03z M177.818,299.266c0,19.809-16.116,35.925-35.926,35.925
	s-35.926-16.116-35.926-35.925c0-19.81,16.116-35.926,35.926-35.926S177.818,279.457,177.818,299.266z M167.818,299.266
	c0-14.295-11.63-25.926-25.926-25.926s-25.926,11.63-25.926,25.926s11.63,25.925,25.926,25.925S167.818,313.562,167.818,299.266z
	 M276.425,299.266c0,19.809-16.116,35.925-35.926,35.925s-35.926-16.116-35.926-35.925c0-19.81,16.116-35.926,35.926-35.926
	S276.425,279.457,276.425,299.266z M266.425,299.266c0-14.295-11.63-25.926-25.926-25.926s-25.926,11.63-25.926,25.926
	s11.63,25.925,25.926,25.925S266.425,313.562,266.425,299.266z M284.224,232.944c-19.809,0-35.925-16.116-35.925-35.926
	c0-19.809,16.116-35.925,35.925-35.925c19.81,0,35.926,16.116,35.926,35.925C320.149,216.828,304.033,232.944,284.224,232.944z
	 M310.149,197.019c0-14.295-11.63-25.925-25.926-25.925c-14.295,0-25.925,11.63-25.925,25.925s11.63,25.926,25.925,25.926
	C298.52,222.944,310.149,211.314,310.149,197.019z M98.168,232.944c-19.81,0-35.926-16.116-35.926-35.926
	c0-19.809,16.116-35.925,35.926-35.925s35.926,16.116,35.926,35.925C134.094,216.828,117.978,232.944,98.168,232.944z
	 M124.094,197.019c0-14.295-11.63-25.925-25.926-25.925s-25.926,11.63-25.926,25.925s11.63,25.926,25.926,25.926
	S124.094,211.314,124.094,197.019z M357.363,268.34c0,2.761,2.238,5,5,5h83.644c2.762,0,5-2.239,5-5s-2.238-5-5-5h-83.644
	C359.602,263.34,357.363,265.579,357.363,268.34z M465.077,273.34h4.568c2.762,0,5-2.239,5-5s-2.238-5-5-5h-4.568
	c-2.762,0-5,2.239-5,5S462.315,273.34,465.077,273.34z"/>
</svg>
