<svg xmlns="http://www.w3.org/2000/svg" viewBox="0 0 512 512"><title>Artboard 128</title><g id="Spoon_and_Fork" data-name="Spoon and Fork"><path d="M405.33333,21.33333v128H384v-128H341.33333v128H320v-128H277.33333v128c0,38.53125,25.70443,70.71745,60.77865,81.31641L320,448a42.66666,42.66666,0,1,0,85.33333,0l-18.112-217.35026C422.29557,220.05078,448,187.86458,448,149.33333v-128Z" style="fill:#ebad1e"/><path d="M362.66667,490.66667A42.71555,42.71555,0,0,1,320,448h21.33333a21.35443,21.35443,0,0,0,21.33334,21.33333c11.5625,0,21.35416-9.375,21.375-20.47916L364.52083,215.20833l16.54167-4.98958c27.27083-8.23958,45.60417-32.70833,45.60417-60.88542v-128H448v128c0,37.65625-24.41667,70.33334-60.77083,81.3125L405.33333,448A42.483,42.483,0,0,1,362.66667,490.66667Z" style="fill:#f9c450"/><path d="M387.22917,230.64583l-6.16667-20.41666c27.27083-8.25,45.60417-32.71875,45.60417-60.89584v-128H448v128C448,186.98958,423.58333,219.66667,387.22917,230.64583Z" style="fill:#fde7b8"/><path d="M234.66667,128c0-58.91016-38.20443-106.66667-85.33334-106.66667S64,69.08984,64,128c0,48.20182,25.74479,88.46094,60.86068,101.67708L106.66667,448A42.66666,42.66666,0,1,0,192,448L173.806,229.67708C208.92188,216.46094,234.66667,176.20182,234.66667,128Z" style="fill:#ebad1e"/><path d="M149.33333,490.66667A42.71555,42.71555,0,0,1,106.66667,448H128a21.35442,21.35442,0,0,0,21.33333,21.33333c11.5625,0,21.35417-9.375,21.375-20.47916L151.22917,215.38542l15.08333-5.67709C194,199.28125,213.33333,165.67708,213.33333,128c0-47.05208-28.70833-85.33333-64-85.33333V21.33333c47.0625,0,85.33334,47.85417,85.33334,106.66667,0,46.36458-25.02084,88.17708-60.83334,101.67708h-.02083L192,448A42.483,42.483,0,0,1,149.33333,490.66667Z" style="fill:#f9c450"/><path d="M213.3335,128c0,37.677-19.3335,71.28125-47.042,81.71875l7.53809,19.94873C208.93359,216.442,234.6665,176.19092,234.6665,128c0-58.91016-38.2041-106.66669-85.333-106.66669V42.66663C184.625,42.66663,213.3335,80.94788,213.3335,128Z" style="fill:#fde7b8"/><ellipse cx="138.66667" cy="96" rx="59.00298" ry="46.9798" transform="translate(-27.26772 126.16989) rotate(-45)" style="fill:#d88d00"/><rect x="341.33333" y="21.33333" width="21.33333" height="128" style="fill:#d88d00"/><rect x="277.33333" y="21.33333" width="21.33333" height="128" style="fill:#d88d00"/><rect x="320" y="149.33333" width="42.66667" height="21.33333" style="fill:#d88d00"/><rect x="384" y="149.33333" width="21.33333" height="21.33333" style="fill:#d88d00"/></g></svg>