<?xml version="1.0" encoding="UTF-8"?>
<!DOCTYPE svg PUBLIC "-//W3C//DTD SVG 1.1//EN" "http://www.w3.org/Graphics/SVG/1.1/DTD/svg11.dtd">
<!-- Creator: CorelDRAW X5 -->
<svg xmlns="http://www.w3.org/2000/svg" xml:space="preserve" width="2048px" height="2048px" style="shape-rendering:geometricPrecision; text-rendering:geometricPrecision; image-rendering:optimizeQuality; fill-rule:evenodd; clip-rule:evenodd"
viewBox="0 0 2048 2048"
 xmlns:xlink="http://www.w3.org/1999/xlink">
 <defs>
  <style type="text/css">
   <![CDATA[
    .fil5 {fill:none}
    .fil3 {fill:#2196F3}
    .fil0 {fill:#263238}
    .fil1 {fill:#37474F}
    .fil4 {fill:#FF9800}
    .fil2 {fill:#FFFDE7}
   ]]>
  </style>
 </defs>
 <g id="Layer_x0020_1">
  <metadata id="CorelCorpID_0Corel-Layer"/>
  <g id="_220495464">
   <path class="fil0" d="M1494 531c82,0 157,33 211,87 54,54 87,128 87,211l0 0 23 562c1,22 -1,45 -9,65 -9,24 -26,43 -53,52 -41,15 -79,11 -114,-6 -38,-18 -70,-50 -95,-87l-187 -276c-6,7 -13,14 -20,19 -23,18 -51,28 -82,28 -37,0 -71,-15 -95,-39 -22,-22 -36,-52 -39,-84 -26,0 -52,0 -79,0 -27,0 -55,0 -82,0 -3,33 -17,62 -39,84 -24,24 -58,39 -95,39 -37,0 -71,-15 -95,-39 -9,-9 -17,-19 -23,-31l-202 298c-25,37 -58,70 -95,87 -35,16 -73,20 -114,6 -27,-10 -44,-29 -53,-52 -8,-20 -10,-43 -9,-65l22 -562 0 0c0,-82 33,-157 87,-211 54,-54 128,-87 211,-87 42,0 82,9 119,25 33,14 63,35 89,60l525 0c26,-25 56,-45 89,-60 36,-16 77,-25 119,-25z"/>
   <circle class="fil1" cx="1503" cy="824" r="230"/>
   <circle class="fil1" cx="543" cy="836" r="230"/>
   <g>
    <path class="fil2" d="M1346 856c-18,0 -32,-14 -32,-32 0,-18 14,-32 32,-32l96 0c18,0 32,14 32,32 0,18 -14,32 -32,32l-96 0z"/>
    <path class="fil2" d="M1535 981c0,18 -14,32 -32,32 -18,0 -32,-14 -32,-32l0 -96c0,-18 14,-32 32,-32 18,0 32,14 32,32l0 96z"/>
    <path class="fil2" d="M1564 856c-18,0 -32,-14 -32,-32 0,-18 14,-32 32,-32l96 0c18,0 32,14 32,32 0,18 -14,32 -32,32l-96 0z"/>
    <path class="fil2" d="M1535 763c0,18 -14,32 -32,32 -18,0 -32,-14 -32,-32l0 -96c0,-18 14,-32 32,-32 18,0 32,14 32,32l0 96z"/>
   </g>
   <polygon class="fil3" points="1087,789 1249,789 1249,853 1087,853 "/>
   <polygon class="fil3" points="801,789 959,789 959,853 801,853 "/>
   <circle class="fil1" cx="825" cy="1051" r="134"/>
   <circle class="fil1" cx="1254" cy="1051" r="134"/>
   <path class="fil4" d="M875 1002c-13,-13 -31,-21 -50,-21 -20,0 -37,8 -50,21 -13,13 -21,31 -21,50 0,20 8,37 21,50 13,13 31,21 50,21 20,0 37,-8 50,-21 13,-13 21,-31 21,-50 0,-20 -8,-37 -21,-50z"/>
   <path class="fil4" d="M1304 1002c-13,-13 -31,-21 -50,-21 -20,0 -37,8 -50,21 -13,13 -21,31 -21,50 0,20 8,37 21,50 13,13 31,21 50,21 20,0 37,-8 50,-21 13,-13 21,-31 21,-50 0,-20 -8,-37 -21,-50z"/>
   <g>
    <path class="fil2" d="M543 885c27,0 48,21 48,48 0,27 -21,48 -48,48 -27,0 -48,-21 -48,-48 0,-27 21,-48 48,-48z"/>
    <path class="fil2" d="M543 692c27,0 48,21 48,48 0,27 -21,48 -48,48 -27,0 -48,-21 -48,-48 0,-27 21,-48 48,-48z"/>
    <path class="fil2" d="M399 836c0,-27 21,-48 48,-48 27,0 48,21 48,48 0,27 -21,48 -48,48 -27,0 -48,-21 -48,-48z"/>
    <path class="fil2" d="M591 836c0,-27 21,-48 48,-48 27,0 48,21 48,48 0,27 -21,48 -48,48 -27,0 -48,-21 -48,-48z"/>
   </g>
  </g>
  <rect class="fil5" width="2048" height="2048"/>
 </g>
</svg>
