<svg xmlns="http://www.w3.org/2000/svg" width="128" height="128" viewBox="0 0 128 128">
  <title>GAS STATION</title>
  <g>
    <path d="M91.754,100.917A7.16,7.16,0,0,1,84.6,93.773L84.582,74.5a3.121,3.121,0,0,0-3.117-3.12H78.5a1.75,1.75,0,0,1,0-3.5h2.965a6.626,6.626,0,0,1,6.617,6.618L88.1,93.77a3.651,3.651,0,0,0,7.3,0V74.345a1.75,1.75,0,0,1,3.5,0V93.766A7.16,7.16,0,0,1,91.754,100.917Z" fill="#2d1f5e"/>
    <rect x="31.558" y="33" width="46.942" height="76" fill="#ffad5a"/>
    <rect x="40.75" y="41.924" width="28.558" height="22.712" fill="#f9d16e"/>
    <rect x="27.195" y="25" width="55.668" height="8" rx="4" fill="#e84949"/>
    <path d="M92.56,62.833a1.749,1.749,0,0,1-1.75-1.75V57.414a2.387,2.387,0,0,0-2.384-2.384H86.358a1.75,1.75,0,0,1,0-3.5h2.068a5.891,5.891,0,0,1,5.884,5.884v3.669A1.75,1.75,0,0,1,92.56,62.833Z" fill="#2d1f5e"/>
    <path d="M60.712,90.817a5.684,5.684,0,0,1-11.367,0C49.345,87.678,55.029,80,55.029,80S60.712,87.678,60.712,90.817Z" fill="#fff8e3"/>
    <path d="M109,110.75H19a1.75,1.75,0,1,1,0-3.5h90a1.75,1.75,0,0,1,0,3.5Z" fill="#2d1f5e"/>
    <path d="M97.155,74.345h0A4.6,4.6,0,0,1,92.56,69.75v-10.2l7.115,4.666a4.6,4.6,0,0,1,2.075,3.843V69.75A4.6,4.6,0,0,1,97.155,74.345Z" fill="#ffad5a"/>
    <path d="M97.155,76.1A6.352,6.352,0,0,1,90.81,69.75v-10.2a1.75,1.75,0,0,1,2.71-1.464l7.115,4.667a6.327,6.327,0,0,1,2.865,5.306V69.75A6.352,6.352,0,0,1,97.155,76.1ZM94.31,62.79v6.96a2.845,2.845,0,0,0,5.69,0V68.058a2.836,2.836,0,0,0-1.285-2.379Z" fill="#e84949"/>
    <path d="M78.5,45.092h2.708a5.151,5.151,0,0,1,5.151,5.151v6.076a5.151,5.151,0,0,1-5.151,5.151H78.5a0,0,0,0,1,0,0V45.092A0,0,0,0,1,78.5,45.092Z" fill="#e84949"/>
  </g>
</svg>
