<?xml version="1.0" encoding="utf-8"?>
<!-- Generator: Adobe Illustrator 24.0.0, SVG Export Plug-In . SVG Version: 6.00 Build 0)  -->
<svg version="1.1" xmlns="http://www.w3.org/2000/svg" xmlns:xlink="http://www.w3.org/1999/xlink" x="0px" y="0px"
	 viewBox="0 0 256 256" style="enable-background:new 0 0 256 256;" xml:space="preserve">
<style type="text/css">
	.st0{fill:#F98FA6;}
	.st1{fill:#FC657E;}
	.st2{fill:#DAE6F1;}
	.st3{fill:#5290DB;}
	.st4{fill:#FCDD86;}
	.st5{fill:#F5C84C;}
	.st6{fill:#87D147;}
	.st7{fill:#70D6F9;}
	.st8{fill:#EDF4FC;}
	.st9{fill:#9BE5F9;}
	.st10{fill:#B2E26D;}
	.st11{fill:#F9C1A8;}
	.st12{fill:#414344;}
	.st13{fill:#E1FBFF;}
	.st14{fill:#FFE3EC;}
	.st15{fill:#FCBECF;}
	.st16{fill:#EF4460;}
	.st17{fill:#80C2F9;}
	.st18{fill:#3A70BF;}
	.st19{fill:#FCA265;}
	.st20{fill:#5B5D60;}
	.st21{fill:#818182;}
	.st22{fill:#C7D7E5;}
	.st23{fill:#F9D0B4;}
	.st24{fill:#AA6F59;}
	.st25{fill:#D1856D;}
	.st26{fill:#FCC29A;}
	.st27{fill:#29589F;}
	.st28{fill:#F7B386;}
	.st29{fill:#FC8C48;}
	.st30{fill:#FFF0CC;}
	.st31{fill:#57AF12;}
	.st32{fill:#3CAADC;}
	.st33{fill:#EDB311;}
	.st34{fill:#231F20;}
</style>
<g id="Layer_1">
</g>
<g id="Layer_2">
</g>
<g id="Layer_3">
</g>
<g id="Layer_4">
</g>
<g id="Layer_5">
</g>
<g id="Layer_6">
</g>
<g id="Layer_7">
</g>
<g id="Layer_8">
</g>
<g id="Layer_9">
</g>
<g id="Layer_10">
</g>
<g id="Layer_11">
</g>
<g id="Layer_12">
</g>
<g id="Layer_13">
</g>
<g id="Layer_14">
</g>
<g id="Layer_15">
</g>
<g id="Layer_16">
</g>
<g id="Layer_17">
</g>
<g id="Layer_18">
</g>
<g id="Layer_19">
</g>
<g id="Layer_20">
</g>
<g id="Layer_21">
</g>
<g id="Layer_22">
</g>
<g id="Layer_23">
</g>
<g id="Layer_24">
</g>
<g id="Layer_25">
</g>
<g id="Layer_26">
</g>
<g id="Layer_27">
	<g>
		<g>
			<g>
				<path class="st8" d="M247.983,44.022c-4.498-0.838-8.043-4.31-8.898-8.717c-0.043-0.221-0.352-0.221-0.395,0
					c-0.855,4.406-4.4,7.879-8.898,8.717c-0.226,0.042-0.226,0.345,0,0.387c4.498,0.838,8.043,4.31,8.898,8.717
					c0.043,0.221,0.352,0.221,0.395,0c0.855-4.406,4.4-7.879,8.898-8.717C248.209,44.366,248.209,44.064,247.983,44.022z"/>
			</g>
		</g>
		<g>
			<g>
				<path class="st6" d="M156.884,71.18c-2.965-0.552-5.302-2.842-5.866-5.746c-0.028-0.146-0.232-0.146-0.26,0
					c-0.564,2.905-2.901,5.194-5.866,5.746c-0.149,0.028-0.149,0.227,0,0.255c2.965,0.552,5.302,2.842,5.866,5.746
					c0.028,0.146,0.232,0.146,0.26,0c0.564-2.905,2.901-5.194,5.866-5.746C157.032,71.407,157.032,71.208,156.884,71.18z"/>
			</g>
		</g>
		<g>
			<g>
				<path class="st8" d="M46.694,198.626h-2.329v-2.33c0-1.744-1.413-3.157-3.157-3.157c-1.744,0-3.157,1.414-3.157,3.157v2.33
					h-2.33c-1.744,0-3.157,1.413-3.157,3.157s1.413,3.157,3.157,3.157h2.33v2.33c0,1.744,1.413,3.157,3.157,3.157
					c1.744,0,3.157-1.413,3.157-3.157v-2.33h2.329c1.744,0,3.157-1.413,3.157-3.157S48.438,198.626,46.694,198.626z"/>
			</g>
		</g>
		<g>
			<g>
				<circle class="st8" cx="252.623" cy="65.762" r="3.377"/>
			</g>
		</g>
		<g>
			<g>
				<circle class="st8" cx="24.623" cy="178.762" r="3.377"/>
			</g>
		</g>
		<g>
			<g>
				<path class="st18" d="M35.998,57.808h-8.377c-4.52,0-8.184,3.664-8.184,8.185v85.497c0,4.52,3.664,8.185,8.184,8.185h8.377
					c4.52,0,8.184-3.664,8.184-8.185V65.993C44.182,61.473,40.518,57.808,35.998,57.808z"/>
			</g>
		</g>
		<g>
			<g>
				<path class="st18" d="M220.269,57.808h-8.377c-4.52,0-8.184,3.664-8.184,8.185v73.517h4.474c4.52,0,8.184,3.664,8.184,8.184
					v11.98h3.903c4.52,0,8.184-3.664,8.184-8.184V65.993C228.453,61.473,224.789,57.808,220.269,57.808z"/>
			</g>
		</g>
		<g>
			<g>
				<rect x="68.928" y="96.368" class="st22" width="110.034" height="24.746"/>
			</g>
		</g>
		<g>
			<g>
				<rect x="96.54" y="96.368" class="st8" width="54.809" height="24.746"/>
			</g>
		</g>
		<g>
			<g>
				<path class="st22" d="M233.017,96.368h-4.564v24.746h4.564c6.833,0,12.373-5.54,12.373-12.373
					C245.39,101.908,239.851,96.368,233.017,96.368z"/>
			</g>
		</g>
		<g>
			<g>
				<path class="st22" d="M14.873,96.368c-6.833,0-12.373,5.539-12.373,12.373c0,6.833,5.539,12.373,12.373,12.373h4.564V96.368
					H14.873z"/>
			</g>
		</g>
		<g>
			<g>
				<rect x="104.6" y="166.562" class="st22" width="87.02" height="24.746"/>
			</g>
		</g>
		<g>
			<g>
				<rect x="120.705" y="166.562" class="st8" width="54.809" height="24.746"/>
			</g>
		</g>
		<g>
			<g>
				<path class="st1" d="M208.181,139.51h-8.377c-4.52,0-8.184,3.664-8.184,8.184v62.482c0,4.52,3.664,8.184,8.184,8.184h8.377
					c4.52,0,8.184-3.664,8.184-8.184v-62.482C216.366,143.174,212.701,139.51,208.181,139.51z"/>
			</g>
		</g>
		<g>
			<g>
				<path class="st22" d="M220.93,166.562h-4.564v24.746h4.564c6.833,0,12.373-5.539,12.373-12.373S227.763,166.562,220.93,166.562z
					"/>
			</g>
		</g>
		<g>
			<g>
				<path class="st1" d="M96.416,139.51h-8.377c-4.52,0-8.184,3.664-8.184,8.184v62.482c0,4.52,3.664,8.184,8.184,8.184h8.377
					c4.52,0,8.184-3.664,8.184-8.184v-62.482C104.6,143.174,100.936,139.51,96.416,139.51z"/>
			</g>
		</g>
		<g>
			<g>
				<path class="st22" d="M75.291,166.562c-6.833,0-12.373,5.539-12.373,12.373s5.539,12.373,12.373,12.373h4.564v-24.746H75.291z"
					/>
			</g>
		</g>
		<g>
			<g>
				<path class="st3" d="M195.523,38.288h-8.377c-4.52,0-8.184,3.664-8.184,8.185v120.09h12.658l0-18.868
					c0-4.52,3.664-8.184,8.184-8.184h3.903V46.473C203.708,41.952,200.043,38.288,195.523,38.288z"/>
			</g>
		</g>
		<g>
			<g>
				<path class="st3" d="M60.744,38.288h-8.377c-4.52,0-8.184,3.664-8.184,8.185V171.01c0,4.52,3.664,8.185,8.184,8.185h8.377
					c0.755,0,1.482-0.111,2.177-0.302c0.015-4.485,2.423-8.397,6.008-10.554V46.473C68.928,41.952,65.264,38.288,60.744,38.288z"/>
			</g>
		</g>
		<g>
			<g>
				<path class="st5" d="M247.983,44.022c-4.498-0.838-8.043-4.31-8.898-8.717c-0.043-0.221-0.352-0.221-0.395,0
					c-0.855,4.406-4.4,7.879-8.898,8.717c-0.226,0.042-0.226,0.345,0,0.387c4.498,0.838,8.043,4.31,8.898,8.717
					c0.043,0.221,0.352,0.221,0.395,0c0.855-4.406,4.4-7.879,8.898-8.717C248.209,44.366,248.209,44.064,247.983,44.022z"/>
			</g>
		</g>
		<g>
			<g>
				<path class="st6" d="M156.884,71.18c-2.965-0.552-5.302-2.842-5.866-5.746c-0.028-0.146-0.232-0.146-0.26,0
					c-0.564,2.905-2.901,5.194-5.866,5.746c-0.149,0.028-0.149,0.227,0,0.255c2.965,0.552,5.302,2.842,5.866,5.746
					c0.028,0.146,0.232,0.146,0.26,0c0.564-2.905,2.901-5.194,5.866-5.746C157.032,71.407,157.032,71.208,156.884,71.18z"/>
			</g>
		</g>
		<g>
			<g>
				<path class="st7" d="M46.694,198.626h-2.329v-2.33c0-1.744-1.413-3.157-3.157-3.157c-1.744,0-3.157,1.414-3.157,3.157v2.33
					h-2.33c-1.744,0-3.157,1.413-3.157,3.157s1.413,3.157,3.157,3.157h2.33v2.33c0,1.744,1.413,3.157,3.157,3.157
					c1.744,0,3.157-1.413,3.157-3.157v-2.33h2.329c1.744,0,3.157-1.413,3.157-3.157S48.438,198.626,46.694,198.626z"/>
			</g>
		</g>
		<g>
			<g>
				<circle class="st1" cx="252.623" cy="65.762" r="3.377"/>
			</g>
		</g>
		<g>
			<g>
				<circle class="st5" cx="24.623" cy="178.762" r="3.377"/>
			</g>
		</g>
		<g>
			<g>
				<path d="M44.234,149.171c-1.393-0.042-2.523,1.064-2.554,2.445c-0.066,3.064-2.616,5.558-5.683,5.558h-8.377
					c-3.134,0-5.685-2.55-5.685-5.684V65.993c0-3.134,2.55-5.684,5.685-5.684h8.377c3.095,0,5.644,2.517,5.684,5.609
					c0.018,1.381,1.152,2.471,2.532,2.468c1.381-0.018,2.486-1.151,2.468-2.532c-0.075-5.815-4.867-10.546-10.684-10.546h-8.377
					c-5.892,0-10.685,4.793-10.685,10.684v85.497c0,5.891,4.793,10.684,10.685,10.684h8.377c5.765,0,10.557-4.688,10.682-10.449
					C46.709,150.344,45.615,149.201,44.234,149.171z"/>
			</g>
		</g>
		<g>
			<g>
				<path d="M220.269,55.308h-8.377c-5.818,0-10.61,4.732-10.684,10.549c-0.017,1.38,1.088,2.514,2.469,2.531
					c1.389,0.003,2.514-1.088,2.531-2.469c0.039-3.094,2.588-5.611,5.684-5.611h8.377c3.134,0,5.684,2.55,5.684,5.685v85.497
					c0,3.134-2.55,5.684-5.684,5.684h-2.956c-1.381,0-2.5,1.119-2.5,2.5s1.119,2.5,2.5,2.5h2.956
					c5.891,0,10.684-4.793,10.684-10.684V65.993C230.953,60.101,226.16,55.308,220.269,55.308z"/>
			</g>
		</g>
		<g>
			<g>
				<path d="M178.5,93.869H69.812c-1.381,0-2.5,1.119-2.5,2.5s1.119,2.5,2.5,2.5H178.5c1.381,0,2.5-1.119,2.5-2.5
					S179.881,93.869,178.5,93.869z"/>
			</g>
		</g>
		<g>
			<g>
				<path d="M177.938,118.614h-108c-1.381,0-2.5,1.119-2.5,2.5s1.119,2.5,2.5,2.5h108c1.381,0,2.5-1.119,2.5-2.5
					S179.319,118.614,177.938,118.614z"/>
			</g>
		</g>
		<g>
			<g>
				<path d="M151.35,94.875c-1.381,0-2.5,1.119-2.5,2.5v22.813c0,1.381,1.119,2.5,2.5,2.5s2.5-1.119,2.5-2.5V97.375
					C153.85,95.994,152.73,94.875,151.35,94.875z"/>
			</g>
		</g>
		<g>
			<g>
				<path d="M96.541,94.854c-1.381,0-2.5,1.119-2.5,2.5v22.979c0,1.381,1.119,2.5,2.5,2.5s2.5-1.119,2.5-2.5V97.354
					C99.041,95.973,97.921,94.854,96.541,94.854z"/>
			</g>
		</g>
		<g>
			<g>
				<path d="M233.017,93.869h-3.642c-1.381,0-2.5,1.119-2.5,2.5s1.119,2.5,2.5,2.5h3.642c5.444,0,9.873,4.429,9.873,9.873
					s-4.429,9.873-9.873,9.873h-3.684c-1.381,0-2.5,1.119-2.5,2.5s1.119,2.5,2.5,2.5h3.684c8.201,0,14.873-6.672,14.873-14.873
					C247.89,100.541,241.218,93.869,233.017,93.869z"/>
			</g>
		</g>
		<g>
			<g>
				<path d="M18.083,118.614h-3.21c-5.444,0-9.873-4.429-9.873-9.873s4.429-9.873,9.873-9.873h3.876c1.381,0,2.5-1.119,2.5-2.5
					s-1.119-2.5-2.5-2.5h-3.876C6.672,93.869,0,100.541,0,108.741c0,8.201,6.672,14.873,14.873,14.873h3.21
					c1.381,0,2.5-1.119,2.5-2.5S19.464,118.614,18.083,118.614z"/>
			</g>
		</g>
		<g>
			<g>
				<path d="M190.833,164.063h-85.625c-1.381,0-2.5,1.119-2.5,2.5s1.119,2.5,2.5,2.5h85.625c1.381,0,2.5-1.119,2.5-2.5
					S192.214,164.063,190.833,164.063z"/>
			</g>
		</g>
		<g>
			<g>
				<path d="M190.688,188.808h-85.282c-1.381,0-2.5,1.119-2.5,2.5s1.119,2.5,2.5,2.5h85.282c1.381,0,2.5-1.119,2.5-2.5
					S192.069,188.808,190.688,188.808z"/>
			</g>
		</g>
		<g>
			<g>
				<path d="M175.515,165c-1.381,0-2.5,1.119-2.5,2.5v22.813c0,1.381,1.119,2.5,2.5,2.5s2.5-1.119,2.5-2.5V167.5
					C178.015,166.12,176.896,165,175.515,165z"/>
			</g>
		</g>
		<g>
			<g>
				<path d="M120.706,164.938c-1.381,0-2.5,1.119-2.5,2.5V190.5c0,1.381,1.119,2.5,2.5,2.5s2.5-1.119,2.5-2.5v-23.063
					C123.206,166.057,122.086,164.938,120.706,164.938z"/>
			</g>
		</g>
		<g>
			<g>
				<g>
					<path d="M208.181,137.009h-8.377c-5.891,0-10.684,4.793-10.684,10.685v62.482c0,5.892,4.793,10.685,10.684,10.685h8.377
						c5.892,0,10.685-4.793,10.685-10.685v-62.482C218.866,141.802,214.073,137.009,208.181,137.009z M213.866,210.176
						c0,3.134-2.55,5.685-5.685,5.685h-8.377c-3.134,0-5.684-2.55-5.684-5.685v-62.482c0-3.134,2.55-5.685,5.684-5.685h8.377
						c3.134,0,5.685,2.55,5.685,5.685V210.176z"/>
				</g>
			</g>
		</g>
		<g>
			<g>
				<path d="M220.93,164.063H217c-1.381,0-2.5,1.119-2.5,2.5s1.119,2.5,2.5,2.5h3.93c5.444,0,9.873,4.429,9.873,9.873
					s-4.429,9.873-9.873,9.873h-3.68c-1.381,0-2.5,1.119-2.5,2.5s1.119,2.5,2.5,2.5h3.68c8.201,0,14.873-6.672,14.873-14.873
					C235.802,170.734,229.13,164.063,220.93,164.063z"/>
			</g>
		</g>
		<g>
			<g>
				<g>
					<path d="M96.416,137.009h-8.377c-5.892,0-10.685,4.793-10.685,10.685v62.482c0,5.892,4.793,10.685,10.685,10.685h8.377
						c5.891,0,10.684-4.793,10.684-10.685v-62.482C107.1,141.802,102.307,137.009,96.416,137.009z M102.1,210.176
						c0,3.134-2.55,5.685-5.684,5.685h-8.377c-3.134,0-5.685-2.55-5.685-5.685v-62.482c0-3.134,2.55-5.685,5.685-5.685h8.377
						c3.134,0,5.684,2.55,5.684,5.685V210.176z"/>
				</g>
			</g>
		</g>
		<g>
			<g>
				<path d="M78.75,188.808h-3.459c-5.444,0-9.873-4.429-9.873-9.873s4.429-9.873,9.873-9.873h3.876c1.381,0,2.5-1.119,2.5-2.5
					s-1.119-2.5-2.5-2.5h-3.876c-8.201,0-14.873,6.672-14.873,14.873c0,8.201,6.672,14.873,14.873,14.873h3.459
					c1.381,0,2.5-1.119,2.5-2.5S80.131,188.808,78.75,188.808z"/>
			</g>
		</g>
		<g>
			<g>
				<path d="M195.523,35.788h-8.377c-5.892,0-10.685,4.793-10.685,10.685v118.861c0,1.381,1.119,2.5,2.5,2.5s2.5-1.119,2.5-2.5
					V46.473c0-3.134,2.55-5.685,5.685-5.685h8.377c3.134,0,5.684,2.55,5.684,5.685v92.444c0,1.381,1.119,2.5,2.5,2.5
					s2.5-1.119,2.5-2.5V46.473C206.208,40.581,201.415,35.788,195.523,35.788z"/>
			</g>
		</g>
		<g>
			<g>
				<path d="M60.744,35.788h-8.377c-5.892,0-10.685,4.793-10.685,10.685V171.01c0,5.892,4.793,10.685,10.685,10.685h8.377
					c0.567,0,1.143-0.048,1.71-0.142c1.362-0.227,2.283-1.514,2.057-2.876c-0.226-1.362-1.509-2.282-2.876-2.057
					c-0.298,0.05-0.598,0.075-0.891,0.075h-8.377c-3.134,0-5.685-2.55-5.685-5.685V46.473c0-3.134,2.55-5.685,5.685-5.685h8.377
					c3.134,0,5.684,2.55,5.684,5.685v121.36c0,1.381,1.119,2.5,2.5,2.5s2.5-1.119,2.5-2.5V46.473
					C71.428,40.581,66.635,35.788,60.744,35.788z"/>
			</g>
		</g>
	</g>
</g>
<g id="Layer_28">
</g>
<g id="Layer_29">
</g>
<g id="Layer_30">
</g>
<g id="Layer_31">
</g>
<g id="Layer_32">
</g>
<g id="Layer_33">
</g>
<g id="Layer_34">
</g>
<g id="Layer_35">
</g>
<g id="Layer_36">
</g>
<g id="Layer_37">
</g>
<g id="Layer_38">
</g>
<g id="Layer_39">
</g>
<g id="Layer_40">
</g>
<g id="Layer_41">
</g>
<g id="Layer_42">
</g>
<g id="Layer_43">
</g>
<g id="Layer_44">
</g>
<g id="Layer_45">
</g>
<g id="Layer_46">
</g>
<g id="Layer_47">
</g>
<g id="Layer_48">
</g>
<g id="Layer_49">
</g>
<g id="Layer_50">
</g>
<g id="Layer_51">
</g>
<g id="Layer_52">
</g>
<g id="Layer_53">
</g>
<g id="Layer_54">
</g>
<g id="Layer_55">
</g>
<g id="Layer_56">
</g>
<g id="Layer_57">
</g>
<g id="Layer_58">
</g>
<g id="Layer_59">
</g>
<g id="Layer_60">
</g>
<g id="Layer_61">
</g>
<g id="Layer_62">
</g>
<g id="Layer_63">
</g>
<g id="Layer_64">
</g>
<g id="Layer_65">
</g>
<g id="Layer_66">
</g>
<g id="Layer_67">
</g>
<g id="Layer_68">
</g>
<g id="Layer_69">
</g>
<g id="Layer_70">
</g>
<g id="Layer_71">
</g>
<g id="Layer_72">
</g>
<g id="Layer_73">
</g>
<g id="Layer_74">
</g>
<g id="Layer_75">
</g>
<g id="Layer_76">
</g>
<g id="Layer_77">
</g>
<g id="Layer_78">
</g>
<g id="Layer_79">
</g>
<g id="Layer_80">
</g>
<g id="Layer_81">
</g>
<g id="Layer_82">
</g>
<g id="Layer_83">
</g>
<g id="Layer_84">
</g>
<g id="Layer_85">
</g>
</svg>
