<svg id="ICON" xmlns="http://www.w3.org/2000/svg" viewBox="0 0 512 512"><defs><style>.cls-1{fill:#2a3342;}.cls-2{fill:#bbc5c9;}.cls-3{fill:#e1e1e0;}.cls-4{fill:#cf8d53;}.cls-5{fill:#e4a761;}.cls-6{fill:#a42916;}.cls-7{fill:#8d2d1d;}.cls-8{fill:#c0807b;}.cls-9{fill:#ede5e5;}.cls-10{fill:#912813;}</style></defs><title>Cooking</title><path class="cls-1" d="M37.08,51.35H70.85a0,0,0,0,1,0,0v63.31A16.89,16.89,0,0,1,54,131.55h0a16.89,16.89,0,0,1-16.89-16.89V51.35a0,0,0,0,1,0,0Z" transform="matrix(-0.96, 0.27, -0.27, -0.96, 130.7, 164.84)"/><path class="cls-2" d="M55.64,124.91h0a76.65,76.65,0,0,1,76.65,76.65v162A26.44,26.44,0,0,1,105.85,390H55.64a0,0,0,0,1,0,0V124.91a0,0,0,0,1,0,0Z" transform="translate(254.23 479.8) rotate(164.27)"/><rect class="cls-3" x="68.97" y="162.88" width="23.38" height="166.8" rx="11.69" transform="translate(225.08 461.46) rotate(164.27)"/><rect class="cls-4" x="28.52" y="393.34" width="456.17" height="66.45"/><rect class="cls-5" x="28.52" y="375.15" width="456.17" height="53.28"/><path class="cls-6" d="M372.2,241l-8.65,61.14-10.33,73.12-22.47.76-3.46.13L220.9,379.86c-51.39,1.78-87.72-34.25-81.19-80.42l7.18-50.65c7.88-55.95,64.75-103.08,127-105.22,1.47-.06,2.94-.06,4.38-.06C338.14,143.51,379.93,186.37,372.2,241Z"/><path class="cls-7" d="M475.18,334.67c-1.44,10.08-7.26,19.37-15.57,26.24a50.67,50.67,0,0,1-30.26,11.71l-76.13,2.64-22.47.8v0l10.33-73.12,22.47-.76,76.13-2.64C462.15,298.7,478,314.46,475.18,334.67Z"/><ellipse class="cls-8" cx="205.41" cy="264.1" rx="95.15" ry="44.79" transform="translate(-92.94 415.54) rotate(-79.04)"/><ellipse class="cls-9" cx="208.11" cy="230.19" rx="29.68" ry="15.93" transform="translate(-60.9 384.87) rotate(-77.78)"/><path class="cls-10" d="M475.18,334.67c-1.44,10.08-7.26,19.37-15.57,26.24s-19,14.87-30.26,15.24h-98.6V376l-3.46.13-8.22-73.58c22.47-96.27-45.22-159-45.22-159,1.47-.06,2.94-.06,4.38-.06,59.91,0,101.7,42.86,94,97.49l-8.65,61.14,76.13-2.64C462.15,298.7,478,314.46,475.18,334.67Z"/></svg>