<?xml version="1.0" encoding="utf-8"?>
<!-- Generator: Adobe Illustrator 24.3.0, SVG Export Plug-In . SVG Version: 6.00 Build 0)  -->
<svg version="1.1" id="Layer_1" xmlns="http://www.w3.org/2000/svg" xmlns:xlink="http://www.w3.org/1999/xlink" x="0px" y="0px"
	 viewBox="0 0 80 80" enable-background="new 0 0 80 80" xml:space="preserve">
<g>
	<path fill="#E49A61" d="M45.264,28.676H45.25c0.383-0.973,0.174-2.123-0.62-2.901c-1.059-1.037-2.759-1.02-3.796,0.04h-0.001
		c-0.571-0.701-1.508-1.062-2.452-0.854c-1.132,0.252-1.908,1.242-1.935,2.352h0c-0.864-0.826-2.234-0.795-3.059,0.069
		c-0.68,0.712-0.778,1.766-0.31,2.577l-0.005,0.002v2.223l11.714-0.213L45.264,28.676z"/>
	<path fill="#FFBD66" d="M35.081,41.328h-9.386c-1.488,0-2.695-1.207-2.695-2.695c0-1.402,1.071-2.555,2.439-2.684h0
		c-0.509-0.658-0.629-1.574-0.234-2.369c0.551-1.108,1.896-1.561,3.004-1.01c-0.435-0.758-0.281-1.764,0.384-2.389
		c0.778-0.731,2.046-0.62,2.777,0.158c0.326-0.771,1.132-1.268,2.006-1.166c1.06,0.125,1.817,1.086,1.693,2.145L35.081,41.328z"/>
	<path fill="#F1BB6B" d="M56.001,40.794c1.168-0.96,1.336-2.686,0.376-3.854c-0.656-0.799-1.671-1.13-2.62-0.952
		c0.828-1.266,0.506-2.979-0.759-3.807c-0.969-0.633-2.189-0.574-3.081,0.057c0.273-1.955-1.23-3.895-3.186-4.168
		c-1.569-0.219-3.042,0.617-3.704,1.967c-0.489-1.309-2.059-2.033-3.368-1.545c-1.055,0.394-1.692,1.418-1.643,2.486h0.001
		c-0.869-0.588-2.049-0.596-2.94,0.064c-1.129,0.836-1.366,2.43-0.529,3.559v6.192H56.001z"/>
	<path fill="#FDDC85" d="M45.548,43.931c1.217,0,2.204-0.987,2.204-2.204c0-1.084-0.783-1.985-1.814-2.17l0.002,0.002
		c0.413-0.602,0.418-1.423-0.045-2.037c-0.58-0.77-1.674-0.924-2.444-0.344l-0.005-0.004c0.442-0.765,0.349-1.76-0.292-2.432
		c-0.779-0.816-2.072-0.846-2.888-0.066h-0.001c-0.024-1.047-0.758-1.981-1.826-2.219c-0.891-0.197-1.776,0.143-2.315,0.806
		l-0.001-0.001c-0.979-0.999-2.583-1.016-3.583-0.037c-0.75,0.734-0.947,1.82-0.586,2.74h-0.014c-0.14-0.02-0.284-0.029-0.429-0.029
		c-1.788,0-3.237,1.449-3.237,3.236c0,1.788,1.449,3.237,3.237,3.237L45.548,43.931z"/>
	<path fill="#59C5EF" d="M62,54.097l-3.586-12.55c-0.245-0.858-1.03-1.45-1.923-1.45H23.508c-0.893,0-1.678,0.592-1.923,1.45
		L18,54.097H62z"/>
	<path fill="#2BA0BF" d="M32.104,53.098l1.2-11.551c0.089-0.858,0.375-1.45,0.699-1.45h-4.497c-0.568,0-1.067,0.592-1.224,1.45
		l-2.1,11.551H16v2h48v-2H32.104z"/>
</g>
</svg>
