<?xml version="1.0" encoding="iso-8859-1"?>
<!-- Generator: Adobe Illustrator 19.0.0, SVG Export Plug-In . SVG Version: 6.00 Build 0)  -->
<svg version="1.1" id="Layer_1" xmlns="http://www.w3.org/2000/svg" xmlns:xlink="http://www.w3.org/1999/xlink" x="0px" y="0px"
	 viewBox="0 0 512 512" style="enable-background:new 0 0 512 512;" xml:space="preserve">
<path style="fill:#E07188;" d="M406.187,44.373H105.813c-45.243,0-81.92,36.677-81.92,81.92v40.96h122.88V112.64h218.453v54.613
	h122.88v-40.96C488.107,81.05,451.43,44.373,406.187,44.373z"/>
<g>
	<rect x="92.16" y="112.64" style="fill:#DC4161;" width="54.613" height="54.613"/>
	<path style="fill:#DC4161;" d="M406.187,44.373h-54.613c45.243,0,81.92,36.677,81.92,81.92v40.96h54.613v-40.96
		C488.107,81.05,451.43,44.373,406.187,44.373z"/>
	<rect x="10.24" y="153.6" style="fill:#DC4161;" width="150.187" height="54.613"/>
</g>
<rect x="92.16" y="153.6" style="fill:#E02753;" width="68.267" height="54.613"/>
<rect x="351.573" y="153.6" style="fill:#DC4161;" width="150.187" height="54.613"/>
<rect x="433.493" y="153.6" style="fill:#E02753;" width="68.267" height="54.613"/>
<g>
	<path style="fill:#EDEDED;" d="M228.693,167.253v-61.44c0-11.264-9.216-20.48-20.48-20.48c-11.264,0-20.48,9.216-20.48,20.48v61.44
		H228.693z"/>
	<path style="fill:#EDEDED;" d="M324.267,167.253v-61.44c0-11.264-9.216-20.48-20.48-20.48c-11.264,0-20.48,9.216-20.48,20.48v61.44
		H324.267z"/>
</g>
<path style="fill:#E07188;" d="M160.427,208.213V153.6h191.147v54.613l0,0c75.405,0,136.533,61.127,136.533,136.533v122.88H23.893
	v-122.88C23.893,269.341,85.021,208.213,160.427,208.213L160.427,208.213z"/>
<path style="fill:#DC4161;" d="M351.573,208.213L351.573,208.213V153.6h-68.267v54.613l0,0c75.405,0,136.533,61.127,136.533,136.533
	v122.88h68.267v-122.88C488.107,269.341,426.978,208.213,351.573,208.213z"/>
<circle style="fill:#EDEDED;" cx="256" cy="317.44" r="95.573"/>
<path style="fill:#D8D8DA;" d="M256,221.867c-7.033,0-13.88,0.781-20.48,2.223c42.938,9.378,75.093,47.6,75.093,93.351
	s-32.155,83.972-75.093,93.351c6.6,1.442,13.447,2.223,20.48,2.223c52.784,0,95.573-42.79,95.573-95.573
	S308.784,221.867,256,221.867z"/>
<circle style="fill:#797781;" cx="256" cy="317.44" r="20.48"/>
<g>
	<path style="fill:#2E2D31;" d="M501.76,143.36h-3.413v-17.067c0-50.818-41.342-92.16-92.16-92.16h-245.76
		c-5.657,0-10.24,4.585-10.24,10.24s4.583,10.24,10.24,10.24h245.76c39.524,0,71.68,32.155,71.68,71.68v17.067h-102.4v-30.72
		c0-5.655-4.583-10.24-10.24-10.24h-30.914c-1.704-15.338-14.741-27.307-30.526-27.307c-15.785,0-28.822,11.969-30.526,27.307
		h-34.521c-1.704-15.338-14.742-27.307-30.526-27.307s-28.822,11.969-30.526,27.307h-30.914c-5.657,0-10.24,4.585-10.24,10.24v30.72
		h-102.4v-17.067c0-39.525,32.156-71.68,71.68-71.68c5.657,0,10.24-4.585,10.24-10.24s-4.583-10.24-10.24-10.24
		c-50.818,0-92.16,41.342-92.16,92.16v17.067H10.24C4.583,143.36,0,147.945,0,153.6v54.613c0,5.655,4.583,10.24,10.24,10.24h75.485
		c-43.11,25.597-72.072,72.623-72.072,126.293v122.88c0,5.655,4.583,10.24,10.24,10.24h464.213c5.657,0,10.24-4.585,10.24-10.24
		c0-5.655-4.583-10.24-10.24-10.24H34.133v-112.64c0-69.639,56.655-126.293,126.293-126.293c5.657,0,10.24-4.585,10.24-10.24V163.84
		h170.667v44.373c0,5.655,4.583,10.24,10.24,10.24c69.639,0,126.293,56.654,126.293,126.293v68.267c0,5.655,4.583,10.24,10.24,10.24
		s10.24-4.585,10.24-10.24v-68.267c0-53.67-28.961-100.696-72.072-126.293h75.485c5.657,0,10.24-4.585,10.24-10.24V153.6
		C512,147.945,507.417,143.36,501.76,143.36z M238.933,122.88h34.133v20.48h-34.133V122.88z M20.48,163.84h129.707v34.133H20.48
		V163.84z M157.013,143.36v-20.48h20.48v20.48H157.013z M197.973,143.36v-37.547c0-5.647,4.593-10.24,10.24-10.24
		s10.24,4.593,10.24,10.24v6.801c0,0.01-0.001,0.018-0.001,0.026s0.001,0.018,0.001,0.026v30.694H197.973z M293.547,143.36v-37.547
		c0-5.647,4.593-10.24,10.24-10.24c5.647,0,10.24,4.593,10.24,10.24v37.547H293.547z M334.507,143.36v-20.48h20.48v20.48H334.507z
		 M491.52,197.973H361.813V163.84H491.52V197.973z"/>
	<path style="fill:#2E2D31;" d="M256,211.627c-58.345,0-105.813,47.467-105.813,105.813S197.655,423.253,256,423.253
		s105.813-47.467,105.813-105.813S314.345,211.627,256,211.627z M256,402.773c-47.053,0-85.333-38.281-85.333-85.333
		s38.28-85.333,85.333-85.333s85.333,38.281,85.333,85.333S303.053,402.773,256,402.773z"/>
	<path style="fill:#2E2D31;" d="M256,286.72c-16.938,0-30.72,13.78-30.72,30.72c0,16.94,13.782,30.72,30.72,30.72
		s30.72-13.78,30.72-30.72C286.72,300.5,272.938,286.72,256,286.72z M256,327.68c-5.647,0-10.24-4.593-10.24-10.24
		c0-5.647,4.593-10.24,10.24-10.24c5.647,0,10.24,4.593,10.24,10.24C266.24,323.087,261.647,327.68,256,327.68z"/>
</g>
<g>
</g>
<g>
</g>
<g>
</g>
<g>
</g>
<g>
</g>
<g>
</g>
<g>
</g>
<g>
</g>
<g>
</g>
<g>
</g>
<g>
</g>
<g>
</g>
<g>
</g>
<g>
</g>
<g>
</g>
</svg>
