<?xml version="1.0" encoding="UTF-8"?>
<!DOCTYPE svg PUBLIC "-//W3C//DTD SVG 1.1//EN" "http://www.w3.org/Graphics/SVG/1.1/DTD/svg11.dtd">
<!-- Creator: CorelDRAW -->
<svg xmlns="http://www.w3.org/2000/svg" xml:space="preserve" width="6.82666in" height="6.82666in" style="shape-rendering:geometricPrecision; text-rendering:geometricPrecision; image-rendering:optimizeQuality; fill-rule:evenodd; clip-rule:evenodd"
viewBox="0 0 6.82666 6.82666"
 xmlns:xlink="http://www.w3.org/1999/xlink">
 <defs>
  <style type="text/css">
   <![CDATA[
    .fil0 {fill:none}
    .fil4 {fill:#FEFEFE}
    .fil2 {fill:#4FC3F7}
    .fil1 {fill:#81D4FA}
    .fil3 {fill:#E53935;fill-rule:nonzero}
   ]]>
  </style>
 </defs>
 <g id="Layer_x0020_1">
  <metadata id="CorelCorpID_0Corel-Layer"/>
  <g id="_251226816">
   <rect id="_251226264" class="fil0" width="6.82666" height="6.82666"/>
   <rect id="_251226384" class="fil0" x="0.853331" y="0.853331" width="5.12" height="5.12"/>
  </g>
  <polygon class="fil1" points="1.36441,3.04297 3.41333,1.2198 5.46225,3.11537 5.46225,5.79655 1.36441,5.79655 "/>
  <polygon class="fil2" points="1.36826,3.03955 3.41333,1.2198 5.46225,3.11537 5.46225,3.42249 3.41333,1.52693 1.36441,3.42248 1.36441,3.04311 "/>
  <polygon class="fil3" points="0.853331,3.3985 3.31877,1.11759 3.41333,1.03011 3.50789,1.11759 5.97333,3.3985 5.78421,3.60292 3.41333,1.40949 1.04245,3.60292 "/>
  <path class="fil4" d="M4.3615 4.92004l0 -0.58872 -0.210209 0 0 -0.119953 0.563146 0 0 0.119953 -0.209717 0 0 0.58872 -0.14322 0zm-0.873012 0l0 -0.708673 0.13926 0 0.290067 0.473217 0 -0.473217 0.132992 0 0 0.708673 -0.143713 0 -0.285618 -0.462165 0 0.462165 -0.132988 0zm-0.66165 0l0 -0.708673 0.525362 0 0 0.119953 -0.382307 0 0 0.157083 0.35574 0 0 0.119291 -0.35574 0 0 0.192886 0.395835 0 0 0.119461 -0.53889 0zm-0.57139 -0.409035l0.105764 0c0.0686378,0 0.111539,-0.00280315 0.128701,-0.00857874 0.0169921,-0.00577559 0.0303622,-0.0158386 0.0400945,-0.0300315 0.00957087,-0.014189 0.0145197,-0.0318465 0.0145197,-0.0531299 0,-0.0239252 -0.00643701,-0.043063 -0.0191378,-0.057748 -0.0127087,-0.014685 -0.0306929,-0.0239252 -0.0539567,-0.0278858 -0.0115512,-0.00148425 -0.0463661,-0.00231102 -0.104445,-0.00231102l-0.111539 0 0 0.179685zm-0.14322 0.409035l0 -0.708673 0.301287 0c0.0757362,0 0.130681,0.00643307 0.165004,0.0191378 0.0343189,0.0127087 0.0618701,0.035311 0.0824961,0.067815 0.020626,0.0326732 0.0308583,0.0697953 0.0308583,0.111705 0,0.0531339 -0.0156772,0.097185 -0.0468622,0.131835 -0.031185,0.0344843 -0.0780433,0.0564331 -0.140248,0.0653425 0.0310197,0.0181496 0.0565945,0.0379488 0.0767205,0.0595669 0.0201339,0.0216142 0.0471929,0.0598937 0.0813465,0.115l0.086626 0.138272 -0.171102 0 -0.103457 -0.154276c-0.0367953,-0.0551102 -0.061874,-0.0897598 -0.0754055,-0.104114 -0.0135276,-0.0143543 -0.0278858,-0.0240906 -0.043063,-0.0295354 -0.0151811,-0.00527953 -0.0391063,-0.00792126 -0.0721063,-0.00792126l-0.028874 0 0 0.295846 -0.14322 0zm1.82061 -1.51503l0.105764 0c0.0686378,0 0.111539,-0.00280315 0.128701,-0.00857874 0.0169921,-0.00577953 0.0303583,-0.0158386 0.0400945,-0.0300315 0.00957087,-0.014189 0.0145197,-0.0318465 0.0145197,-0.0531299 0,-0.0239252 -0.00643701,-0.0430669 -0.0191378,-0.057752 -0.0127087,-0.014685 -0.0306929,-0.0239213 -0.0539567,-0.0278819 -0.0115512,-0.00148819 -0.0463661,-0.00231102 -0.104445,-0.00231102l-0.111539 0 0 0.179685zm-0.14322 0.409035l0 -0.708673 0.301287 0c0.0757362,0 0.130681,0.00643307 0.165,0.0191378 0.0343228,0.0127047 0.061874,0.035311 0.0825,0.067815 0.020626,0.0326693 0.0308583,0.0697953 0.0308583,0.111705 0,0.0531299 -0.0156772,0.097185 -0.0468622,0.131835 -0.031185,0.0344843 -0.0780433,0.0564331 -0.140248,0.0653386 0.0310197,0.0181535 0.0565945,0.0379528 0.0767205,0.0595669 0.0201339,0.0216142 0.0471929,0.0598937 0.0813465,0.115004l0.086626 0.138272 -0.171102 0 -0.103457 -0.154276c-0.0367953,-0.0551102 -0.061874,-0.0897638 -0.0754055,-0.104114 -0.0135276,-0.0143583 -0.0278858,-0.0240906 -0.043063,-0.0295354 -0.0151811,-0.00528346 -0.0391063,-0.00792126 -0.0721063,-0.00792126l-0.028874 0 0 0.295846 -0.14322 0zm-0.652079 -0.354752c0,0.080189 0.0186417,0.141075 0.0556024,0.182488 0.037126,0.0414173 0.0841496,0.0620433 0.14124,0.0620433 0.0569291,0 0.103787,-0.0204606 0.140417,-0.0617087 0.0364646,-0.0410866 0.0547756,-0.102634 0.0547756,-0.184803 0,-0.0811811 -0.017815,-0.141732 -0.0532913,-0.181831 -0.0356378,-0.0399291 -0.0829961,-0.0598937 -0.141902,-0.0598937 -0.0590669,0 -0.106587,0.0202953 -0.142724,0.0607205 -0.0359685,0.0404252 -0.0541181,0.101311 -0.0541181,0.182984zm-0.147343 0.0047874c0,-0.0722717 0.0107205,-0.132827 0.0323386,-0.181831 0.0161693,-0.0359724 0.0381142,-0.0684764 0.0659961,-0.097185 0.0278858,-0.0285433 0.0584134,-0.0498307 0.0915787,-0.0636929 0.0442165,-0.0188071 0.0950394,-0.0280472 0.152787,-0.0280472 0.104445,0 0.187933,0.0323386 0.250638,0.097185 0.0626969,0.0646811 0.0940472,0.154772 0.0940472,0.270102 0,0.114512 -0.031185,0.203941 -0.0933858,0.268622 -0.0622087,0.0645157 -0.145366,0.0968543 -0.249319,0.0968543 -0.105433,0 -0.189256,-0.0321732 -0.251461,-0.0963583 -0.0622008,-0.0643543 -0.0932205,-0.152957 -0.0932205,-0.26565zm-0.574862 0.349965l0 -0.708673 0.485925 0 0 0.119953 -0.342705 0 0 0.167638 0.295843 0 0 0.119957 -0.295843 0 0 0.301126 -0.14322 0z"/>
 </g>
</svg>
