<?xml version="1.0" encoding="iso-8859-1"?>
<!-- Generator: Adobe Illustrator 19.0.0, SVG Export Plug-In . SVG Version: 6.00 Build 0)  -->
<svg xmlns="http://www.w3.org/2000/svg" xmlns:xlink="http://www.w3.org/1999/xlink" version="1.1" id="Capa_1" x="0px" y="0px" viewBox="0 0 512.002 512.002" style="enable-background:new 0 0 512.002 512.002;" xml:space="preserve">
<path style="fill:#FBB03B;" d="M423.782,17.393v77.641H88.412V17.393c0-5.464,4.402-9.893,9.831-9.893  c4.262,0,8.231,2.186,10.528,5.798l8.857,13.926c2.661,4.184,8.736,4.184,11.397,0l8.376-13.171c2.597-4.083,7.082-6.554,11.9-6.554  l0,0c4.817,0,9.303,2.47,11.9,6.554l8.376,13.171c2.661,4.184,8.736,4.184,11.397,0l8.376-13.171  c2.597-4.083,7.082-6.554,11.9-6.554l0,0c4.818,0,9.303,2.47,11.9,6.554l9.584,15.07c2.661,4.184,8.735,4.184,11.397,0l9.324-14.661  c3.413-5.367,9.898-8.111,16.323-6.507c3.805,0.95,7.036,3.479,9.149,6.802l9.136,14.366c2.661,4.184,8.736,4.184,11.397,0  l9.584-15.07c2.597-4.083,7.082-6.554,11.9-6.554l0,0c4.817,0,9.303,2.47,11.9,6.554l8.376,13.171c2.661,4.184,8.736,4.184,11.397,0  l8.376-13.171c2.597-4.083,7.082-6.554,11.9-6.554l0,0c4.817,0,9.303,2.47,11.9,6.553l8.376,13.171  c2.661,4.184,8.736,4.184,11.397,0l8.857-13.926c2.298-3.613,6.266-5.798,10.528-5.798C419.38,7.5,423.782,11.929,423.782,17.393z   M88.412,494.607c0,5.464,4.402,9.893,9.831,9.893c4.262,0,8.231-2.185,10.528-5.798l8.857-13.926c2.661-4.184,8.736-4.184,11.397,0  l8.376,13.171c2.597,4.083,7.082,6.554,11.9,6.554l0,0c4.817,0,9.303-2.47,11.9-6.554l8.376-13.171  c2.661-4.184,8.736-4.184,11.397,0l8.376,13.171c2.597,4.083,7.082,6.554,11.9,6.554l0,0c4.818,0,9.303-2.47,11.9-6.554l9.584-15.07  c2.661-4.184,8.735-4.184,11.397,0l9.324,14.661c3.413,5.367,9.898,8.111,16.323,6.507c3.805-0.95,7.036-3.479,9.149-6.802  l9.136-14.366c2.661-4.184,8.736-4.184,11.397,0l9.584,15.07c2.597,4.083,7.082,6.554,11.9,6.554l0,0c4.817,0,9.303-2.47,11.9-6.554  l8.376-13.171c2.661-4.184,8.736-4.184,11.397,0l8.376,13.171c2.597,4.083,7.082,6.554,11.9,6.554l0,0  c4.817,0,9.303-2.47,11.9-6.554l8.376-13.171c2.661-4.184,8.736-4.184,11.397,0l8.857,13.926c2.298,3.613,6.266,5.798,10.528,5.798  c5.43,0,9.831-4.429,9.831-9.893v-77.641H88.412V494.607z"/>
<path style="fill:#F99A1E;" d="M423.686,17.393v77.641h-29.712V27.903c0.175-0.213,0.342-0.437,0.496-0.679l8.857-13.926  c2.297-3.613,6.266-5.798,10.528-5.798C419.284,7.5,423.686,11.929,423.686,17.393z M393.974,484.097  c0.175,0.213,0.342,0.437,0.496,0.679l8.857,13.926c2.297,3.613,6.266,5.798,10.528,5.798c5.43,0,9.831-4.429,9.831-9.893v-77.641  h-29.712V484.097z"/>
<path style="fill:#F24F43;" d="M443.403,85.27l-9.73,84.422c-6.257,54.29-6.393,108.98-0.405,163.293l8.21,74.476  c2.171,19.698-15.678,36.738-38.484,36.738H108.833c-22.673,0-40.478-16.851-38.514-36.45l8.231-82.13  c4.954-49.435,4.842-99.153-0.336-148.571l-9.632-91.929c-1.029-9.822,7.884-18.29,19.25-18.29h336.337  C435.605,66.829,444.541,75.396,443.403,85.27z"/>
<path style="fill:#ED322E;" d="M433.674,169.691c-6.257,54.29-6.393,108.98-0.405,163.293l8.21,74.476  c2.171,19.698-15.679,36.738-38.484,36.738h-24.038c22.805,0,40.655-17.04,38.484-36.738l-8.21-74.476  c-5.987-54.313-5.852-109.003,0.405-163.293l9.729-84.422c1.138-9.873-7.798-18.441-19.234-18.441h24.038  c11.436,0,20.372,8.568,19.234,18.441L433.674,169.691z"/>
<path style="fill:#FBB03B;" d="M368.597,255.514c0,41.898-33.751,75.863-75.386,75.863c-13.537,0-26.229-3.609-37.21-9.895  c-10.981,6.286-23.673,9.895-37.21,9.895c-41.635,0-75.386-33.965-75.386-75.863s33.752-75.863,75.386-75.863  c13.537,0,26.229,3.609,37.21,9.895c10.981-6.286,23.673-9.895,37.21-9.895C334.845,179.651,368.597,213.616,368.597,255.514z"/>
<path style="fill:#FEC76B;" d="M334.267,255.514c0,35.953-24.861,66.042-58.221,73.864c-7.121-1.67-13.849-4.361-20.036-7.9  c22.788-13.05,38.168-37.691,38.168-65.963s-15.38-52.914-38.168-65.963c6.187-3.539,12.916-6.231,20.036-7.9  C309.406,189.472,334.267,219.561,334.267,255.514z M201.626,181.65c-33.36,7.822-58.221,37.911-58.221,73.864  s24.861,66.042,58.221,73.864c33.36-7.822,58.221-37.911,58.221-73.864S234.986,189.472,201.626,181.65z"/>
<path d="M450.852,86.128c0.742-6.44-1.313-12.751-5.788-17.771c-3.587-4.025-8.408-6.839-13.784-8.165V17.394  C431.28,7.803,423.506,0,413.949,0c-6.862,0-13.163,3.467-16.856,9.273l-8.227,12.935l-7.745-12.179  C377.127,3.749,370.313,0,362.892,0c-7.421,0-14.234,3.749-18.227,10.029l-7.746,12.179l-7.746-12.179  C325.178,3.749,318.365,0,310.944,0c-7.42,0-14.234,3.749-18.229,10.029l-8.953,14.079l-8.506-13.375  c-3.238-5.093-8.091-8.664-13.661-10.054c-9.429-2.355-19.26,1.567-24.468,9.758l-8.694,13.67l-8.954-14.079  C215.485,3.749,208.671,0,201.25,0s-14.235,3.749-18.228,10.029l-7.746,12.179l-7.746-12.179C163.536,3.749,156.722,0,149.302,0  c-7.421,0-14.235,3.749-18.228,10.029l-7.746,12.179l-8.227-12.935C111.408,3.467,105.106,0,98.244,0  c-9.556,0-17.331,7.803-17.331,17.394v42.755c-5.408,1.296-10.271,4.094-13.891,8.113c-4.475,4.969-6.57,11.233-5.898,17.639  l9.631,91.93c5.11,48.775,5.222,98.247,0.333,147.041l-8.231,82.13c-1.067,10.647,2.482,21.083,9.994,29.385  c2.39,2.641,5.106,4.965,8.063,6.966v51.255c0,9.591,7.775,17.394,17.331,17.394c6.862,0,13.164-3.467,16.857-9.273l8.226-12.935  l7.746,12.179c3.993,6.28,10.808,10.029,18.228,10.029s14.234-3.749,18.228-10.029l7.746-12.179l7.746,12.179  c3.993,6.28,10.808,10.029,18.228,10.029s14.235-3.749,18.228-10.029l8.954-14.079l8.694,13.67  c5.21,8.191,15.045,12.114,24.467,9.758c5.571-1.391,10.424-4.961,13.661-10.054l8.507-13.375l8.954,14.08  c3.994,6.279,10.809,10.028,18.228,10.028c7.421,0,14.234-3.749,18.227-10.029l7.747-12.179l7.745,12.179  c3.994,6.28,10.808,10.029,18.228,10.029c7.421,0,14.235-3.749,18.228-10.029l7.746-12.179l8.227,12.935  c3.693,5.807,9.994,9.273,16.856,9.273c9.557,0,17.331-7.803,17.331-17.394v-51.499c2.873-1.985,5.511-4.281,7.838-6.878  c7.509-8.382,10.994-18.891,9.814-29.591l-8.21-74.476c-5.912-53.63-5.777-108.005,0.401-161.612L450.852,86.128z M435.952,84.411  l-9.73,84.422c-6.307,54.723-6.444,110.228-0.409,164.974l8.21,74.476c0.706,6.405-1.452,12.776-6.077,17.938  c-5.965,6.659-15.06,10.478-24.951,10.478H171.387c-4.142,0-7.5,3.358-7.5,7.5s3.358,7.5,7.5,7.5h231.608  c4.571,0,9.035-0.597,13.286-1.724v44.632c0,1.32-1.046,2.394-2.331,2.394c-1.704,0-3.274-0.869-4.2-2.323l-8.855-13.926  c-2.634-4.141-7.13-6.614-12.027-6.614s-9.393,2.473-12.027,6.614l-8.376,13.171c-1.226,1.927-3.309,3.078-5.571,3.078  c-2.263,0-4.345-1.151-5.571-3.079l-8.375-13.17c-2.634-4.141-7.13-6.614-12.027-6.614s-9.394,2.473-12.026,6.614l-8.378,13.171  c-1.226,1.927-3.308,3.078-5.57,3.078s-4.346-1.151-5.571-3.079l-9.585-15.07c-2.634-4.141-7.129-6.613-12.026-6.613  s-9.393,2.472-12.026,6.613l-9.138,14.367c-1.148,1.807-2.839,3.101-4.638,3.55c-3.152,0.786-6.437-0.521-8.176-3.255l-9.325-14.662  c-2.634-4.141-7.13-6.613-12.027-6.613c-4.897,0-9.393,2.472-12.027,6.613l-9.584,15.071c-1.226,1.927-3.308,3.078-5.571,3.078  s-4.345-1.151-5.571-3.079l-8.376-13.17c-2.634-4.141-7.129-6.614-12.027-6.614c-4.897,0-9.393,2.473-12.027,6.614l-8.376,13.17  c-1.226,1.928-3.309,3.079-5.571,3.079c-2.263,0-4.345-1.151-5.571-3.079l-8.376-13.17c-2.634-4.141-7.129-6.614-12.027-6.614  c-4.897,0-9.393,2.473-12.027,6.614l-8.856,13.926c-0.925,1.455-2.495,2.323-4.2,2.323c-1.285,0-2.331-1.074-2.331-2.394v-44.532  c4.142,1.066,8.483,1.624,12.92,1.624h33.065c4.142,0,7.5-3.358,7.5-7.5s-3.358-7.5-7.5-7.5h-33.065  c-9.832,0-18.894-3.782-24.861-10.377c-4.631-5.118-6.83-11.449-6.191-17.825l8.231-82.129c4.991-49.809,4.877-100.31-0.34-150.1  l-9.631-91.93c-0.285-2.722,0.999-4.786,2.126-6.038c2.273-2.524,5.796-3.971,9.665-3.971h0.57c0.003,0,0.006,0,0.01,0  s0.006,0,0.01,0h257.001c4.143,0,7.5-3.358,7.5-7.5s-3.357-7.5-7.5-7.5H95.913V17.394c0-1.32,1.046-2.394,2.331-2.394  c1.705,0,3.274,0.869,4.2,2.323l8.856,13.926c2.634,4.141,7.13,6.614,12.027,6.614c4.897,0,9.393-2.473,12.027-6.614l8.376-13.171  c1.226-1.927,3.309-3.078,5.571-3.078c2.263,0,4.345,1.151,5.571,3.079l8.376,13.17c2.634,4.141,7.129,6.614,12.027,6.614  c4.897,0,9.393-2.473,12.027-6.614l8.376-13.171c1.226-1.927,3.309-3.078,5.571-3.078c2.263,0,4.345,1.151,5.571,3.079l9.584,15.07  c2.634,4.141,7.13,6.613,12.027,6.613c4.897,0,9.393-2.472,12.027-6.613l9.325-14.662c1.738-2.734,5.022-4.045,8.177-3.255  c1.798,0.449,3.488,1.743,4.638,3.55l9.137,14.366c2.634,4.141,7.129,6.613,12.026,6.613s9.393-2.472,12.027-6.613l9.583-15.07  c1.227-1.928,3.31-3.079,5.572-3.079s4.345,1.151,5.571,3.079l8.376,13.17c2.634,4.141,7.13,6.614,12.027,6.614  s9.393-2.473,12.026-6.614l8.377-13.171c1.226-1.927,3.308-3.078,5.57-3.078c2.263,0,4.346,1.151,5.572,3.079l8.375,13.17  c2.634,4.141,7.13,6.614,12.027,6.614s9.394-2.473,12.026-6.614l8.856-13.926c0.926-1.455,2.496-2.323,4.2-2.323  c1.285,0,2.331,1.074,2.331,2.394v41.935h-41.53c-4.143,0-7.5,3.358-7.5,7.5s3.357,7.5,7.5,7.5h49.418  c3.836,0,7.462,1.499,9.699,4.009C434.992,79.6,436.267,81.677,435.952,84.411z M376.096,255.514  c0,45.967-37.182,83.363-82.885,83.363c-4.143,0-7.5-3.358-7.5-7.5s3.357-7.5,7.5-7.5c37.432,0,67.885-30.667,67.885-68.363  c0-37.695-30.453-68.363-67.885-68.363c-2.338,0-4.692,0.121-6.995,0.358c-4.128,0.423-7.805-2.571-8.23-6.691  c-0.425-4.12,2.571-7.805,6.691-8.229c2.813-0.29,5.685-0.437,8.534-0.437C338.914,172.151,376.096,209.547,376.096,255.514z   M304.074,221.473V220.5c0-4.142,3.357-7.5,7.5-7.5s7.5,3.358,7.5,7.5v0.973c0,4.142-3.357,7.5-7.5,7.5  S304.074,225.615,304.074,221.473z M304.074,289.555c0-4.142,3.357-7.5,7.5-7.5s7.5,3.358,7.5,7.5v0.973c0,4.142-3.357,7.5-7.5,7.5  s-7.5-3.358-7.5-7.5V289.555z M332.836,263.5c-4.143,0-7.5-3.358-7.5-7.5v-0.973c0-4.142,3.357-7.5,7.5-7.5s7.5,3.358,7.5,7.5V256  C340.336,260.142,336.979,263.5,332.836,263.5z M218.791,172.151c-45.703,0-82.885,37.396-82.885,83.363  s37.182,83.363,82.885,83.363s82.885-37.396,82.885-83.363C301.676,209.547,264.494,172.151,218.791,172.151z M218.791,323.877  c-37.432,0-67.885-30.667-67.885-68.363c0-37.695,30.453-68.363,67.885-68.363s67.885,30.667,67.885,68.363  C286.677,293.209,256.223,323.877,218.791,323.877z M226.291,255.027V256c0,4.142-3.358,7.5-7.5,7.5s-7.5-3.358-7.5-7.5v-0.973  c0-4.142,3.358-7.5,7.5-7.5S226.291,250.885,226.291,255.027z M207.928,220.5v0.973c0,4.142-3.358,7.5-7.5,7.5s-7.5-3.358-7.5-7.5  V220.5c0-4.142,3.358-7.5,7.5-7.5S207.928,216.358,207.928,220.5z M244.654,220.5v0.973c0,4.142-3.358,7.5-7.5,7.5  s-7.5-3.358-7.5-7.5V220.5c0-4.142,3.358-7.5,7.5-7.5S244.654,216.358,244.654,220.5z M207.928,289.555v0.973  c0,4.142-3.358,7.5-7.5,7.5s-7.5-3.358-7.5-7.5v-0.973c0-4.142,3.358-7.5,7.5-7.5S207.928,285.413,207.928,289.555z   M244.654,289.555v0.973c0,4.142-3.358,7.5-7.5,7.5s-7.5-3.358-7.5-7.5v-0.973c0-4.142,3.358-7.5,7.5-7.5  S244.654,285.413,244.654,289.555z M188.598,255.027V256c0,4.142-3.358,7.5-7.5,7.5s-7.5-3.358-7.5-7.5v-0.973  c0-4.142,3.358-7.5,7.5-7.5S188.598,250.885,188.598,255.027z M265.917,255.027V256c0,4.142-3.357,7.5-7.5,7.5  c-4.142,0-7.5-3.358-7.5-7.5v-0.973c0-4.142,3.358-7.5,7.5-7.5C262.559,247.527,265.917,250.885,265.917,255.027z"/>
<g>
</g>
<g>
</g>
<g>
</g>
<g>
</g>
<g>
</g>
<g>
</g>
<g>
</g>
<g>
</g>
<g>
</g>
<g>
</g>
<g>
</g>
<g>
</g>
<g>
</g>
<g>
</g>
<g>
</g>
</svg>
