<svg xmlns="http://www.w3.org/2000/svg" xmlns:xlink="http://www.w3.org/1999/xlink" viewBox="0 0 64 64"><defs><style>.cls-1{fill:url(#linear-gradient);}.cls-2{fill:#ffb369;}.cls-3{fill:url(#linear-gradient-2);}.cls-4{fill:#b4cde1;}.cls-5{fill:url(#linear-gradient-3);}.cls-6{fill:#4795ea;}</style><linearGradient id="linear-gradient" x1="31.73" y1="52.8" x2="31.73" y2="5.82" gradientUnits="userSpaceOnUse"><stop offset="0" stop-color="#fe9661"/><stop offset="1" stop-color="#ffb369"/></linearGradient><linearGradient id="linear-gradient-2" x1="9" y1="16" x2="25" y2="16" gradientUnits="userSpaceOnUse"><stop offset="0" stop-color="#d3e6f5"/><stop offset="1" stop-color="#f0f7fc"/></linearGradient><linearGradient id="linear-gradient-3" x1="46.5" y1="53" x2="46.5" y2="31" gradientUnits="userSpaceOnUse"><stop offset="0" stop-color="#54a5ff"/><stop offset="1" stop-color="#8ad3fe"/></linearGradient></defs><title>Sport</title><g id="Sport"><path class="cls-1" d="M53.51,16C24.6,44.89,33.69,31.56,12.44,52.8L8.2,48.56c21-21,8.78-13,36.64-40.89a6.21,6.21,0,0,1,8.78-.06A6,6,0,0,1,53.51,16Z"/><path class="cls-2" d="M12.44,55.63a2,2,0,0,1-2.83,0L5.37,51.38A2,2,0,1,1,8.2,48.56l4.24,4.24A2,2,0,0,1,12.44,55.63Z"/><path class="cls-3" d="M25,16a8,8,0,1,1-9-7.94A8,8,0,0,1,25,16Z"/><path class="cls-4" d="M19,23.76A8.07,8.07,0,0,1,17,24a.61.61,0,0,1,0-.19,7,7,0,0,0-7.76-7.76H9a8.07,8.07,0,0,1,.24-2A9,9,0,0,1,19,23.76Z"/><path class="cls-4" d="M24.94,17A9,9,0,0,1,16,8.06a8.36,8.36,0,0,1,2,0A7,7,0,0,0,24.94,15,8.36,8.36,0,0,1,24.94,17Z"/><path class="cls-5" d="M59,33.64V43A10,10,0,0,1,49,53H44A10,10,0,0,1,34,43V39.5A2.48,2.48,0,0,1,38.91,39c.12.44.09.46.09,3.54A2.5,2.5,0,0,0,41.35,45,2.62,2.62,0,0,0,44,42.34v-8c0-4.75,5-3.86,5-.83a2.5,2.5,0,0,1,5,0,2.49,2.49,0,0,1,2-2.45A2.54,2.54,0,0,1,59,33.64Z"/><path class="cls-6" d="M53,52.16V55a2,2,0,0,1-2,2H43a2,2,0,0,1-2-2V52.54A9.91,9.91,0,0,0,44,53C49,53,50.61,53.22,53,52.16Z"/><path class="cls-6" d="M54.05,33c-.07.36,0-.36,0,9a5,5,0,0,1-5,5,1,1,0,0,0,0,2,7,7,0,0,0,7-7V33.5a2.49,2.49,0,0,1,1.5-2.29A2.5,2.5,0,0,0,54.05,33Z"/><path class="cls-6" d="M49.39,32.17C48.88,33,49,32.58,49,42a1,1,0,0,0,2,0V33.5a2.49,2.49,0,0,1,1.5-2.29A2.5,2.5,0,0,0,49.39,32.17Z"/><path class="cls-6" d="M44.67,31.81c-.77.9-.67,1.49-.67,2.69A4.51,4.51,0,0,1,38.91,39c.45,1.65-.92,5.38,2.09,6v0a2.92,2.92,0,0,0,1.66-.29A4.89,4.89,0,0,0,45,43c1.24-1.64,1-2.37,1-9.5a2.49,2.49,0,0,1,1.5-2.29A2.48,2.48,0,0,0,44.67,31.81Z"/></g></svg>