<?xml version="1.0" encoding="utf-8"?>
<!-- Generator: Adobe Illustrator 24.0.0, SVG Export Plug-In . SVG Version: 6.00 Build 0)  -->
<svg version="1.1" id="Layer_1" xmlns="http://www.w3.org/2000/svg" xmlns:xlink="http://www.w3.org/1999/xlink" x="0px" y="0px"
	 viewBox="0 0 256 256" style="enable-background:new 0 0 256 256;" xml:space="preserve">
<style type="text/css">
	.st0{fill:#FC5D3D;}
	.st1{fill:#AFAFAF;}
	.st2{fill:#72C2E9;}
	.st3{fill:#FFFFFF;}
	.st4{fill:#EFEFEF;}
	.st5{fill:#878787;}
	.st6{fill:#F0C020;}
	.st7{fill:#F8E5B0;}
	.st8{fill:#B34F33;}
	.st9{fill:#FFCBC3;}
	.st10{fill:#FFB69F;}
	.st11{fill:#C5E5FE;}
	.st12{fill:#13BF6D;}
	.st13{fill:#F9E5AF;}
	.st14{fill:#7A7380;}
	.st15{fill:#72C1E8;}
	.st16{fill:#C5E5FF;}
	.st17{fill:#FFCBC2;}
	.st18{fill:#6E6D6C;}
	.st19{fill:#F2E1D7;}
	.st20{fill:#7D7B79;}
	.st21{fill:#D6C0B3;}
	.st22{fill:#76FFBB;}
	.st23{fill:#CF941C;}
	.st24{fill:#7C7B7A;}
	.st25{fill:#FEB69F;}
	.st26{fill:#E8A61E;}
	.st27{fill:#EFF0F0;}
	.st28{fill:#EDC21D;}
	.st29{fill:#4BA5C8;}
	.st30{fill:#E8A61F;}
	.st31{fill:#823A26;}
	.st32{fill:#4C4944;}
	.st33{fill:#4C4945;}
</style>
<g>
	<path class="st6" d="M93.22,36.963l0,67.676l80.28-0.004V36.963H93.22z"/>
	<polygon class="st1" points="93.22,36.963 93.22,104.639 84.08,113.773 84.08,46.093 	"/>
	<path class="st6" d="M93.22,104.639l80.28-0.004L93.22,104.639z"/>
	<polygon class="st6" points="173.51,36.963 173.5,104.635 173.5,36.963 	"/>
	<polygon class="st2" points="194.446,18.003 194.446,36.963 72.547,36.963 72.546,18.003 92.483,18.003 92.483,4.916 92.551,4.848 
		174.509,4.848 174.509,18.003 	"/>
	<polygon class="st20" points="92.483,4.916 92.483,18.003 82.013,18.003 82.013,15.192 	"/>
	<polygon class="st20" points="173.507,36.963 173.507,46.099 185.307,46.099 194.446,36.963 	"/>
	<polygon class="st20" points="63.406,46.098 72.547,36.963 93.22,36.963 84.08,46.098 	"/>
	<polygon class="st20" points="72.547,36.963 63.406,46.098 63.406,27.143 72.547,18.003 	"/>
	<path class="st2" d="M179.304,251.158H76.696V236.23c0-3.185,2.582-5.766,5.766-5.766h91.076c3.185,0,5.766,2.582,5.766,5.766
		V251.158z"/>
	<rect x="20.5" y="153.695" class="st6" width="215" height="26.935"/>
	<path class="st1" d="M251,144.555v41.575c0,5.523-4.477,10-10,10H15c-5.523,0-10-4.477-10-10v-41.575c0-2.761,2.239-5,5-5h5.5
		c2.761,0,5,2.239,5,5v36.075h215v-36.075c0-2.761,2.239-5,5-5h5.5C248.761,139.555,251,141.793,251,144.555z"/>
	<polygon class="st3" points="88.921,180.629 73.358,196.192 167.079,196.192 182.642,180.629 	"/>
	<polygon class="st1" points="173.5,104.635 164.36,113.773 84.08,113.773 93.22,104.639 	"/>
	<path class="st6" d="M139.33,136.593c0,4.153-3.367,7.52-7.52,7.52c-4.153,0-7.52-3.367-7.52-7.52s7.52-13.98,7.52-13.98
		S139.33,132.44,139.33,136.593z"/>
	<path d="M145.287,221.616l3.757-5.603c0.769-1.147,0.463-2.7-0.684-3.469c-1.148-0.77-2.7-0.463-3.469,0.684l-3.757,5.603
		c-0.769,1.147-0.463,2.7,0.684,3.469C142.971,223.072,144.521,222.759,145.287,221.616z"/>
	<path d="M130.212,220.224v-9.221c0-1.381-1.119-2.5-2.5-2.5s-2.5,1.119-2.5,2.5v9.221c0,1.381,1.119,2.5,2.5,2.5
		S130.212,221.605,130.212,220.224z"/>
	<path d="M113.605,222.3c1.146-0.769,1.453-2.322,0.684-3.469l-3.757-5.603c-0.77-1.147-2.322-1.454-3.469-0.684
		c-1.146,0.769-1.453,2.322-0.684,3.469l3.757,5.603C110.903,222.759,112.453,223.072,113.605,222.3z"/>
	<path d="M29.125,165.782v0.294c0,1.381,1.119,2.5,2.5,2.5s2.5-1.119,2.5-2.5v-0.294c0-1.381-1.119-2.5-2.5-2.5
		S29.125,164.402,29.125,165.782z"/>
	<path d="M184.875,163.82v-0.294c0-1.381-1.119-2.5-2.5-2.5s-2.5,1.119-2.5,2.5v0.294c0,1.381,1.119,2.5,2.5,2.5
		S184.875,165.2,184.875,163.82z"/>
	<path d="M106.292,163.231v0.294c0,1.381,1.119,2.5,2.5,2.5s2.5-1.119,2.5-2.5v-0.294c0-1.381-1.119-2.5-2.5-2.5
		S106.292,161.85,106.292,163.231z"/>
	<path d="M201.625,170.278v-0.294c0-1.381-1.119-2.5-2.5-2.5s-2.5,1.119-2.5,2.5v0.294c0,1.381,1.119,2.5,2.5,2.5
		S201.625,171.658,201.625,170.278z"/>
	<path d="M226.875,166.224v-0.295c0-1.381-1.119-2.5-2.5-2.5s-2.5,1.119-2.5,2.5v0.295c0,1.381,1.119,2.5,2.5,2.5
		S226.875,167.605,226.875,166.224z"/>
	<path d="M130.625,170.278v0.295c0,1.381,1.119,2.5,2.5,2.5s2.5-1.119,2.5-2.5v-0.295c0-1.381-1.119-2.5-2.5-2.5
		S130.625,168.897,130.625,170.278z"/>
	<path d="M144.375,162.936v0.295c0,1.381,1.119,2.5,2.5,2.5s2.5-1.119,2.5-2.5v-0.295c0-1.381-1.119-2.5-2.5-2.5
		S144.375,161.555,144.375,162.936z"/>
	<path d="M82.625,170.425v0.294c0,1.381,1.119,2.5,2.5,2.5s2.5-1.119,2.5-2.5v-0.294c0-1.381-1.119-2.5-2.5-2.5
		S82.625,169.044,82.625,170.425z"/>
	<path d="M72.292,163.525v0.294c0,1.381,1.119,2.5,2.5,2.5s2.5-1.119,2.5-2.5v-0.294c0-1.381-1.119-2.5-2.5-2.5
		S72.292,162.144,72.292,163.525z"/>
	<path d="M51.292,172.036v0.294c0,1.381,1.119,2.5,2.5,2.5s2.5-1.119,2.5-2.5v-0.294c0-1.381-1.119-2.5-2.5-2.5
		S51.292,170.655,51.292,172.036z"/>
	<circle cx="170.5" cy="153.693" r="2.5"/>
	<circle cx="38.29" cy="196.133" r="2.5"/>
	<path d="M15,198.633h13.29c1.38,0,2.5-1.13,2.5-2.5c0-1.38-1.12-2.5-2.5-2.5H15c-4.13-0.01-7.49-3.38-7.5-7.5v-41.58
		c0-1.37,1.12-2.5,2.5-2.5h5.5c1.38,0,2.5,1.13,2.5,2.5v36.08c0,1.388,1.146,2.5,2.5,2.5h62.382l-10.5,10.5H48.29
		c-1.38,0-2.5,1.12-2.5,2.5c0,1.37,1.12,2.5,2.5,2.5c0,0,183.818,0,192.71,0c6.89-0.01,12.5-5.61,12.5-12.5v-41.58
		c0-4.13-3.36-7.5-7.5-7.5h-5.5c-4.13,0-7.5,3.37-7.5,7.5v6.64h-52.5c-1.38,0-2.5,1.12-2.5,2.5s1.12,2.5,2.5,2.5H233v21.94
		c-3.993,0-208.994,0-210,0v-21.94h137.5c1.38,0,2.5-1.12,2.5-2.5s-1.12-2.5-2.5-2.5H23v-6.64c0-4.13-3.37-7.5-7.5-7.5H10
		c-4.14,0-7.5,3.37-7.5,7.5v41.58C2.5,193.023,8.11,198.622,15,198.633z M89.953,183.133h11.673l-10.5,10.5H79.453L89.953,183.133z
		 M152.596,183.129c0.011,0,0.022,0.003,0.034,0.003s0.022-0.003,0.034-0.003h5.199l-10.503,10.503h-11.674l10.503-10.503H152.596z
		 M109.871,193.633H98.197l10.5-10.5h11.674L109.871,193.633z M127.441,183.133h11.674l-10.5,10.5h-11.674L127.441,183.133z
		 M154.429,193.633l10.5-10.5h11.673l-10.5,10.5H154.429z M235.5,183.133c1.405,0,2.5-1.149,2.5-2.5v-36.08c0-1.37,1.12-2.5,2.5-2.5
		h5.5c1.38,0,2.5,1.13,2.5,2.5v41.58c-0.01,4.12-3.37,7.49-7.5,7.5h-67.827l10.5-10.5H235.5z"/>
	<path d="M74.196,236.23v14.928c0,1.381,1.119,2.5,2.5,2.5h102.608c1.381,0,2.5-1.119,2.5-2.5V236.23
		c0-4.558-3.708-8.266-8.266-8.266H82.462C77.904,227.964,74.196,231.672,74.196,236.23z M176.804,236.23v12.428H79.196V236.23
		c0-1.801,1.465-3.266,3.266-3.266h91.076C175.339,232.964,176.804,234.429,176.804,236.23z"/>
	<path d="M121.79,136.593c0,5.52,4.5,10.02,10.02,10.02c5.52,0,10.02-4.5,10.02-10.02c-0.072-4.403-5.285-11.856-7.94-15.37
		c-0.921-1.481-3.229-1.426-4.082-0.102C128.539,123.088,121.876,131.367,121.79,136.593z M136.83,136.593
		c0,2.76-2.26,5.01-5.02,5.02c-2.76-0.01-5.01-2.26-5.02-5.02c-0.176-1.921,4-8.167,5.02-9.7
		C132.865,128.411,137.081,134.77,136.83,136.593z"/>
	<circle cx="173.5" cy="72.583" r="2.5"/>
	<path d="M176,62.573v-13.97h9.31c0.66,0,1.29-0.26,1.76-0.74c0.394-0.394,8.835-8.812,9.209-9.223
		c0.442-0.472,0.661-1.106,0.661-1.677v-18.96c0-1.415-1.15-2.5-2.49-2.5h-17.44V4.843c0-1.381-1.14-2.5-2.5-2.5H92.55
		c-0.66,0-1.3,0.27-1.77,0.74l-0.05,0.05l-10.47,10.27c-0.47,0.47-0.75,1.12-0.75,1.79v0.31h-6.96c-0.683,0-1.378,0.338-1.77,0.73
		l-9.14,9.14c-0.47,0.47-0.73,1.11-0.73,1.77v18.96c0,1.317,1.12,2.552,2.604,2.49H81.58v65.18c0,1.377,1.132,2.499,2.498,2.5
		c0.001,0,0.001,0,0.002,0c0,0,0,0,0,0c0,0,0,0,0,0h80.28c0.663,0,1.299-0.263,1.768-0.732c0.387-0.387,8.752-8.754,9.143-9.138
		c0.428-0.428,0.73-1.096,0.73-1.77v-22.05c0-1.38-1.12-2.5-2.5-2.5c-1.38,0-2.5,1.12-2.5,2.5v19.55H95.72v-62.67H171v23.12
		c0,1.38,1.12,2.5,2.5,2.5c1.38,0,2.5-1.12,2.5-2.5V62.573z M184.27,43.603h-8.26v-4.14h12.4L184.27,43.603z M89.98,10.873v4.63
		h-4.71L89.98,10.873z M90.72,103.603l-4.14,4.14v-60.61l4.14-4.14V103.603z M65.91,28.173l4.14-4.13v11.88l-4.14,4.14V28.173z
		 M73.57,39.463h13.605c-4.059,4.054-3.248,3.245-4.135,4.13l-13.6,0.01C69.737,43.305,73.287,39.746,73.57,39.463z
		 M163.324,111.273h-73.2l4.134-4.13h73.196L163.324,111.273z M75.05,34.463v-13.96c6.049,0,11.357,0,17.43,0
		c1.385,0,2.5-1.111,2.5-2.5V7.343h77.03v10.66c0,1.37,1.114,2.5,2.5,2.5h17.44v13.96C177.423,34.463,87.693,34.463,75.05,34.463z"
		/>
	<path d="M116.46,70.213c6.42,0,11.64-5.22,11.64-11.64s-5.22-11.65-11.64-11.65s-11.65,5.23-11.65,11.65
		S110.04,70.213,116.46,70.213z M116.46,51.923c3.65,0.01,6.63,2.99,6.64,6.65c-0.01,3.65-2.99,6.63-6.64,6.64
		c-3.66-0.01-6.64-2.99-6.65-6.64C109.82,54.912,112.8,51.932,116.46,51.923z"/>
	<path d="M150.27,46.923c-6.42,0-11.65,5.23-11.65,11.65s5.23,11.64,11.65,11.64c6.42,0,11.64-5.22,11.64-11.64
		S156.69,46.923,150.27,46.923z M150.27,65.213c-3.66-0.01-6.64-2.99-6.65-6.64c0.01-3.66,2.99-6.64,6.65-6.65
		c3.65,0.01,6.63,2.99,6.64,6.65C156.9,62.222,153.92,65.202,150.27,65.213z"/>
	<path d="M113.13,95.463h40.46c4.58,0,8.32-3.74,8.32-8.33c0-4.58-3.74-8.32-8.32-8.32h-40.46c-4.58,0-8.31,3.74-8.32,8.32
		C104.81,91.722,108.55,95.463,113.13,95.463z M130.86,90.463h-8.03v-6.65h8.03V90.463z M135.86,83.813h8.03v6.65h-8.03V83.813z
		 M156.91,87.133c0,1.83-1.49,3.33-3.32,3.33h-4.7v-6.65h4.7C155.42,83.813,156.91,85.302,156.91,87.133z M117.83,83.813v6.65h-4.7
		c-1.83,0-3.32-1.5-3.32-3.33s1.49-3.32,3.32-3.32H117.83z"/>
</g>
</svg>
