<?xml version="1.0" encoding="utf-8"?>
<!-- Generator: Adobe Illustrator 24.3.0, SVG Export Plug-In . SVG Version: 6.00 Build 0)  -->
<svg version="1.1" id="Layer_1" xmlns="http://www.w3.org/2000/svg" xmlns:xlink="http://www.w3.org/1999/xlink" x="0px" y="0px"
	 viewBox="0 0 300 300" enable-background="new 0 0 300 300" xml:space="preserve">
<g>
	<g>
		<g>
			<path fill="none" d="M164.485,242.926c5.748,4.262,12.343,7.554,19.666,9.49c30.955,8.175,62.792-10.354,70.973-41.315
				c8.17-30.955-10.354-62.792-41.314-70.973c-14.918-3.937-30.02-1.628-42.605,5.245c8.797,12.663,13.977,28.025,13.977,44.583
				C185.181,210.367,177.325,228.973,164.485,242.926z"/>
		</g>
		<g>
			<path fill="none" d="M158.66,154.596c-7.382,7.116-13.018,16.227-15.824,26.847c-4.813,18.233-0.314,36.727,10.478,50.556
				c10.093-11.141,16.303-25.864,16.303-42.043C169.618,176.843,165.563,164.672,158.66,154.596z"/>
		</g>
		<g>
			<path fill="none" d="M128.919,177.766c3.563-13.503,10.744-25.106,20.222-34.057c-11.171-10.224-25.988-16.517-42.285-16.517
				c-34.609,0-62.761,28.155-62.761,62.763c0,34.607,28.152,62.762,62.761,62.762c13.219,0,25.479-4.132,35.608-11.141
				C128.611,224.249,122.827,200.818,128.919,177.766z"/>
		</g>
		<g>
			<path fill="#FFDA88" d="M217.491,126.21c-19.642-5.192-39.557-1.752-55.741,7.951c3.493,3.427,6.654,7.181,9.454,11.212
				c12.586-6.873,27.687-9.182,42.605-5.245c30.961,8.181,49.484,40.018,41.314,70.973c-8.181,30.961-40.018,49.49-70.973,41.315
				c-7.323-1.936-13.918-5.227-19.666-9.49c-4.232-3.143-7.968-6.825-11.171-10.928c-10.792-13.829-15.291-32.323-10.478-50.556
				c2.806-10.62,8.441-19.731,15.824-26.847c-2.735-4.002-5.961-7.625-9.519-10.886c-9.478,8.951-16.659,20.554-20.222,34.057
				c-6.092,23.052-0.308,46.483,13.544,63.81c3.28,4.097,7.015,7.85,11.147,11.177c7.678,6.186,16.729,10.91,26.858,13.586
				c38.639,10.206,78.373-12.923,88.579-51.556C279.253,176.144,256.125,136.41,217.491,126.21z"/>
		</g>
		<g>
			<g>
				<path fill="#FFE2A9" d="M203.053,254.144c27.326,2.025,53.16-15.605,60.406-43.043c8.17-30.955-10.354-62.792-41.314-70.973
					c-6.269-1.658-12.568-2.149-18.707-1.717c3.445,0.26,6.914,0.805,10.372,1.717c30.961,8.181,49.484,40.018,41.314,70.973
					C248.618,235.728,227.141,252.428,203.053,254.144z"/>
			</g>
			<g>
				<path fill="#FFE2A9" d="M170.085,134.161c9.945-5.961,21.294-9.543,33.122-10.23c-14.8-0.864-29.197,2.877-41.457,10.23
					c0,0,1.853,1.403,3.025,3.137C166.149,136.558,166.954,135.878,170.085,134.161z"/>
			</g>
			<g>
				<path fill="#FFE2A9" d="M188.804,266.339c-10.129-2.676-19.18-7.4-26.858-13.586c-4.132-3.327-7.868-7.08-11.147-11.177
					c-13.852-17.327-19.636-40.758-13.544-63.81c3.025-11.467,8.678-21.536,16.108-29.801c-1.35-1.48-2.747-2.906-4.221-4.256
					c-9.478,8.951-16.659,20.554-20.222,34.057c-6.092,23.052-0.308,46.483,13.544,63.81c3.28,4.097,7.015,7.85,11.147,11.177
					c7.678,6.186,16.729,10.91,26.858,13.586c7.56,1.995,15.155,2.7,22.572,2.279C198.317,268.334,193.552,267.594,188.804,266.339z
					"/>
			</g>
		</g>
		<g>
			<path fill="#FFDA88" d="M171.204,145.373c-2.8-4.031-5.961-7.785-9.454-11.212c-14.143-13.924-33.53-22.537-54.895-22.537
				c-43.19,0-78.33,35.14-78.33,78.332c0,43.191,35.14,78.326,78.33,78.326c17.511,0,33.702-5.778,46.755-15.528
				c-4.132-3.327-7.868-7.08-11.147-11.177c-10.129,7.009-22.389,11.141-35.608,11.141c-34.609,0-62.761-28.155-62.761-62.762
				c0-34.608,28.152-62.763,62.761-62.763c16.297,0,31.115,6.293,42.285,16.517c3.558,3.262,6.784,6.885,9.519,10.886
				c6.902,10.076,10.958,22.247,10.958,35.36c0,16.179-6.21,30.901-16.303,42.043c3.202,4.102,6.938,7.784,11.171,10.928
				c12.84-13.953,20.696-32.559,20.696-52.971C185.181,173.398,180.001,158.036,171.204,145.373z"/>
		</g>
		<g>
			<g>
				<path fill="#FFE2A9" d="M37.873,189.956c0-41.623,32.633-75.751,73.653-78.178c-1.545-0.095-3.102-0.154-4.671-0.154
					c-43.19,0-78.33,35.14-78.33,78.332c0,43.191,35.14,78.326,78.33,78.326c1.456,0,2.889-0.095,4.327-0.178
					C70.325,265.504,37.873,231.459,37.873,189.956z"/>
			</g>
			<g>
				<path fill="#FFE2A9" d="M162.662,231.998c10.093-11.141,16.303-25.864,16.303-42.043c0-13.113-4.055-25.284-10.958-35.36
					c-2.735-4.002-5.961-7.625-9.519-10.886c-11.171-10.224-25.988-16.517-42.285-16.517c-1.533,0-3.043,0.118-4.553,0.231
					c14.397,1.101,27.427,7.08,37.49,16.286c3.558,3.262,6.784,6.885,9.519,10.886c6.902,10.076,10.958,22.247,10.958,35.36
					c0,16.179-6.21,30.901-16.303,42.043c1.415,1.746,3.256,3.67,3.883,4.493C158.826,235.556,159.755,234.769,162.662,231.998z"/>
			</g>
			<g>
				<path fill="#FFE2A9" d="M111.964,252.505c1.409,0.095,2.812,0.213,4.239,0.213c10.685,0,20.725-2.735,29.54-7.477
					c-1.113-1.208-2.255-2.386-3.28-3.665C133.655,247.674,123.23,251.587,111.964,252.505z"/>
			</g>
		</g>
		<g>
			<path fill="#FFDA88" d="M106.856,43.781c-2.723,0-4.925-2.202-4.925-4.925v-7.228c0-2.723,2.202-4.925,4.925-4.925l0,0
				c2.717,0,4.925,2.202,4.925,4.925v7.228C111.775,41.578,109.573,43.784,106.856,43.781L106.856,43.781z"/>
		</g>
		<g>
			<path fill="#FFDA88" d="M46.096,69.541c0-2.72,2.208-4.925,4.925-4.922l7.231-0.003c2.723,0,4.925,2.205,4.925,4.923l0,0
				c0.003,2.723-2.202,4.925-4.925,4.925l-7.231,0.006C48.298,74.464,46.096,72.261,46.096,69.541L46.096,69.541z"/>
		</g>
		<g>
			<path fill="#FFDA88" d="M65.98,37.876c1.924-1.921,5.044-1.921,6.965,0.003l5.116,5.109c1.924,1.927,1.918,5.044,0,6.965l0,0
				c-1.924,1.927-5.039,1.927-6.966,0L65.98,44.84C64.057,42.914,64.057,39.8,65.98,37.876L65.98,37.876z"/>
		</g>
		<g>
			<path fill="#FFDA88" d="M218.397,45.379c2.332-1.397,5.357-0.64,6.755,1.69l3.724,6.201c1.397,2.332,0.645,5.357-1.687,6.755l0,0
				c-2.332,1.403-5.357,0.645-6.76-1.69l-3.724-6.195C215.307,49.801,216.065,46.779,218.397,45.379L218.397,45.379z"/>
		</g>
		<g>
			<path fill="#FFDA88" d="M259.452,56.725c1.403,2.33,0.645,5.357-1.687,6.754l-6.198,3.724c-2.338,1.4-5.358,0.642-6.761-1.684
				l0,0c-1.403-2.332-0.645-5.358,1.693-6.764l6.192-3.723C255.035,53.634,258.049,54.389,259.452,56.725L259.452,56.725z"/>
		</g>
		<g>
			<path fill="#FFDA88" d="M167.617,69.541c0-2.72-2.208-4.925-4.925-4.922l-7.234-0.003c-2.717,0-4.919,2.205-4.919,4.923l0,0
				c-0.006,2.723,2.202,4.925,4.919,4.925l7.234,0.006C165.415,74.464,167.617,72.261,167.617,69.541L167.617,69.541z"/>
		</g>
		<g>
			<path fill="#FFDA88" d="M147.732,37.876c-1.924-1.921-5.044-1.921-6.962,0.003l-5.115,5.109c-1.93,1.927-1.924,5.044-0.006,6.965
				l0,0c1.924,1.927,5.044,1.927,6.967,0l5.115-5.112C149.656,42.914,149.656,39.8,147.732,37.876L147.732,37.876z"/>
		</g>
		<g>
			<g>
				<polygon fill="#FE6F80" points="128.972,60.738 84.733,60.738 73.676,81.557 92.802,81.557 106.856,117.917 120.945,81.557 
					140.036,81.557 				"/>
			</g>
			<g>
				<polygon fill="#F95D7F" points="92.802,81.557 120.945,81.557 106.856,60.738 				"/>
			</g>
			<g>
				<polygon fill="#F95D7F" points="92.802,81.557 106.856,117.917 73.676,81.557 				"/>
			</g>
			<g>
				<polygon fill="#F95D7F" points="120.945,81.557 106.856,117.917 140.036,81.557 				"/>
			</g>
		</g>
		<g>
			<g>
				<polygon fill="#FE6F80" points="253.401,106.849 194.703,91.064 209.438,75.282 248.568,85.804 				"/>
			</g>
			<g>
				<polygon fill="#F95D7F" points="211.59,95.608 236.521,102.309 229.003,80.545 				"/>
			</g>
			<g>
				<polygon fill="#FE6F80" points="211.622,95.617 215.408,131.115 236.515,102.309 				"/>
			</g>
			<g>
				<polygon fill="#F95D7F" points="211.622,95.617 215.408,131.115 194.703,91.064 				"/>
			</g>
			<g>
				<polygon fill="#F95D7F" points="236.515,102.309 215.408,131.115 253.401,106.849 				"/>
			</g>
		</g>
	</g>
	<g>
		<g>
			<g>
				<path fill="#161616" d="M140.036,86.103H73.673c-1.595,0-3.074-0.838-3.897-2.205c-0.821-1.368-0.867-3.066-0.118-4.475
					l11.06-20.817c0.789-1.486,2.334-2.414,4.015-2.414h44.239c1.681,0,3.226,0.928,4.015,2.412l11.064,20.819
					c0.749,1.409,0.703,3.108-0.118,4.475C143.112,85.266,141.632,86.103,140.036,86.103z M81.237,77.01h51.233l-6.231-11.726
					H87.466L81.237,77.01z"/>
			</g>
			<g>
				<path fill="#161616" d="M120.946,86.103H92.762c-1.683,0-3.228-0.929-4.017-2.415c-0.787-1.486-0.691-3.285,0.252-4.68
					l14.089-20.819c1.69-2.497,5.837-2.5,7.53,0l14.095,20.819c0.943,1.394,1.04,3.194,0.252,4.68
					C124.174,85.174,122.629,86.103,120.946,86.103z M101.328,77.01h11.049l-5.525-8.162L101.328,77.01z"/>
			</g>
			<g>
				<path fill="#161616" d="M106.855,122.463h-0.002c-1.878,0-3.562-1.154-4.239-2.907l-14.057-36.36
					c-0.542-1.4-0.358-2.975,0.49-4.209c0.848-1.237,2.251-1.977,3.75-1.977h28.146c1.499,0,2.904,0.74,3.75,1.977
					c0.848,1.237,1.032,2.812,0.488,4.212l-14.089,36.36C110.416,121.309,108.732,122.463,106.855,122.463z M99.431,86.103
					l7.429,19.219l7.447-19.219H99.431z"/>
			</g>
			<g>
				<path fill="#161616" d="M106.857,122.463c-1.243,0-2.472-0.509-3.36-1.483L70.315,84.62c-1.215-1.329-1.529-3.25-0.802-4.899
					c0.728-1.649,2.359-2.711,4.16-2.711h19.125c1.878,0,3.564,1.154,4.24,2.907l14.057,36.36c0.789,2.042,0.013,4.354-1.847,5.505
					C108.509,122.241,107.68,122.463,106.857,122.463z M83.978,86.103l9.896,10.845l-4.193-10.845H83.978z"/>
			</g>
			<g>
				<path fill="#161616" d="M106.854,122.463c-0.823,0-1.652-0.222-2.393-0.681c-1.86-1.154-2.636-3.469-1.844-5.508l14.089-36.36
					c0.678-1.749,2.362-2.904,4.239-2.904h19.091c1.801,0,3.432,1.063,4.16,2.711c0.727,1.649,0.413,3.57-0.802,4.899l-33.181,36.36
					C109.326,121.954,108.097,122.463,106.854,122.463z M124.059,86.103l-4.187,10.804l9.861-10.804H124.059z"/>
			</g>
		</g>
		<g>
			<g>
				<path fill="#161616" d="M253.387,111.396c-0.394,0-0.79-0.05-1.181-0.157l-58.698-15.785c-1.539-0.414-2.753-1.604-3.191-3.14
					c-0.438-1.533-0.042-3.185,1.048-4.351l14.735-15.782c1.151-1.228,2.88-1.724,4.505-1.289l39.13,10.524
					c1.622,0.435,2.874,1.731,3.25,3.371l4.834,21.045c0.358,1.557-0.127,3.185-1.276,4.292
					C255.684,110.949,254.547,111.396,253.387,111.396z M203.174,88.637l44.088,11.857l-2.528-11.008l-33.853-9.105L203.174,88.637z
					"/>
			</g>
			<g>
				<path fill="#161616" d="M236.506,106.855c-0.394,0-0.79-0.05-1.181-0.157l-24.932-6.701c-1.625-0.435-2.874-1.734-3.25-3.374
					c-0.376-1.64,0.184-3.354,1.456-4.455l17.413-15.063c1.143-0.987,2.688-1.344,4.156-0.952c1.456,0.392,2.623,1.481,3.117,2.905
					l7.518,21.764c0.548,1.592,0.175,3.357-0.974,4.585C238.96,106.343,237.749,106.855,236.506,106.855z M221.029,93.441
					l8.383,2.252l-2.528-7.317L221.029,93.441z"/>
			</g>
			<g>
				<path fill="#161616" d="M215.393,135.661c-0.394,0-0.79-0.05-1.181-0.157c-1.814-0.488-3.14-2.039-3.339-3.907l-3.786-35.498
					c-0.16-1.492,0.426-2.966,1.566-3.94c1.142-0.971,2.682-1.326,4.135-0.932l24.893,6.692c1.447,0.388,2.611,1.468,3.108,2.883
					c0.497,1.415,0.266,2.984-0.622,4.194l-21.107,28.806C218.19,134.99,216.82,135.661,215.393,135.661z M216.832,101.729
					l1.838,17.224l10.241-13.977L216.832,101.729z"/>
			</g>
			<g>
				<path fill="#161616" d="M215.393,135.661c-1.663,0-3.241-0.918-4.037-2.46l-20.705-40.051c-0.829-1.598-0.633-3.537,0.497-4.94
					c1.131-1.4,2.992-2.007,4.721-1.536l16.919,4.552c1.814,0.488,3.141,2.039,3.339,3.907l3.786,35.498
					c0.234,2.175-1.116,4.209-3.212,4.836C216.266,135.599,215.828,135.661,215.393,135.661z M203.462,98.132l4.84,9.365l-0.885-8.3
					L203.462,98.132z"/>
			</g>
			<g>
				<path fill="#161616" d="M215.396,135.661c-1.222,0-2.433-0.491-3.318-1.436c-1.498-1.595-1.646-4.032-0.352-5.799l21.107-28.806
					c1.11-1.513,3.04-2.193,4.848-1.702l16.886,4.54c1.738,0.468,3.037,1.918,3.312,3.697c0.275,1.782-0.527,3.555-2.045,4.526
					l-37.994,24.266C217.086,135.428,216.237,135.661,215.396,135.661z M238.327,107.51l-4.911,6.698l8.838-5.645L238.327,107.51z"
					/>
			</g>
		</g>
		<g>
			<path fill="none" d="M164.485,242.926c5.748,4.262,12.343,7.554,19.666,9.49c30.955,8.175,62.792-10.354,70.973-41.315
				c8.17-30.955-10.354-62.792-41.314-70.973c-14.918-3.937-30.02-1.628-42.605,5.245c8.797,12.663,13.977,28.025,13.977,44.583
				C185.181,210.367,177.325,228.973,164.485,242.926z"/>
		</g>
		<g>
			<path fill="none" d="M158.66,154.596c-7.382,7.116-13.018,16.227-15.824,26.847c-4.813,18.233-0.314,36.727,10.478,50.556
				c10.093-11.141,16.303-25.864,16.303-42.043C169.618,176.843,165.563,164.672,158.66,154.596z"/>
		</g>
		<g>
			<path fill="none" d="M128.916,177.766c3.566-13.503,10.747-25.106,20.222-34.057c-11.168-10.224-25.985-16.517-42.282-16.517
				c-34.611,0-62.764,28.155-62.764,62.763c0,34.607,28.153,62.762,62.764,62.762c13.219,0,25.479-4.132,35.608-11.141
				C128.611,224.249,122.827,200.818,128.916,177.766z"/>
		</g>
		<g>
			<path fill="#161616" d="M198.962,273.298c-6.494,0-13.086-0.829-19.654-2.563c-10.49-2.771-20.098-7.631-28.55-14.441
				c-4.363-3.511-8.347-7.506-11.844-11.875c-15.207-19.02-20.586-44.369-14.394-67.812c3.66-13.855,11.092-26.373,21.495-36.203
				c1.733-1.634,4.434-1.658,6.195-0.047c3.949,3.62,7.382,7.548,10.203,11.674c1.252,1.832,1.001,4.301-0.598,5.84
				c-7.065,6.808-12.107,15.362-14.583,24.733c-4.288,16.247-0.765,33.231,9.667,46.598c2.992,3.833,6.456,7.222,10.298,10.076
				c5.5,4.076,11.594,7.021,18.118,8.744c28.516,7.539,57.875-9.552,65.414-38.079c0.263-1.018,0.506-2.042,0.713-3.072
				c0.5-2.46,2.93-4.034,5.357-3.558c2.463,0.5,4.055,2.898,3.558,5.357c-0.243,1.196-0.521,2.386-0.835,3.579
				c-8.821,33.394-43.156,53.373-76.532,44.565c-7.645-2.022-14.782-5.464-21.214-10.232c-4.499-3.342-8.551-7.305-12.047-11.783
				c-12.195-15.626-16.309-35.495-11.289-54.513c2.563-9.703,7.468-18.65,14.276-26.098c-1.095-1.388-2.276-2.744-3.534-4.067
				c-7.564,8.131-13.018,18.008-15.871,28.809c-5.459,20.672-0.71,43.031,12.703,59.811c3.083,3.851,6.599,7.376,10.447,10.475
				c7.456,6.006,15.921,10.289,25.168,12.731c36.227,9.575,73.459-12.109,83.023-48.321c4.626-17.514,2.14-35.806-6.997-51.503
				c-9.137-15.699-23.813-26.891-41.324-31.514c-15.963-4.224-32.533-2.531-47.226,4.718c1.208,1.376,2.374,2.794,3.493,4.25
				c13.284-6.213,28.185-7.592,42.371-3.842c24.138,6.379,42.161,26.477,45.923,51.207c0.376,2.483-1.329,4.801-3.812,5.18
				c-2.463,0.355-4.801-1.332-5.18-3.812c-3.215-21.146-18.621-38.331-39.252-43.783c-13.219-3.493-27.166-1.77-39.266,4.839
				c-2.039,1.11-4.585,0.512-5.914-1.397c-2.637-3.798-5.633-7.35-8.904-10.561c-1.003-0.986-1.495-2.38-1.329-3.78
				c0.166-1.397,0.968-2.64,2.176-3.363c17.996-10.786,39.035-13.784,59.243-8.448c19.855,5.242,36.499,17.931,46.859,35.729
				c10.36,17.798,13.175,38.538,7.93,58.399C264.332,250.433,233.07,273.295,198.962,273.298z"/>
		</g>
		<g>
			<path fill="#161616" d="M106.855,272.827c-18.541,0-36.08-6.006-50.723-17.372c-1.985-1.539-2.344-4.395-0.805-6.379
				c1.542-1.983,4.395-2.344,6.379-0.802c13.034,10.114,28.646,15.46,45.149,15.46c14.095,0,27.591-3.925,39.361-11.402
				c-1.615-1.521-3.163-3.111-4.64-4.765c-10.491,6.355-22.411,9.697-34.721,9.697c-37.115,0-67.31-30.194-67.31-67.309
				c0-37.115,30.196-67.309,67.31-67.309c16.771,0,32.877,6.29,45.352,17.709c3.951,3.62,7.385,7.548,10.206,11.674
				c7.687,11.221,11.751,24.337,11.751,37.926c0,15.321-5.266,30.114-14.9,42.075c1.465,1.637,3.022,3.176,4.665,4.609
				c10.804-13.172,16.706-29.587,16.706-46.684c0-15.072-4.552-29.593-13.163-41.99c-2.64-3.798-5.636-7.35-8.907-10.561
				c-13.91-13.696-32.273-21.234-51.71-21.234c-40.684,0-73.783,33.101-73.783,73.785c0,16.368,5.272,31.881,15.244,44.861
				c1.53,1.992,1.156,4.845-0.835,6.376c-1.991,1.527-4.847,1.157-6.376-0.835c-11.203-14.584-17.126-32.012-17.126-50.402
				c0-45.698,37.178-82.878,82.876-82.878c21.838,0,42.468,8.468,58.086,23.842c3.67,3.602,7.036,7.595,9.999,11.86
				c9.673,13.926,14.788,30.239,14.788,47.175c0,20.799-7.776,40.705-21.897,56.049c-1.575,1.708-4.185,1.962-6.056,0.571
				c-4.496-3.339-8.548-7.302-12.042-11.781c-1.362-1.743-1.271-4.212,0.213-5.849c9.754-10.768,15.127-24.615,15.127-38.991
				c0-11.748-3.513-23.084-10.161-32.79c-2.43-3.558-5.405-6.956-8.843-10.102c-10.793-9.88-24.718-15.324-39.212-15.324
				c-32.102,0-58.217,26.115-58.217,58.216s26.115,58.216,58.217,58.216c11.834,0,23.252-3.573,33.021-10.333
				c1.967-1.359,4.647-0.965,6.136,0.897c3.084,3.854,6.601,7.379,10.449,10.478c1.095,0.879,1.72,2.217,1.696,3.623
				c-0.027,1.406-0.699,2.72-1.826,3.561C141.939,267.144,124.831,272.827,106.855,272.827z"/>
		</g>
		<g>
			<path fill="#161616" d="M106.856,43.781c-2.723,0-4.925-2.202-4.925-4.925v-7.228c0-2.723,2.202-4.925,4.922-4.925l0,0
				c2.72,0,4.925,2.202,4.925,4.925l0.003,7.228C111.775,41.578,109.573,43.784,106.856,43.781L106.856,43.781z"/>
		</g>
		<g>
			<path fill="#161616" d="M46.094,69.541c0-2.72,2.208-4.925,4.925-4.922l7.231-0.003c2.723,0,4.925,2.205,4.925,4.923l0,0
				c0.003,2.723-2.202,4.925-4.925,4.925l-7.231,0.006C48.296,74.464,46.094,72.261,46.094,69.541L46.094,69.541z"/>
		</g>
		<g>
			<path fill="#161616" d="M65.979,37.876c1.924-1.921,5.045-1.921,6.965,0.003l5.115,5.109c1.927,1.927,1.921,5.044,0.003,6.965
				l0,0c-1.924,1.927-5.041,1.927-6.966,0l-5.116-5.112C64.057,42.914,64.057,39.8,65.979,37.876L65.979,37.876z"/>
		</g>
		<g>
			<path fill="#161616" d="M218.397,45.379c2.332-1.397,5.357-0.64,6.755,1.69l3.724,6.201c1.397,2.332,0.645,5.357-1.687,6.755l0,0
				c-2.332,1.403-5.357,0.645-6.76-1.69l-3.724-6.195C215.307,49.801,216.065,46.779,218.397,45.379L218.397,45.379z"/>
		</g>
		<g>
			<path fill="#161616" d="M259.452,56.725c1.403,2.33,0.645,5.357-1.687,6.754l-6.198,3.724c-2.338,1.4-5.358,0.642-6.761-1.684
				l0,0c-1.403-2.332-0.645-5.358,1.693-6.764l6.192-3.723C255.035,53.634,258.049,54.389,259.452,56.725L259.452,56.725z"/>
		</g>
		<g>
			<path fill="#161616" d="M167.617,69.541c0-2.72-2.208-4.925-4.925-4.922l-7.234-0.003c-2.717,0-4.919,2.205-4.919,4.923l0,0
				c-0.006,2.723,2.202,4.925,4.919,4.925l7.234,0.006C165.415,74.464,167.617,72.261,167.617,69.541L167.617,69.541z"/>
		</g>
		<g>
			<path fill="#161616" d="M147.732,37.876c-1.924-1.921-5.044-1.921-6.962,0.003l-5.115,5.109c-1.93,1.927-1.924,5.044-0.006,6.965
				l0,0c1.924,1.927,5.044,1.927,6.967,0l5.115-5.112C149.656,42.914,149.656,39.8,147.732,37.876L147.732,37.876z"/>
		</g>
	</g>
</g>
</svg>
